<svg width="49" height="49" viewBox="0 0 49 49" fill="none" xmlns="http://www.w3.org/2000/svg">
<g clip-path="url(#clip0_4012_203722)">
<path fill-rule="evenodd" clip-rule="evenodd" d="M16.2548 46.7237C6.93459 43.4283 0.257324 34.539 0.257324 24.0902C0.257324 13.6414 6.93459 4.75212 16.2548 1.45673V46.7237Z" fill="black"/>
<path fill-rule="evenodd" clip-rule="evenodd" d="M32.2604 1.45693V46.7235C29.7573 47.6086 27.0635 48.0902 24.2573 48.0902C21.4515 48.0902 18.7582 47.6087 16.2554 46.7239V1.45655C18.7582 0.571694 21.4515 0.09021 24.2573 0.09021C27.0635 0.09021 29.7573 0.571835 32.2604 1.45693Z" fill="#FFD90C"/>
<path fill-rule="evenodd" clip-rule="evenodd" d="M48.2568 23.9261V24.2543C48.1873 34.6322 41.531 43.4459 32.2593 46.7239V1.45654C41.531 4.73452 48.1873 13.5482 48.2568 23.9261Z" fill="#F31830"/>
<path fill-rule="evenodd" clip-rule="evenodd" d="M24.2573 46.6902C36.739 46.6902 46.8573 36.5718 46.8573 24.0902C46.8573 11.6086 36.739 1.49021 24.2573 1.49021C11.7757 1.49021 1.65732 11.6086 1.65732 24.0902C1.65732 36.5718 11.7757 46.6902 24.2573 46.6902ZM24.2573 48.0902C37.5122 48.0902 48.2573 37.345 48.2573 24.0902C48.2573 10.8354 37.5122 0.09021 24.2573 0.09021C11.0025 0.09021 0.257324 10.8354 0.257324 24.0902C0.257324 37.345 11.0025 48.0902 24.2573 48.0902Z" fill="#D9D9D9"/>
</g>
<defs>
<clipPath id="clip0_4012_203722">
<rect x="0.257324" y="0.09021" width="48" height="48" fill="white"/>
</clipPath>
</defs>
</svg>
