<svg width="49" height="49" viewBox="0 0 49 49" fill="none" xmlns="http://www.w3.org/2000/svg">
<g clip-path="url(#clip0_4012_203730)">
<path fill-rule="evenodd" clip-rule="evenodd" d="M48.2339 30.0902C45.5696 40.4416 36.173 48.0902 24.99 48.0902C13.807 48.0902 4.41035 40.4416 1.74609 30.0902H48.2339Z" fill="#D62612"/>
<path fill-rule="evenodd" clip-rule="evenodd" d="M48.2339 18.0902H1.74609C4.41035 7.73885 13.807 0.09021 24.99 0.09021C36.173 0.09021 45.5696 7.73885 48.2339 18.0902Z" fill="white"/>
<path fill-rule="evenodd" clip-rule="evenodd" d="M48.2336 30.0902C48.7272 28.1725 48.9897 26.162 48.9897 24.0902C48.9897 22.0184 48.7272 20.0079 48.2336 18.0902H1.74585C1.25226 20.0079 0.989746 22.0184 0.989746 24.0902C0.989746 26.162 1.25226 28.1725 1.74585 30.0902H48.2336Z" fill="#00966E"/>
<path fill-rule="evenodd" clip-rule="evenodd" d="M24.9897 46.6902C37.4714 46.6902 47.5897 36.5718 47.5897 24.0902C47.5897 11.6086 37.4714 1.49021 24.9897 1.49021C12.5081 1.49021 2.38975 11.6086 2.38975 24.0902C2.38975 36.5718 12.5081 46.6902 24.9897 46.6902ZM24.9897 48.0902C38.2446 48.0902 48.9897 37.345 48.9897 24.0902C48.9897 10.8354 38.2446 0.09021 24.9897 0.09021C11.7349 0.09021 0.989746 10.8354 0.989746 24.0902C0.989746 37.345 11.7349 48.0902 24.9897 48.0902Z" fill="#D9D9D9"/>
</g>
<defs>
<clipPath id="clip0_4012_203730">
<rect x="0.989746" y="0.09021" width="48" height="48" fill="white"/>
</clipPath>
</defs>
</svg>
