<svg width="49" height="49" viewBox="0 0 49 49" fill="none" xmlns="http://www.w3.org/2000/svg">
<g clip-path="url(#clip0_4012_203808)">
<path fill-rule="evenodd" clip-rule="evenodd" d="M24.2573 48.0902C37.5122 48.0902 48.2573 37.345 48.2573 24.0902C48.2573 10.8354 37.5122 0.09021 24.2573 0.09021C11.0025 0.09021 0.257324 10.8354 0.257324 24.0902C0.257324 37.345 11.0025 48.0902 24.2573 48.0902Z" fill="#C8102E"/>
<path fill-rule="evenodd" clip-rule="evenodd" d="M21.0015 0.309204C19.1966 0.553995 17.4555 0.999429 15.8013 1.62231V21.4894H0.396615C0.304554 22.3437 0.257324 23.2114 0.257324 24.0902C0.257324 24.9685 0.3045 25.8357 0.396457 26.6896H15.8013V46.5581C17.4555 47.181 19.1966 47.6264 21.0015 47.8712V26.6896H48.1182C48.2101 25.8357 48.2573 24.9685 48.2573 24.0902C48.2573 23.2114 48.2101 22.3437 48.118 21.4894H21.0015V0.309204Z" fill="white"/>
<path fill-rule="evenodd" clip-rule="evenodd" d="M24.2573 46.6902C36.739 46.6902 46.8573 36.5718 46.8573 24.0902C46.8573 11.6086 36.739 1.49021 24.2573 1.49021C11.7757 1.49021 1.65732 11.6086 1.65732 24.0902C1.65732 36.5718 11.7757 46.6902 24.2573 46.6902ZM24.2573 48.0902C37.5122 48.0902 48.2573 37.345 48.2573 24.0902C48.2573 10.8354 37.5122 0.09021 24.2573 0.09021C11.0025 0.09021 0.257324 10.8354 0.257324 24.0902C0.257324 37.345 11.0025 48.0902 24.2573 48.0902Z" fill="#D9D9D9"/>
</g>
<defs>
<clipPath id="clip0_4012_203808">
<rect x="0.257324" y="0.09021" width="48" height="48" fill="white"/>
</clipPath>
</defs>
</svg>
