<svg width="49" height="49" viewBox="0 0 49 49" fill="none" xmlns="http://www.w3.org/2000/svg">
<g clip-path="url(#clip0_4012_203815)">
<path fill-rule="evenodd" clip-rule="evenodd" d="M24.9897 48.0902C38.2446 48.0902 48.9897 37.345 48.9897 24.0902C48.9897 10.8354 38.2446 0.09021 24.9897 0.09021C11.7349 0.09021 0.989746 10.8354 0.989746 24.0902C0.989746 37.345 11.7349 48.0902 24.9897 48.0902Z" fill="white"/>
<path fill-rule="evenodd" clip-rule="evenodd" d="M48.4866 29.0026C48.8164 27.4169 48.9897 25.7738 48.9897 24.0902C48.9897 22.4066 48.8164 20.7634 48.4865 19.1776H23.97V0.111511C20.4482 0.258724 17.1224 1.16491 14.1521 2.67077L14.1495 19.1776H1.49297C1.16311 20.7634 0.989746 22.4066 0.989746 24.0902C0.989746 25.7738 1.1631 27.4169 1.49293 29.0026H14.148L14.1454 45.5063C17.1174 47.0142 20.4455 47.9216 23.97 48.069V29.0026H48.4866Z" fill="#002F6C"/>
<path fill-rule="evenodd" clip-rule="evenodd" d="M24.9897 46.6902C37.4714 46.6902 47.5897 36.5718 47.5897 24.0902C47.5897 11.6086 37.4714 1.49021 24.9897 1.49021C12.5081 1.49021 2.38975 11.6086 2.38975 24.0902C2.38975 36.5718 12.5081 46.6902 24.9897 46.6902ZM24.9897 48.0902C38.2446 48.0902 48.9897 37.345 48.9897 24.0902C48.9897 10.8354 38.2446 0.09021 24.9897 0.09021C11.7349 0.09021 0.989746 10.8354 0.989746 24.0902C0.989746 37.345 11.7349 48.0902 24.9897 48.0902Z" fill="#D9D9D9"/>
</g>
<defs>
<clipPath id="clip0_4012_203815">
<rect x="0.989746" y="0.09021" width="48" height="48" fill="white"/>
</clipPath>
</defs>
</svg>
