<svg width="49" height="49" viewBox="0 0 49 49" fill="none" xmlns="http://www.w3.org/2000/svg">
<g clip-path="url(#clip0_4012_203822)">
<path fill-rule="evenodd" clip-rule="evenodd" d="M24.7227 48.0902C37.9775 48.0902 48.7227 37.345 48.7227 24.0902C48.7227 10.8354 37.9775 0.09021 24.7227 0.09021C11.4678 0.09021 0.722656 10.8354 0.722656 24.0902C0.722656 37.345 11.4678 48.0902 24.7227 48.0902Z" fill="white"/>
<path fill-rule="evenodd" clip-rule="evenodd" d="M16.7202 46.7237C7.39992 43.4283 0.722656 34.539 0.722656 24.0902C0.722656 13.6414 7.39992 4.75212 16.7202 1.45673V46.7237Z" fill="#002654"/>
<path fill-rule="evenodd" clip-rule="evenodd" d="M48.7226 24.0355V24.1449C48.6993 34.5701 42.0291 43.4341 32.7251 46.7237V1.45673C42.0291 4.74635 48.6993 13.6104 48.7226 24.0355Z" fill="#CE1126"/>
<path fill-rule="evenodd" clip-rule="evenodd" d="M24.7227 46.6902C37.2043 46.6902 47.3227 36.5718 47.3227 24.0902C47.3227 11.6086 37.2043 1.49021 24.7227 1.49021C12.241 1.49021 2.12266 11.6086 2.12266 24.0902C2.12266 36.5718 12.241 46.6902 24.7227 46.6902ZM24.7227 48.0902C37.9775 48.0902 48.7227 37.345 48.7227 24.0902C48.7227 10.8354 37.9775 0.09021 24.7227 0.09021C11.4678 0.09021 0.722656 10.8354 0.722656 24.0902C0.722656 37.345 11.4678 48.0902 24.7227 48.0902Z" fill="#D9D9D9"/>
</g>
<defs>
<clipPath id="clip0_4012_203822">
<rect x="0.722656" y="0.09021" width="48" height="48" fill="white"/>
</clipPath>
</defs>
</svg>
