<svg width="49" height="49" viewBox="0 0 49 49" fill="none" xmlns="http://www.w3.org/2000/svg">
<g clip-path="url(#clip0_4012_203846)">
<path fill-rule="evenodd" clip-rule="evenodd" d="M43.7533 10.0902H4.76172C9.11843 4.03394 16.2274 0.09021 24.2575 0.09021C32.2876 0.09021 39.3966 4.03394 43.7533 10.0902Z" fill="#0D5EAF"/>
<path fill-rule="evenodd" clip-rule="evenodd" d="M46.0821 14.0928H2.43213C3.08105 12.6784 3.86341 11.3381 4.76308 10.0878H43.7512C44.6509 11.3381 45.4332 12.6784 46.0821 14.0928Z" fill="white"/>
<path fill-rule="evenodd" clip-rule="evenodd" d="M47.5014 18.0902H1.01367C1.3701 16.7053 1.84703 15.3689 2.4326 14.0927H46.0825C46.6681 15.3689 47.145 16.7053 47.5014 18.0902Z" fill="#0D5EAF"/>
<path fill-rule="evenodd" clip-rule="evenodd" d="M48.1751 22.0877H0.339844C0.452867 20.7194 0.680667 19.3837 1.01359 18.0902H47.5014C47.8343 19.3837 48.0621 20.7194 48.1751 22.0877Z" fill="white"/>
<path fill-rule="evenodd" clip-rule="evenodd" d="M0.339678 26.0927C0.285137 25.4324 0.257324 24.7646 0.257324 24.0902C0.257324 16.9221 3.39985 10.4879 8.38238 6.09021H20.2598V26.0927H0.339678Z" fill="#0D5EAF"/>
<path fill-rule="evenodd" clip-rule="evenodd" d="M0.257324 22.0878H48.2573V26.0928H0.257324V22.0878Z" fill="#0D5EAF"/>
<path fill-rule="evenodd" clip-rule="evenodd" d="M1.01358 30.0902C0.680661 28.7966 0.452863 27.4609 0.339844 26.0927H48.1751C48.0621 27.4609 47.8343 28.7966 47.5014 30.0902H1.01358Z" fill="white"/>
<path fill-rule="evenodd" clip-rule="evenodd" d="M2.43259 34.0877C1.84702 32.8115 1.3701 31.475 1.01367 30.0902H47.5015C47.145 31.475 46.6681 32.8115 46.0825 34.0877H2.43259Z" fill="#0D5EAF"/>
<path fill-rule="evenodd" clip-rule="evenodd" d="M4.7636 38.0928C3.86392 36.8425 3.08155 35.5021 2.43262 34.0878H46.0825C45.4336 35.5021 44.6512 36.8425 43.7515 38.0928H4.7636Z" fill="white"/>
<path fill-rule="evenodd" clip-rule="evenodd" d="M8.25999 6.19917C8.30074 6.16271 8.34161 6.12639 8.38261 6.09021H12.2575V14.0927H20.2601V18.0902H12.2575V26.0927H8.25999V18.0902H1.01367C1.3701 16.7053 1.84703 15.3689 2.4326 14.0927H8.25999V6.19917Z" fill="white"/>
<path fill-rule="evenodd" clip-rule="evenodd" d="M43.7533 38.0902C39.3966 44.1465 32.2876 48.0902 24.2575 48.0902C16.2274 48.0902 9.11843 44.1465 4.76172 38.0902H43.7533Z" fill="#0D5EAF"/>
<path fill-rule="evenodd" clip-rule="evenodd" d="M24.2573 46.6902C36.739 46.6902 46.8573 36.5718 46.8573 24.0902C46.8573 11.6086 36.739 1.49021 24.2573 1.49021C11.7757 1.49021 1.65732 11.6086 1.65732 24.0902C1.65732 36.5718 11.7757 46.6902 24.2573 46.6902ZM24.2573 48.0902C37.5122 48.0902 48.2573 37.345 48.2573 24.0902C48.2573 10.8354 37.5122 0.09021 24.2573 0.09021C11.0025 0.09021 0.257324 10.8354 0.257324 24.0902C0.257324 37.345 11.0025 48.0902 24.2573 48.0902Z" fill="#D9D9D9"/>
</g>
<defs>
<clipPath id="clip0_4012_203846">
<rect x="0.257324" y="0.09021" width="48" height="48" fill="white"/>
</clipPath>
</defs>
</svg>
