<svg width="49" height="49" viewBox="0 0 49 49" fill="none" xmlns="http://www.w3.org/2000/svg">
<g clip-path="url(#clip0_4012_203870)">
<path fill-rule="evenodd" clip-rule="evenodd" d="M24.7227 48.0902C37.9775 48.0902 48.7227 37.345 48.7227 24.0902C48.7227 10.8354 37.9775 0.09021 24.7227 0.09021C11.4678 0.09021 0.722656 10.8354 0.722656 24.0902C0.722656 37.345 11.4678 48.0902 24.7227 48.0902Z" fill="#003897"/>
<path fill-rule="evenodd" clip-rule="evenodd" d="M48.3912 28.0877C48.6092 26.7876 48.7227 25.4522 48.7227 24.0902C48.7227 22.7282 48.6092 21.3927 48.3912 20.0927H22.7202V0.172546C19.887 0.40657 17.1935 1.13268 14.7252 2.26521V20.0927H1.05407C0.836106 21.3927 0.722656 22.7282 0.722656 24.0902C0.722656 25.4522 0.836106 26.7876 1.05407 28.0877H14.7252V45.9152C17.1935 47.0477 19.887 47.7738 22.7202 48.0078V28.0877H48.3912Z" fill="white"/>
<path fill-rule="evenodd" clip-rule="evenodd" d="M48.6403 26.0927C48.6948 25.4324 48.7227 24.7646 48.7227 24.0902C48.7227 23.4159 48.6948 22.748 48.6403 22.0877H20.7252V0.421631C19.3468 0.652729 18.0082 1.00132 16.7202 1.45675V22.0877H0.80501C0.750469 22.748 0.722656 23.4159 0.722656 24.0902C0.722656 24.7646 0.750469 25.4324 0.80501 26.0927H16.7202V46.7237C18.0082 47.1791 19.3468 47.5277 20.7252 47.7588V26.0927H48.6403Z" fill="#D72828"/>
<path fill-rule="evenodd" clip-rule="evenodd" d="M24.7227 46.6902C37.2043 46.6902 47.3227 36.5718 47.3227 24.0902C47.3227 11.6086 37.2043 1.49021 24.7227 1.49021C12.241 1.49021 2.12266 11.6086 2.12266 24.0902C2.12266 36.5718 12.241 46.6902 24.7227 46.6902ZM24.7227 48.0902C37.9775 48.0902 48.7227 37.345 48.7227 24.0902C48.7227 10.8354 37.9775 0.09021 24.7227 0.09021C11.4678 0.09021 0.722656 10.8354 0.722656 24.0902C0.722656 37.345 11.4678 48.0902 24.7227 48.0902Z" fill="#D9D9D9"/>
</g>
<defs>
<clipPath id="clip0_4012_203870">
<rect x="0.722656" y="0.09021" width="48" height="48" fill="white"/>
</clipPath>
</defs>
</svg>
