<svg width="49" height="49" viewBox="0 0 49 49" fill="none" xmlns="http://www.w3.org/2000/svg">
<g clip-path="url(#clip0_4012_203881)">
<path fill-rule="evenodd" clip-rule="evenodd" d="M24.2573 48.0902C37.5122 48.0902 48.2573 37.345 48.2573 24.0902C48.2573 10.8354 37.5122 0.09021 24.2573 0.09021C11.0025 0.09021 0.257324 10.8354 0.257324 24.0902C0.257324 37.345 11.0025 48.0902 24.2573 48.0902Z" fill="white"/>
<path fill-rule="evenodd" clip-rule="evenodd" d="M16.2548 46.7237C6.93459 43.4283 0.257324 34.539 0.257324 24.0902C0.257324 13.6414 6.93459 4.75212 16.2548 1.45673V46.7237Z" fill="#009246"/>
<path fill-rule="evenodd" clip-rule="evenodd" d="M48.2573 24.0355V24.1449C48.234 34.5701 41.5638 43.4341 32.2598 46.7237V1.45673C41.5638 4.74635 48.234 13.6104 48.2573 24.0355Z" fill="#CE2B37"/>
<path fill-rule="evenodd" clip-rule="evenodd" d="M24.2573 46.6902C36.739 46.6902 46.8573 36.5718 46.8573 24.0902C46.8573 11.6086 36.739 1.49021 24.2573 1.49021C11.7757 1.49021 1.65732 11.6086 1.65732 24.0902C1.65732 36.5718 11.7757 46.6902 24.2573 46.6902ZM24.2573 48.0902C37.5122 48.0902 48.2573 37.345 48.2573 24.0902C48.2573 10.8354 37.5122 0.09021 24.2573 0.09021C11.0025 0.09021 0.257324 10.8354 0.257324 24.0902C0.257324 37.345 11.0025 48.0902 24.2573 48.0902Z" fill="#D9D9D9"/>
</g>
<defs>
<clipPath id="clip0_4012_203881">
<rect x="0.257324" y="0.09021" width="48" height="48" fill="white"/>
</clipPath>
</defs>
</svg>
