<svg width="49" height="49" viewBox="0 0 49 49" fill="none" xmlns="http://www.w3.org/2000/svg">
<g clip-path="url(#clip0_4012_204169)">
<path fill-rule="evenodd" clip-rule="evenodd" d="M24.2573 48.0902C37.5122 48.0902 48.2573 37.345 48.2573 24.0902C48.2573 10.8354 37.5122 0.09021 24.2573 0.09021C11.0025 0.09021 0.257324 10.8354 0.257324 24.0902C0.257324 37.345 11.0025 48.0902 24.2573 48.0902Z" fill="#ED2939"/>
<path fill-rule="evenodd" clip-rule="evenodd" d="M47.8361 28.5902C48.1126 27.1326 48.2573 25.6283 48.2573 24.0902C48.2573 22.5521 48.1126 21.0478 47.8361 19.5902H22.7573V0.136322C19.5455 0.334385 16.5046 1.16415 13.7573 2.50291V19.5902H0.678512C0.402009 21.0478 0.257324 22.5521 0.257324 24.0902C0.257324 25.6283 0.402009 27.1326 0.678512 28.5902H13.7573V45.6775C16.5046 47.0163 19.5455 47.846 22.7573 48.0441V28.5902H47.8361Z" fill="white"/>
<path fill-rule="evenodd" clip-rule="evenodd" d="M48.1532 26.3402C48.2221 25.5995 48.2573 24.849 48.2573 24.0902C48.2573 23.3315 48.2221 22.581 48.1532 21.8402H20.5073V0.38147C18.9528 0.625392 17.4477 1.01854 16.0073 1.5458V21.8402H0.361405C0.292533 22.581 0.257324 23.3315 0.257324 24.0902C0.257324 24.849 0.292533 25.5995 0.361405 26.3402H16.0073V46.6346C17.4477 47.1619 18.9528 47.555 20.5073 47.799V26.3402H48.1532Z" fill="#002664"/>
<path fill-rule="evenodd" clip-rule="evenodd" d="M24.2573 46.6902C36.739 46.6902 46.8573 36.5718 46.8573 24.0902C46.8573 11.6086 36.739 1.49021 24.2573 1.49021C11.7757 1.49021 1.65732 11.6086 1.65732 24.0902C1.65732 36.5718 11.7757 46.6902 24.2573 46.6902ZM24.2573 48.0902C37.5122 48.0902 48.2573 37.345 48.2573 24.0902C48.2573 10.8354 37.5122 0.09021 24.2573 0.09021C11.0025 0.09021 0.257324 10.8354 0.257324 24.0902C0.257324 37.345 11.0025 48.0902 24.2573 48.0902Z" fill="#D9D9D9"/>
</g>
<defs>
<clipPath id="clip0_4012_204169">
<rect x="0.257324" y="0.09021" width="48" height="48" fill="white"/>
</clipPath>
</defs>
</svg>
