<svg width="49" height="49" viewBox="0 0 49 49" fill="none" xmlns="http://www.w3.org/2000/svg">
<g clip-path="url(#clip0_4012_205661)">
<path fill-rule="evenodd" clip-rule="evenodd" d="M24.9897 48.0902C38.2446 48.0902 48.9897 37.345 48.9897 24.0902C48.9897 16.9221 45.8472 10.4879 40.8647 6.09021H9.1148C4.13228 10.4879 0.989746 16.9221 0.989746 24.0902C0.989746 37.345 11.7349 48.0902 24.9897 48.0902Z" fill="#EE1C25"/>
<path fill-rule="evenodd" clip-rule="evenodd" d="M48.2336 30.0902C48.7272 28.1725 48.9897 26.162 48.9897 24.0902C48.9897 16.9221 45.8472 10.4879 40.8647 6.09021H9.1148C4.13228 10.4879 0.989746 16.9221 0.989746 24.0902C0.989746 26.162 1.25226 28.1725 1.74585 30.0902H48.2336Z" fill="#0B4EA2"/>
<path fill-rule="evenodd" clip-rule="evenodd" d="M48.2339 18.0902H1.74609C4.41035 7.73885 13.807 0.09021 24.99 0.09021C36.173 0.09021 45.5696 7.73885 48.2339 18.0902Z" fill="white"/>
<path d="M18.4646 33.9002C15.2396 32.3477 10.6196 29.2577 10.6196 23.1602C10.6196 17.0552 10.9196 14.2802 10.9196 14.2802H26.0171C26.0171 14.2802 26.3096 17.0552 26.3096 23.1602C26.3096 29.2652 21.6896 32.3402 18.4646 33.9002Z" fill="white"/>
<path d="M18.4646 33.0902C15.5021 31.6652 11.2646 28.8302 11.2646 23.2352C11.2646 17.6402 11.5346 15.0902 11.5346 15.0902H25.3946C25.3946 15.0902 25.6571 17.6402 25.6571 23.2352C25.6646 28.8377 21.4271 31.6652 18.4646 33.0902Z" fill="#EE1C25"/>
<path d="M19.0946 21.7652C19.8971 21.7802 21.4646 21.8102 22.8521 21.3452C22.8521 21.3452 22.8221 21.8477 22.8221 22.4252C22.8221 23.0027 22.8596 23.5052 22.8596 23.5052C21.5846 23.0777 20.0021 23.0702 19.0946 23.0777V26.1677H17.8346V23.0777C16.9346 23.0702 15.3521 23.0777 14.0771 23.5052C14.0771 23.5052 14.1146 23.0027 14.1146 22.4252C14.1146 21.8402 14.0771 21.3452 14.0771 21.3452C15.4646 21.8102 17.0321 21.7802 17.8271 21.7652V19.8227C17.0996 19.8227 16.0496 19.8527 14.8571 20.2502C14.8571 20.2502 14.8946 19.7552 14.8946 19.1702C14.8946 18.5927 14.8571 18.0902 14.8571 18.0902C16.0496 18.4877 17.0996 18.5252 17.8271 18.5177C17.7896 17.2877 17.4296 15.7427 17.4296 15.7427C17.4296 15.7427 18.1721 15.7952 18.4646 15.7952C18.7646 15.7952 19.4996 15.7427 19.4996 15.7427C19.4996 15.7427 19.1396 17.2877 19.1021 18.5177C19.8296 18.5252 20.8796 18.4877 22.0721 18.0902C22.0721 18.0902 22.0346 18.5927 22.0346 19.1702C22.0346 19.7552 22.0721 20.2502 22.0721 20.2502C21.111 19.9403 20.1042 19.7957 19.0946 19.8227V21.7727V21.7652Z" fill="white"/>
<path d="M18.4648 25.8377C16.9723 25.8377 16.1773 27.9002 16.1773 27.9002C16.1773 27.9002 15.7273 26.9252 14.5123 26.9252C13.6873 26.9252 13.0873 27.6527 12.6973 28.3352C14.1973 30.7127 16.5898 32.1827 18.4648 33.0902C20.3398 32.1902 22.7398 30.7127 24.2323 28.3352C23.8423 27.6602 23.2423 26.9252 22.4173 26.9252C21.2023 26.9252 20.7523 27.9002 20.7523 27.9002C20.7523 27.9002 19.9648 25.8377 18.4648 25.8377Z" fill="#0B4EA2"/>
<path fill-rule="evenodd" clip-rule="evenodd" d="M24.9897 46.6902C37.4714 46.6902 47.5897 36.5718 47.5897 24.0902C47.5897 11.6086 37.4714 1.49021 24.9897 1.49021C12.5081 1.49021 2.38975 11.6086 2.38975 24.0902C2.38975 36.5718 12.5081 46.6902 24.9897 46.6902ZM24.9897 48.0902C38.2446 48.0902 48.9897 37.345 48.9897 24.0902C48.9897 10.8354 38.2446 0.09021 24.9897 0.09021C11.7349 0.09021 0.989746 10.8354 0.989746 24.0902C0.989746 37.345 11.7349 48.0902 24.9897 48.0902Z" fill="#D9D9D9"/>
</g>
<defs>
<clipPath id="clip0_4012_205661">
<rect x="0.989746" y="0.09021" width="48" height="48" fill="white"/>
</clipPath>
</defs>
</svg>
