<svg width="49" height="49" viewBox="0 0 49 49" fill="none" xmlns="http://www.w3.org/2000/svg">
<g clip-path="url(#clip0_4012_209615)">
<path fill-rule="evenodd" clip-rule="evenodd" d="M24.5249 48.0902C37.7797 48.0902 48.5249 37.345 48.5249 24.0902C48.5249 10.8354 37.7797 0.09021 24.5249 0.09021C11.2701 0.09021 0.524902 10.8354 0.524902 24.0902C0.524902 37.345 11.2701 48.0902 24.5249 48.0902Z" fill="#005293"/>
<path fill-rule="evenodd" clip-rule="evenodd" d="M48.2567 27.6902C48.4333 26.5159 48.5249 25.3138 48.5249 24.0902C48.5249 22.8667 48.4333 21.6645 48.2567 20.4902H20.9249V0.358414C18.3709 0.742596 15.9487 1.52924 13.7249 2.65171V20.4902H0.793103C0.616462 21.6645 0.524902 22.8667 0.524902 24.0902C0.524902 25.3138 0.616462 26.5159 0.793103 27.6902H13.7249V45.5287C15.9487 46.6512 18.3709 47.4378 20.9249 47.822V27.6902H48.2567Z" fill="#FECB00"/>
<path fill-rule="evenodd" clip-rule="evenodd" d="M24.5249 46.6902C37.0065 46.6902 47.1249 36.5718 47.1249 24.0902C47.1249 11.6086 37.0065 1.49021 24.5249 1.49021C12.0433 1.49021 1.9249 11.6086 1.9249 24.0902C1.9249 36.5718 12.0433 46.6902 24.5249 46.6902ZM24.5249 48.0902C37.7797 48.0902 48.5249 37.345 48.5249 24.0902C48.5249 10.8354 37.7797 0.09021 24.5249 0.09021C11.2701 0.09021 0.524902 10.8354 0.524902 24.0902C0.524902 37.345 11.2701 48.0902 24.5249 48.0902Z" fill="#D9D9D9"/>
</g>
<defs>
<clipPath id="clip0_4012_209615">
<rect x="0.524902" y="0.09021" width="48" height="48" fill="white"/>
</clipPath>
</defs>
</svg>
