<svg width="49" height="49" viewBox="0 0 49 49" fill="none" xmlns="http://www.w3.org/2000/svg">
<g clip-path="url(#clip0_4012_209622)">
<path fill-rule="evenodd" clip-rule="evenodd" d="M24.2549 48.0902C37.5097 48.0902 48.2549 37.345 48.2549 24.0902C48.2549 10.8354 37.5097 0.09021 24.2549 0.09021C11 0.09021 0.254883 10.8354 0.254883 24.0902C0.254883 37.345 11 48.0902 24.2549 48.0902Z" fill="#FF0000"/>
<path fill-rule="evenodd" clip-rule="evenodd" d="M13.0049 20.7152H35.5049V27.4652H13.0049V20.7152Z" fill="white"/>
<path fill-rule="evenodd" clip-rule="evenodd" d="M20.8799 12.8402H27.6299V35.3402H20.8799V12.8402Z" fill="white"/>
<path fill-rule="evenodd" clip-rule="evenodd" d="M24.2549 46.6902C36.7365 46.6902 46.8549 36.5718 46.8549 24.0902C46.8549 11.6086 36.7365 1.49021 24.2549 1.49021C11.7732 1.49021 1.65488 11.6086 1.65488 24.0902C1.65488 36.5718 11.7732 46.6902 24.2549 46.6902ZM24.2549 48.0902C37.5097 48.0902 48.2549 37.345 48.2549 24.0902C48.2549 10.8354 37.5097 0.09021 24.2549 0.09021C11 0.09021 0.254883 10.8354 0.254883 24.0902C0.254883 37.345 11 48.0902 24.2549 48.0902Z" fill="#D9D9D9"/>
</g>
<defs>
<clipPath id="clip0_4012_209622">
<rect x="0.254883" y="0.09021" width="48" height="48" fill="white"/>
</clipPath>
</defs>
</svg>
