<svg width="49" height="49" viewBox="0 0 49 49" fill="none" xmlns="http://www.w3.org/2000/svg">
<g clip-path="url(#clip0_4012_209630)">
<path fill-rule="evenodd" clip-rule="evenodd" d="M24.9849 48.0902C38.2397 48.0902 48.9849 37.345 48.9849 24.0902C48.9849 10.8354 38.2397 0.09021 24.9849 0.09021C11.73 0.09021 0.984863 10.8354 0.984863 24.0902C0.984863 37.345 11.73 48.0902 24.9849 48.0902Z" fill="#012169"/>
<path fill-rule="evenodd" clip-rule="evenodd" d="M46.1841 12.829L30.9847 24.1652L46.1509 35.4135C44.9989 37.5624 43.5292 39.5155 41.8046 41.2101L24.9847 28.6652L8.19508 41.2398C6.47007 39.5508 4.99882 37.6036 3.84387 35.4608L18.9097 24.2402L3.72949 12.9345C4.85965 10.7856 6.30612 8.82906 8.00701 7.12676L24.9097 19.6652L41.8685 7.03334C43.582 8.72961 45.0413 10.6823 46.1841 12.829Z" fill="white"/>
<path fill-rule="evenodd" clip-rule="evenodd" d="M42.7452 7.94789C43.2965 8.55401 43.8171 9.18846 44.3047 9.8488L30.3098 20.4152L30.4598 17.1152L42.7452 7.94789ZM4.37793 11.7803C4.81949 11.0427 5.29953 10.3308 5.81527 9.64738L18.9098 19.2902H14.4098L4.37793 11.7803ZM44.1494 38.5395C44.6359 37.8953 45.0906 37.2258 45.5113 36.5333L32.7848 27.1652H28.6598L44.1494 38.5395ZM7.34136 40.3603L19.4348 31.2902L18.9848 28.6652L5.79329 38.5039C6.27835 39.1487 6.79514 39.7683 7.34136 40.3603Z" fill="#C8102E"/>
<path fill-rule="evenodd" clip-rule="evenodd" d="M48.2288 30.0902C48.7223 28.1725 48.9849 26.162 48.9849 24.0902C48.9849 22.0184 48.7223 20.0079 48.2288 18.0902H31.0599V0.865749C29.1196 0.359622 27.0837 0.09021 24.9849 0.09021C22.9401 0.09021 20.955 0.345932 19.0599 0.827141V18.0902H1.74097C1.24738 20.0079 0.984863 22.0184 0.984863 24.0902C0.984863 26.162 1.24738 28.1725 1.74097 30.0902H19.0599V47.3533C20.955 47.8345 22.9401 48.0902 24.9849 48.0902C27.0837 48.0902 29.1196 47.8208 31.0599 47.3147V30.0902H48.2288Z" fill="white"/>
<path fill-rule="evenodd" clip-rule="evenodd" d="M48.7053 27.7652C48.8894 26.5671 48.9849 25.3398 48.9849 24.0902C48.9849 22.8927 48.8972 21.7157 48.7278 20.5652H28.8462L28.9826 0.421667C27.6825 0.203675 26.3469 0.09021 24.9849 0.09021C23.8994 0.09021 22.8307 0.162273 21.7834 0.301875L21.6462 20.5652H1.2419C1.07257 21.7157 0.984863 22.8927 0.984863 24.0902C0.984863 25.3398 1.08036 26.5671 1.26447 27.7652H21.5975L21.4616 47.8334C22.6115 48.0026 23.788 48.0902 24.9849 48.0902C26.2351 48.0902 27.4631 47.9946 28.6618 47.8103L28.7975 27.7652H48.7053Z" fill="#C8102E"/>
<path fill-rule="evenodd" clip-rule="evenodd" d="M24.9849 46.6902C37.4665 46.6902 47.5849 36.5718 47.5849 24.0902C47.5849 11.6086 37.4665 1.49021 24.9849 1.49021C12.5032 1.49021 2.38486 11.6086 2.38486 24.0902C2.38486 36.5718 12.5032 46.6902 24.9849 46.6902ZM24.9849 48.0902C38.2397 48.0902 48.9849 37.345 48.9849 24.0902C48.9849 10.8354 38.2397 0.09021 24.9849 0.09021C11.73 0.09021 0.984863 10.8354 0.984863 24.0902C0.984863 37.345 11.73 48.0902 24.9849 48.0902Z" fill="#D9D9D9"/>
</g>
<defs>
<clipPath id="clip0_4012_209630">
<rect x="0.984863" y="0.09021" width="48" height="48" fill="white"/>
</clipPath>
</defs>
</svg>
