<svg width="49" height="49" viewBox="0 0 49 49" fill="none" xmlns="http://www.w3.org/2000/svg">
<g clip-path="url(#clip0_4012_213498)">
<path fill-rule="evenodd" clip-rule="evenodd" d="M47.769 30.0902C45.1048 40.4416 35.7082 48.0902 24.5251 48.0902C13.3421 48.0902 3.94551 40.4416 1.28125 30.0902H47.769Z" fill="black"/>
<path fill-rule="evenodd" clip-rule="evenodd" d="M47.7688 30.0902C48.2624 28.1725 48.5249 26.162 48.5249 24.0902C48.5249 22.0184 48.2624 20.0079 47.7688 18.0902H1.28101C0.78742 20.0079 0.524902 22.0184 0.524902 24.0902C0.524902 26.162 0.78742 28.1725 1.28101 30.0902H47.7688Z" fill="white"/>
<path fill-rule="evenodd" clip-rule="evenodd" d="M47.769 18.0902H1.28125C3.94551 7.73885 13.3421 0.09021 24.5251 0.09021C35.7082 0.09021 45.1048 7.73885 47.769 18.0902Z" fill="#CE1126"/>
<path d="M24.5718 24.2309L28.6812 28.0512L28.3921 21.1215C28.3452 20.0668 27.4312 20.309 26.7671 20.6918C26.103 21.1215 25.3296 21.1215 24.5249 20.8402C23.7124 21.1215 22.9468 21.1215 22.2827 20.6918C21.6187 20.309 20.7046 20.0668 20.6577 21.1215L20.3687 28.0512L24.5718 24.2309Z" fill="white"/>
<path fill-rule="evenodd" clip-rule="evenodd" d="M21.2358 20.3287C21.5655 20.3043 21.9687 20.4658 22.3021 20.658L22.3039 20.659L22.3038 20.659C22.9546 21.0801 23.7068 21.0821 24.5121 20.8034L24.5412 20.7933L24.5377 20.8034C25.3351 21.0821 26.095 21.0801 26.7458 20.659L26.7475 20.658L26.7475 20.658C27.081 20.4658 27.4842 20.3043 27.8138 20.3287C27.9804 20.341 28.1304 20.4009 28.2413 20.5302C28.3516 20.6587 28.419 20.8509 28.431 21.1197L28.431 21.1198L28.7201 28.0495C28.7207 28.0653 28.7118 28.08 28.6974 28.0866C28.683 28.0932 28.6661 28.0905 28.6545 28.0797L24.5714 24.2838L20.3948 28.08C20.3832 28.0906 20.3663 28.0932 20.3521 28.0865C20.3378 28.0798 20.329 28.0653 20.3296 28.0495L20.6187 21.1198L20.6187 21.1197C20.6306 20.8509 20.6981 20.6587 20.8084 20.5302C20.9192 20.4009 21.0693 20.341 21.2358 20.3287ZM20.6966 21.1231C20.6966 21.1232 20.6966 21.1232 20.6966 21.1232L20.4114 27.9595L24.5455 24.202C24.5605 24.1884 24.5834 24.1885 24.5983 24.2023L28.6382 27.958L28.3531 21.1232C28.3416 20.8647 28.2772 20.6917 28.1821 20.581C28.0877 20.4709 27.9589 20.4176 27.8081 20.4065C27.5032 20.3839 27.1178 20.5347 26.7874 20.7251C26.1138 21.1605 25.3319 21.1607 24.5248 20.8815C23.7101 21.1607 22.9359 21.1605 22.2623 20.7251C21.9319 20.5347 21.5464 20.3839 21.2416 20.4065C21.0907 20.4176 20.962 20.4709 20.8675 20.581C20.7725 20.6917 20.7081 20.8647 20.6966 21.1231Z" fill="#C09300"/>
<path d="M21.1343 20.8793L20.8452 27.6215L20.3687 28.0511L20.6577 21.1215C20.8062 21.0121 20.9624 20.934 21.1343 20.8793ZM21.7124 21.3636L21.4702 26.9965L20.9937 27.4886L21.2827 20.9808C21.3765 21.0746 21.6577 21.309 21.7124 21.3636ZM22.2358 21.7933L22.0483 26.4965L21.6577 26.8715L21.8999 21.5121C21.9937 21.598 22.1812 21.7386 22.2358 21.7933ZM22.8062 22.0355L22.6187 26.0433L22.2358 26.348L22.4233 21.8871C22.5171 21.934 22.7046 22.0355 22.8062 22.0355ZM23.3296 22.0355L23.1968 25.3715L22.8062 25.7543L22.9546 22.0746C23.0405 22.0746 23.2905 22.0746 23.3296 22.0355Z" fill="#C09300"/>
<path d="M27.9155 20.8793L28.2046 27.6215L28.6812 28.0511L28.3921 21.1215C28.2437 21.0121 28.0874 20.934 27.9155 20.8793ZM27.3374 21.3636L27.5796 26.9965L28.0562 27.4886L27.7671 20.9808C27.6733 21.0746 27.3921 21.309 27.3374 21.3636ZM26.814 21.7933L27.0015 26.4965L27.3921 26.8715L27.1499 21.5121C27.0562 21.598 26.8687 21.7386 26.814 21.7933ZM26.2437 22.0355L26.4312 26.0433L26.814 26.348L26.6265 21.8871C26.5327 21.934 26.3452 22.0355 26.2437 22.0355ZM25.7202 22.0355L25.853 25.3715L26.2437 25.7543L26.0952 22.0746C26.0093 22.0746 25.7593 22.0746 25.7202 22.0355Z" fill="#C09300"/>
<path d="M24.7202 24.9886L25.2905 27.6215L25.103 27.809L24.8999 27.6605L24.5796 25.3168L24.7202 27.6605L24.5249 27.9027L24.3374 27.6605L24.478 25.3168L24.1499 27.6605L23.9468 27.809L23.7593 27.6215L24.3296 24.9965H24.7202V24.9886Z" fill="#C09300"/>
<path fill-rule="evenodd" clip-rule="evenodd" d="M24.3029 24.9635H24.7202V24.9851L24.7524 24.9817L25.3265 27.6321L25.1063 27.8523L24.8527 27.667L24.8671 27.665L24.6645 26.1824L24.7549 27.6885L24.7458 27.6812L24.5243 27.9559L24.2936 27.6579L24.3044 27.6586L24.3951 26.1465L24.1778 27.6988L24.1693 27.6872L23.9434 27.8523L23.7231 27.6321L24.3029 24.9635ZM24.6952 25.0295H24.3561L23.7953 27.6109L23.9501 27.7657L24.1191 27.6421L24.4453 25.3122L24.5109 25.3188L24.371 27.6501L24.5254 27.8495L24.6864 27.6498L24.5466 25.3188L24.6122 25.3123L24.9306 27.6422L25.0996 27.7657L25.2544 27.6109L24.6952 25.0295Z" fill="#C09300"/>
<path d="M23.2358 23.8402L22.0874 27.9027L23.6655 28.1371L24.3296 25.0824L23.2358 23.8402Z" fill="white"/>
<path fill-rule="evenodd" clip-rule="evenodd" d="M23.2277 23.8051C23.2406 23.8022 23.254 23.8065 23.2627 23.8164L24.3565 25.0586C24.364 25.0672 24.3671 25.0789 24.3646 25.09L23.7006 28.1447C23.6965 28.1632 23.6789 28.1755 23.6601 28.1727L22.082 27.9383C22.0717 27.9368 22.0627 27.9309 22.057 27.9222C22.0514 27.9136 22.0498 27.9029 22.0526 27.8929L23.2011 23.8304C23.2047 23.8177 23.2149 23.808 23.2277 23.8051ZM23.2524 23.9136L22.133 27.8731L23.6374 28.0965L24.2904 25.0925L23.2524 23.9136Z" fill="#C09300"/>
<path fill-rule="evenodd" clip-rule="evenodd" d="M23.7629 24.8841L23.0207 25.5873C23.0114 25.596 22.9985 25.5997 22.986 25.5971C22.9735 25.5946 22.963 25.586 22.958 25.5743L22.8174 25.2462L22.8891 25.2155L23.0077 25.4922L23.7092 24.8275L23.7629 24.8841Z" fill="#C09300"/>
<path fill-rule="evenodd" clip-rule="evenodd" d="M23.4939 25.8522L23.3376 24.3912L23.4152 24.3829L23.5609 25.7454L23.9702 25.1996L24.0326 25.2464L23.8584 25.4787L24.0508 26.1495L24.1408 26.014L24.2058 26.0571L24.0791 26.248L24.1092 26.3529L24.0342 26.3744L24.0225 26.3334L23.6855 26.8413L23.852 27.6132L23.7758 27.6297L23.6237 26.9246L23.3154 27.4005C23.3072 27.4131 23.2925 27.4199 23.2776 27.4179C23.2627 27.416 23.2502 27.4056 23.2456 27.3913L23.0842 26.8938L22.7847 27.384C22.7766 27.3972 22.7614 27.4044 22.746 27.4023C22.7306 27.4001 22.7179 27.389 22.7138 27.374L22.4638 26.4678C22.4601 26.4544 22.4638 26.4402 22.4734 26.4303L22.9656 25.9224C22.9753 25.9124 22.9898 25.9083 23.0033 25.9118C23.0169 25.9153 23.0276 25.9258 23.0312 25.9394L23.1588 26.4094L23.4703 25.9964C23.4796 25.984 23.4954 25.9783 23.5105 25.982C23.5256 25.9856 23.5371 25.9979 23.5398 26.0132L23.6652 26.7308L23.9942 26.2349L23.7997 25.557L23.5639 25.8714C23.5542 25.8842 23.5378 25.8899 23.5223 25.8856C23.5069 25.8814 23.4956 25.8681 23.4939 25.8522ZM23.601 26.8162L23.4784 26.1151L23.1732 26.5199C23.1642 26.5318 23.1493 26.5376 23.1346 26.5348C23.12 26.5319 23.1083 26.521 23.1044 26.5067L22.9739 26.0259L22.5449 26.4685L22.7651 27.2665L23.0619 26.7808C23.0698 26.7678 23.0846 26.7606 23.0997 26.7624C23.1148 26.7642 23.1276 26.7746 23.1322 26.7891L23.2945 27.2893L23.601 26.8162Z" fill="#C09300"/>
<path fill-rule="evenodd" clip-rule="evenodd" d="M22.7501 27.3252C22.7648 27.3277 22.7768 27.3383 22.781 27.3526L22.9589 27.9547L23.2023 27.5468C23.2101 27.5336 23.2249 27.5263 23.2401 27.528C23.2553 27.5297 23.2681 27.5402 23.2729 27.5547L23.4604 28.1329L23.3862 28.1569L23.2252 27.6606L22.9802 28.0711C22.9723 28.0844 22.9572 28.0918 22.9418 28.0898C22.9265 28.0879 22.9137 28.0771 22.9093 28.0622L22.7287 27.4511L22.4549 27.8317L22.3916 27.7862L22.7119 27.3409C22.7206 27.3288 22.7354 27.3227 22.7501 27.3252Z" fill="#C09300"/>
<path d="M25.814 23.8402L26.9624 27.9027L25.3843 28.1371L24.7202 25.0824L25.814 23.8402Z" fill="white"/>
<path fill-rule="evenodd" clip-rule="evenodd" d="M25.8218 23.8051C25.8347 23.808 25.8449 23.8177 25.8485 23.8304L26.9969 27.8929C26.9997 27.9029 26.9981 27.9136 26.9925 27.9222C26.9869 27.9309 26.9778 27.9368 26.9676 27.9383L25.3894 28.1727C25.3707 28.1755 25.353 28.1632 25.349 28.1447L24.6849 25.09C24.6825 25.0789 24.6855 25.0672 24.6931 25.0586L25.7868 23.8164C25.7955 23.8065 25.8089 23.8022 25.8218 23.8051ZM24.7591 25.0925L25.4122 28.0965L26.9165 27.8731L25.7972 23.9136L24.7591 25.0925Z" fill="#C09300"/>
<path fill-rule="evenodd" clip-rule="evenodd" d="M26.0423 25.4922L25.3408 24.8275L25.2871 24.8841L26.0293 25.5873C26.0386 25.596 26.0515 25.5997 26.064 25.5971C26.0765 25.5946 26.0869 25.586 26.092 25.5743L26.2326 25.2462L26.1609 25.2155L26.0423 25.4922Z" fill="#C09300"/>
<path fill-rule="evenodd" clip-rule="evenodd" d="M25.4886 25.7454L25.6343 24.3829L25.7119 24.3912L25.5557 25.8522C25.5539 25.8681 25.5427 25.8814 25.5272 25.8856C25.5118 25.8899 25.4953 25.8842 25.4857 25.8714L25.2499 25.557L25.0553 26.2349L25.3843 26.7308L25.5097 26.0132C25.5124 25.9979 25.5239 25.9856 25.539 25.982C25.5541 25.9783 25.5699 25.984 25.5793 25.9964L25.8907 26.4094L26.0183 25.9394C26.022 25.9258 26.0326 25.9153 26.0462 25.9118C26.0598 25.9083 26.0742 25.9124 26.0839 25.9224L26.5761 26.4303C26.5857 26.4402 26.5894 26.4544 26.5857 26.4678L26.3357 27.374C26.3316 27.389 26.3189 27.4001 26.3036 27.4023C26.2882 27.4044 26.273 27.3972 26.2648 27.384L25.9653 26.8938L25.804 27.3913C25.7993 27.4056 25.7869 27.416 25.772 27.4179C25.757 27.4199 25.7423 27.4131 25.7341 27.4005L25.4258 26.9246L25.2737 27.6297L25.1975 27.6132L25.364 26.8413L25.0271 26.3334L25.0153 26.3744L24.9403 26.3529L24.9704 26.248L24.8438 26.0571L24.9087 26.014L24.9987 26.1495L25.1912 25.4787L25.0169 25.2464L25.0793 25.1996L25.4886 25.7454ZM25.4486 26.8162L25.7551 27.2893L25.9173 26.7891C25.922 26.7746 25.9347 26.7642 25.9498 26.7624C25.9649 26.7606 25.9797 26.7678 25.9877 26.7808L26.2845 27.2665L26.5046 26.4685L26.0756 26.0259L25.9451 26.5067C25.9412 26.521 25.9295 26.5319 25.9149 26.5348C25.9003 26.5376 25.8853 26.5318 25.8764 26.5199L25.5711 26.1151L25.4486 26.8162Z" fill="#C09300"/>
<path fill-rule="evenodd" clip-rule="evenodd" d="M26.2996 27.3252C26.3143 27.3227 26.3291 27.3288 26.3378 27.3409L26.6581 27.7862L26.5948 27.8317L26.321 27.4511L26.1404 28.0622C26.136 28.0771 26.1233 28.0879 26.1079 28.0898C26.0925 28.0918 26.0775 28.0844 26.0695 28.0711L25.8245 27.6606L25.6636 28.1569L25.5894 28.1329L25.7769 27.5547C25.7816 27.5402 25.7944 27.5297 25.8096 27.528C25.8248 27.5263 25.8396 27.5336 25.8474 27.5468L26.0909 27.9547L26.2687 27.3526C26.273 27.3383 26.2849 27.3277 26.2996 27.3252Z" fill="#C09300"/>
<path d="M24.5249 29.7152C25.728 29.7152 26.8687 29.6214 27.5405 29.4339C27.8218 29.3792 27.8218 29.2386 27.8218 29.0433C28.103 28.9496 27.9624 28.6136 28.1577 28.6136C27.9546 28.6761 27.9233 28.2855 27.6812 28.3324C27.6812 27.9964 27.3374 27.9574 27.0562 28.0511C26.4858 28.2386 25.478 28.2855 24.5249 28.2855C23.564 28.2386 22.5718 28.2386 21.9937 28.0433C21.7124 27.9574 21.3765 27.9964 21.3765 28.3324C21.1343 28.2855 21.0952 28.6683 20.8921 28.6136C21.0952 28.6136 20.9468 28.9574 21.228 29.0433C21.228 29.2386 21.228 29.3792 21.5171 29.4339C22.1812 29.6214 23.3296 29.7152 24.5249 29.7152Z" fill="white"/>
<path fill-rule="evenodd" clip-rule="evenodd" d="M21.5562 27.9616C21.695 27.9138 21.8661 27.9291 22.0147 27.9745L22.0167 27.9751L22.0167 27.9751C22.2962 28.0696 22.6807 28.118 23.1207 28.1483C23.3971 28.1673 23.6913 28.1789 23.9917 28.1907C24.1687 28.1977 24.3477 28.2048 24.5267 28.2135C25.0017 28.2135 25.4892 28.2018 25.9284 28.1669C26.3692 28.1318 26.7569 28.0737 27.0337 27.9827L27.0562 28.0511L27.0334 27.9828C27.1827 27.9331 27.3558 27.9157 27.4967 27.9623C27.5684 27.986 27.6338 28.027 27.6809 28.0907C27.7155 28.1374 27.7382 28.1934 27.7478 28.2579C27.7951 28.2631 27.8361 28.2815 27.8714 28.307C27.9217 28.3434 27.9607 28.3947 27.9915 28.4355L27.9925 28.4367C28.026 28.4811 28.0499 28.5128 28.0755 28.5324C28.0865 28.5408 28.0963 28.546 28.1068 28.5477C28.123 28.5436 28.1401 28.5416 28.1577 28.5416C28.1933 28.5416 28.2236 28.5677 28.2289 28.6029C28.2342 28.6382 28.2129 28.672 28.1789 28.6825C28.1633 28.6873 28.1482 28.6902 28.1337 28.6916C28.1315 28.6935 28.1285 28.6969 28.125 28.7031C28.1141 28.7223 28.1075 28.7485 28.097 28.7904C28.0953 28.7969 28.0936 28.8038 28.0917 28.8111C28.0794 28.8596 28.0622 28.9207 28.0256 28.9762C27.9953 29.0223 27.953 29.0626 27.8937 29.0916C27.893 29.1706 27.8877 29.2543 27.8503 29.3251C27.801 29.4181 27.7067 29.4745 27.5571 29.5041C26.8751 29.6938 25.7277 29.7872 24.5249 29.7872C23.3302 29.7872 22.1751 29.6939 21.5005 29.5041C21.3479 29.4747 21.2515 29.4187 21.2009 29.3258C21.1624 29.255 21.1569 29.1714 21.1561 29.0927C21.097 29.065 21.055 29.0252 21.0251 28.9792C20.989 28.9236 20.9726 28.8619 20.9608 28.8132C20.9593 28.8071 20.9579 28.8012 20.9566 28.7956C20.946 28.7516 20.9394 28.7241 20.9281 28.7042C20.9233 28.6958 20.9194 28.6923 20.9166 28.6905C20.9165 28.6905 20.9164 28.6904 20.9162 28.6903C20.9135 28.6887 20.907 28.6856 20.8921 28.6856V28.6136L20.9108 28.5441C20.9209 28.5468 20.9299 28.5476 20.9386 28.5465C20.9509 28.5448 20.9626 28.539 20.9757 28.5289C21.002 28.5089 21.0265 28.4778 21.0599 28.4354C21.0609 28.4341 21.062 28.4327 21.0631 28.4314C21.095 28.3909 21.1351 28.3406 21.1861 28.3051C21.2217 28.2804 21.2627 28.2627 21.3097 28.2578C21.3192 28.1936 21.3412 28.1379 21.375 28.0912C21.4212 28.0274 21.4854 27.9859 21.5562 27.9616ZM27.991 28.6491C27.9899 28.6482 27.9888 28.6474 27.9878 28.6466C27.9462 28.6146 27.9114 28.5684 27.8831 28.5308C27.8809 28.5279 27.8787 28.5251 27.8766 28.5223C27.844 28.4791 27.8171 28.4454 27.787 28.4237C27.7607 28.4046 27.7332 28.3956 27.6948 28.4031C27.6737 28.4072 27.6519 28.4016 27.6353 28.3879C27.6188 28.3742 27.6092 28.3539 27.6092 28.3324C27.6092 28.2611 27.5911 28.2114 27.5652 28.1764C27.5391 28.1412 27.5009 28.1153 27.4515 28.099C27.3503 28.0655 27.2109 28.0754 27.0789 28.1194L27.0786 28.1195C26.7851 28.216 26.3837 28.2751 25.9398 28.3104C25.4948 28.3458 25.0024 28.3575 24.5249 28.3575H24.5214L24.5214 28.3574C24.345 28.3488 24.1666 28.3418 23.9895 28.3348C23.6873 28.3228 23.3889 28.311 23.1108 28.2919C22.6704 28.2616 22.2701 28.2125 21.9716 28.1119C21.8393 28.0716 21.7022 28.0636 21.603 28.0977C21.5546 28.1144 21.5172 28.1403 21.4917 28.1756C21.4662 28.2108 21.4485 28.2607 21.4485 28.3324C21.4485 28.3539 21.4389 28.3742 21.4223 28.3879C21.4057 28.4016 21.3839 28.4072 21.3628 28.4031C21.3239 28.3955 21.2955 28.4044 21.2683 28.4234C21.2375 28.4448 21.2097 28.478 21.1762 28.5205C21.1738 28.5235 21.1714 28.5266 21.1689 28.5298C21.1398 28.5668 21.1045 28.6118 21.0631 28.6434C21.062 28.6442 21.061 28.645 21.06 28.6458C21.078 28.6827 21.0883 28.7266 21.0968 28.7626C21.0981 28.7684 21.0994 28.774 21.1007 28.7793C21.1124 28.8273 21.1243 28.8676 21.1458 28.9007C21.1656 28.9311 21.1952 28.958 21.2491 28.9745C21.2793 28.9837 21.3 29.0117 21.3 29.0433C21.3 29.1467 21.3018 29.2099 21.3274 29.257C21.3488 29.2962 21.3959 29.3378 21.5305 29.3632L21.5367 29.3644L21.5367 29.3647C22.1907 29.5493 23.3308 29.6432 24.5249 29.6432C25.7267 29.6432 26.8592 29.5493 27.5212 29.3646L27.5267 29.363L27.5268 29.3633C27.6568 29.338 27.7022 29.2969 27.723 29.2577C27.7481 29.2103 27.7498 29.1466 27.7498 29.0433C27.7498 29.0123 27.7696 28.9848 27.799 28.975C27.8536 28.9568 27.8846 28.9285 27.9053 28.897C27.9276 28.8632 27.9402 28.8227 27.9522 28.7755C27.9536 28.7699 27.9551 28.7639 27.9566 28.7578C27.9649 28.7241 27.9749 28.6837 27.991 28.6491Z" fill="#C09300"/>
<path d="M22.9 27.9027C23.2828 27.9574 23.7125 27.9965 24.0484 27.9574C24.2437 27.9574 24.3844 28.2855 23.9937 28.3324C23.6656 28.3715 23.1422 28.3324 22.8531 28.2855C22.4859 28.223 22.1187 28.1371 21.7516 28.0434C21.4156 27.9027 21.6578 27.6215 21.8453 27.6605C22.1891 27.7699 22.5406 27.848 22.9 27.9027ZM26.15 27.9027C25.7672 27.9574 25.3375 27.9965 25.0094 27.9574C24.8062 27.9574 24.6656 28.2855 25.0562 28.3324C25.3922 28.3715 25.9078 28.3324 26.1969 28.2855C26.4312 28.2387 26.9625 28.1449 27.2984 28.0434C27.6344 27.9027 27.3922 27.6215 27.2047 27.6605C26.8609 27.7699 26.5094 27.848 26.15 27.9027Z" fill="white"/>
<path fill-rule="evenodd" clip-rule="evenodd" d="M21.764 28.0063C21.687 27.9736 21.6492 27.9355 21.6333 27.902C21.6177 27.8691 21.6204 27.8348 21.6369 27.8022C21.6538 27.7688 21.6848 27.7384 21.7224 27.7186C21.7594 27.6991 21.7997 27.6915 21.8355 27.6984C22.1808 27.8081 22.5337 27.8865 22.8941 27.9413L22.8941 27.9413L22.8944 27.9413C23.2768 27.996 23.7096 28.0357 24.0505 27.9964C24.1266 27.9976 24.1936 28.0634 24.202 28.1321C24.206 28.1644 24.1969 28.1975 24.1674 28.226M23.989 28.2937C23.666 28.3322 23.1467 28.2936 22.8594 28.2471C22.4948 28.185 22.1297 28.0996 21.764 28.0063M21.6861 27.6496C21.7361 27.6233 21.7956 27.6104 21.8532 27.6224L21.8571 27.6232L21.8571 27.6234C22.1986 27.732 22.548 27.8097 22.9056 27.8642C23.2879 27.9188 23.7133 27.9571 24.0439 27.9187L24.0484 27.9182V27.9184C24.1667 27.9184 24.2665 28.0162 24.2795 28.1226C24.2863 28.1782 24.2695 28.2359 24.2216 28.2821C24.1747 28.3274 24.101 28.3588 23.9983 28.3711L23.9983 28.3712C23.6651 28.4108 23.1377 28.3712 22.8468 28.324L22.8465 28.324L22.8465 28.324C22.4778 28.2612 22.1095 28.175 21.7418 28.0812L21.7363 28.0797L21.7364 28.0793C21.6472 28.042 21.59 27.9927 21.5628 27.9354C21.5352 27.8773 21.5418 27.8174 21.5673 27.767C21.5924 27.7173 21.6361 27.6759 21.6861 27.6496ZM27.487 27.9354C27.4599 27.9927 27.4027 28.042 27.3134 28.0793L27.3097 28.0809L27.3097 28.0807C27.0329 28.1643 26.6251 28.2427 26.3585 28.2939C26.2991 28.3053 26.2468 28.3153 26.2045 28.3238L26.2031 28.3241L26.203 28.324C25.9121 28.3712 25.3926 28.4108 25.0517 28.3712L25.0515 28.3711C24.9489 28.3588 24.8752 28.3274 24.8284 28.2821C24.7805 28.2358 24.764 28.1779 24.7714 28.1222C24.7857 28.0152 24.8879 27.9184 25.0093 27.9184H25.014L25.0139 27.9187C25.3366 27.9571 25.7619 27.9188 26.1442 27.8642C26.5018 27.8097 26.8513 27.732 27.1928 27.6234L27.1966 27.6222L27.1967 27.6224C27.2542 27.6104 27.3138 27.6233 27.3638 27.6496C27.4138 27.6759 27.4575 27.7173 27.4826 27.767C27.5081 27.8174 27.5147 27.8773 27.487 27.9354ZM27.2144 27.6984C26.8691 27.8081 26.5162 27.8865 26.1558 27.9413L26.1554 27.9413C25.7732 27.996 25.3403 28.0357 25.0071 27.9964C24.9264 27.9976 24.8578 28.0643 24.8487 28.1325C24.8445 28.1647 24.8533 28.1976 24.8826 28.226C24.913 28.2554 24.9682 28.2826 25.0608 28.2937L25.0562 28.3324L25.0607 28.2937C25.3914 28.3321 25.9025 28.2937 26.1899 28.2472C26.2332 28.2385 26.2862 28.2283 26.346 28.2168C26.6123 28.1657 27.0129 28.0887 27.2851 28.0066C27.3626 27.9738 27.4006 27.9356 27.4166 27.902C27.4322 27.8691 27.4295 27.8348 27.413 27.8022C27.3961 27.7688 27.3651 27.7384 27.3274 27.7186C27.2905 27.6991 27.2501 27.6915 27.2144 27.6984Z" fill="#C09300"/>
<path d="M21.7046 27.7152C21.4155 27.6605 21.2827 27.9964 21.3764 28.1917C21.4155 28.0902 21.6186 28.0902 21.6577 27.9964C21.7124 27.8558 21.6186 27.8558 21.7124 27.7152H21.7046ZM22.853 28.598C22.853 28.4027 23.0405 28.4261 23.0405 28.2386C23.0405 28.1449 22.9936 27.9964 22.8999 27.9964C22.8452 27.9964 22.7983 28.0199 22.7671 28.0589C22.728 28.0902 22.7124 28.137 22.7046 28.1917C22.6655 28.3714 22.853 28.4027 22.853 28.598ZM24.2202 28.0511C24.5014 28.0511 24.4702 28.4261 24.3374 28.6214C24.3374 28.4808 24.0952 28.4261 24.0952 28.3324C24.0952 28.1917 24.3139 28.1917 24.2202 28.0511ZM27.3374 27.7152C27.6342 27.6605 27.7671 27.9964 27.6733 28.1917C27.6342 28.0902 27.4311 28.0902 27.3921 27.9964C27.3374 27.8558 27.4311 27.8558 27.3374 27.7152ZM26.2046 28.5902C26.2046 28.3949 26.0092 28.4183 26.0092 28.2308C26.0092 28.137 26.0639 27.9886 26.1577 27.9886C26.2046 27.9964 26.2514 28.012 26.2905 28.0511C26.3217 28.0824 26.3452 28.1292 26.3452 28.1839C26.3921 28.3714 26.1967 28.3949 26.1967 28.5902H26.2046ZM24.8217 28.0511C24.5405 28.0511 24.5717 28.4261 24.7046 28.6214C24.7046 28.4808 24.9467 28.4261 24.9467 28.3324C24.9467 28.1917 24.728 28.1917 24.8217 28.0511Z" fill="white"/>
<path fill-rule="evenodd" clip-rule="evenodd" d="M21.7081 27.6762C21.5462 27.6471 21.4268 27.7279 21.363 27.8404C21.3 27.9515 21.2881 28.0978 21.3412 28.2086C21.348 28.2226 21.3624 28.2313 21.3779 28.2307C21.3935 28.2301 21.4072 28.2203 21.4128 28.2057C21.4183 28.1914 21.4305 28.1781 21.452 28.1646C21.4738 28.151 21.5008 28.1397 21.5316 28.1273C21.5333 28.1266 21.535 28.1259 21.5368 28.1252C21.5648 28.1139 21.5959 28.1014 21.6224 28.0858C21.6507 28.0692 21.6791 28.0462 21.6936 28.0114L21.6936 28.0114L21.694 28.0105C21.7091 27.9717 21.7146 27.9407 21.7151 27.9136C21.7154 27.8925 21.7125 27.8737 21.7103 27.8595C21.7098 27.8562 21.7093 27.8532 21.7089 27.8504C21.7068 27.8351 21.7062 27.823 21.7098 27.8077C21.7137 27.7917 21.7229 27.7696 21.7448 27.7368C21.7527 27.7248 21.7535 27.7094 21.7467 27.6968C21.7399 27.6841 21.7267 27.6762 21.7123 27.6762H21.7081ZM21.6486 27.7483C21.5483 27.7463 21.4748 27.8013 21.4308 27.8789C21.3905 27.9499 21.3768 28.037 21.3912 28.112C21.3975 28.1071 21.404 28.1026 21.4106 28.0985C21.4392 28.0806 21.4727 28.067 21.5024 28.055C21.5034 28.0546 21.5045 28.0541 21.5055 28.0537C21.5354 28.0417 21.5616 28.0311 21.5829 28.0186C21.6047 28.0058 21.6163 27.9938 21.6215 27.9818M27.401 27.7482C27.4078 27.7629 27.4125 27.7765 27.4156 27.7896C27.4225 27.8183 27.4207 27.8413 27.4179 27.8612C27.4173 27.8658 27.4166 27.8701 27.416 27.8741C27.414 27.8876 27.4123 27.8984 27.4126 27.9123M27.401 27.7482C27.5013 27.7486 27.5742 27.8034 27.618 27.8792C27.6589 27.95 27.6728 28.0371 27.6584 28.112C27.6521 28.1071 27.6456 28.1026 27.639 28.0985C27.6105 28.0806 27.577 28.067 27.5472 28.055L27.5441 28.0537C27.5142 28.0417 27.4881 28.0311 27.4667 28.0186C27.4449 28.0058 27.4333 27.9938 27.4282 27.9818M27.6855 27.8402C27.7497 27.9514 27.7616 28.0978 27.7084 28.2086C27.7017 28.2226 27.6872 28.2313 27.6717 28.2307C27.6561 28.2301 27.6424 28.2203 27.6368 28.2057C27.6313 28.1914 27.6191 28.1781 27.5976 28.1646C27.5759 28.151 27.5488 28.1397 27.518 28.1273L27.5129 28.1252C27.4848 28.1139 27.4537 28.1014 27.4272 28.0858C27.3989 28.0692 27.3705 28.0462 27.356 28.0114L27.3556 28.0106L27.3556 28.0105C27.3405 27.9717 27.335 27.9407 27.3346 27.9136C27.3342 27.8925 27.3371 27.8737 27.3393 27.8595C27.3398 27.8562 27.3403 27.8532 27.3407 27.8504C27.3428 27.8351 27.3434 27.823 27.3398 27.8077C27.336 27.7917 27.3268 27.7696 27.3049 27.7368C27.2976 27.7259 27.2963 27.712 27.3014 27.7C27.3065 27.6879 27.3173 27.6792 27.3302 27.6768C27.4973 27.646 27.62 27.7265 27.6855 27.8402ZM26.0828 28.0925C26.0604 28.1357 26.0482 28.1901 26.0482 28.2308C26.0482 28.2701 26.0582 28.2961 26.0721 28.3168C26.0869 28.3389 26.1071 28.3563 26.1323 28.378L26.1325 28.3782C26.1531 28.3959 26.177 28.4165 26.1972 28.4432C26.2135 28.4149 26.2327 28.3911 26.25 28.3697C26.2527 28.3663 26.2554 28.363 26.258 28.3597C26.2795 28.3329 26.2958 28.3106 26.3051 28.2855C26.3139 28.2617 26.3172 28.2332 26.3073 28.1934L26.3049 28.1839H26.3061C26.3061 28.1405 26.2875 28.1033 26.2629 28.0787C26.2327 28.0485 26.1961 28.035 26.1548 28.0277C26.1313 28.0292 26.1054 28.0491 26.0828 28.0925ZM26.2401 28.545C26.2509 28.4932 26.2798 28.4572 26.3124 28.4166C26.3146 28.4139 26.3168 28.4112 26.3189 28.4085C26.3404 28.3816 26.3642 28.3507 26.3783 28.3126C26.3925 28.2742 26.3962 28.231 26.3841 28.179C26.3827 28.1151 26.3549 28.0604 26.318 28.0235C26.2709 27.9765 26.2151 27.9586 26.164 27.9501L26.1641 27.9496H26.1576C26.0881 27.9496 26.0409 28.0041 26.0136 28.0565C25.9853 28.111 25.9702 28.1777 25.9702 28.2308C25.9702 28.2853 25.9846 28.3266 26.0073 28.3603C26.0283 28.3915 26.0556 28.415 26.0787 28.4348L26.0814 28.4371C26.1063 28.4585 26.1264 28.4764 26.1413 28.4992C26.1496 28.512 26.1566 28.527 26.1609 28.5457C26.1588 28.5597 26.1577 28.5745 26.1577 28.5902C26.1577 28.6117 26.1751 28.6292 26.1967 28.6292H26.2045C26.226 28.6292 26.2435 28.6117 26.2435 28.5902C26.2435 28.5741 26.2423 28.5591 26.2401 28.545ZM22.7393 28.0312C22.778 27.9848 22.8349 27.9574 22.8998 27.9574C22.9701 27.9574 23.0152 28.0129 23.0404 28.0655C23.0666 28.1201 23.0794 28.1865 23.0794 28.2386C23.0794 28.2927 23.0657 28.3338 23.0439 28.3675C23.0238 28.3987 22.9975 28.4222 22.9753 28.4421C22.9744 28.4429 22.9736 28.4436 22.9727 28.4444C22.9489 28.4658 22.9296 28.4836 22.9153 28.5064C22.9018 28.5281 22.8919 28.556 22.8919 28.598C22.8919 28.6195 22.8745 28.637 22.8529 28.637C22.8314 28.637 22.8139 28.6195 22.8139 28.598C22.8139 28.5178 22.7782 28.4713 22.7372 28.4181C22.7359 28.4163 22.7345 28.4145 22.7331 28.4127C22.7123 28.3856 22.6892 28.3547 22.6748 28.3176C22.6601 28.2795 22.6551 28.2365 22.6661 28.1848C22.6742 28.1289 22.6913 28.0715 22.7393 28.0312ZM22.8563 28.4544C22.8395 28.4229 22.8192 28.3967 22.801 28.373C22.799 28.3704 22.797 28.3678 22.795 28.3652C22.7739 28.3377 22.7574 28.3149 22.7476 28.2895C22.7383 28.2655 22.7344 28.2376 22.7426 28.2L22.7427 28.2L22.7431 28.1972C22.7505 28.1455 22.7641 28.1111 22.7914 28.0894L22.792 28.0901L22.7975 28.0833C22.8212 28.0535 22.8569 28.0354 22.8998 28.0354C22.9233 28.0354 22.9485 28.0542 22.9701 28.0992C22.9908 28.1423 23.0014 28.197 23.0014 28.2386C23.0014 28.2782 22.9918 28.3045 22.9784 28.3252C22.9641 28.3473 22.9449 28.3646 22.9207 28.3863L22.9204 28.3865C22.9 28.4048 22.876 28.4263 22.8563 28.4544ZM24.1857 28.0327C24.1925 28.02 24.2057 28.0121 24.2201 28.0121C24.2999 28.0121 24.3618 28.0391 24.4047 28.0866C24.4467 28.133 24.467 28.1951 24.4728 28.2595C24.4845 28.3874 24.4406 28.5389 24.3696 28.6433C24.3599 28.6575 24.3422 28.6637 24.3258 28.6587C24.3095 28.6536 24.2983 28.6385 24.2983 28.6214C24.2983 28.5985 24.2887 28.5774 24.2699 28.5556C24.2506 28.5331 24.2238 28.5125 24.1936 28.4911C24.1881 28.4872 24.1824 28.4832 24.1766 28.4791C24.1525 28.4623 24.1269 28.4444 24.1068 28.4262C24.0824 28.4042 24.0561 28.3733 24.0561 28.3323C24.0561 28.2493 24.1163 28.2022 24.1552 28.1717C24.1598 28.1681 24.1642 28.1647 24.1681 28.1615C24.1899 28.1437 24.1998 28.1324 24.2031 28.1223C24.2053 28.1158 24.2073 28.1021 24.1877 28.0727C24.1797 28.0608 24.179 28.0454 24.1857 28.0327ZM24.2814 28.0983C24.3095 28.1067 24.3307 28.1211 24.3468 28.1389C24.3739 28.1689 24.3903 28.2128 24.3952 28.2665C24.4026 28.3485 24.3826 28.4449 24.3457 28.5264C24.3405 28.5187 24.3349 28.5115 24.329 28.5047C24.3029 28.4744 24.2692 28.4491 24.2388 28.4275C24.232 28.4227 24.2255 28.4181 24.2192 28.4137C24.1956 28.3972 24.1753 28.3829 24.1591 28.3683C24.1381 28.3494 24.1341 28.3383 24.1341 28.3323C24.1341 28.2893 24.162 28.2668 24.2038 28.233C24.2082 28.2294 24.2128 28.2258 24.2175 28.2219C24.2386 28.2046 24.2659 28.1808 24.2771 28.1469C24.2824 28.131 24.2837 28.1148 24.2814 28.0983ZM24.6371 28.0866C24.6801 28.0391 24.7419 28.0121 24.8217 28.0121C24.8361 28.0121 24.8493 28.02 24.8561 28.0327C24.8629 28.0454 24.8621 28.0608 24.8541 28.0727C24.8346 28.1021 24.8365 28.1158 24.8387 28.1223C24.842 28.1324 24.8519 28.1437 24.8737 28.1615C24.8776 28.1647 24.882 28.1681 24.8866 28.1717C24.9255 28.2022 24.9857 28.2493 24.9857 28.3323C24.9857 28.3733 24.9594 28.4042 24.935 28.4262C24.9149 28.4444 24.8893 28.4623 24.8652 28.4791C24.8594 28.4832 24.8537 28.4872 24.8482 28.4911C24.818 28.5125 24.7912 28.5331 24.7719 28.5556C24.7531 28.5774 24.7435 28.5985 24.7435 28.6214C24.7435 28.6385 24.7323 28.6536 24.716 28.6587C24.6996 28.6637 24.6819 28.6575 24.6722 28.6433C24.6012 28.5389 24.5573 28.3874 24.569 28.2595C24.5748 28.1951 24.5951 28.133 24.6371 28.0866ZM24.6961 28.5264C24.6592 28.4449 24.6392 28.3485 24.6467 28.2665C24.6515 28.2128 24.6679 28.1689 24.695 28.1389C24.7111 28.1211 24.7323 28.1067 24.7604 28.0983C24.7581 28.1148 24.7594 28.131 24.7647 28.1469C24.7759 28.1808 24.8032 28.2046 24.8243 28.2219C24.829 28.2258 24.8336 28.2294 24.838 28.233C24.8798 28.2668 24.9077 28.2893 24.9077 28.3323C24.9077 28.3383 24.9037 28.3494 24.8827 28.3683C24.8666 28.3829 24.8462 28.3972 24.8226 28.4137C24.8163 28.4181 24.8098 28.4227 24.803 28.4275C24.7726 28.4491 24.7389 28.4744 24.7128 28.5047C24.7069 28.5115 24.7013 28.5187 24.6961 28.5264Z" fill="#C09300"/>
<path d="M21.8062 27.809C21.8999 27.809 22.0483 27.8558 22.0874 27.9027L21.8062 27.809ZM22.2827 27.9574C22.3296 27.9574 22.5171 27.9965 22.6108 28.0511L22.2827 27.9574ZM23.9937 28.1449C23.9077 28.1449 23.7124 28.1449 23.6655 28.1918L23.9937 28.1371V28.1449ZM23.478 28.1449C23.4233 28.0902 23.2358 28.0902 23.1421 28.1449H23.478ZM27.2437 27.809C27.1421 27.809 27.0405 27.848 26.9624 27.9027L27.2437 27.809ZM26.7749 27.9574C26.7124 27.9574 26.5327 27.9965 26.439 28.0511L26.7749 27.9574ZM25.0562 28.1449C25.1421 28.1449 25.3374 28.1449 25.3921 28.1918L25.0562 28.1371V28.1449ZM25.5718 28.1449C25.6265 28.0902 25.814 28.0902 25.9077 28.1449H25.5718Z" fill="white"/>
<path fill-rule="evenodd" clip-rule="evenodd" d="M21.7796 27.8046C21.7818 27.7916 21.7931 27.782 21.8063 27.782C21.8569 27.782 21.9203 27.7944 21.9758 27.8126C22.0037 27.8217 22.0304 27.8325 22.0529 27.8444C22.0749 27.856 22.0952 27.8697 22.1083 27.8854C22.116 27.8947 22.1167 27.908 22.1099 27.9179C22.103 27.9279 22.0905 27.9321 22.079 27.9283L21.7978 27.8346C21.7852 27.8304 21.7775 27.8177 21.7796 27.8046ZM26.9471 27.8806C27.0288 27.8234 27.1357 27.782 27.2438 27.782C27.257 27.782 27.2683 27.7916 27.2705 27.8046C27.2726 27.8177 27.2649 27.8304 27.2523 27.8346L26.9711 27.9283C26.9584 27.9326 26.9445 27.9268 26.9384 27.9148C26.9324 27.9029 26.9361 27.8883 26.9471 27.8806ZM22.2561 27.9536C22.258 27.9403 22.2694 27.9304 22.2829 27.9304C22.31 27.9304 22.3714 27.941 22.4361 27.9576C22.5011 27.9744 22.5744 27.9985 22.6246 28.0278C22.6363 28.0347 22.6412 28.0492 22.6358 28.0617C22.6305 28.0743 22.6167 28.0808 22.6036 28.0771L22.2754 27.9833C22.2625 27.9797 22.2543 27.967 22.2561 27.9536ZM26.6121 27.9576C26.6771 27.9408 26.7403 27.9304 26.775 27.9304C26.7885 27.9304 26.8 27.9404 26.8018 27.9537C26.8036 27.9671 26.7953 27.9798 26.7823 27.9834L26.4464 28.0771C26.4333 28.0808 26.4195 28.0742 26.4142 28.0617C26.409 28.0491 26.4138 28.0347 26.4255 28.0278C26.4756 27.9986 26.5468 27.9744 26.6121 27.9576ZM23.4225 28.088C23.4513 28.0953 23.4787 28.1072 23.4973 28.1258C23.505 28.1335 23.5073 28.1451 23.5031 28.1552C23.4989 28.1653 23.4891 28.1719 23.4782 28.1719H23.1422C23.13 28.1719 23.1194 28.1637 23.1162 28.1519C23.113 28.1402 23.1181 28.1277 23.1286 28.1216C23.1811 28.0909 23.2567 28.0769 23.3249 28.0769C23.3593 28.0769 23.3931 28.0805 23.4225 28.088ZM25.7252 28.0769C25.7934 28.0769 25.869 28.0909 25.9215 28.1216C25.932 28.1277 25.9371 28.1402 25.9339 28.1519C25.9307 28.1637 25.9201 28.1719 25.9079 28.1719H25.5719C25.561 28.1719 25.5512 28.1653 25.547 28.1552C25.5428 28.1451 25.5451 28.1335 25.5528 28.1258C25.5714 28.1072 25.5988 28.0953 25.6276 28.088C25.657 28.0805 25.6908 28.0769 25.7252 28.0769ZM24.0113 28.1165C24.0173 28.1216 24.0208 28.1291 24.0208 28.1371V28.1449C24.0208 28.1598 24.0087 28.1719 23.9938 28.1719C23.9807 28.1719 23.9652 28.1719 23.9482 28.1721L23.6701 28.2184C23.6585 28.2203 23.647 28.2146 23.6417 28.2041C23.6363 28.1937 23.6383 28.181 23.6466 28.1727C23.6638 28.1554 23.691 28.1453 23.7181 28.1385C23.7462 28.1314 23.7793 28.1268 23.8127 28.1239C23.8575 28.1198 23.9045 28.1185 23.9434 28.1181L23.9894 28.1104C23.9972 28.1091 24.0052 28.1113 24.0113 28.1165ZM25.0388 28.1165C25.0448 28.1114 25.0528 28.1092 25.0606 28.1104L25.1078 28.1181C25.1466 28.1186 25.1933 28.1199 25.2384 28.1239C25.2722 28.1268 25.3059 28.1314 25.3351 28.1384C25.3634 28.1452 25.3911 28.1552 25.4098 28.1713C25.419 28.1791 25.4218 28.1922 25.4167 28.2031C25.4116 28.2141 25.3998 28.2204 25.3879 28.2184L25.1032 28.1721C25.0856 28.1719 25.0697 28.1719 25.0563 28.1719C25.0414 28.1719 25.0293 28.1598 25.0293 28.1449V28.1371C25.0293 28.1292 25.0328 28.1216 25.0388 28.1165Z" fill="#C09300"/>
<path d="M21.7199 28.5668C21.6965 28.559 21.673 28.5277 21.6887 28.5043C21.6965 28.4652 21.7199 28.4496 21.7433 28.4574C21.7668 28.4574 21.798 28.4965 21.798 28.5043L21.7746 28.5511H21.7668C21.7668 28.5668 21.7433 28.5668 21.7199 28.5668ZM25.0246 28.8011C25.009 28.8011 24.9855 28.7699 24.9855 28.7621C24.9855 28.7308 25.0246 28.6996 25.048 28.6996L25.0949 28.723C25.1105 28.7386 25.1105 28.7777 25.0871 28.7933C25.0793 28.809 25.0402 28.809 25.0246 28.7933V28.8011ZM25.0402 28.9496C25.0168 28.9418 25.009 28.9261 25.0012 28.9027C25.0012 28.8715 25.0012 28.8636 25.0324 28.848L25.0558 28.8324L25.0793 28.848C25.1027 28.8636 25.1262 28.8715 25.1262 28.8949C25.1262 28.9105 25.1027 28.934 25.0793 28.9418C25.0637 28.9574 25.0558 28.9574 25.0402 28.9418V28.9496Z" fill="#C09300"/>
<path d="M21.9937 28.2933C21.9702 28.2933 21.939 28.3168 21.9233 28.3246C21.8843 28.3324 21.8374 28.3558 21.7983 28.3246C21.7671 28.3168 21.7202 28.3246 21.7124 28.3715C21.7202 28.4183 21.7671 28.434 21.8062 28.4105C21.8296 28.3793 21.8999 28.3558 21.9077 28.4105C21.8765 28.4574 21.8843 28.5121 21.8608 28.5511C21.8608 28.5824 21.8452 28.6058 21.8296 28.6293C21.7983 28.6293 21.7671 28.6293 21.7437 28.6527C21.728 28.6527 21.7124 28.6527 21.6968 28.6605C21.6733 28.6683 21.6655 28.684 21.6499 28.6996C21.6265 28.7308 21.603 28.7699 21.5952 28.8168C21.603 28.8558 21.6577 28.8636 21.6968 28.8715L21.814 28.9105L22.0015 28.9652C22.103 28.9886 22.1968 29.0043 22.2905 29.0277L22.3218 29.0355C22.3687 29.0433 22.3843 29.0043 22.3843 28.973L22.4468 28.7621C22.4546 28.7308 22.4702 28.6683 22.4155 28.684C22.3921 28.6996 22.3608 28.7308 22.3218 28.7308C22.2671 28.7308 22.2983 28.7855 22.3218 28.809C22.3218 28.8402 22.314 28.8871 22.2905 28.9105C22.2593 28.934 22.2202 28.9105 22.1812 28.9027C22.1577 28.9027 22.0796 28.8871 22.1108 28.8402L22.1421 28.7308C22.1577 28.6996 22.1577 28.6527 22.1733 28.6136C22.1499 28.5746 22.1108 28.6293 22.0796 28.6371C22.0562 28.6527 21.9858 28.6527 22.0249 28.6996C22.0562 28.723 22.0327 28.7621 22.0249 28.8011C22.0249 28.8402 21.978 28.8636 21.939 28.8402C21.8999 28.8402 21.8452 28.809 21.8765 28.7777L21.9077 28.6683L21.9546 28.5511C21.9546 28.5043 21.9702 28.473 21.9858 28.4418C21.9858 28.3949 22.0171 28.3637 22.0171 28.3168C22.0171 28.3012 22.0015 28.2933 21.9937 28.2933ZM21.7671 28.7308C21.7749 28.723 21.7749 28.723 21.7827 28.723C21.7827 28.723 21.7827 28.723 21.7905 28.7308C21.7983 28.7386 21.7983 28.7543 21.7905 28.7621L21.7671 28.7777C21.7437 28.7777 21.7358 28.7699 21.7358 28.7621C21.7358 28.7543 21.7358 28.7465 21.7515 28.7386C21.7593 28.7386 21.7671 28.7308 21.7749 28.7308H21.7671ZM21.7124 29.0277C21.6812 29.0043 21.689 28.9887 21.728 28.9496C21.7515 28.9418 21.7593 28.9418 21.7827 28.9574C21.8218 28.9886 21.8218 29.0043 21.7827 29.0355C21.7671 29.0433 21.7671 29.0433 21.7515 29.0433C21.7358 29.0433 21.728 29.0433 21.7124 29.0355V29.0277ZM21.8921 29.0902C21.8765 29.0824 21.8687 29.0746 21.8608 29.059C21.853 29.0511 21.853 29.0355 21.853 29.0199C21.8687 28.9965 21.8765 28.9886 21.9077 28.9886C21.9546 28.9886 21.9546 28.9965 21.9624 29.0355C21.9624 29.059 21.9624 29.0668 21.9468 29.0746C21.939 29.0824 21.9312 29.0824 21.9233 29.0902C21.9155 29.0902 21.9077 29.0902 21.8999 29.0902H21.8921ZM27.2437 29.0902C27.228 29.0824 27.228 29.0746 27.228 29.059C27.228 29.0355 27.2358 29.0199 27.2749 29.0043C27.3062 28.9886 27.3296 28.9886 27.3452 29.0199C27.3608 29.0511 27.3608 29.0668 27.3374 29.0902C27.3296 29.1058 27.3218 29.1058 27.2905 29.1058C27.2593 29.1058 27.2515 29.1058 27.2437 29.098V29.0902ZM22.1421 29.1605C22.1187 29.1605 22.103 29.1371 22.103 29.1136C22.103 29.098 22.103 29.0902 22.1187 29.0746L22.1577 29.0668H22.189C22.2202 29.098 22.228 29.1215 22.2124 29.1449C22.189 29.1683 22.1733 29.1683 22.1343 29.1605H22.1421ZM23.4546 29.223L23.439 29.1996C23.439 29.1683 23.439 29.1371 23.4546 29.098C23.4546 29.0668 23.4546 29.0433 23.4624 29.0121L23.4858 28.8402C23.4858 28.809 23.4858 28.7855 23.5015 28.7621C23.5015 28.7074 23.5015 28.6683 23.5093 28.6293C23.5093 28.6058 23.5327 28.5668 23.5483 28.5902C23.5718 28.6293 23.603 28.6527 23.6343 28.684C23.6577 28.6996 23.6343 28.723 23.6108 28.7308C23.5874 28.7308 23.5796 28.7621 23.5796 28.7855L23.5718 28.8636C23.5718 28.9027 23.5718 28.9418 23.5562 28.9808V29.0902L23.5405 29.1605C23.5405 29.184 23.5405 29.2152 23.5171 29.223C23.5015 29.2386 23.4702 29.2386 23.4546 29.223ZM25.2358 28.6293L25.1577 28.7074C25.1187 28.7308 25.1812 28.7465 25.189 28.7699C25.2046 28.809 25.2046 28.8402 25.2046 28.8793C25.2124 28.9105 25.2202 28.9418 25.2124 28.9808C25.2124 29.0199 25.1655 29.0121 25.1421 29.0355C25.1108 29.0433 25.103 29.0746 25.0796 29.098C25.0718 29.1215 25.064 29.1605 25.0562 29.1918C25.0562 29.223 25.0405 29.2465 25.0562 29.2777L25.064 29.2855H25.0952L25.1812 29.2777C25.2593 29.2699 25.3374 29.2699 25.4077 29.2621L25.5405 29.2465C25.5718 29.2543 25.5952 29.223 25.5952 29.1918C25.5718 29.1449 25.5874 29.1058 25.5718 29.0668C25.5562 29.0199 25.564 28.9808 25.5562 28.9418C25.5562 28.9027 25.5171 28.8871 25.4937 28.9105C25.4702 28.9418 25.439 28.9418 25.4233 28.9652C25.4077 29.0043 25.4624 29.0043 25.4702 29.0277L25.478 29.1215C25.4858 29.1527 25.4468 29.1527 25.4155 29.1605C25.3921 29.1683 25.3452 29.1761 25.3296 29.1449C25.314 29.1136 25.314 29.0824 25.314 29.0511C25.314 28.9886 25.2983 28.9418 25.2983 28.8871C25.2983 28.8324 25.2827 28.7621 25.2827 28.6996C25.2827 28.6683 25.2749 28.6293 25.2358 28.6293ZM25.1968 29.1215H25.2124V29.1683L25.1968 29.1761C25.189 29.184 25.1812 29.184 25.1733 29.184C25.1655 29.184 25.1655 29.184 25.1577 29.184C25.1499 29.1683 25.1499 29.1527 25.1655 29.1371L25.1968 29.1215ZM23.3999 28.5746C23.3765 28.5746 23.3452 28.6136 23.3218 28.6058C23.2671 28.6136 23.2749 28.6683 23.3218 28.684V28.7308C23.3218 28.7855 23.2983 28.8246 23.2983 28.8715C23.2983 28.9183 23.2827 28.973 23.2827 29.0277C23.2671 29.0824 23.2671 29.1371 23.2593 29.1918C23.2515 29.2386 23.2202 29.223 23.189 29.2074V29.1449C23.1968 29.098 23.1577 29.0824 23.1187 29.0746C23.0718 29.0746 23.0562 29.0433 23.064 29.0121C23.0874 28.9887 23.1265 28.9886 23.1577 28.9886C23.2202 29.0043 23.2124 28.9261 23.1812 28.8949C23.1577 28.8636 23.1108 28.8324 23.0952 28.8011C23.0952 28.7543 23.064 28.6996 23.0249 28.6761C22.9624 28.6683 22.9077 28.723 22.8843 28.7855C22.853 28.7855 22.8296 28.7933 22.8062 28.809C22.7593 28.8168 22.7046 28.8871 22.7593 28.9183C22.7905 28.9261 22.8921 28.9496 22.8452 28.9886C22.8218 29.0433 22.7749 29.0433 22.728 29.0277C22.689 29.0277 22.6421 29.0043 22.6421 28.9574C22.6343 28.9105 22.6343 28.8636 22.6187 28.8168C22.603 28.7699 22.5483 28.7855 22.5483 28.8324C22.5015 28.8636 22.5093 28.9105 22.5405 28.9496C22.5562 28.9887 22.5405 29.0433 22.5171 29.0824C22.5093 29.1449 22.4468 29.1449 22.4077 29.1527C22.3921 29.1683 22.314 29.1527 22.3374 29.1996C22.3843 29.2152 22.439 29.223 22.4858 29.2152C22.5327 29.2152 22.5718 29.1683 22.603 29.1293C22.6343 29.098 22.689 29.1215 22.7358 29.1215C22.7827 29.1215 22.8296 29.1449 22.8765 29.1215C22.8843 29.098 22.9468 29.0355 22.9624 29.098C22.9624 29.1449 23.0093 29.1683 23.0562 29.1683C23.1108 29.1683 23.0874 29.1996 23.0874 29.2386C23.0874 29.2933 23.1265 29.3246 23.1733 29.348H23.2202C23.2671 29.3246 23.314 29.309 23.3296 29.2621C23.3452 29.223 23.3452 29.1683 23.3608 29.1293C23.3765 29.0668 23.3843 28.9886 23.3843 28.9261C23.3999 28.8636 23.3999 28.8011 23.4077 28.7308L23.4233 28.598C23.4233 28.5668 23.4155 28.5668 23.3999 28.5746ZM22.9937 28.8168C23.0015 28.8168 23.0093 28.8324 23.0093 28.848C23.0093 28.8715 23.0171 28.8871 23.0405 28.8949V28.9105L22.9858 28.9261C22.9624 28.9261 22.9312 28.9105 22.9155 28.8949L22.9077 28.8871L22.9546 28.8402C22.9702 28.8246 22.9858 28.8168 22.9937 28.8168ZM26.9546 28.348C26.9233 28.348 26.8843 28.3558 26.853 28.3636C26.7905 28.3636 26.7593 28.4183 26.8218 28.4574C26.8608 28.5511 26.9155 28.434 26.9702 28.4496C27.0562 28.4574 27.064 28.5512 27.0796 28.6293C27.0796 28.6918 27.103 28.7621 27.1265 28.8246C27.1812 28.8871 27.0796 28.934 27.0405 28.8871C27.0015 28.8402 26.9155 28.7933 26.8765 28.848C26.8218 28.8715 26.814 28.9418 26.7749 28.9652C26.7046 28.9886 26.6968 28.8949 26.6577 28.8636C26.6187 28.809 26.5562 28.8011 26.5015 28.7855C26.478 28.7308 26.4858 28.6449 26.439 28.6058C26.3921 28.6293 26.3062 28.7074 26.3765 28.7543C26.439 28.809 26.3452 28.8324 26.3218 28.8715C26.2671 28.9261 26.2593 28.9886 26.2593 29.0511C26.1812 29.098 26.1655 29.0043 26.1577 28.9496C26.1577 28.8871 26.0952 28.9027 26.0562 28.9261C25.9937 28.9496 25.9702 29.0043 25.9312 29.0433V29.1683C25.9468 29.223 26.0093 29.1996 26.0405 29.1918C26.103 29.1683 26.1265 29.2308 26.0796 29.2699C26.0405 29.3011 25.9468 29.2855 25.9624 29.3558H26.0562C26.1187 29.3324 26.189 29.2855 26.1968 29.2152C26.2046 29.1527 26.2983 29.1605 26.3452 29.1449C26.3999 29.1293 26.478 29.1215 26.5015 29.2074C26.5405 29.2465 26.6343 29.3011 26.6812 29.2386C26.7046 29.223 26.7202 29.1996 26.728 29.1761C26.7437 29.1527 26.7515 29.1293 26.7437 29.098C26.7358 29.0511 26.8218 29.0511 26.8452 29.0824C26.8765 29.1293 26.9702 29.1215 27.0171 29.0824C27.0718 29.0511 27.0796 28.9886 27.1499 28.9886L27.478 28.8949C27.564 28.8793 27.4624 28.8246 27.439 28.7855C27.3843 28.7621 27.3218 28.8871 27.2515 28.8246C27.189 28.7855 27.1968 28.7074 27.1733 28.6371C27.1577 28.5512 27.1655 28.4574 27.103 28.3949C27.0718 28.3558 27.0093 28.348 26.9546 28.348ZM26.5483 28.9105C26.5562 28.9105 26.564 28.9105 26.5796 28.9261C26.603 28.9418 26.6187 28.9652 26.6187 28.9886C26.6187 28.9965 26.6187 28.9965 26.603 29.0043L26.5718 29.0199C26.5562 29.0199 26.5327 28.9965 26.5327 28.9886V28.9652C26.5171 28.9418 26.5171 28.9418 26.5327 28.9261L26.5483 28.9105ZM26.939 28.9418C26.9624 28.9418 26.9702 28.9418 26.9858 28.9574C26.9937 28.9808 26.9858 28.9886 26.9624 29.0043L26.9312 29.0199L26.9077 28.9965C26.8921 28.9886 26.8921 28.9886 26.8921 28.973C26.8921 28.9574 26.9155 28.9418 26.939 28.934V28.9418ZM26.3999 28.9418C26.4077 28.9418 26.4155 28.9418 26.4233 28.9496C26.4312 28.9652 26.439 28.9652 26.439 28.9886V29.0199C26.439 29.0433 26.439 29.0355 26.3999 29.0355C26.3687 29.0355 26.3608 29.0355 26.3608 28.9965C26.3608 28.973 26.3608 28.9652 26.3765 28.9574C26.3843 28.9418 26.3999 28.9418 26.3999 28.9418ZM26.0718 29.0277C26.0796 29.0277 26.0874 29.0355 26.0874 29.0355C26.0952 29.0433 26.0952 29.0433 26.0952 29.0511C26.0952 29.0668 26.0952 29.0824 26.0874 29.0902C26.064 29.098 26.0405 29.098 26.0249 29.0902C26.0249 29.0824 26.0249 29.0824 26.0249 29.0824C26.0093 29.0746 26.0093 29.0668 26.0249 29.0668V29.059L26.0405 29.0433C26.0405 29.0355 26.0483 29.0277 26.0562 29.0277C26.0562 29.0277 26.064 29.0277 26.0718 29.0277ZM26.6265 29.098L26.6577 29.1058V29.1449H26.5796V29.1293C26.5796 29.1215 26.5796 29.1136 26.5874 29.1058L26.6265 29.098ZM25.5952 29.3871C25.5952 29.3871 25.5796 29.3793 25.5952 29.3793C25.5952 29.3558 25.6265 29.3558 25.6421 29.3402C25.6733 29.3246 25.7046 29.309 25.728 29.2777C25.728 29.2543 25.7515 29.2465 25.7515 29.223L25.7437 29.1371C25.7358 29.1137 25.7202 29.0902 25.6968 29.0746C25.6733 29.0668 25.6499 29.0668 25.6499 29.0433C25.6499 29.0199 25.6655 29.0043 25.6733 28.9886L25.7046 28.9105C25.728 28.8949 25.7515 28.9105 25.7515 28.9261L25.7827 28.9886C25.8062 29.0043 25.814 29.0199 25.8218 29.0433C25.8296 29.0668 25.8452 29.0902 25.8452 29.1058L25.853 29.184C25.853 29.2152 25.853 29.2465 25.8452 29.2777L25.8062 29.3246C25.7905 29.348 25.7749 29.3636 25.7515 29.3715C25.728 29.3793 25.7202 29.3949 25.6968 29.3949H25.603L25.5952 29.3871ZM25.1812 29.4105C25.1733 29.4027 25.1655 29.3949 25.1655 29.3793C25.1655 29.3558 25.1655 29.3558 25.1812 29.3402C25.2124 29.3168 25.2202 29.3168 25.2671 29.3402C25.314 29.3636 25.3296 29.3636 25.3296 29.348C25.3374 29.3324 25.3608 29.3168 25.3921 29.3168C25.3999 29.3168 25.4077 29.3246 25.4155 29.3246C25.4312 29.3402 25.439 29.348 25.439 29.3715C25.439 29.4027 25.439 29.4027 25.4155 29.4183C25.3999 29.434 25.3999 29.434 25.3765 29.434C25.3687 29.4261 25.353 29.4261 25.3452 29.4183C25.3374 29.4105 25.3296 29.4027 25.3296 29.3949C25.3296 29.3793 25.3296 29.3793 25.314 29.3871L25.3062 29.3949C25.2905 29.3949 25.2671 29.4105 25.2593 29.4261L25.228 29.434C25.2046 29.434 25.2046 29.434 25.1812 29.4105ZM23.9937 28.8793C23.9546 28.8793 23.9155 28.9105 23.9077 28.9574C23.9155 28.9965 23.9546 29.0433 23.9312 29.0902C23.9468 29.1449 23.8843 29.1683 23.8374 29.1449C23.814 29.0824 23.8062 29.0199 23.7593 28.9652C23.7124 28.9496 23.6968 29.0277 23.6577 29.059C23.6812 29.098 23.728 29.1449 23.7358 29.1996C23.7437 29.2543 23.7124 29.3168 23.6655 29.3402C23.6265 29.3793 23.564 29.3715 23.5171 29.3793C23.4546 29.4105 23.5562 29.4261 23.5874 29.4261C23.6499 29.434 23.7124 29.4261 23.7671 29.3793C23.814 29.3558 23.8062 29.2777 23.8608 29.2699L24.1499 29.2855C24.1968 29.3011 24.2749 29.2777 24.3062 29.3168C24.3062 29.3793 24.3687 29.4261 24.4233 29.4496C24.4546 29.4574 24.4858 29.4183 24.5093 29.4105C24.5718 29.3949 24.5562 29.3246 24.5874 29.2933H24.8921C24.8999 29.2933 24.9077 29.2621 24.9233 29.2465L24.9155 29.1371C24.8999 29.0902 24.9155 29.0277 24.8843 28.9886C24.8296 28.973 24.7905 29.0199 24.7437 29.0199C24.6812 29.0433 24.6421 29.098 24.6343 29.1605C24.603 29.2152 24.5483 29.1449 24.5718 29.098L24.564 29.0433C24.5405 29.0121 24.4858 29.0199 24.439 29.0199L24.2593 29.0043C24.2046 29.0043 24.1499 29.0121 24.0952 28.9965C24.0405 28.9965 24.0405 28.9418 24.0405 28.8871C24.0249 28.8793 24.0093 28.8793 23.9937 28.8793ZM24.1187 29.098L24.1733 29.1058H24.2515C24.314 29.1215 24.3765 29.1215 24.4312 29.1215C24.4468 29.1215 24.4624 29.1293 24.4702 29.1449V29.2621C24.4702 29.2777 24.4702 29.3011 24.4624 29.309C24.4546 29.3168 24.4546 29.3168 24.4468 29.3246C24.439 29.3168 24.4312 29.3168 24.4233 29.309C24.4155 29.309 24.4077 29.3011 24.4077 29.2933V29.2074C24.3921 29.1996 24.3765 29.1918 24.3608 29.1918L24.2046 29.184L24.0874 29.1761C24.0718 29.1683 24.0483 29.1761 24.0327 29.1527C24.0171 29.1449 24.0405 29.1215 24.0562 29.1136C24.0796 29.1058 24.0952 29.098 24.1187 29.098ZM24.7983 29.1215C24.7983 29.1215 24.8062 29.1215 24.8062 29.1371L24.8218 29.1683C24.8218 29.1683 24.8218 29.1761 24.8062 29.1761C24.7749 29.1918 24.7437 29.1918 24.7358 29.1761C24.7358 29.1683 24.7358 29.1449 24.7437 29.1449L24.7983 29.1215Z" fill="#C09300"/>
<path d="M24.5248 25.723C26.4779 24.223 26.3139 22.0121 26.3139 22.0121L26.1654 22.0277C25.7514 22.0277 24.767 21.7855 24.5404 21.4886C24.3061 21.7621 23.2983 22.0355 22.8842 22.0355L22.7358 22.0121C22.7358 22.0121 22.5639 24.2152 24.5248 25.723Z" fill="white"/>
<path fill-rule="evenodd" clip-rule="evenodd" d="M24.5417 21.4362L24.5665 21.4686C24.6184 21.5366 24.7167 21.6047 24.8461 21.6685C24.9746 21.7319 25.1299 21.7894 25.2919 21.8379C25.6155 21.9348 25.9607 21.9944 26.1635 21.9947L26.3441 21.9757L26.3466 22.0097L26.347 22.0165L26.348 22.0359C26.3488 22.0528 26.3496 22.0776 26.3499 22.1097C26.3506 22.1738 26.3494 22.2669 26.3417 22.3832C26.3265 22.6157 26.2856 22.9412 26.1834 23.3138C25.9788 24.0592 25.5283 24.9938 24.5447 25.7492L24.5246 25.7647L24.5045 25.7492C23.5171 24.9899 23.0665 24.0553 22.8629 23.3108C22.7611 22.9387 22.721 22.6139 22.7064 22.382C22.6991 22.266 22.6981 22.1732 22.699 22.1093C22.6994 22.0773 22.7003 22.0525 22.7011 22.0357L22.7022 22.0164L22.7025 22.0114L22.7054 21.9739L22.8866 22.0025C23.0892 22.002 23.4394 21.9348 23.7698 21.8331C23.9353 21.7821 24.0945 21.7229 24.2266 21.6597C24.3596 21.596 24.4613 21.5301 24.5152 21.4672L24.5417 21.4362ZM22.7666 22.0504C22.7659 22.0657 22.7653 22.0857 22.765 22.1102C22.7641 22.1726 22.7651 22.2637 22.7723 22.3778C22.7867 22.6061 22.8262 22.9264 22.9266 23.2934C23.1259 24.0224 23.5651 24.9356 24.5246 25.6813C25.4802 24.9395 25.9194 24.0263 26.1197 23.2963C26.2206 22.9288 26.2608 22.6078 26.2759 22.3788C26.2834 22.2644 26.2846 22.173 26.2839 22.1104C26.2836 22.0849 26.2831 22.0641 26.2825 22.0486L26.1652 22.0609C25.9538 22.0609 25.6008 21.9993 25.273 21.9011C25.1087 21.852 24.9497 21.7932 24.8169 21.7277C24.7013 21.6707 24.6028 21.6071 24.5389 21.5381C24.4732 21.6018 24.3727 21.6629 24.255 21.7192C24.1193 21.7842 23.9567 21.8446 23.7892 21.8962C23.455 21.9991 23.0958 22.0685 22.884 22.0685H22.8788L22.7666 22.0504Z" fill="#C09300"/>
<path d="M26.1577 22.1683H26.1108C25.7358 22.1683 24.8765 21.9808 24.5405 21.6996C24.189 21.9574 23.3062 22.1761 22.939 22.1761C22.9233 22.1761 22.9077 22.1761 22.8921 22.1683C22.8999 22.5511 22.9468 22.9261 23.0483 23.2933C23.2905 24.1761 23.8062 24.9574 24.5249 25.5199C25.2437 24.9496 25.7593 24.1683 26.0015 23.2855C26.103 22.9261 26.1499 22.5511 26.1577 22.1683Z" fill="white"/>
<path fill-rule="evenodd" clip-rule="evenodd" d="M24.5417 21.6653L24.5579 21.6789C24.7211 21.8155 25.015 21.9315 25.3182 22.0134C25.6205 22.095 25.9266 22.1413 26.1109 22.1413H26.1853L26.1848 22.1689C26.1769 22.5535 26.1298 22.9308 26.0275 23.2928C25.7838 24.1811 25.265 24.9672 24.5418 25.541L24.5251 25.5543L24.5083 25.5411C23.785 24.975 23.2661 24.1888 23.0224 23.3005C22.9201 22.9308 22.873 22.5535 22.8652 22.1689L22.8643 22.1242L22.9042 22.1442C22.9134 22.1487 22.9227 22.1491 22.939 22.1491C23.119 22.1491 23.4287 22.0952 23.7384 22.0085C24.0484 21.9218 24.353 21.8037 24.5246 21.6778L24.5417 21.6653ZM23.753 22.0605C23.4415 22.1477 23.1263 22.2031 22.939 22.2031C22.9385 22.2031 22.9395 22.2031 22.939 22.2031C22.9339 22.2031 22.9264 22.2031 22.92 22.2027C22.9298 22.5715 22.9767 22.9326 23.0744 23.2861C23.3132 24.1566 23.8195 24.9276 24.5249 25.4854C25.2304 24.9199 25.7367 24.1488 25.9755 23.2784C26.0739 22.9302 26.1207 22.5667 26.1302 22.1953H26.1109C25.9202 22.1953 25.6091 22.1479 25.3041 22.0655C25.0091 21.9858 24.7147 21.8721 24.5395 21.7335C24.3574 21.8607 24.0545 21.9762 23.753 22.0605Z" fill="#C09300"/>
<path d="M23.8921 21.9886C23.564 22.098 23.228 22.1527 22.8921 22.1683L22.8999 22.4183C22.9155 22.7074 22.9702 23.0043 23.0483 23.2855C23.2124 23.8793 23.4937 24.4261 23.8921 24.8949V21.9886ZM25.1265 21.9886V24.9418C25.5327 24.4652 25.8374 23.8949 26.0015 23.2855C26.0796 23.0043 26.1265 22.7074 26.1499 22.4183L26.1577 22.1761H26.1108C25.8843 22.1761 25.4858 22.1058 25.1265 21.9808V21.9886Z" fill="#C09300"/>
<path d="M25.2929 21.2641C25.3351 21.2641 25.2386 21.047 25.2386 21.047C25.3472 21.1556 25.7452 21.1797 25.7452 21.1797C25.504 21.0711 25.2628 20.2691 25.2929 19.63C25.317 18.9847 25.2025 18.7315 25.106 18.641C24.9854 18.5204 24.5995 18.4119 24.3402 18.3998C24.1955 18.3938 24.2196 18.5084 24.2196 18.5084C23.9542 18.442 23.6829 18.4119 23.5623 18.4963C23.4477 18.5747 23.4236 18.9486 23.508 18.8822C23.707 18.7194 23.8819 18.8702 24.0025 19.045C24.111 19.1958 24.099 19.636 23.9482 20.1425C23.7854 20.6792 23.3452 21.2098 23.3452 21.2098C23.5864 21.2098 23.9181 20.9988 23.9181 20.9988L23.8397 21.3304C24.0929 21.2098 24.2919 21.0229 24.2919 21.0229L24.5331 21.2762C24.6115 21.1676 24.7743 21.0229 24.7743 21.0229C24.7743 21.0229 24.9854 21.2339 25.2929 21.2641Z" fill="white"/>
<path d="M23.7974 21.397L23.8758 21.0714C23.7612 21.1377 23.5381 21.2463 23.3572 21.2463H23.2788L23.327 21.186C23.3331 21.1799 23.7612 20.6493 23.918 20.1307C24.0748 19.6061 24.0687 19.196 23.9783 19.0634C23.8939 18.9368 23.7974 18.8644 23.713 18.8523C23.6527 18.8463 23.5924 18.8644 23.5321 18.9126C23.508 18.9368 23.4838 18.9307 23.4718 18.9247C23.4477 18.9126 23.4296 18.8825 23.4235 18.8342C23.4115 18.7378 23.4476 18.5327 23.5441 18.4664C23.6889 18.3699 23.9904 18.4182 24.1833 18.4664C24.1893 18.4483 24.1954 18.4302 24.2074 18.4121C24.2376 18.382 24.2798 18.3639 24.3401 18.3699C24.6054 18.382 25.0034 18.4966 25.13 18.6232C25.2325 18.7257 25.3531 18.991 25.329 19.6423C25.2989 20.2995 25.5521 21.0654 25.7632 21.1558L25.7451 21.2282C25.7089 21.2282 25.4677 21.2101 25.3109 21.1437C25.3531 21.2583 25.3351 21.2764 25.329 21.2885C25.323 21.3005 25.3049 21.3066 25.2868 21.3066C25.0335 21.2824 24.8466 21.1377 24.7803 21.0774C24.732 21.1196 24.6295 21.2221 24.5692 21.3005L24.5451 21.3367L24.2979 21.0774C24.2316 21.1317 24.0627 21.2704 23.8637 21.3669L23.7974 21.397ZM23.9843 20.9146L23.8999 21.2583C24.111 21.1437 24.2738 20.993 24.2738 20.993L24.2979 20.9689L24.5331 21.2161C24.6175 21.1136 24.7441 20.999 24.7501 20.993L24.7743 20.9689L24.7984 20.993C24.7984 20.993 24.9793 21.1799 25.2506 21.2161C25.2386 21.1799 25.2145 21.1136 25.1903 21.0533L25.2506 21.0111C25.3109 21.0714 25.4798 21.1076 25.6124 21.1196C25.3954 20.8724 25.2144 20.185 25.2386 19.6181C25.2627 18.9609 25.1421 18.7317 25.0637 18.6533C24.9491 18.5388 24.5753 18.4363 24.322 18.4242C24.2979 18.4242 24.2677 18.4242 24.2496 18.4423C24.2316 18.4604 24.2376 18.4905 24.2376 18.4905L24.2496 18.5448L24.1954 18.5327C23.8999 18.4544 23.6647 18.4483 23.5683 18.5147C23.5381 18.5388 23.5079 18.5991 23.4899 18.6835C23.4778 18.7498 23.4778 18.8041 23.4838 18.8342C23.5562 18.78 23.6286 18.7619 23.7069 18.7679C23.8155 18.786 23.918 18.8644 24.0205 19.0091C24.1411 19.184 24.117 19.6483 23.9723 20.1367C23.8456 20.5649 23.5441 20.987 23.4175 21.1498C23.6346 21.1136 23.8878 20.9508 23.8878 20.9508L23.9843 20.9146Z" fill="#C09300"/>
<path d="M25.2082 21.0713C24.9791 20.7336 24.9248 19.8351 24.9188 19.799L24.9972 19.7929C24.9972 19.805 25.0515 20.7095 25.2746 21.0291L25.2082 21.0713ZM24.3339 21.0411L24.2676 21.005C24.4364 20.6974 24.4907 19.7085 24.4907 19.6964L24.5691 19.7025C24.563 19.7447 24.5148 20.7155 24.3339 21.0411ZM24.75 21.0351C24.6836 20.8421 24.6836 19.7809 24.6836 19.7387H24.762C24.762 20.0402 24.7741 20.8602 24.8284 21.011L24.75 21.0351ZM23.96 21.023L23.9058 20.9748C24.147 20.7035 24.2857 19.7326 24.2857 19.7206L24.364 19.7326C24.352 19.7688 24.2133 20.7336 23.96 21.023Z" fill="#C09300"/>
<path d="M24.0747 19.2444C24.0626 19.16 24.0445 19.0876 24.0083 19.0454C23.8877 18.8705 23.7129 18.7258 23.5139 18.8826C23.5139 18.8826 23.5802 18.6715 23.7309 18.6655C23.8455 18.6595 24.1048 18.7499 24.3279 19.1359C24.3279 19.1359 24.1591 19.0997 24.1169 19.1359C24.0445 19.2022 24.0747 19.2444 24.0747 19.2444ZM23.4897 18.6233C23.5078 18.569 23.532 18.5208 23.5681 18.4967C23.6887 18.4183 23.9541 18.4424 24.2254 18.5087C24.2254 18.5087 24.2013 18.3942 24.346 18.4002C24.5993 18.4123 24.9912 18.5208 25.1118 18.6414C25.142 18.6715 25.1721 18.7198 25.2023 18.7861H25.1962C25.1359 18.7017 24.9671 18.7077 24.9309 18.7138C24.8646 18.7198 24.8284 18.7198 24.744 18.7379C24.7018 18.7499 24.6415 18.762 24.6113 18.7861C24.5872 18.8102 24.5631 18.8826 24.5209 18.8826C24.4546 18.8826 24.4606 18.8645 24.4425 18.8464C24.4184 18.8223 24.4123 18.7801 24.3882 18.7861C24.3219 18.7982 24.2134 18.7439 24.0807 18.6414C23.948 18.5389 23.8938 18.5087 23.7189 18.5208C23.544 18.5329 23.4897 18.6293 23.4897 18.6293V18.6233Z" fill="#C09300"/>
<path d="M24.0628 19.2499C24.0628 19.2499 24.0507 19.2318 24.0567 19.2077C24.0447 19.1353 24.0266 19.0871 24.0025 19.0449C23.912 18.9122 23.8155 18.8338 23.7191 18.8218C23.6527 18.8097 23.5864 18.8338 23.5201 18.8881L23.4899 18.9122L23.502 18.876C23.502 18.87 23.5743 18.659 23.7251 18.6469C23.8397 18.6409 24.105 18.7313 24.3341 19.1233L24.3462 19.1474L24.3221 19.1414C24.2618 19.1293 24.1472 19.1112 24.1231 19.1353C24.0929 19.1655 24.0809 19.1836 24.0748 19.2017C24.0748 19.2137 24.0809 19.2258 24.0809 19.2378L24.0628 19.2499ZM23.6889 18.8037C23.701 18.8037 23.713 18.8037 23.7251 18.8037C23.8276 18.8157 23.9241 18.8941 24.0206 19.0328C24.0447 19.063 24.0628 19.1112 24.0748 19.1655C24.0809 19.1534 24.099 19.1353 24.117 19.1172C24.1532 19.0871 24.2618 19.1052 24.31 19.1112C24.0326 18.6529 23.7492 18.665 23.7311 18.665C23.6286 18.671 23.5623 18.7856 23.5382 18.8459C23.5864 18.8218 23.6346 18.8037 23.6889 18.8037ZM24.515 18.8941C24.4608 18.8941 24.4487 18.8821 24.4366 18.864C24.4366 18.858 24.4306 18.858 24.4306 18.8519C24.4246 18.8399 24.4185 18.8338 24.4125 18.8218C24.4065 18.8097 24.3944 18.7916 24.3884 18.7916C24.3221 18.8037 24.2135 18.7554 24.0748 18.6409C23.9422 18.5323 23.8939 18.5082 23.7191 18.5203C23.5562 18.5323 23.502 18.6228 23.502 18.6288L23.4839 18.6168L23.4899 18.6047C23.502 18.5685 23.5261 18.5022 23.5683 18.472C23.713 18.3755 24.0326 18.4358 24.2196 18.4841C24.2196 18.466 24.2196 18.4359 24.2437 18.4117C24.2678 18.3876 24.304 18.3755 24.3522 18.3755C24.6175 18.3876 25.0035 18.4962 25.1241 18.6228C25.1602 18.665 25.1904 18.7132 25.2145 18.7675L25.2205 18.7796H25.1964L25.1904 18.7735C25.1361 18.7012 24.9854 18.7012 24.9311 18.7072C24.913 18.7072 24.8949 18.7132 24.8829 18.7132C24.8406 18.7193 24.8045 18.7193 24.7442 18.7374L24.7321 18.7434C24.6959 18.7494 24.6417 18.7615 24.6175 18.7856C24.6115 18.7916 24.5994 18.8097 24.5934 18.8218C24.5633 18.864 24.5452 18.8941 24.515 18.8941ZM24.3824 18.7796C24.4005 18.7796 24.4125 18.7977 24.4246 18.8157C24.4306 18.8278 24.4366 18.8338 24.4427 18.8399C24.4487 18.8459 24.4487 18.8459 24.4487 18.8519C24.4547 18.864 24.4608 18.87 24.509 18.87C24.5271 18.87 24.5452 18.8399 24.5572 18.8157C24.5693 18.7977 24.5753 18.7796 24.5874 18.7735C24.6175 18.7494 24.6718 18.7374 24.714 18.7253L24.7261 18.7193C24.7864 18.7012 24.8286 18.7012 24.8708 18.6951C24.8889 18.6951 24.9009 18.6951 24.919 18.6891C24.919 18.6891 25.0758 18.671 25.1602 18.7313C25.1421 18.6951 25.118 18.665 25.0939 18.6348C24.9793 18.5203 24.5934 18.4117 24.3402 18.3997C24.2979 18.3997 24.2678 18.4057 24.2497 18.4298C24.2256 18.46 24.2316 18.4962 24.2316 18.4962L24.2376 18.5142L24.2196 18.5082C23.912 18.4298 23.6768 18.4238 23.5743 18.4901C23.5562 18.5022 23.5321 18.5323 23.5201 18.5685C23.5562 18.5384 23.6165 18.5022 23.7191 18.4962C23.8939 18.4841 23.9482 18.5082 24.0869 18.6168C24.2196 18.7374 24.3221 18.7916 24.3824 18.7796Z" fill="#C09300"/>
<path d="M24.4784 18.7796C24.5182 18.7796 24.5505 18.7473 24.5505 18.7074C24.5505 18.6676 24.5182 18.6353 24.4784 18.6353C24.4385 18.6353 24.4062 18.6676 24.4062 18.7074C24.4062 18.7473 24.4385 18.7796 24.4784 18.7796Z" fill="white"/>
<path fill-rule="evenodd" clip-rule="evenodd" d="M24.5249 46.6902C37.0065 46.6902 47.1249 36.5718 47.1249 24.0902C47.1249 11.6086 37.0065 1.49021 24.5249 1.49021C12.0433 1.49021 1.9249 11.6086 1.9249 24.0902C1.9249 36.5718 12.0433 46.6902 24.5249 46.6902ZM24.5249 48.0902C37.7797 48.0902 48.5249 37.345 48.5249 24.0902C48.5249 10.8354 37.7797 0.09021 24.5249 0.09021C11.2701 0.09021 0.524902 10.8354 0.524902 24.0902C0.524902 37.345 11.2701 48.0902 24.5249 48.0902Z" fill="#D9D9D9"/>
</g>
<defs>
<clipPath id="clip0_4012_213498">
<rect x="0.524902" y="0.09021" width="48" height="48" fill="white"/>
</clipPath>
</defs>
</svg>
