<svg width="49" height="49" viewBox="0 0 49 49" fill="none" xmlns="http://www.w3.org/2000/svg">
<g clip-path="url(#clip0_4012_213501)">
<path fill-rule="evenodd" clip-rule="evenodd" d="M47.4641 30.2308C47.9813 28.2709 48.2568 26.2127 48.2568 24.0902C48.2568 22.2646 48.053 20.4866 47.6668 18.7777H0.846829C0.460673 20.4866 0.256836 22.2646 0.256836 24.0902C0.256836 26.2127 0.53236 28.2709 1.04959 30.2308H47.4641Z" fill="#FFC621"/>
<path fill-rule="evenodd" clip-rule="evenodd" d="M47.4628 30.2365C44.748 40.5135 35.3873 48.0902 24.257 48.0902C13.1267 48.0902 3.76604 40.5135 1.05127 30.2365H47.4628Z" fill="#EF2118"/>
<path fill-rule="evenodd" clip-rule="evenodd" d="M47.6673 18.7802H0.846191C3.26279 8.08055 12.8267 0.09021 24.2568 0.09021C35.6869 0.09021 45.2507 8.08055 47.6673 18.7802Z" fill="#298C08"/>
<path d="M23.0967 32.3485C27.2955 32.3485 30.6993 28.9447 30.6993 24.7459C30.6993 20.5471 27.2955 17.1433 23.0967 17.1433C18.8979 17.1433 15.4941 20.5471 15.4941 24.7459C15.4941 28.9447 18.8979 32.3485 23.0967 32.3485Z" fill="#006BC6"/>
<path fill-rule="evenodd" clip-rule="evenodd" d="M19.6867 19.3583L19.2285 19.6756L20.8852 22.0021L21.3294 21.7201L19.6797 19.3583H19.6867ZM21.7594 24.8573L21.0756 24.3779L21.3576 23.4826L17.9665 23.5319L16.9795 22.7776L21.6114 22.7282L22.4715 20.1268L22.9368 21.1843L21.7594 24.8503V24.8573ZM27.1527 19.873L26.7085 19.5346L24.9954 21.8188L25.3902 22.1501L27.1527 19.873ZM22.542 23.5037L22.7887 22.7141H23.7264L22.6548 19.4852L23.0778 18.322L24.523 22.7212L27.2584 22.7564L26.3983 23.5108L22.542 23.4967V23.5037ZM28.9293 27.1133L29.1196 26.5916L26.4195 25.654L26.2221 26.1475L28.9293 27.1133ZM24.0577 23.8421L24.8826 23.8351L25.1716 24.7234L27.907 22.7141L29.1478 22.7564L25.4043 25.4848L26.215 28.1074L25.228 27.5152L24.0577 23.8421ZM22.6618 31.0331L23.2188 31.0472L23.2399 28.192L22.7182 28.1567L22.6618 31.0402V31.0331ZM24.2128 25.372L24.4807 26.1545L23.7264 26.7185L26.5041 28.6714L26.8566 29.8558L23.0778 27.1768L20.857 28.7771L21.1038 27.6491L24.2058 25.372H24.2128ZM16.9302 26.2885L17.0923 26.8172L19.8207 25.9571L19.6797 25.4495L16.9302 26.2885ZM22.7958 26.0065L22.1331 26.507L21.3717 25.9642L20.3706 29.2072L19.3554 29.9122L20.7301 25.4918L18.5164 23.8703L19.6656 23.7575L22.7958 26.0065Z" fill="#FFC621"/>
<path fill-rule="evenodd" clip-rule="evenodd" d="M24.2568 46.6902C36.7385 46.6902 46.8568 36.5718 46.8568 24.0902C46.8568 11.6086 36.7385 1.49021 24.2568 1.49021C11.7752 1.49021 1.65684 11.6086 1.65684 24.0902C1.65684 36.5718 11.7752 46.6902 24.2568 46.6902ZM24.2568 48.0902C37.5117 48.0902 48.2568 37.345 48.2568 24.0902C48.2568 10.8354 37.5117 0.09021 24.2568 0.09021C11.002 0.09021 0.256836 10.8354 0.256836 24.0902C0.256836 37.345 11.002 48.0902 24.2568 48.0902Z" fill="#D9D9D9"/>
</g>
<defs>
<clipPath id="clip0_4012_213501">
<rect x="0.257324" y="0.09021" width="48" height="48" fill="white"/>
</clipPath>
</defs>
</svg>
