<svg width="49" height="49" viewBox="0 0 49 49" fill="none" xmlns="http://www.w3.org/2000/svg">
<g clip-path="url(#clip0_4012_213553)">
<path fill-rule="evenodd" clip-rule="evenodd" d="M41.9603 41.0608C46.3035 36.7176 48.9897 30.7176 48.9897 24.0902C48.9897 16.9221 45.8472 10.4879 40.8647 6.09021H9.1148C8.73894 6.42195 8.37355 6.76529 8.01918 7.11965C3.86782 11.271 1.23021 16.9361 1.00537 23.216V24.9644C1.00601 24.9823 1.00667 25.0001 1.00735 25.0179C1.26559 31.8122 4.34822 37.8831 9.1148 42.0902H40.8647C41.2406 41.7585 41.6059 41.4151 41.9603 41.0608Z" fill="white"/>
<path fill-rule="evenodd" clip-rule="evenodd" d="M47.8899 16.8871H2.08936C5.14855 7.15164 14.2445 0.09021 24.9896 0.09021C35.7348 0.09021 44.8307 7.15164 47.8899 16.8871Z" fill="black"/>
<path fill-rule="evenodd" clip-rule="evenodd" d="M47.8899 31.2933C44.8307 41.0288 35.7348 48.0902 24.9896 48.0902C14.2445 48.0902 5.14855 41.0288 2.08936 31.2933H47.8899Z" fill="#006600"/>
<path d="M18.5679 34.7777L18.9741 35.0043L29.4819 16.7777C30.0913 16.6449 30.4272 16.059 30.7632 15.473C30.9897 15.0668 31.8882 13.5121 32.271 11.4886C31.2085 12.4418 30.3022 13.559 29.5991 14.8011C29.2554 15.3793 28.9194 15.9652 29.0757 16.5746L18.5679 34.7777Z" fill="black"/>
<path fill-rule="evenodd" clip-rule="evenodd" d="M32.4435 11.1829L32.3818 11.5096C32.009 13.4797 31.1525 15.0086 30.8884 15.48C30.8787 15.4974 30.8697 15.5133 30.8617 15.5278L30.858 15.5342C30.6922 15.8235 30.5198 16.1241 30.3108 16.3684C30.1094 16.6039 29.8679 16.7946 29.5554 16.8758L19.0164 35.1565L18.4136 34.8204L28.9561 16.5571C28.8861 16.2395 28.9372 15.9319 29.0444 15.6376C29.1559 15.3316 29.3311 15.0322 29.502 14.7447C30.2112 13.492 31.125 12.3657 32.1961 11.4049L32.4435 11.1829ZM32.0906 11.8079C31.1469 12.6998 30.3371 13.7261 29.6972 14.8566L29.6961 14.8587C29.5234 15.149 29.3591 15.4312 29.2558 15.7147C29.1533 15.9962 29.1142 16.2709 29.1849 16.5466L29.1963 16.5911L18.7226 34.7351L18.9323 34.852L29.4096 16.6784L29.4582 16.6678C29.731 16.6083 29.9474 16.4471 30.1398 16.2222C30.3337 15.9955 30.4964 15.7125 30.6655 15.4176C30.6734 15.4035 30.682 15.388 30.6914 15.3712C30.9377 14.9315 31.6969 13.5763 32.0906 11.8079Z" fill="black"/>
<path d="M18.5679 34.7777L18.9741 35.0043L29.4819 16.7777C30.0913 16.6449 30.4272 16.059 30.7632 15.473C30.9897 15.0668 31.8882 13.5121 32.271 11.4886C31.2085 12.4418 30.3022 13.559 29.5991 14.8011C29.2554 15.3793 28.9194 15.9652 29.0757 16.5746L18.5679 34.7777Z" fill="white"/>
<path d="M31.4429 34.7777L31.0366 35.0043L20.5288 16.7777C19.9194 16.6449 19.5835 16.059 19.2476 15.473C19.021 15.0668 18.1226 13.5121 17.7397 11.4886C18.8022 12.4418 19.7085 13.559 20.4116 14.8011C20.7554 15.3793 21.0913 15.9652 20.9351 16.5746L31.4429 34.7777Z" fill="black"/>
<path fill-rule="evenodd" clip-rule="evenodd" d="M17.5674 11.1829L17.8148 11.4049C18.8859 12.3657 19.7997 13.492 20.5089 14.7447C20.6799 15.0322 20.8551 15.3316 20.9665 15.6376C21.0737 15.9319 21.1248 16.2395 21.0548 16.5571L31.5974 34.8204L30.9945 35.1565L20.4555 16.8758C20.1431 16.7946 19.9016 16.6039 19.7001 16.3684C19.4911 16.1241 19.3188 15.8235 19.1529 15.5342L19.1499 15.529C19.1419 15.5145 19.1323 15.4974 19.1225 15.48C18.8584 15.0086 18.0019 13.4797 17.6292 11.5096L17.5674 11.1829ZM17.9203 11.8079C18.3141 13.5763 19.0732 14.9315 19.3195 15.3712C19.329 15.3883 19.3378 15.404 19.3458 15.4182C19.515 15.7133 19.6771 15.9953 19.8711 16.2222C20.0635 16.4471 20.2799 16.6083 20.5527 16.6678L20.6014 16.6784L31.0787 34.852L31.2883 34.7351L20.8147 16.5911L20.8261 16.5466C20.8968 16.2709 20.8577 15.9962 20.7551 15.7147C20.6519 15.4312 20.4875 15.1489 20.3149 14.8586L20.3137 14.8566C19.6738 13.7261 18.8641 12.6998 17.9203 11.8079Z" fill="black"/>
<path d="M31.4429 34.7777L31.0366 35.0043L20.5288 16.7777C19.9194 16.6449 19.5835 16.059 19.2476 15.473C19.021 15.0668 18.1226 13.5121 17.7397 11.4886C18.8022 12.4418 19.7085 13.559 20.4116 14.8011C20.7554 15.3793 21.0913 15.9652 20.9351 16.5746L31.4429 34.7777Z" fill="white"/>
<path fill-rule="evenodd" clip-rule="evenodd" d="M48.3802 29.4886C48.779 27.7535 48.9897 25.9464 48.9897 24.0902C48.9897 22.234 48.779 20.427 48.3802 18.6918H29.2788C28.6069 16.8871 26.3569 13.2933 25.0054 13.2933C23.6538 13.2933 21.4038 16.8871 20.7319 18.6918H1.59933C1.20048 20.427 0.989746 22.234 0.989746 24.0902C0.989746 25.9464 1.20048 27.7535 1.59933 29.4886H20.7319C21.4038 31.2933 23.6538 34.8871 25.0054 34.8871C26.3569 34.8871 28.6069 31.2933 29.2788 29.4886H48.3802Z" fill="#BB0000"/>
<path d="M29.2788 29.4886C29.9585 27.6918 30.4038 25.8871 30.4038 24.0902C30.4038 22.2933 29.9585 20.4886 29.2788 18.6918C28.6069 20.4886 28.1538 22.2933 28.1538 24.0902C28.1538 25.8871 28.6069 27.6918 29.2788 29.4886Z" fill="black"/>
<path d="M20.7319 29.4886C20.0522 27.6918 19.6069 25.8871 19.6069 24.0902C19.6069 22.2933 20.0522 20.4886 20.7319 18.6918C21.4038 20.4886 21.8569 22.2933 21.8569 24.0902C21.8569 25.8871 21.4038 27.6918 20.7319 29.4886Z" fill="black"/>
<path d="M25.0054 25.4418C25.5054 25.4418 25.9038 24.8324 25.9038 24.0902C25.9038 23.348 25.5054 22.7386 25.0054 22.7386C24.5054 22.7386 24.1069 23.348 24.1069 24.0902C24.1069 24.8324 24.5054 25.4418 25.0054 25.4418Z" fill="white"/>
<path d="M25.2319 25.3949C25.2319 25.3949 26.1304 27.1918 26.1304 30.1215C26.1304 33.0433 25.2319 34.848 25.2319 34.848V25.3949Z" fill="white"/>
<path d="M24.7788 22.7855C24.7788 22.7855 23.8804 20.9886 23.8804 18.059C23.8804 15.1371 24.7788 13.3324 24.7788 13.3324V22.7855Z" fill="white"/>
<path d="M24.7788 25.3949C24.7788 25.3949 23.8804 27.1918 23.8804 30.1215C23.8804 33.0433 24.7788 34.848 24.7788 34.848V25.3949Z" fill="white"/>
<path d="M25.2319 22.7855C25.2319 22.7855 26.1304 20.9886 26.1304 18.059C26.1304 15.1371 25.2319 13.3324 25.2319 13.3324V22.7855Z" fill="white"/>
<path fill-rule="evenodd" clip-rule="evenodd" d="M24.9897 46.6902C37.4714 46.6902 47.5897 36.5718 47.5897 24.0902C47.5897 11.6086 37.4714 1.49021 24.9897 1.49021C12.5081 1.49021 2.38975 11.6086 2.38975 24.0902C2.38975 36.5718 12.5081 46.6902 24.9897 46.6902ZM24.9897 48.0902C38.2446 48.0902 48.9897 37.345 48.9897 24.0902C48.9897 10.8354 38.2446 0.09021 24.9897 0.09021C11.7349 0.09021 0.989746 10.8354 0.989746 24.0902C0.989746 37.345 11.7349 48.0902 24.9897 48.0902Z" fill="#D9D9D9"/>
</g>
<defs>
<clipPath id="clip0_4012_213553">
<rect x="0.989746" y="0.09021" width="48" height="48" fill="white"/>
</clipPath>
</defs>
</svg>
