<svg width="49" height="49" viewBox="0 0 49 49" fill="none" xmlns="http://www.w3.org/2000/svg">
<g clip-path="url(#clip0_4012_213575)">
<path fill-rule="evenodd" clip-rule="evenodd" d="M32.7227 46.7245C42.0441 43.4298 48.7224 34.5399 48.7224 24.0902C48.7224 13.6432 42.0474 4.75517 32.7297 1.45844L32.7227 46.7245Z" fill="#FF0000"/>
<path fill-rule="evenodd" clip-rule="evenodd" d="M16.7227 46.7245C7.40112 43.4299 0.722656 34.5399 0.722656 24.0902C0.722656 13.6404 7.40112 4.75053 16.7227 1.45584V46.7245Z" fill="#009A00"/>
<path fill-rule="evenodd" clip-rule="evenodd" d="M32.7227 1.45586V46.7246C30.2204 47.609 27.5277 48.0902 24.7227 48.0902C21.9176 48.0902 19.2249 47.609 16.7227 46.7246V1.45586C19.2249 0.571444 21.9176 0.09021 24.7227 0.09021C27.5277 0.09021 30.2204 0.571444 32.7227 1.45586Z" fill="#FFFF00"/>
<path fill-rule="evenodd" clip-rule="evenodd" d="M24.7227 46.6902C37.2043 46.6902 47.3227 36.5718 47.3227 24.0902C47.3227 11.6086 37.2043 1.49021 24.7227 1.49021C12.241 1.49021 2.12266 11.6086 2.12266 24.0902C2.12266 36.5718 12.241 46.6902 24.7227 46.6902ZM24.7227 48.0902C37.9775 48.0902 48.7227 37.345 48.7227 24.0902C48.7227 10.8354 37.9775 0.09021 24.7227 0.09021C11.4678 0.09021 0.722656 10.8354 0.722656 24.0902C0.722656 37.345 11.4678 48.0902 24.7227 48.0902Z" fill="#D9D9D9"/>
</g>
<defs>
<clipPath id="clip0_4012_213575">
<rect x="0.722656" y="0.09021" width="48" height="48" fill="white"/>
</clipPath>
</defs>
</svg>
