<svg width="49" height="49" viewBox="0 0 49 49" fill="none" xmlns="http://www.w3.org/2000/svg">
<g clip-path="url(#clip0_4012_213583)">
<path fill-rule="evenodd" clip-rule="evenodd" d="M24.5249 48.0902C37.7797 48.0902 48.5249 37.345 48.5249 24.0902C48.5249 10.8354 37.7797 0.09021 24.5249 0.09021C11.2701 0.09021 0.524902 10.8354 0.524902 24.0902C0.524902 37.345 11.2701 48.0902 24.5249 48.0902Z" fill="#C1272D"/>
<path fill-rule="evenodd" clip-rule="evenodd" d="M24.5248 18.1242L25.8671 22.253H30.1976L26.6932 24.7942L28.0309 28.909L24.5248 26.3666L21.0187 28.909L22.3564 24.7942L18.8521 22.253H23.1825L24.5248 18.1242ZM22.8973 23.1305H21.5569L22.6416 23.917L22.8973 23.1305ZM23.3883 24.4585L23.82 23.1305H25.2296L25.6613 24.4585L24.5248 25.2826L23.3883 24.4585ZM23.1031 25.3356L22.6871 26.6152L23.7774 25.8246L23.1031 25.3356ZM25.2722 25.8246L26.3625 26.6152L25.9465 25.3356L25.2722 25.8246ZM26.408 23.917L27.4927 23.1305H26.1523L26.408 23.917ZM24.9444 22.253H24.1053L24.5248 20.9625L24.9444 22.253Z" fill="#006233"/>
<path fill-rule="evenodd" clip-rule="evenodd" d="M24.5249 46.6902C37.0065 46.6902 47.1249 36.5718 47.1249 24.0902C47.1249 11.6086 37.0065 1.49021 24.5249 1.49021C12.0433 1.49021 1.9249 11.6086 1.9249 24.0902C1.9249 36.5718 12.0433 46.6902 24.5249 46.6902ZM24.5249 48.0902C37.7797 48.0902 48.5249 37.345 48.5249 24.0902C48.5249 10.8354 37.7797 0.09021 24.5249 0.09021C11.2701 0.09021 0.524902 10.8354 0.524902 24.0902C0.524902 37.345 11.2701 48.0902 24.5249 48.0902Z" fill="#D9D9D9"/>
</g>
<defs>
<clipPath id="clip0_4012_213583">
<rect x="0.524902" y="0.09021" width="48" height="48" fill="white"/>
</clipPath>
</defs>
</svg>
