<svg width="49" height="49" viewBox="0 0 49 49" fill="none" xmlns="http://www.w3.org/2000/svg">
<g clip-path="url(#clip0_4012_213590)">
<path fill-rule="evenodd" clip-rule="evenodd" d="M24.2573 48.0902C37.5122 48.0902 48.2573 37.345 48.2573 24.0902C48.2573 10.8354 37.5122 0.09021 24.2573 0.09021C11.0025 0.09021 0.257324 10.8354 0.257324 24.0902C0.257324 37.345 11.0025 48.0902 24.2573 48.0902Z" fill="white"/>
<path fill-rule="evenodd" clip-rule="evenodd" d="M32.2523 46.7263C41.5765 43.4331 48.2573 34.5418 48.2573 24.0902C48.2573 13.6386 41.5765 4.74738 32.2523 1.4541V46.7263ZM0.257324 24.0902C0.257324 34.539 6.93459 43.4283 16.2548 46.7237V1.45675C6.93459 4.75215 0.257324 13.6414 0.257324 24.0902Z" fill="#008753"/>
<path fill-rule="evenodd" clip-rule="evenodd" d="M24.2573 46.6902C36.739 46.6902 46.8573 36.5718 46.8573 24.0902C46.8573 11.6086 36.739 1.49021 24.2573 1.49021C11.7757 1.49021 1.65732 11.6086 1.65732 24.0902C1.65732 36.5718 11.7757 46.6902 24.2573 46.6902ZM24.2573 48.0902C37.5122 48.0902 48.2573 37.345 48.2573 24.0902C48.2573 10.8354 37.5122 0.09021 24.2573 0.09021C11.0025 0.09021 0.257324 10.8354 0.257324 24.0902C0.257324 37.345 11.0025 48.0902 24.2573 48.0902Z" fill="#D9D9D9"/>
</g>
<defs>
<clipPath id="clip0_4012_213590">
<rect x="0.257324" y="0.09021" width="48" height="48" fill="white"/>
</clipPath>
</defs>
</svg>
