<svg width="49" height="49" viewBox="0 0 49 49" fill="none" xmlns="http://www.w3.org/2000/svg">
<g clip-path="url(#clip0_4012_213597)">
<path fill-rule="evenodd" clip-rule="evenodd" d="M24.9897 48.0902C38.2446 48.0902 48.9897 37.345 48.9897 24.0902C48.9897 16.9221 45.8472 10.4879 40.8647 6.09021H9.1148C4.13228 10.4879 0.989746 16.9221 0.989746 24.0902C0.989746 37.345 11.7349 48.0902 24.9897 48.0902Z" fill="#20603D"/>
<path fill-rule="evenodd" clip-rule="evenodd" d="M47.2452 33.0902C48.3702 30.3109 48.9897 27.2729 48.9897 24.0902C48.9897 16.9221 45.8472 10.4879 40.8647 6.09021H9.1148C4.13228 10.4879 0.989746 16.9221 0.989746 24.0902C0.989746 27.2729 1.60927 30.3109 2.7343 33.0902H47.2452Z" fill="#FAD201"/>
<path fill-rule="evenodd" clip-rule="evenodd" d="M48.9897 24.0902C48.9897 10.8354 38.2446 0.09021 24.9897 0.09021C11.7349 0.09021 0.989746 10.8354 0.989746 24.0902H48.9897Z" fill="#00A1DE"/>
<path fill-rule="evenodd" clip-rule="evenodd" d="M41.0991 15.2621L45.1226 15.4965L41.0991 15.7308L44.9194 16.9965L40.9819 16.184L44.3413 18.3949L40.7484 16.5828C40.9777 16.2812 41.1138 15.9048 41.1138 15.4965C41.1138 14.9161 40.8388 14.3973 40.4117 14.0667L43.4116 11.3871L40.7476 14.4027L44.3413 12.598L40.9819 14.809L44.9194 13.9886L41.0991 15.2621ZM40.4116 14.0667L42.2163 10.4652L40.0066 13.8305C40.1523 13.8915 40.2883 13.9713 40.4116 14.0667ZM40.0058 13.8302L40.8179 9.8949L39.5522 13.7074L39.3179 9.69177L39.0835 13.7074L37.8179 9.8949L38.6224 13.8315C38.8362 13.7422 39.071 13.6927 39.3179 13.6927C39.5617 13.6927 39.794 13.7417 40.0058 13.8302ZM38.6221 13.8317L36.4116 10.4652L38.2163 14.0668L35.2163 11.3871L37.8857 14.3999C38.0759 14.1518 38.3292 13.9542 38.6221 13.8317ZM37.8849 14.4011L34.2866 12.598L37.646 14.809L33.7085 13.9886L37.5288 15.2621L33.5132 15.4965L37.5288 15.7308L33.7085 16.9965L37.646 16.184L34.2866 18.3949L37.8822 16.5854C37.6511 16.2834 37.5142 15.906 37.5142 15.4965C37.5142 15.0854 37.6521 14.7053 37.8849 14.4011ZM37.8837 16.5875L35.2163 19.598L38.2163 16.9261L36.4116 20.5277L38.6226 17.1605L37.8179 21.098L39.0835 17.2777L39.3179 21.3011L39.5522 17.2777L40.8179 21.098L40.0054 17.1605L42.2163 20.5277L40.4116 16.9261L43.4116 19.598L40.7482 16.5831C40.4202 17.0142 39.9017 17.2924 39.3179 17.2924C38.7316 17.2924 38.2127 17.0161 37.8837 16.5875ZM37.6842 15.4965C37.6842 14.5978 38.412 13.8627 39.3179 13.8627C40.2158 13.8627 40.9438 14.5976 40.9438 15.4965C40.9438 16.3948 40.2163 17.1224 39.3179 17.1224C38.4115 17.1224 37.6842 16.3946 37.6842 15.4965Z" fill="#E5BE01"/>
<path fill-rule="evenodd" clip-rule="evenodd" d="M24.9897 46.6902C37.4714 46.6902 47.5897 36.5718 47.5897 24.0902C47.5897 11.6086 37.4714 1.49021 24.9897 1.49021C12.5081 1.49021 2.38975 11.6086 2.38975 24.0902C2.38975 36.5718 12.5081 46.6902 24.9897 46.6902ZM24.9897 48.0902C38.2446 48.0902 48.9897 37.345 48.9897 24.0902C48.9897 10.8354 38.2446 0.09021 24.9897 0.09021C11.7349 0.09021 0.989746 10.8354 0.989746 24.0902C0.989746 37.345 11.7349 48.0902 24.9897 48.0902Z" fill="#D9D9D9"/>
</g>
<defs>
<clipPath id="clip0_4012_213597">
<rect x="0.989746" y="0.09021" width="48" height="48" fill="white"/>
</clipPath>
</defs>
</svg>
