<svg width="49" height="49" viewBox="0 0 49 49" fill="none" xmlns="http://www.w3.org/2000/svg">
<g clip-path="url(#clip0_4012_213615)">
<path fill-rule="evenodd" clip-rule="evenodd" d="M2.43077 33.4788C1.20379 30.595 0.524902 27.4219 0.524902 24.0902C0.524902 20.7612 1.20267 17.5906 2.42774 14.7087L16.4079 24.0968L2.43077 33.4788Z" fill="black"/>
<path fill-rule="evenodd" clip-rule="evenodd" d="M47.7662 30.1014C45.098 40.4471 35.7042 48.0902 24.5252 48.0902C19.0463 48.0902 13.9962 46.2543 9.95654 43.1642L11.3597 42.0895H11.3701L29.1905 30.1014H47.7662Z" fill="#000C8A"/>
<path fill-rule="evenodd" clip-rule="evenodd" d="M9.87012 5.08242C13.924 1.95232 19.007 0.09021 24.5248 0.09021C35.7111 0.09021 45.11 7.74334 47.771 18.0993H29.1835L11.3529 6.09021L9.87012 5.08242Z" fill="#E1392D"/>
<path fill-rule="evenodd" clip-rule="evenodd" d="M2.42822 14.708C2.73827 13.9787 3.08337 13.2679 3.46141 12.5777L20.5213 24.0968L3.46434 35.608C3.08616 34.918 2.7409 34.2073 2.43069 33.4782L16.4081 24.0898L2.42822 14.708Z" fill="#FFB915"/>
<path fill-rule="evenodd" clip-rule="evenodd" d="M48.2465 27.7601C48.4301 26.5636 48.5253 25.3381 48.5253 24.0902C48.5253 22.847 48.4308 21.6259 48.2486 20.4337H28.3821L8.03488 6.65271C6.22084 8.36883 4.67444 10.365 3.46484 12.5719L20.5213 24.0969L3.46615 35.6109C4.67489 37.8158 6.21982 39.8101 8.03194 41.525L28.3821 27.7601H48.2465Z" fill="#007847"/>
<path fill-rule="evenodd" clip-rule="evenodd" d="M9.87301 5.08057L11.3596 6.09018L29.1905 18.0923H47.7698C47.9669 18.8586 48.1272 19.6397 48.2486 20.4336H28.3819L8.02783 6.65932C8.61555 6.10288 9.2314 5.57584 9.87301 5.08057ZM9.96036 43.1669C9.28878 42.6534 8.64512 42.1052 8.03203 41.525L28.3819 27.7671H48.2455C48.1238 28.5586 47.9634 29.3374 47.7664 30.1014H29.1905L11.3596 42.0964L9.96036 43.1669Z" fill="white"/>
<path fill-rule="evenodd" clip-rule="evenodd" d="M24.5254 46.6902C37.007 46.6902 47.1254 36.5718 47.1254 24.0902C47.1254 11.6086 37.007 1.49021 24.5254 1.49021C12.0438 1.49021 1.92539 11.6086 1.92539 24.0902C1.92539 36.5718 12.0438 46.6902 24.5254 46.6902ZM24.5254 48.0902C37.7802 48.0902 48.5254 37.345 48.5254 24.0902C48.5254 10.8354 37.7802 0.09021 24.5254 0.09021C11.2706 0.09021 0.525391 10.8354 0.525391 24.0902C0.525391 37.345 11.2706 48.0902 24.5254 48.0902Z" fill="#D9D9D9"/>
</g>
<defs>
<clipPath id="clip0_4012_213615">
<rect x="0.524902" y="0.09021" width="48" height="48" fill="white"/>
</clipPath>
</defs>
</svg>
