<svg width="49" height="49" viewBox="0 0 49 49" fill="none" xmlns="http://www.w3.org/2000/svg">
<g clip-path="url(#clip0_4012_213626)">
<path fill-rule="evenodd" clip-rule="evenodd" d="M24.5249 48.0902C37.7797 48.0902 48.5249 37.345 48.5249 24.0902C48.5249 10.8354 37.7797 0.09021 24.5249 0.09021C11.2701 0.09021 0.524902 10.8354 0.524902 24.0902C0.524902 37.345 11.2701 48.0902 24.5249 48.0902Z" fill="#0099FF"/>
<path fill-rule="evenodd" clip-rule="evenodd" d="M44.4962 10.776L4.55358 37.4044C2.00866 33.5946 0.524902 29.0157 0.524902 24.0902C0.524902 10.8354 11.2701 0.09021 24.5249 0.09021C32.8543 0.09021 40.1926 4.33335 44.4962 10.776Z" fill="#009900"/>
<path fill-rule="evenodd" clip-rule="evenodd" d="M47.2884 16.4651L9.52507 42.0902L9.03114 42.4195C5.71538 39.6138 3.17112 35.9247 1.76172 31.7153L39.5251 6.09021L40.019 5.76093C43.3348 8.5666 45.879 12.2558 47.2884 16.4651Z" fill="black"/>
<path fill-rule="evenodd" clip-rule="evenodd" d="M47.5487 17.2921L10.3651 42.0902L9.42938 42.7492C8.81978 42.2554 8.23485 41.7323 7.67675 41.1821L46.785 15.1013C47.0736 15.8152 47.3288 16.5461 47.5487 17.2921ZM2.26515 33.0791L41.3734 6.99827C40.8202 6.4529 40.2407 5.93419 39.6368 5.44421L38.6851 6.0902L1.50146 30.8883C1.7214 31.6343 1.9766 32.3652 2.26515 33.0791Z" fill="#FFFF00"/>
<path fill-rule="evenodd" clip-rule="evenodd" d="M24.5249 46.6902C37.0065 46.6902 47.1249 36.5718 47.1249 24.0902C47.1249 11.6086 37.0065 1.49021 24.5249 1.49021C12.0433 1.49021 1.9249 11.6086 1.9249 24.0902C1.9249 36.5718 12.0433 46.6902 24.5249 46.6902ZM24.5249 48.0902C37.7797 48.0902 48.5249 37.345 48.5249 24.0902C48.5249 10.8354 37.7797 0.09021 24.5249 0.09021C11.2701 0.09021 0.524902 10.8354 0.524902 24.0902C0.524902 37.345 11.2701 48.0902 24.5249 48.0902Z" fill="#D9D9D9"/>
</g>
<defs>
<clipPath id="clip0_4012_213626">
<rect x="0.524902" y="0.09021" width="48" height="48" fill="white"/>
</clipPath>
</defs>
</svg>
