<svg width="49" height="49" viewBox="0 0 49 49" fill="none" xmlns="http://www.w3.org/2000/svg">
<g clip-path="url(#clip0_4012_213635)">
<path fill-rule="evenodd" clip-rule="evenodd" d="M3.73592 36.0902C2.66168 34.2332 1.82912 32.2188 1.28125 30.0902H47.769C47.2212 32.2188 46.3886 34.2332 45.3144 36.0902H3.73592Z" fill="#FFE700"/>
<path fill-rule="evenodd" clip-rule="evenodd" d="M47.7688 30.0902C48.2624 28.1725 48.5249 26.162 48.5249 24.0902H0.524902C0.524902 26.162 0.78742 28.1725 1.28101 30.0902H47.7688Z" fill="black"/>
<path fill-rule="evenodd" clip-rule="evenodd" d="M47.7688 18.0902C48.2624 20.0079 48.5249 22.0184 48.5249 24.0902H0.524902C0.524902 22.0184 0.78742 20.0079 1.28101 18.0902H47.7688Z" fill="#DE3908"/>
<path fill-rule="evenodd" clip-rule="evenodd" d="M47.769 18.0902H1.28125C1.82912 15.9616 2.66168 13.9472 3.73592 12.0902H45.3144C46.3886 13.9472 47.2212 15.9616 47.769 18.0902Z" fill="#FFE700"/>
<path fill-rule="evenodd" clip-rule="evenodd" d="M45.3143 12.0902H3.73584C7.88555 4.91659 15.6417 0.09021 24.5251 0.09021C33.4085 0.09021 41.1646 4.91659 45.3143 12.0902Z" fill="black"/>
<path fill-rule="evenodd" clip-rule="evenodd" d="M30.1265 24.0902C30.1265 25.5746 29.5405 27.0043 28.4858 28.0511C27.439 29.1058 26.0093 29.6918 24.5249 29.6918C23.0405 29.6918 21.6108 29.1058 20.564 28.0511C19.5093 27.0043 18.9233 25.5746 18.9233 24.0902C18.9233 22.6058 19.5093 21.1761 20.564 20.1293C21.6108 19.0746 23.0405 18.4886 24.5249 18.4886C26.0093 18.4886 27.439 19.0746 28.4858 20.1293C29.5405 21.1761 30.1265 22.6058 30.1265 24.0902Z" fill="#FFFDFF"/>
<path fill-rule="evenodd" clip-rule="evenodd" d="M24.5249 18.5238C23.0498 18.5238 21.6291 19.1061 20.5889 20.154L20.5887 20.1542C19.5408 21.1944 18.9585 22.6151 18.9585 24.0902C18.9585 25.5654 19.5408 26.986 20.5887 28.0262L20.5889 28.0264C21.6291 29.0743 23.0498 29.6566 24.5249 29.6566C26.0001 29.6566 27.4207 29.0743 28.4609 28.0264L28.4611 28.0262C29.509 26.986 30.0913 25.5654 30.0913 24.0902C30.0913 22.6151 29.509 21.1944 28.4611 20.1542L28.4609 20.154C27.4207 19.1061 26.0001 18.5238 24.5249 18.5238ZM20.5391 20.1044C21.5927 19.043 23.0313 18.4535 24.5249 18.4535C26.0185 18.4535 27.4571 19.043 28.5107 20.1044C29.5721 21.158 30.1616 22.5967 30.1616 24.0902C30.1616 25.5838 29.5721 27.0224 28.5107 28.076C27.4571 29.1374 26.0185 29.7269 24.5249 29.7269C23.0313 29.7269 21.5927 29.1374 20.5391 28.076C19.4777 27.0224 18.8882 25.5838 18.8882 24.0902C18.8882 22.5967 19.4777 21.158 20.5391 20.1044Z" fill="black"/>
<path fill-rule="evenodd" clip-rule="evenodd" d="M45.3143 36.0902C41.1646 43.2638 33.4085 48.0902 24.5251 48.0902C15.6417 48.0902 7.88555 43.2638 3.73584 36.0902H45.3143Z" fill="#DE3908"/>
<path d="M22.8675 19.7497L22.5015 19.0777C22.6395 18.9397 22.8795 18.8317 23.2575 18.8317C23.2575 18.8557 23.2215 19.5637 23.2215 19.5637L22.8675 19.7497Z" fill="#D90000"/>
<path d="M22.8553 19.7916L22.4653 19.0776L22.4833 19.0596C22.6513 18.8916 22.9213 18.8016 23.2573 18.8016H23.2873V18.8316C23.2873 18.8556 23.2513 19.4976 23.2513 19.5696V19.5876L22.8553 19.7916ZM22.5433 19.0836L22.8793 19.7076L23.1913 19.5456C23.2033 19.2996 23.2213 18.9636 23.2273 18.8616C22.9273 18.8676 22.6933 18.9396 22.5433 19.0836Z" fill="black"/>
<path d="M23.2212 19.5697L23.2752 18.8317C23.2752 18.8317 24.0312 18.7897 24.4392 19.2757C24.4452 19.2697 24.0372 19.8517 24.0372 19.8517L23.2212 19.5697Z" fill="#FCDC04"/>
<path d="M24.0434 19.8877L23.1914 19.5937L23.2454 18.8017H23.2694C23.2994 18.8017 24.0434 18.7597 24.4574 19.2577C24.4754 19.2697 24.4754 19.2697 24.2594 19.5817L24.0434 19.8877ZM23.2514 19.5517L24.0194 19.8157C24.1574 19.6237 24.3434 19.3477 24.3974 19.2817C24.0434 18.8737 23.4374 18.8617 23.2994 18.8617L23.2514 19.5517Z" fill="black"/>
<path d="M24.0435 19.8457L24.4155 19.2697C24.6615 19.5337 24.7695 19.7137 24.8055 19.9957C24.8115 20.0017 24.2175 20.1397 24.2175 20.1337C24.2175 20.1337 24.0495 19.8517 24.0435 19.8457Z" fill="#D90000"/>
<path d="M24.2056 20.1697L24.1816 20.1637V20.1457C24.1636 20.1097 24.0256 19.8757 24.0136 19.8637L23.9956 19.8457L24.0136 19.8277L24.4036 19.2217L24.4276 19.2517C24.6856 19.5217 24.7816 19.7077 24.8236 19.9837L24.8356 19.9957L24.8236 20.0137C24.8116 20.0497 24.2176 20.1697 24.2056 20.1697ZM24.0796 19.8457C24.1156 19.8997 24.1996 20.0437 24.2356 20.1037C24.3196 20.0857 24.6796 20.0017 24.7756 19.9777C24.7396 19.7317 24.6436 19.5577 24.4216 19.3177L24.0796 19.8457Z" fill="black"/>
<path d="M23.0536 29.3317C23.0536 29.3317 23.7496 28.5337 25.0996 28.7077C24.8956 28.3777 24.2356 28.4137 24.2356 28.4137C24.2356 28.4137 24.0316 26.8597 24.1936 26.7877C24.3556 26.7097 25.0276 26.7937 25.0276 26.7937C25.1176 26.7937 25.2676 26.5537 25.1476 26.3977C25.0276 26.2417 24.6676 25.6597 24.8176 25.5397C24.9616 25.4257 25.7596 25.6057 25.7596 25.6057L23.5036 22.7197C23.5036 22.7197 23.2756 21.6337 23.7316 21.1117C24.2896 20.6497 24.2296 20.1517 24.2116 20.1577C24.1336 19.6537 23.3716 19.2877 22.8496 19.7557C22.5436 20.1277 22.7476 20.4097 22.7476 20.4097C22.7476 20.4097 21.9436 20.6257 21.9136 20.7697C21.8836 20.9077 22.8196 20.7457 22.8196 20.7457L22.7296 21.3877C22.7296 21.3877 20.9056 23.0497 22.3036 24.4837C22.3156 24.4777 22.3456 24.4177 22.3456 24.4177C22.3456 24.4177 22.8376 25.0237 23.3536 25.1557C23.8396 25.6537 23.7916 25.5757 23.7916 25.5757C23.7916 25.5757 23.8876 26.3617 23.7976 26.5117C23.6776 26.4757 22.4356 26.4277 22.2556 26.4997C22.0876 26.5537 21.4516 26.5177 21.6136 27.5617C21.7336 27.2797 21.8416 27.0337 21.8416 27.0337C21.8416 27.0337 21.8236 27.4117 21.9736 27.5437C21.9496 27.1477 22.1176 26.8777 22.1176 26.8777C22.1176 26.8777 22.1476 27.3097 22.2436 27.3757C22.3396 27.4417 22.3396 26.6737 22.8676 26.7397C23.3956 26.8057 23.7796 26.7817 23.7796 26.7817C23.7796 26.7817 23.9596 28.2817 23.8996 28.4197C23.5156 28.3297 22.6036 28.4557 22.5436 28.6897C23.0776 28.6597 23.3296 28.7197 23.3296 28.7197C23.3296 28.7197 22.9216 29.1037 23.0536 29.3317Z" fill="black"/>
<path d="M23.0475 29.3797L23.0235 29.3437C22.9035 29.1457 23.1735 28.8457 23.2875 28.7377C23.1855 28.7197 22.9515 28.6957 22.5675 28.7197H22.5255L22.5375 28.6777C22.6035 28.4137 23.5155 28.3117 23.8995 28.3837C23.9235 28.2097 23.8395 27.3757 23.7735 26.8117C23.6775 26.8117 23.3295 26.8177 22.8855 26.7637C22.5495 26.7217 22.4415 27.0517 22.3755 27.2437C22.3455 27.3397 22.3275 27.3877 22.2915 27.3997C22.2795 27.4057 22.2615 27.3997 22.2495 27.3937C22.1715 27.3397 22.1355 27.1177 22.1175 26.9737C22.0695 27.0817 22.0035 27.2797 22.0215 27.5317L22.0275 27.6037L21.9735 27.5557C21.8715 27.4657 21.8415 27.2857 21.8295 27.1597C21.7875 27.2617 21.7215 27.4057 21.6555 27.5617L21.6135 27.6577L21.5955 27.5557C21.4515 26.6137 21.9495 26.5237 22.1835 26.4817C22.2135 26.4757 22.2435 26.4697 22.2615 26.4637C22.4475 26.3917 23.5815 26.4337 23.7975 26.4697C23.8515 26.3197 23.8035 25.8037 23.7795 25.5877C23.7315 25.5577 23.6235 25.4497 23.3535 25.1737C22.8975 25.0537 22.4775 24.5857 22.3635 24.4597C22.3455 24.4897 22.3335 24.4957 22.3275 24.5017L22.3095 24.5137L22.2915 24.4957C21.9195 24.1177 21.7455 23.6857 21.7575 23.2177C21.7875 22.2637 22.6215 21.4477 22.7115 21.3637L22.7955 20.7697C22.5675 20.8117 21.9975 20.8957 21.9075 20.8057C21.8955 20.7937 21.8895 20.7697 21.8955 20.7517C21.9255 20.6137 22.5195 20.4337 22.7175 20.3797C22.6695 20.2897 22.5855 20.0317 22.8435 19.7257C23.0835 19.5037 23.4135 19.4437 23.7195 19.5517C24.0015 19.6537 24.2115 19.8817 24.2535 20.1337C24.2775 20.1757 24.3195 20.6617 23.7675 21.1177C23.3475 21.5977 23.5275 22.5997 23.5455 22.6897L25.8435 25.6357L25.7595 25.6177C25.4415 25.5457 24.9375 25.4677 24.8415 25.5457C24.8295 25.5577 24.8235 25.5697 24.8175 25.5937C24.7995 25.7677 25.0635 26.2177 25.1775 26.3617C25.2375 26.4397 25.2435 26.5537 25.1955 26.6617C25.1595 26.7337 25.0995 26.8057 25.0335 26.8057C24.8415 26.7817 24.3375 26.7337 24.2115 26.7937C24.1275 26.8357 24.1755 27.6337 24.2715 28.3657C24.4035 28.3597 24.9435 28.3657 25.1355 28.6717L25.1655 28.7257L25.1055 28.7197C23.7855 28.5517 23.0895 29.3257 23.0835 29.3377L23.0475 29.3797ZM22.8555 28.6537C23.1915 28.6537 23.3475 28.6957 23.3595 28.6957L23.4135 28.7077L23.3715 28.7437C23.2635 28.8397 23.0175 29.1037 23.0595 29.2717C23.2095 29.1217 23.8815 28.5397 25.0335 28.6597C24.8055 28.4017 24.2475 28.4317 24.2415 28.4317H24.2115L24.2055 28.4017C24.1575 28.0357 24.0135 26.8237 24.1755 26.7457C24.3435 26.6677 24.9975 26.7457 25.0275 26.7517C25.0515 26.7517 25.0995 26.7097 25.1295 26.6437C25.1475 26.6077 25.1895 26.4937 25.1235 26.4037C25.0395 26.3017 24.7275 25.8097 24.7515 25.5937C24.7575 25.5577 24.7695 25.5277 24.7935 25.5037C24.9255 25.4017 25.4655 25.4977 25.6815 25.5457L23.4735 22.7197V22.7137C23.4615 22.6717 23.2455 21.6097 23.7075 21.0817C24.1695 20.6977 24.1995 20.2957 24.1875 20.1877H24.1815L24.1755 20.1517C24.1395 19.9177 23.9475 19.7077 23.6775 19.6117C23.3895 19.5097 23.0895 19.5637 22.8675 19.7677C22.5795 20.1157 22.7655 20.3737 22.7715 20.3797L22.7955 20.4157L22.7535 20.4277C22.3695 20.5297 21.9555 20.6857 21.9375 20.7637C21.9735 20.8117 22.4175 20.7697 22.8075 20.7037L22.8495 20.6977L22.7535 21.3937L22.7475 21.3997C22.7355 21.4057 21.8355 22.2397 21.8055 23.2177C21.7935 23.6617 21.9555 24.0637 22.2975 24.4237C22.3035 24.4117 22.3095 24.3997 22.3155 24.3877L22.3395 24.3517L22.3695 24.3877C22.3755 24.3937 22.8615 24.9877 23.3595 25.1197H23.3655L23.3715 25.1257C23.7255 25.4917 23.7915 25.5397 23.8035 25.5457L23.7915 25.5637L23.8155 25.5577L23.8275 25.5817L23.8215 25.5877C23.8395 25.7257 23.9115 26.3797 23.8215 26.5237L23.8095 26.5417L23.7855 26.5357C23.6655 26.4997 22.4355 26.4577 22.2615 26.5237C22.2375 26.5297 22.2075 26.5357 22.1775 26.5417C21.9495 26.5837 21.5355 26.6617 21.6255 27.4417C21.7275 27.2017 21.8115 27.0097 21.8115 27.0097L21.8715 27.0217C21.8715 27.0277 21.8595 27.2857 21.9435 27.4417C21.9435 27.0937 22.0935 26.8597 22.0995 26.8537L22.1475 26.7757L22.1535 26.8657C22.1655 27.0337 22.2075 27.2797 22.2615 27.3337C22.2735 27.3157 22.2915 27.2617 22.3035 27.2197C22.3695 27.0217 22.4895 26.6497 22.8795 26.6977C23.4015 26.7577 23.7855 26.7397 23.7855 26.7397H23.8155L23.8215 26.7697C23.8395 26.9257 24.0015 28.2817 23.9415 28.4257L23.9295 28.4497L23.9055 28.4437C23.5455 28.3597 22.7535 28.4737 22.6095 28.6477C22.7055 28.6537 22.7895 28.6537 22.8555 28.6537Z" fill="black"/>
<path d="M23.2694 21.1476C23.2694 21.1476 21.9434 22.6116 22.5134 23.7336C22.5434 23.5776 22.5314 23.4816 22.5494 23.4876C22.5194 23.4696 22.7114 23.6196 22.6994 23.5896C22.7054 23.5116 22.6394 23.3376 22.6394 23.3376C22.6994 23.3496 22.7594 23.3676 22.8194 23.3796C22.7834 23.3136 22.7474 23.2476 22.7174 23.1876C22.8014 23.1996 22.8854 23.2056 22.9694 23.2176C22.9694 23.2176 22.8794 22.9776 22.9094 22.9776C22.9394 22.9776 23.1194 22.9896 23.1194 22.9896C22.7414 22.3116 23.0954 21.7476 23.2694 21.1476Z" fill="#9CA69C"/>
<path d="M22.5253 23.8236L22.4833 23.7456C21.9073 22.6176 23.2273 21.1416 23.2453 21.1296L23.2993 21.1596C23.2633 21.2856 23.2213 21.4056 23.1793 21.5256C23.0113 21.9996 22.8553 22.4496 23.1493 22.9776L23.1793 23.0256L23.1253 23.0196C23.0833 23.0136 22.9933 23.0076 22.9453 23.0076C22.9513 23.0496 22.9813 23.1336 23.0053 23.2056L23.0233 23.2536L22.7773 23.2236L22.8853 23.4276L22.6933 23.3796C22.7113 23.4396 22.7353 23.5296 22.7353 23.5836L22.7413 23.6016L22.7173 23.6196C22.6873 23.6376 22.6153 23.5836 22.5673 23.5416V23.5476C22.5673 23.5896 22.5613 23.6556 22.5433 23.7396L22.5253 23.8236ZM23.1973 21.2796C22.9153 21.6276 22.1293 22.7316 22.5013 23.6256C22.5073 23.5896 22.5073 23.5656 22.5073 23.5416C22.5073 23.5176 22.5073 23.4996 22.5133 23.4876L22.5073 23.4816L22.5373 23.4396L22.5613 23.4516L22.5553 23.4636L22.5673 23.4576C22.5733 23.4636 22.6273 23.5056 22.6633 23.5296C22.6513 23.4636 22.6213 23.3736 22.6093 23.3376L22.5913 23.2836L22.7593 23.3256L22.6573 23.1396L22.9213 23.1696C22.8553 22.9836 22.8673 22.9596 22.8793 22.9476L22.8853 22.9356H22.9033C22.9213 22.9356 23.0053 22.9416 23.0593 22.9476C22.7893 22.4136 22.9513 21.9456 23.1133 21.4956C23.1433 21.4296 23.1733 21.3516 23.1973 21.2796Z" fill="#9CA69C"/>
<path d="M23.7313 19.8877C23.7313 19.8877 23.8033 20.3917 23.5273 20.5417C23.4853 20.5717 23.3113 20.6317 23.3353 20.7337C23.3653 20.8717 23.4433 20.8477 23.5513 20.8237C23.8393 20.7697 24.1693 20.1577 23.7313 19.8877Z" fill="#9CA69C"/>
<path d="M23.4375 20.8717C23.4135 20.8717 23.3895 20.8657 23.3715 20.8537C23.3415 20.8357 23.3175 20.7997 23.3055 20.7397C23.2815 20.6377 23.3955 20.5777 23.4675 20.5417C23.4855 20.5357 23.4975 20.5237 23.5095 20.5177C23.7675 20.3797 23.7015 19.8997 23.7015 19.8937L23.6955 19.8337L23.7495 19.8637C23.9295 19.9717 24.0075 20.1517 23.9655 20.3617C23.9235 20.5957 23.7375 20.8177 23.5575 20.8477L23.5455 20.8537C23.5035 20.8657 23.4735 20.8717 23.4375 20.8717ZM23.7675 19.9537C23.7795 20.0977 23.7735 20.4457 23.5395 20.5717C23.5335 20.5777 23.5155 20.5837 23.4975 20.5957C23.4255 20.6317 23.3535 20.6737 23.3655 20.7277C23.3775 20.7697 23.3895 20.7937 23.4075 20.8057C23.4315 20.8237 23.4795 20.8117 23.5335 20.7997L23.5515 20.7937C23.7075 20.7637 23.8755 20.5597 23.9115 20.3557C23.9235 20.2537 23.9295 20.0797 23.7675 19.9537Z" fill="#9CA69C"/>
<path d="M23.1373 20.4337C23.1969 20.4337 23.2453 20.3853 23.2453 20.3257C23.2453 20.266 23.1969 20.2177 23.1373 20.2177C23.0776 20.2177 23.0293 20.266 23.0293 20.3257C23.0293 20.3853 23.0776 20.4337 23.1373 20.4337Z" fill="white"/>
<path d="M22.8136 20.7456C22.7416 20.8056 22.3756 21.1836 22.7356 21.3276C23.1136 21.2256 23.0116 21.1536 23.0956 21.0696C23.0956 20.8956 22.9036 20.8536 22.8136 20.7456Z" fill="#D90000"/>
<path d="M22.7357 21.3576L22.7237 21.3516C22.6217 21.3096 22.5617 21.2496 22.5497 21.1656C22.5197 20.9856 22.7357 20.7636 22.7897 20.7156L22.8137 20.6976L22.8317 20.7216C22.8617 20.7576 22.8977 20.7816 22.9397 20.8116C23.0237 20.8716 23.1197 20.9376 23.1197 21.0696V21.0816L23.1137 21.0876C23.0957 21.1056 23.0897 21.1236 23.0777 21.1476C23.0477 21.2256 23.0057 21.2796 22.7417 21.3516L22.7357 21.3576ZM22.8077 20.7876C22.7297 20.8596 22.5857 21.0336 22.6097 21.1596C22.6217 21.2196 22.6637 21.2616 22.7357 21.2916C22.9817 21.2256 23.0057 21.1716 23.0237 21.1236C23.0297 21.1056 23.0417 21.0816 23.0597 21.0576C23.0537 20.9676 22.9877 20.9196 22.9097 20.8656C22.8737 20.8416 22.8377 20.8176 22.8077 20.7876Z" fill="black"/>
<path d="M23.6175 24.3636C23.5995 24.4476 23.5155 24.7536 23.6295 24.9876C23.9475 24.8556 24.0975 24.8916 24.2055 24.9636C23.9415 24.7536 23.8395 24.6636 23.6175 24.3636Z" fill="#9CA69C"/>
<path d="M23.6117 25.0297L23.5997 25.0057C23.4857 24.7717 23.5577 24.4837 23.5817 24.3757L23.5997 24.2977L23.6357 24.3517C23.8577 24.6517 23.9597 24.7357 24.2177 24.9457L24.1817 24.9937C24.0857 24.9277 23.9477 24.8917 23.6357 25.0237L23.6117 25.0297ZM23.6297 24.4357C23.6057 24.5557 23.5697 24.7717 23.6417 24.9517C23.8217 24.8797 23.9477 24.8617 24.0437 24.8737C23.8877 24.7417 23.7917 24.6457 23.6297 24.4357Z" fill="#9CA69C"/>
<path d="M24.1631 25.8157L24.1811 26.5297C24.1811 26.5297 24.4271 26.5717 24.5471 26.5297C24.6611 26.4817 24.5411 26.0317 24.1631 25.8157Z" fill="white"/>
<path d="M24.4033 26.5777C24.2953 26.5777 24.1873 26.5597 24.1813 26.5597L24.1573 26.5537L24.1333 25.7617L24.1813 25.7857C24.4813 25.9597 24.6313 26.2897 24.6193 26.4517C24.6133 26.5237 24.5773 26.5477 24.5593 26.5537C24.5173 26.5717 24.4573 26.5777 24.4033 26.5777ZM24.2113 26.4997C24.2773 26.5117 24.4513 26.5297 24.5353 26.4997C24.5473 26.4937 24.5533 26.4757 24.5593 26.4457C24.5713 26.3077 24.4453 26.0317 24.1993 25.8637L24.2113 26.4997Z" fill="white"/>
<path d="M25.9693 25.8997C25.9693 25.8997 25.5073 24.7897 24.3373 24.5077C23.1613 24.2257 23.3173 22.9777 23.4133 22.8997C23.4673 22.7917 23.5033 22.6237 23.8393 22.7857C24.1753 22.9477 25.7353 23.7277 25.9573 23.7697C26.1793 23.8117 25.9873 25.9297 25.9693 25.8997Z" fill="#9CA69C"/>
<path d="M25.9634 25.9417L25.9454 25.9177C25.9394 25.9057 25.4774 24.8197 24.3314 24.5437C23.6654 24.3877 23.4314 23.9317 23.3534 23.5777C23.2814 23.2657 23.3234 22.9537 23.3834 22.8877C23.3894 22.8817 23.3894 22.8757 23.3954 22.8637C23.4194 22.8037 23.4554 22.7317 23.5334 22.7017C23.6114 22.6717 23.7134 22.6897 23.8514 22.7557C23.9294 22.7917 24.0734 22.8637 24.2474 22.9477C24.8234 23.2297 25.7954 23.7037 25.9634 23.7337C26.0234 23.7457 26.0594 23.8357 26.0774 24.0217C26.1194 24.4597 26.0474 25.8937 25.9814 25.9237L25.9634 25.9417ZM23.6054 22.7497C23.5874 22.7497 23.5634 22.7497 23.5514 22.7557C23.4974 22.7737 23.4734 22.8277 23.4494 22.8817C23.4434 22.8937 23.4434 22.8997 23.4374 22.9117V22.9177L23.4314 22.9237C23.4014 22.9537 23.3354 23.2537 23.4254 23.6017C23.5094 23.9197 23.7314 24.3337 24.3494 24.4837C25.3334 24.7177 25.8254 25.5337 25.9634 25.8037C26.0054 25.4317 26.1074 24.0337 25.9754 23.8177C25.9694 23.8057 25.9574 23.7997 25.9574 23.7997C25.7834 23.7697 24.8474 23.3137 24.2294 23.0077C24.0554 22.9237 23.9114 22.8517 23.8334 22.8157C23.7374 22.7737 23.6654 22.7497 23.6054 22.7497Z" fill="black"/>
<path d="M24.8532 24.5017C24.8352 24.5137 26.4252 25.4377 25.9452 26.2357C26.4012 25.9357 26.2512 25.4137 26.2512 25.4137C26.2512 25.4137 26.6232 26.3797 25.7232 26.8477C25.8192 26.9317 25.8852 26.9137 25.8852 26.9137L25.7292 27.0697C25.7292 27.0697 25.6572 27.1837 26.2632 26.8897C26.0952 27.0217 26.0832 27.1177 26.0832 27.1177C26.0832 27.1177 26.1252 27.2437 26.5212 26.9017C26.2032 27.2437 26.1312 27.4237 26.1312 27.4177C26.9952 27.3397 28.8672 24.5377 25.5372 23.7097C25.7172 23.8957 25.6932 23.8717 25.6932 23.8717L24.8532 24.5017Z" fill="#D90000"/>
<path d="M26.1374 27.4536H26.1314L26.1074 27.4476V27.3936H26.1194C26.1674 27.3096 26.2334 27.2136 26.3174 27.1056C26.2274 27.1656 26.1554 27.1836 26.1074 27.1716C26.0714 27.1596 26.0594 27.1356 26.0594 27.1296V27.1236V27.1176C26.0594 27.1116 26.0714 27.0636 26.1254 26.9916C25.7594 27.1596 25.7294 27.1236 25.7114 27.1056C25.6994 27.0876 25.6994 27.0696 25.7054 27.0516L25.7114 27.0456L25.8194 26.9376C25.7894 26.9256 25.7534 26.9076 25.7054 26.8716L25.6694 26.8416L25.7054 26.8236C26.2574 26.5356 26.3234 26.0616 26.2934 25.7436C26.2694 25.9116 26.1854 26.1156 25.9634 26.2596L25.9214 26.2176C26.1074 25.9116 26.0774 25.3776 24.9074 24.5736C24.8294 24.5196 24.8234 24.5196 24.8294 24.5016V24.4836L24.8414 24.4776L25.6574 23.8656C25.6394 23.8416 25.5974 23.8056 25.5254 23.7336L25.4534 23.6556L25.5554 23.6796C27.3254 24.1176 27.5174 25.0956 27.4754 25.6356C27.4034 26.5596 26.6114 27.3996 26.1494 27.4476C26.1434 27.4536 26.1374 27.4536 26.1374 27.4536ZM26.5094 26.8836L26.5514 26.9256C26.3954 27.0936 26.2694 27.2556 26.1974 27.3816C26.6474 27.2796 27.3494 26.4936 27.4154 25.6356C27.4814 24.7596 26.8574 24.0996 25.6394 23.7696C25.6634 23.7996 25.6874 23.8176 25.6994 23.8356L25.7174 23.8536C25.7354 23.8776 25.7294 23.8836 25.7234 23.8956L25.6994 23.9136L25.6934 23.9076L24.9014 24.5016C24.9134 24.5076 24.9254 24.5196 24.9374 24.5256C26.0114 25.2696 26.1494 25.7976 26.0234 26.1336C26.3354 25.8456 26.2274 25.4376 26.2214 25.4196L26.2754 25.4016C26.2814 25.4136 26.6354 26.3676 25.7714 26.8536C25.8314 26.8896 25.8674 26.8836 25.8674 26.8836L25.9694 26.8596L25.7774 27.0576C25.8314 27.0456 25.9574 27.0036 26.2454 26.8656L26.2754 26.9136C26.1554 27.0096 26.1194 27.0816 26.1134 27.1116H26.1194C26.1554 27.1176 26.2514 27.1056 26.5094 26.8836Z" fill="black"/>
<path d="M24.9253 24.2317C25.1413 24.3877 25.2193 24.4357 25.2433 24.5137C25.0453 24.4717 24.8653 24.4837 24.8653 24.4837C24.8653 24.4837 24.4393 24.0757 24.3613 24.0457C24.3013 24.0457 23.9713 23.8357 23.9713 23.8357C23.8033 23.7517 23.6533 23.1757 24.2653 23.3437C24.8953 23.6437 24.9853 23.6677 24.9853 23.6677C25.2373 23.7457 25.4893 23.8237 25.7413 23.9017C25.8853 24.0637 26.0293 24.2257 26.1733 24.3877C26.1733 24.3877 25.3993 24.0037 25.3033 23.9977C25.5133 24.1717 25.6333 24.4057 25.6333 24.4057C25.3933 24.3337 25.1833 24.2677 24.9253 24.2317Z" fill="white"/>
<path d="M25.2855 24.5497L25.2315 24.5377C25.0395 24.4957 24.8655 24.5077 24.8655 24.5077H24.8535L24.8415 24.4957C24.6795 24.3397 24.4095 24.0937 24.3495 24.0637C24.2775 24.0517 24.0315 23.8957 23.9535 23.8477C23.8455 23.7937 23.7495 23.5717 23.8095 23.4217C23.8395 23.3377 23.9415 23.2177 24.2715 23.3017C24.8895 23.5957 24.9915 23.6257 24.9915 23.6257L25.7535 23.8657L26.1915 24.3577L26.1555 24.4057C25.9335 24.2977 25.6095 24.1417 25.4235 24.0637C25.5735 24.2197 25.6515 24.3757 25.6575 24.3817L25.6875 24.4417L25.5735 24.4057C25.3875 24.3517 25.2255 24.3037 25.0395 24.2677C25.1835 24.3697 25.2375 24.4177 25.2615 24.4897L25.2855 24.5497ZM24.9315 24.4477C24.9915 24.4477 25.0815 24.4537 25.1835 24.4717C25.1475 24.4237 25.0695 24.3757 24.9375 24.2797L24.9075 24.2557L24.9315 24.2017C25.1655 24.2377 25.3575 24.2917 25.5795 24.3517C25.5315 24.2737 25.4295 24.1297 25.2915 24.0157L25.2195 23.9557L25.3155 23.9617C25.3935 23.9677 25.8255 24.1717 26.0535 24.2857L25.7295 23.9197L24.9855 23.6857C24.9795 23.6857 24.8895 23.6557 24.2595 23.3557C24.0495 23.3017 23.9175 23.3257 23.8755 23.4397C23.8275 23.5657 23.9175 23.7577 23.9955 23.7937C24.1515 23.8957 24.3375 23.9977 24.3735 24.0037H24.3855C24.4635 24.0337 24.8175 24.3697 24.8895 24.4417C24.8895 24.4477 24.9075 24.4477 24.9315 24.4477Z" fill="black"/>
<path d="M21.9194 20.7997C21.9194 20.7997 22.6574 20.6197 22.7474 20.6437L21.9194 20.7997Z" fill="black"/>
<path d="M21.9256 20.8297L21.9136 20.7697C22.0396 20.7397 22.6636 20.5897 22.7596 20.6197L22.7416 20.6797C22.6876 20.6617 22.2796 20.7457 21.9256 20.8297Z" fill="white"/>
<path fill-rule="evenodd" clip-rule="evenodd" d="M24.5249 46.6902C37.0065 46.6902 47.1249 36.5718 47.1249 24.0902C47.1249 11.6086 37.0065 1.49021 24.5249 1.49021C12.0433 1.49021 1.9249 11.6086 1.9249 24.0902C1.9249 36.5718 12.0433 46.6902 24.5249 46.6902ZM24.5249 48.0902C37.7797 48.0902 48.5249 37.345 48.5249 24.0902C48.5249 10.8354 37.7797 0.09021 24.5249 0.09021C11.2701 0.09021 0.524902 10.8354 0.524902 24.0902C0.524902 37.345 11.2701 48.0902 24.5249 48.0902Z" fill="#D9D9D9"/>
</g>
<defs>
<clipPath id="clip0_4012_213635">
<rect x="0.524902" y="0.09021" width="48" height="48" fill="white"/>
</clipPath>
</defs>
</svg>
