<svg width="49" height="49" viewBox="0 0 49 49" fill="none" xmlns="http://www.w3.org/2000/svg">
<g clip-path="url(#clip0_4012_213911)">
<path fill-rule="evenodd" clip-rule="evenodd" d="M24.5249 48.0902C37.7797 48.0902 48.5249 37.345 48.5249 24.0902C48.5249 10.8354 37.7797 0.09021 24.5249 0.09021C11.2701 0.09021 0.524902 10.8354 0.524902 24.0902C0.524902 37.345 11.2701 48.0902 24.5249 48.0902Z" fill="#00008B"/>
<path fill-rule="evenodd" clip-rule="evenodd" d="M4.2403 11.2573C4.88718 10.237 5.60892 9.26876 6.39781 8.36043L12.4874 12.8777L21.5999 6.09021H24.5249V8.41521L15.5249 15.1277L24.5249 21.8027V24.0902H21.5249L12.5249 17.3777L3.5624 24.0902H0.524902C0.524902 23.303 0.562805 22.5246 0.636884 21.7568L9.4874 15.1652L4.2403 11.2573Z" fill="white"/>
<path fill-rule="evenodd" clip-rule="evenodd" d="M4.59594 10.7128C4.83959 10.3505 5.09286 9.99527 5.35539 9.64739L9.4874 12.6902H7.2374L4.59594 10.7128ZM0.524902 24.0902H2.5499L9.7499 18.6902L9.5249 17.3777L0.524902 24.0902ZM24.5249 22.5902L16.4249 16.6277H14.3624L24.5249 24.0902V22.5902ZM24.5249 6.20271V6.09021H22.6499L15.2624 11.6027L15.1874 13.2527L24.5249 6.20271Z" fill="#FF0000"/>
<path fill-rule="evenodd" clip-rule="evenodd" d="M1.28125 18.0902C1.82912 15.9616 2.66168 13.9472 3.73592 12.0902H9.56265V6.09021H15.5626V12.0902H24.5251V18.0902H15.5626V24.0902H9.56265V18.0902H1.28125Z" fill="white"/>
<path fill-rule="evenodd" clip-rule="evenodd" d="M1.61182 16.9277C2.00114 15.681 2.48941 14.4779 3.06745 13.3277H10.7623V6.09021H14.3623V13.3277H24.5248V16.9277H14.3623V24.0902H10.7623V16.9277H1.61182Z" fill="#FF0000"/>
<path d="M40.0499 35.8426L38.5124 36.0376L38.6774 37.5751L37.5674 36.4951L36.4649 37.5826L36.6149 36.0451L35.0774 35.8651L36.3749 35.0251L35.5574 33.7126L37.0274 34.2001L37.5449 32.7376L38.0774 34.1926L39.5399 33.6901L38.7374 35.0101L40.0424 35.8426H40.0499ZM39.7724 27.0526L39.9749 26.0776L39.2399 25.4026L40.2299 25.2901L40.6424 24.3826L41.0549 25.2901L42.0449 25.4026L41.3099 26.0776L41.5124 27.0526L40.6424 26.5576L39.7724 27.0526ZM31.9649 22.5526L30.4424 22.7176L30.5774 24.2401L29.4974 23.1526L28.3874 24.2101L28.5674 22.6876L27.0524 22.4851L28.3499 21.6751L27.5624 20.3626L29.0099 20.8726L29.5499 19.4401L30.0524 20.8876L31.5074 20.4151L30.6899 21.7126L31.9724 22.5526H31.9649ZM47.2499 20.0926L45.6824 20.2951L45.8549 21.8626L44.7224 20.7601L43.5974 21.8701L43.7549 20.2951L42.1874 20.1151L43.5149 19.2526L42.6824 17.9101L44.1824 18.4126L44.7074 16.9276L45.2474 18.4126L46.7399 17.8951L45.9149 19.2451L47.2499 20.0926ZM40.0424 13.8301L38.4899 14.0026L38.6324 15.5626L37.5299 14.4526L36.3974 15.5326L36.5774 13.9801L35.0249 13.7701L36.3524 12.9451L35.5499 11.6026L37.0274 12.1201L37.5749 10.6576L38.0849 12.1351L39.5699 11.6476L38.7374 12.9676L40.0424 13.8301ZM18.0749 35.0176L14.6399 35.4226L14.9849 38.8651L12.5249 36.4351L10.0499 38.8501L10.4174 35.4076L6.98242 34.9726L9.89992 33.1126L8.09992 30.1576L11.3699 31.2826L12.5549 28.0276L13.7174 31.2901L16.9949 30.1876L15.1724 33.1276L18.0824 35.0101L18.0749 35.0176Z" fill="white"/>
<path fill-rule="evenodd" clip-rule="evenodd" d="M24.5249 46.6902C37.0065 46.6902 47.1249 36.5718 47.1249 24.0902C47.1249 11.6086 37.0065 1.49021 24.5249 1.49021C12.0433 1.49021 1.9249 11.6086 1.9249 24.0902C1.9249 36.5718 12.0433 46.6902 24.5249 46.6902ZM24.5249 48.0902C37.7797 48.0902 48.5249 37.345 48.5249 24.0902C48.5249 10.8354 37.7797 0.09021 24.5249 0.09021C11.2701 0.09021 0.524902 10.8354 0.524902 24.0902C0.524902 37.345 11.2701 48.0902 24.5249 48.0902Z" fill="#D9D9D9"/>
</g>
<defs>
<clipPath id="clip0_4012_213911">
<rect x="0.524902" y="0.09021" width="48" height="48" fill="white"/>
</clipPath>
</defs>
</svg>
