<svg width="49" height="49" viewBox="0 0 49 49" fill="none" xmlns="http://www.w3.org/2000/svg">
<g clip-path="url(#clip0_4012_213943)">
<path d="M48.5249 24.0902C48.5249 37.345 37.7797 48.0902 24.5249 48.0902C11.2701 48.0902 0.524902 37.345 0.524902 24.0902C0.524902 10.8354 11.2701 0.09021 24.5249 0.09021C37.7797 0.09021 48.5249 10.8354 48.5249 24.0902Z" fill="#D9D9D9"/>
<path d="M48.5249 24.0902C48.5249 37.345 37.7797 48.0902 24.5249 48.0902C11.2701 48.0902 0.524902 37.345 0.524902 24.0902C0.524902 10.8354 11.2701 0.09021 24.5249 0.09021C37.7797 0.09021 48.5249 10.8354 48.5249 24.0902Z" fill="#D9D9D9"/>
<path fill-rule="evenodd" clip-rule="evenodd" d="M24.5249 48.0902C37.7797 48.0902 48.5249 37.345 48.5249 24.0902C48.5249 10.8354 37.7797 0.09021 24.5249 0.09021C11.2701 0.09021 0.524902 10.8354 0.524902 24.0902C0.524902 37.345 11.2701 48.0902 24.5249 48.0902Z" fill="#00247D"/>
<path fill-rule="evenodd" clip-rule="evenodd" d="M37.3878 12.6171L37.8791 14.1294H39.1929L39.6324 14.0563L39.5319 14.1294H39.5818L39.4216 14.2095L38.1328 15.1458L38.5391 16.3962L38.7437 16.7902L38.6435 16.7175L38.659 16.7651L38.533 16.6372L37.3064 15.746L36.0815 16.6359L35.9544 16.7651L35.97 16.717L35.8692 16.7902L36.075 16.3937L36.4805 15.1458L35.1928 14.2102L35.031 14.1294H35.0815L34.981 14.0563L35.4204 14.1294H36.8108L37.2398 12.8089L37.3064 12.3667L37.3449 12.4853L37.3606 12.437L37.3878 12.6171Z" fill="white"/>
<path fill-rule="evenodd" clip-rule="evenodd" d="M37.3603 13.3599L37.6855 14.3609H38.5531L38.8434 14.3126L38.777 14.3609H38.8103L38.7037 14.4142L37.8528 15.0323L38.1213 15.8587L38.2565 16.1192L38.1903 16.0711L38.2006 16.1025L38.1174 16.018L37.3067 15.4291L36.4978 16.0168L36.4134 16.1025L36.4238 16.0706L36.3569 16.1192L36.4934 15.8562L36.761 15.0326L35.9098 14.4142L35.8032 14.3609H35.8364L35.77 14.3126L36.0603 14.3609H36.9793L37.2633 13.4867L37.3071 13.1961L37.3324 13.2741L37.3426 13.2426L37.3603 13.3599Z" fill="#CC142B"/>
<path fill-rule="evenodd" clip-rule="evenodd" d="M43.3401 18.032L43.7782 19.3802H44.9469L45.3379 19.3153L45.2485 19.3802H45.2931L45.15 19.4518L44.0039 20.2845L44.3652 21.3966L44.5477 21.7481L44.4583 21.6832L44.4721 21.7257L44.3597 21.6115L43.2686 20.8188L42.1775 21.6115L42.065 21.7257L42.0788 21.6832L41.9895 21.7481L42.1719 21.3966L42.5333 20.2845L41.3882 19.4526L41.2435 19.3802H41.2887L41.1992 19.3153L41.5902 19.3802H42.8271L43.2097 18.2027L43.2686 17.8117L43.3026 17.9166L43.3164 17.8743L43.3401 18.032Z" fill="white"/>
<path fill-rule="evenodd" clip-rule="evenodd" d="M43.3131 18.7776L43.5841 19.6117H44.3076L44.5495 19.5716L44.4942 19.6117H44.5216L44.4336 19.6557L43.724 20.1713L43.9482 20.8616L44.0601 21.077L44.0053 21.0372L44.0137 21.0631L43.9451 20.9935L43.2686 20.502L42.5937 20.9923L42.524 21.0631L42.5326 21.0368L42.4772 21.077L42.5903 20.8592L42.8138 20.1713L42.1052 19.6565L42.0157 19.6117H42.0436L41.9883 19.5716L42.2301 19.6117H42.9956L43.2323 18.8833L43.2688 18.6411L43.2899 18.7061L43.2984 18.6798L43.3131 18.7776Z" fill="#CC142B"/>
<path fill-rule="evenodd" clip-rule="evenodd" d="M30.443 19.6061L30.9353 21.1212H32.2486L32.688 21.0482L32.5875 21.1212H32.638L32.4762 21.2021L31.1885 22.1376L31.594 23.3856L31.7998 23.7821L31.699 23.7089L31.7146 23.7569L31.5876 23.6279L30.3626 22.7379L29.1359 23.6291L29.01 23.7569L29.0255 23.7093L28.9253 23.7821L29.1299 23.3881L29.5362 22.1376L28.2474 21.2013L28.0872 21.1212H28.1371L28.0366 21.0482L28.4761 21.1212H29.8664L30.2964 19.7979L30.3626 19.3585L30.4008 19.4764L30.4163 19.4288L30.443 19.6061Z" fill="white"/>
<path fill-rule="evenodd" clip-rule="evenodd" d="M30.416 20.3518L30.7412 21.3527H31.6093L31.8996 21.3045L31.8332 21.3527H31.8664L31.7598 21.4061L30.9086 22.0245L31.1762 22.8481L31.3127 23.111L31.2459 23.0625L31.2562 23.0944L31.1718 23.0087L30.3629 22.421L29.5523 23.0099L29.4691 23.0944L29.4793 23.0629L29.4131 23.111L29.5483 22.8506L29.8168 22.0242L28.966 21.4061L28.8593 21.3527H28.8926L28.8262 21.3045L29.1165 21.3527H30.035L30.319 20.4786L30.3628 20.188L30.3881 20.2659L30.3983 20.2344L30.416 20.3518Z" fill="#CC142B"/>
<path fill-rule="evenodd" clip-rule="evenodd" d="M37.396 30.415L37.9424 32.0969H39.4005L39.8883 32.0159L39.7767 32.0969H39.8324L39.6537 32.1863L38.2236 33.2253L38.6741 34.6118L38.9021 35.0509L38.7905 34.9698L38.8077 35.0229L38.6671 34.8802L37.3064 33.8916L35.9457 34.8802L35.8052 35.0229L35.8224 34.9698L35.7108 35.0509L35.9387 34.6118L36.3893 33.225L34.9607 32.1871L34.7805 32.0969H34.8367L34.7251 32.0159L35.2129 32.0969H36.7559L37.2332 30.628L37.3066 30.1401L37.3492 30.271L37.3663 30.2182L37.396 30.415Z" fill="white"/>
<path fill-rule="evenodd" clip-rule="evenodd" d="M37.3689 31.1607L37.7484 32.3284H38.761L39.0998 32.2721L39.0223 32.3284H39.0609L38.9372 32.3903L37.9437 33.1121L38.2563 34.0742L38.4149 34.3798L38.3373 34.3233L38.3493 34.3604L38.2514 34.2609L37.307 33.5748L36.3609 34.2622L36.2642 34.3604L36.2761 34.3238L36.199 34.3798L36.3563 34.0767L36.6699 33.1118L35.6779 32.3911L35.5526 32.3284H35.5916L35.5142 32.2721L35.8529 32.3284H36.9244L37.2558 31.3086L37.3068 30.9695L37.3364 31.0605L37.3483 31.0237L37.3689 31.1607Z" fill="#CC142B"/>
<path fill-rule="evenodd" clip-rule="evenodd" d="M8.64996 6.09021H24.5249V24.0902H0.524902C0.524902 16.9221 3.66743 10.4879 8.64996 6.09021Z" fill="#012169"/>
<path fill-rule="evenodd" clip-rule="evenodd" d="M4.2403 11.2573C4.88718 10.237 5.60892 9.26876 6.39781 8.36043L12.4874 12.8777L21.5999 6.09021H24.5249V8.41521L15.5249 15.1277L24.5249 21.8027V24.0902H21.5249L12.5249 17.3777L3.5624 24.0902H0.524902C0.524902 23.303 0.562805 22.5246 0.636884 21.7568L9.4874 15.1652L4.2403 11.2573Z" fill="white"/>
<path fill-rule="evenodd" clip-rule="evenodd" d="M4.59594 10.7128C4.83959 10.3505 5.09286 9.99527 5.35539 9.64739L9.4874 12.6902H7.2374L4.59594 10.7128ZM0.524902 24.0902H2.5499L9.7499 18.6902L9.5249 17.3777L0.524902 24.0902ZM24.5249 22.5902L16.4249 16.6277H14.3624L24.5249 24.0902V22.5902ZM24.5249 6.20271V6.09021H22.6499L15.2624 11.6027L15.1874 13.2527L24.5249 6.20271Z" fill="#C8102E"/>
<path fill-rule="evenodd" clip-rule="evenodd" d="M1.28125 18.0902C1.82912 15.9616 2.66168 13.9472 3.73592 12.0902H9.56265V6.09021H15.5626V12.0902H24.5251V18.0902H15.5626V24.0902H9.56265V18.0902H1.28125Z" fill="white"/>
<path fill-rule="evenodd" clip-rule="evenodd" d="M1.61182 16.9277C2.00114 15.681 2.48941 14.4779 3.06745 13.3277H10.7623V6.09021H14.3623V13.3277H24.5248V16.9277H14.3623V24.0902H10.7623V16.9277H1.61182Z" fill="#C8102E"/>
<path fill-rule="evenodd" clip-rule="evenodd" d="M24.5249 46.6902C37.0065 46.6902 47.1249 36.5718 47.1249 24.0902C47.1249 11.6086 37.0065 1.49021 24.5249 1.49021C12.0433 1.49021 1.9249 11.6086 1.9249 24.0902C1.9249 36.5718 12.0433 46.6902 24.5249 46.6902ZM24.5249 48.0902C37.7797 48.0902 48.5249 37.345 48.5249 24.0902C48.5249 10.8354 37.7797 0.09021 24.5249 0.09021C11.2701 0.09021 0.524902 10.8354 0.524902 24.0902C0.524902 37.345 11.2701 48.0902 24.5249 48.0902Z" fill="#D9D9D9"/>
</g>
<defs>
<clipPath id="clip0_4012_213943">
<rect x="0.524902" y="0.09021" width="48" height="48" fill="white"/>
</clipPath>
</defs>
</svg>
