<svg width="49" height="49" viewBox="0 0 49 49" fill="none" xmlns="http://www.w3.org/2000/svg">
<g clip-path="url(#clip0_4012_212694)">
<path fill-rule="evenodd" clip-rule="evenodd" d="M24.5249 48.0902C37.7797 48.0902 48.5249 37.345 48.5249 24.0902C48.5249 10.8354 37.7797 0.09021 24.5249 0.09021C11.2701 0.09021 0.524902 10.8354 0.524902 24.0902C0.524902 37.345 11.2701 48.0902 24.5249 48.0902Z" fill="white"/>
<path fill-rule="evenodd" clip-rule="evenodd" d="M24.5249 48.0902C37.7797 48.0902 48.5249 37.345 48.5249 24.0902C48.5249 10.8354 37.7797 0.09021 24.5249 0.09021C18.2927 0.09021 12.6153 2.46569 8.34872 6.36061L16.0276 9.69021L7.7251 13.2902L16.0276 16.8902L7.7251 20.4902L16.0276 24.0902L7.7251 27.6902L16.0276 31.2902L7.7251 34.8902L16.0276 38.4902L8.34872 41.8198C12.6153 45.7147 18.2927 48.0902 24.5249 48.0902Z" fill="#CE1126"/>
<path fill-rule="evenodd" clip-rule="evenodd" d="M24.5249 46.6902C37.0065 46.6902 47.1249 36.5718 47.1249 24.0902C47.1249 11.6086 37.0065 1.49021 24.5249 1.49021C12.0433 1.49021 1.9249 11.6086 1.9249 24.0902C1.9249 36.5718 12.0433 46.6902 24.5249 46.6902ZM24.5249 48.0902C37.7797 48.0902 48.5249 37.345 48.5249 24.0902C48.5249 10.8354 37.7797 0.09021 24.5249 0.09021C11.2701 0.09021 0.524902 10.8354 0.524902 24.0902C0.524902 37.345 11.2701 48.0902 24.5249 48.0902Z" fill="#D9D9D9"/>
</g>
<defs>
<clipPath id="clip0_4012_212694">
<rect x="0.524902" y="0.09021" width="48" height="48" fill="white"/>
</clipPath>
</defs>
</svg>
