<svg width="49" height="49" viewBox="0 0 49 49" fill="none" xmlns="http://www.w3.org/2000/svg">
<g clip-path="url(#clip0_4012_212701)">
<path fill-rule="evenodd" clip-rule="evenodd" d="M24.2573 48.0902C37.5122 48.0902 48.2573 37.345 48.2573 24.0902C48.2573 10.8354 37.5122 0.09021 24.2573 0.09021C11.0025 0.09021 0.257324 10.8354 0.257324 24.0902C0.257324 37.345 11.0025 48.0902 24.2573 48.0902Z" fill="#EE1C25"/>
<path fill-rule="evenodd" clip-rule="evenodd" d="M20.0698 9.87648L18.8265 10.152L18.7415 11.5118L18.0322 10.328L16.7355 10.6154L17.6004 9.60749L16.8911 8.42373L18.1303 8.99006L18.9596 8.02364L18.8778 9.3317L20.0698 9.87648ZM6.01739 19.4102L7.22552 15.7858L3.85742 13.4702H7.99737L9.25735 9.69019L10.5173 13.4702H14.6573L11.2892 15.7858L12.4973 19.4102L9.25735 17.1827L6.01739 19.4102ZM22.1827 13.913L23.4356 14.1413L22.5482 13.1768L23.1309 12.0029L21.9916 12.572L21.0691 11.5694L21.2638 12.9356L20.0757 13.5292L21.3823 13.7672L21.577 15.1334L22.1827 13.913ZM22.9449 20.1245L21.8941 19.4052L20.8433 20.2724L21.2227 18.9456L20.1268 18.1953L21.4537 18.1379L21.8331 16.8111L22.2665 18.1028L23.5388 18.0478L22.528 18.882L22.9449 20.1245ZM18.0149 22.9638L18.7063 24.0333L18.8016 22.7261L20.0562 22.3471L18.8614 21.9064L18.9605 20.5476L18.0981 21.6249L16.852 21.1653L17.5731 22.2806L16.7107 23.3579L18.0149 22.9638Z" fill="#FFFF00"/>
<path fill-rule="evenodd" clip-rule="evenodd" d="M24.2573 46.6902C36.739 46.6902 46.8573 36.5718 46.8573 24.0902C46.8573 11.6086 36.739 1.49021 24.2573 1.49021C11.7757 1.49021 1.65732 11.6086 1.65732 24.0902C1.65732 36.5718 11.7757 46.6902 24.2573 46.6902ZM24.2573 48.0902C37.5122 48.0902 48.2573 37.345 48.2573 24.0902C48.2573 10.8354 37.5122 0.09021 24.2573 0.09021C11.0025 0.09021 0.257324 10.8354 0.257324 24.0902C0.257324 37.345 11.0025 48.0902 24.2573 48.0902Z" fill="#D9D9D9"/>
</g>
<defs>
<clipPath id="clip0_4012_212701">
<rect x="0.257324" y="0.09021" width="48" height="48" fill="white"/>
</clipPath>
</defs>
</svg>
