<svg width="49" height="49" viewBox="0 0 49 49" fill="none" xmlns="http://www.w3.org/2000/svg">
<g clip-path="url(#clip0_4012_212708)">
<g clip-path="url(#clip1_4012_212708)">
<path fill-rule="evenodd" clip-rule="evenodd" d="M59.0553 47.9543H-8.94434V0.352692H59.0553V47.9543Z" fill="#BA0000"/>
<path fill-rule="evenodd" clip-rule="evenodd" d="M24.0885 23.3911C24.0885 23.3911 19.2911 21.3272 19.9791 15.972C20.6392 13.3967 21.82 11.6395 23.949 10.6819C24.9531 10.3751 25.9758 10.2356 27.0171 10.1519C26.7382 10.4123 26.5151 10.6726 26.3942 10.9887C26.1711 11.5837 26.3384 12.1415 26.6452 12.7087C27.0264 13.3595 27.2588 14.0289 27.3332 14.9028C27.4031 15.4983 27.3143 16.1018 27.076 16.652C26.8376 17.2022 26.4581 17.6796 25.9758 18.036C25.3622 18.5101 24.637 18.6775 24.042 19.2167C23.5771 19.663 23.2982 20.1185 23.2053 20.8995C23.1867 22.3963 23.5864 22.6102 24.0885 23.3911Z" fill="white"/>
<path fill-rule="evenodd" clip-rule="evenodd" d="M23.2656 15.6187V15.6466H23.0703V15.6187H23.2656Z" fill="black"/>
<path fill-rule="evenodd" clip-rule="evenodd" d="M22.2025 19.1413C22.2175 20.546 22.6395 21.9635 23.5397 22.7602L23.4104 22.9064C22.4511 22.0575 22.0225 20.5743 22.0073 19.1434C21.9996 18.4255 22.0957 17.7147 22.2847 17.0941C22.4734 16.4745 22.7566 15.9383 23.128 15.5766L23.2642 15.7165C22.9244 16.0475 22.6544 16.5502 22.4715 17.1509C22.2889 17.7505 22.195 18.4413 22.2025 19.1413Z" fill="#BA0000"/>
<path fill-rule="evenodd" clip-rule="evenodd" d="M24.3399 14.7169L24.6467 15.2282L24.0889 14.9958L23.6519 15.4606L23.7263 14.8563L23.1685 14.6239L23.7728 14.4844L23.8472 13.8894L24.154 14.4007L24.7676 14.2613" fill="#BA0000"/>
<path fill-rule="evenodd" clip-rule="evenodd" d="M24.498 23.0378C24.498 23.0378 25.0559 17.8407 30.3832 16.9296C33.0422 16.818 35.069 17.4223 36.6123 19.1888C37.198 20.0534 37.6257 20.9925 38.0069 21.9594C37.6815 21.7734 37.3747 21.634 37.0214 21.6154C36.3985 21.5689 35.9057 21.8943 35.4594 22.3499C34.9383 22.9268 34.2885 23.3727 33.5628 23.6515C33.0145 23.8939 32.412 23.9872 31.8161 23.9219C31.2202 23.8566 30.6521 23.635 30.1693 23.2796C29.5371 22.824 29.1652 22.1825 28.4772 21.7734C27.9181 21.441 27.2554 21.3284 26.6178 21.4573C25.1767 21.885 25.1024 22.3313 24.498 23.0378Z" fill="white"/>
<path fill-rule="evenodd" clip-rule="evenodd" d="M31.6563 19.993H31.6284V19.7978H31.6563V19.993Z" fill="black"/>
<path fill-rule="evenodd" clip-rule="evenodd" d="M28.0079 19.9907C26.6689 20.4167 25.4347 21.2361 24.9304 22.3348L24.7529 22.2533C25.2899 21.0835 26.5846 20.2387 27.9487 19.8047C28.633 19.587 29.3405 19.4707 29.9887 19.4692C30.6358 19.4677 31.2307 19.5807 31.6846 19.8283L31.5912 19.9997C31.1758 19.7731 30.6167 19.663 29.9892 19.6644C29.3629 19.6658 28.6752 19.7784 28.0079 19.9907Z" fill="#BA0000"/>
<path fill-rule="evenodd" clip-rule="evenodd" d="M32.8652 20.7414L32.4654 21.1784L32.5212 20.5741L31.9634 20.2952L32.5491 20.2022L32.6049 19.5793L32.921 20.1371L33.516 20.0256L33.1162 20.4625L33.423 21.0204" fill="#BA0000"/>
<path fill-rule="evenodd" clip-rule="evenodd" d="M24.8511 23.4097C24.8511 23.4097 29.9645 22.2941 32.512 27.0635C33.4696 29.5459 33.5347 31.6563 32.3539 33.6738C31.7217 34.5106 30.9593 35.2079 30.1691 35.8866C30.2434 35.5147 30.2713 35.18 30.1784 34.8453C30.0296 34.2317 29.5648 33.8691 28.9883 33.5902C28.2731 33.2774 27.6422 32.7994 27.1475 32.1956C26.7464 31.7525 26.469 31.2116 26.3434 30.6274C26.2177 30.0431 26.2481 29.436 26.4316 28.8672C26.6547 28.1234 27.1475 27.5656 27.3148 26.7846C27.454 26.1505 27.3512 25.4874 27.0266 24.9252C26.162 23.6979 25.7157 23.763 24.8511 23.4097Z" fill="white"/>
<path fill-rule="evenodd" clip-rule="evenodd" d="M30.0947 29.1833L30.1124 29.2009L30.0947 29.1833Z" fill="#BA0000"/>
<path fill-rule="evenodd" clip-rule="evenodd" d="M30.0445 29.2709L30.0259 29.2523L30.1639 29.1143L30.1825 29.1329L30.0445 29.2709Z" fill="black"/>
<path fill-rule="evenodd" clip-rule="evenodd" d="M28.8595 25.7753C28.0317 24.64 26.8656 23.7303 25.668 23.5998L25.6891 23.4057C26.9646 23.5447 28.1739 24.5038 29.0173 25.6602C29.4403 26.2404 29.775 26.875 29.9823 27.4906C30.1892 28.105 30.2713 28.7069 30.1816 29.2187L29.9893 29.185C30.0715 28.716 29.9979 28.1488 29.7972 27.5529C29.5969 26.9581 29.272 26.341 28.8595 25.7753Z" fill="#BA0000"/>
<path fill-rule="evenodd" clip-rule="evenodd" d="M29.6857 30.6244L29.1372 30.3826L29.7415 30.2432L29.8159 29.6203L30.1041 30.1502L30.7084 30.0107L30.2901 30.4756L30.569 31.0055L30.0297 30.7638L29.6114 31.238" fill="#BA0000"/>
<path fill-rule="evenodd" clip-rule="evenodd" d="M24.7397 23.9397C24.7397 23.9397 27.2406 28.5325 23.3916 32.3071C21.2718 33.9249 19.2636 34.585 16.9951 34.0178C16.0189 33.6459 15.1357 33.116 14.2524 32.5396C14.6243 32.5117 14.9683 32.4466 15.2658 32.2607C15.8051 31.9446 16.0189 31.396 16.1305 30.7731C16.2272 29.9963 16.5077 29.2537 16.9486 28.6069C17.2606 28.0965 17.7016 27.6773 18.2272 27.3917C18.7528 27.106 19.3443 26.964 19.9423 26.9799C20.7233 26.9892 21.3927 27.3146 22.1922 27.2588C22.8338 27.1751 23.3358 26.9984 23.9029 26.4406C24.8326 25.2785 24.6467 24.8601 24.7397 23.9304V23.9397Z" fill="white"/>
<path fill-rule="evenodd" clip-rule="evenodd" d="M20.667 30.5965L20.6582 30.6141L20.667 30.5965Z" fill="#BA0000"/>
<path fill-rule="evenodd" clip-rule="evenodd" d="M20.5708 30.5714L20.5801 30.5528L20.7547 30.6401L20.7454 30.6587L20.5708 30.5714Z" fill="black"/>
<path fill-rule="evenodd" clip-rule="evenodd" d="M23.5952 28.4474C24.4518 27.333 24.9942 25.9548 24.7736 24.7663L24.9656 24.7307C25.2006 25.9967 24.6227 27.4309 23.75 28.5664C23.3122 29.136 22.7967 29.6354 22.2634 30.0061C21.7312 30.376 21.1757 30.6216 20.6587 30.675L20.6387 30.4808C21.1118 30.4319 21.636 30.2044 22.152 29.8457C22.6671 29.4877 23.1684 29.0028 23.5952 28.4474Z" fill="#BA0000"/>
<path fill-rule="evenodd" clip-rule="evenodd" d="M19.1707 30.6058L19.2544 30.0107L19.5612 30.5407L20.1748 30.4477L19.7471 30.8754L20.054 31.4053L19.4868 31.1357L19.0592 31.5634L19.1335 30.9684L18.5664 30.6987" fill="#BA0000"/>
<path fill-rule="evenodd" clip-rule="evenodd" d="M24.1728 23.8374C24.1728 23.8374 20.677 27.7236 15.8239 25.3621C13.5926 23.9025 12.3095 22.2197 12.0957 19.8954C12.1236 18.8448 12.3188 17.8407 12.5699 16.8273C12.7279 17.162 12.9046 17.4595 13.1742 17.6827C13.6483 18.0824 14.2434 18.101 14.8756 17.9988C15.6344 17.8326 16.4221 17.8517 17.172 18.0545C17.7591 18.1781 18.3031 18.4548 18.7489 18.8565C19.1946 19.2581 19.5262 19.7705 19.7101 20.3417C19.9611 21.0761 19.8775 21.8199 20.2029 22.5544C20.4818 23.1308 20.8165 23.5399 21.5324 23.8932C22.9455 24.3859 23.2709 24.0698 24.1728 23.8467V23.8374Z" fill="white"/>
<path fill-rule="evenodd" clip-rule="evenodd" d="M16.5381 22.2192L16.5205 22.2104L16.5381 22.2192Z" fill="#BA0000"/>
<path fill-rule="evenodd" clip-rule="evenodd" d="M16.5648 22.1231L16.5834 22.1324L16.4961 22.307L16.4775 22.2977L16.5648 22.1231Z" fill="black"/>
<path fill-rule="evenodd" clip-rule="evenodd" d="M19.5406 24.2583C20.8762 24.6958 22.3548 24.7511 23.399 24.1525L23.4961 24.3219C22.3834 24.9598 20.8404 24.8895 19.4798 24.4438C18.7973 24.2203 18.1548 23.9004 17.6275 23.5215C17.1012 23.1433 16.6842 22.7023 16.4609 22.2338L16.6372 22.1498C16.8415 22.5785 17.2311 22.9963 17.7414 23.363C18.2508 23.729 18.875 24.0403 19.5406 24.2583Z" fill="#BA0000"/>
<path fill-rule="evenodd" clip-rule="evenodd" d="M16.0372 20.8065L16.6229 20.6857L16.2231 21.1505L16.5113 21.6991L15.9721 21.4387L15.5723 21.9036L15.6374 21.2714L15.0889 21.0111L15.6746 20.8902L15.7397 20.258" fill="#BA0000"/>
</g>
</g>
<rect x="1.73975" y="0.84021" width="46.5" height="46.5" rx="23.25" stroke="#D9D9D9" stroke-width="1.5"/>
<defs>
<clipPath id="clip0_4012_212708">
<rect x="0.989746" y="0.09021" width="48" height="48" rx="24" fill="white"/>
</clipPath>
<clipPath id="clip1_4012_212708">
<rect width="63.3" height="47.475" fill="white" transform="translate(-6.66016 0.352692)"/>
</clipPath>
</defs>
</svg>
