<svg width="49" height="49" viewBox="0 0 49 49" fill="none" xmlns="http://www.w3.org/2000/svg">
<g clip-path="url(#clip0_4012_212739)">
<path fill-rule="evenodd" clip-rule="evenodd" d="M47.9668 18.0902H1.479C4.14326 7.73885 13.5399 0.09021 24.7229 0.09021C35.9059 0.09021 45.3025 7.73885 47.9668 18.0902Z" fill="#FF9933"/>
<path fill-rule="evenodd" clip-rule="evenodd" d="M47.9666 30.0902C48.4601 28.1725 48.7227 26.162 48.7227 24.0902C48.7227 22.0184 48.4601 20.0079 47.9666 18.0902H1.47876C0.985174 20.0079 0.722656 22.0184 0.722656 24.0902C0.722656 26.162 0.985174 28.1725 1.47876 30.0902H47.9666Z" fill="white"/>
<path fill-rule="evenodd" clip-rule="evenodd" d="M47.9668 30.0902C45.3025 40.4416 35.9059 48.0902 24.7229 48.0902C13.5399 48.0902 4.14326 40.4416 1.479 30.0902H47.9668Z" fill="#128807"/>
<path d="M24.7229 28.8902C27.3738 28.8902 29.5229 26.7411 29.5229 24.0902C29.5229 21.4392 27.3738 19.2902 24.7229 19.2902C22.0719 19.2902 19.9229 21.4392 19.9229 24.0902C19.9229 26.7411 22.0719 28.8902 24.7229 28.8902Z" fill="#000088"/>
<path d="M24.7225 28.2903C27.0421 28.2903 28.9225 26.4099 28.9225 24.0903C28.9225 21.7707 27.0421 19.8903 24.7225 19.8903C22.4029 19.8903 20.5225 21.7707 20.5225 24.0903C20.5225 26.4099 22.4029 28.2903 24.7225 28.2903Z" fill="white"/>
<path d="M24.7228 24.9302C25.1867 24.9302 25.5628 24.5542 25.5628 24.0902C25.5628 23.6263 25.1867 23.2502 24.7228 23.2502C24.2589 23.2502 23.8828 23.6263 23.8828 24.0902C23.8828 24.5542 24.2589 24.9302 24.7228 24.9302Z" fill="#000088"/>
<path fill-rule="evenodd" clip-rule="evenodd" d="M24.3897 19.8976C24.3742 19.7793 24.2657 19.696 24.1474 19.7116C24.0291 19.7272 23.9459 19.8357 23.9614 19.9539C23.977 20.0722 24.0855 20.1555 24.2038 20.1399C24.322 20.1243 24.4053 20.0158 24.3897 19.8976ZM24.5786 22.4101L24.7226 19.8901L24.8666 22.4101L24.7226 23.6101L24.5786 22.4101ZM24.1489 22.5047L23.6358 20.0333L24.4271 22.4301L24.5986 23.6265L24.1489 22.5047ZM23.7579 22.7072L22.6226 20.4528L24.0073 22.5632L24.4826 23.6744L23.7579 22.7072ZM23.4331 23.004L21.753 21.1203L23.6367 22.8004L24.3834 23.7507L23.4331 23.004ZM23.1955 23.3749L21.0852 21.9902L23.3396 23.1255L24.3068 23.8502L23.1955 23.3749ZM23.0626 23.7944L20.6657 23.0031L23.1371 23.5162L24.259 23.9659L23.0626 23.7944ZM23.0426 24.2342L20.5226 24.0902L23.0426 23.9462L24.2425 24.0902L23.0426 24.2342ZM23.137 24.6641L20.6656 25.1772L23.0624 24.3859L24.2588 24.2144L23.137 24.6641ZM23.3395 25.0549L21.0851 26.1902L23.1955 24.8054L24.3067 24.3302L23.3395 25.0549ZM29.1007 24.6681C29.0851 24.7864 28.9766 24.8697 28.8583 24.8541C28.74 24.8385 28.6568 24.73 28.6724 24.6117C28.6879 24.4935 28.7964 24.4102 28.9147 24.4258C29.033 24.4413 29.1162 24.5498 29.1007 24.6681ZM24.8665 25.7702L24.7225 28.2902L24.5785 25.7702L24.7225 24.5702L24.8665 25.7702ZM28.6853 25.4994C28.5751 25.4538 28.4487 25.5061 28.4031 25.6163C28.3574 25.7265 28.4097 25.8529 28.52 25.8985C28.6302 25.9442 28.7565 25.8918 28.8022 25.7816C28.8478 25.6714 28.7955 25.5451 28.6853 25.4994ZM24.427 25.7501L23.6356 28.147L24.1488 25.6756L24.5984 24.5537L24.427 25.7501ZM27.9224 26.8197C28.0171 26.8923 28.1526 26.8745 28.2253 26.7798C28.2979 26.6852 28.28 26.5496 28.1854 26.477C28.0908 26.4043 27.9552 26.4222 27.8825 26.5168C27.8099 26.6115 27.8278 26.7471 27.9224 26.8197ZM24.0072 25.6171L22.6225 27.7275L23.7578 25.4731L24.4825 24.5058L24.0072 25.6171ZM27.107 27.5548C27.1796 27.6495 27.3152 27.6673 27.4099 27.5947C27.5045 27.5221 27.5223 27.3865 27.4497 27.2918C27.3771 27.1972 27.2415 27.1794 27.1469 27.252C27.0522 27.3246 27.0344 27.4602 27.107 27.5548ZM23.6362 25.3799L21.7525 27.06L23.4326 25.1763L24.3829 24.4296L23.6362 25.3799ZM26.1287 28.0538C26.1744 28.1641 26.3007 28.2164 26.4109 28.1707C26.5212 28.1251 26.5735 27.9987 26.5278 27.8885C26.4822 27.7783 26.3558 27.726 26.2456 27.7716C26.1354 27.8173 26.0831 27.9436 26.1287 28.0538ZM25.0548 28.2827C25.0704 28.401 25.1789 28.4843 25.2972 28.4687C25.4155 28.4531 25.4987 28.3446 25.4831 28.2264C25.4676 28.1081 25.3591 28.0248 25.2408 28.0404C25.1225 28.056 25.0393 28.1645 25.0548 28.2827ZM23.9584 28.226C23.9428 28.3443 24.0261 28.4528 24.1444 28.4683C24.2626 28.4839 24.3711 28.4007 24.3867 28.2824C24.4023 28.1641 24.319 28.0556 24.2008 28.04C24.0825 28.0245 23.974 28.1077 23.9584 28.226ZM22.9141 27.8873C22.8684 27.9975 22.9208 28.1238 23.031 28.1695C23.1412 28.2151 23.2676 28.1628 23.3132 28.0526C23.3589 27.9424 23.3065 27.816 23.1963 27.7704C23.0861 27.7247 22.9597 27.7771 22.9141 27.8873ZM21.9929 27.2898C21.9203 27.3845 21.9382 27.5201 22.0328 27.5927C22.1275 27.6653 22.263 27.6475 22.3357 27.5528C22.4083 27.4582 22.3904 27.3226 22.2958 27.25C22.2012 27.1774 22.0656 27.1952 21.9929 27.2898ZM21.2579 26.4744C21.1633 26.5471 21.1454 26.6826 21.218 26.7773C21.2907 26.8719 21.4263 26.8898 21.5209 26.8172C21.6155 26.7445 21.6334 26.6089 21.5608 26.5143C21.4881 26.4197 21.3525 26.4018 21.2579 26.4744ZM20.759 25.4965C20.6488 25.5422 20.5965 25.6685 20.6421 25.7787C20.6878 25.889 20.8141 25.9413 20.9243 25.8956C21.0346 25.85 21.0869 25.7236 21.0412 25.6134C20.9956 25.5032 20.8692 25.4509 20.759 25.4965ZM20.5301 24.4226C20.4118 24.4382 20.3286 24.5467 20.3442 24.665C20.3597 24.7833 20.4682 24.8665 20.5865 24.8509C20.7048 24.8354 20.788 24.7269 20.7725 24.6086C20.7569 24.4903 20.6484 24.4071 20.5301 24.4226ZM20.5867 23.3262C20.4685 23.3106 20.36 23.3939 20.3444 23.5122C20.3288 23.6304 20.4121 23.739 20.5304 23.7545C20.6486 23.7701 20.7571 23.6868 20.7727 23.5686C20.7883 23.4503 20.705 23.3418 20.5867 23.3262ZM20.9256 22.2818C20.8154 22.2361 20.689 22.2885 20.6434 22.3987C20.5977 22.5089 20.6501 22.6352 20.7603 22.6809C20.8705 22.7265 20.9968 22.6742 21.0425 22.564C21.0881 22.4538 21.0358 22.3274 20.9256 22.2818ZM25.0181 22.4302L25.8094 20.0333L25.2963 22.5047L24.8466 23.6265L25.0181 22.4302ZM21.5226 21.3606C21.428 21.288 21.2924 21.3058 21.2198 21.4005C21.1472 21.4951 21.165 21.6307 21.2597 21.7033C21.3543 21.776 21.4899 21.7581 21.5625 21.6635C21.6351 21.5688 21.6173 21.4332 21.5226 21.3606ZM25.4379 22.5632L26.8226 20.4528L25.6873 22.7072L24.9626 23.6745L25.4379 22.5632ZM22.3386 20.6256C22.2659 20.5309 22.1303 20.5131 22.0357 20.5857C21.9411 20.6583 21.9232 20.7939 21.9958 20.8886C22.0684 20.9832 22.204 21.0011 22.2987 20.9284C22.3933 20.8558 22.4112 20.7202 22.3386 20.6256ZM25.8088 22.8004L27.6926 21.1203L26.0125 23.004L25.0621 23.7507L25.8088 22.8004ZM23.3163 20.1266C23.2707 20.0164 23.1443 19.964 23.0341 20.0097C22.9239 20.0553 22.8716 20.1817 22.9172 20.2919C22.9629 20.4021 23.0892 20.4544 23.1994 20.4088C23.3096 20.3631 23.362 20.2368 23.3163 20.1266ZM26.1056 23.1254L28.3599 21.9901L26.2496 23.3749L25.1383 23.8501L26.1056 23.1254ZM26.3081 23.5163L28.7795 23.0032L26.3826 23.7945L25.1862 23.966L26.3081 23.5163ZM25.4862 19.9544C25.5017 19.8361 25.4185 19.7276 25.3002 19.7121C25.1819 19.6965 25.0734 19.7798 25.0579 19.898C25.0423 20.0163 25.1255 20.1248 25.2438 20.1404C25.3621 20.1559 25.4706 20.0727 25.4862 19.9544ZM26.4025 23.9463L28.9225 24.0903L26.4025 24.2343L25.2025 24.0903L26.4025 23.9463ZM26.531 20.293C26.5766 20.1828 26.5243 20.0565 26.4141 20.0108C26.3039 19.9652 26.1775 20.0175 26.1319 20.1277C26.0862 20.2379 26.1385 20.3643 26.2487 20.4099C26.359 20.4556 26.4853 20.4032 26.531 20.293ZM26.3825 24.3859L28.7793 25.1772L26.3079 24.6641L25.1861 24.2144L26.3825 24.3859ZM27.4521 20.8904C27.5247 20.7958 27.5069 20.6602 27.4123 20.5876C27.3176 20.515 27.182 20.5328 27.1094 20.6275C27.0368 20.7221 27.0546 20.8577 27.1493 20.9303C27.2439 21.0029 27.3795 20.9851 27.4521 20.8904ZM26.2495 24.8055L28.3599 26.1902L26.1055 25.055L25.1383 24.3302L26.2495 24.8055ZM28.1872 21.706C28.2818 21.6334 28.2996 21.4978 28.227 21.4031C28.1544 21.3085 28.0188 21.2906 27.9242 21.3633C27.8295 21.4359 27.8117 21.5715 27.8843 21.6661C27.9569 21.7608 28.0925 21.7786 28.1872 21.706ZM26.012 25.1764L27.6921 27.0601L25.8084 25.38L25.0617 24.4297L26.012 25.1764ZM28.686 22.6839C28.7963 22.6382 28.8486 22.5119 28.8029 22.4017C28.7573 22.2915 28.6309 22.2391 28.5207 22.2848C28.4105 22.3304 28.3582 22.4568 28.4038 22.567C28.4495 22.6772 28.5758 22.7295 28.686 22.6839ZM25.6872 25.4731L26.8225 27.7275L25.4378 25.6171L24.9625 24.5059L25.6872 25.4731ZM28.9149 23.7577C29.0332 23.7421 29.1165 23.6336 29.1009 23.5153C29.0853 23.397 28.9768 23.3138 28.8586 23.3294C28.7403 23.3449 28.657 23.4534 28.6726 23.5717C28.6882 23.69 28.7967 23.7732 28.9149 23.7577ZM25.2962 25.6756L25.8093 28.147L25.018 25.7502L24.8465 24.5538L25.2962 25.6756Z" fill="#000088"/>
<path fill-rule="evenodd" clip-rule="evenodd" d="M24.7227 46.6902C37.2043 46.6902 47.3227 36.5718 47.3227 24.0902C47.3227 11.6086 37.2043 1.49021 24.7227 1.49021C12.241 1.49021 2.12266 11.6086 2.12266 24.0902C2.12266 36.5718 12.241 46.6902 24.7227 46.6902ZM24.7227 48.0902C37.9775 48.0902 48.7227 37.345 48.7227 24.0902C48.7227 10.8354 37.9775 0.09021 24.7227 0.09021C11.4678 0.09021 0.722656 10.8354 0.722656 24.0902C0.722656 37.345 11.4678 48.0902 24.7227 48.0902Z" fill="#D9D9D9"/>
</g>
<defs>
<clipPath id="clip0_4012_212739">
<rect x="0.722656" y="0.09021" width="48" height="48" fill="white"/>
</clipPath>
</defs>
</svg>
