<svg width="49" height="49" viewBox="0 0 49 49" fill="none" xmlns="http://www.w3.org/2000/svg">
<g clip-path="url(#clip0_4012_212754)">
<path fill-rule="evenodd" clip-rule="evenodd" d="M43.1545 38.887C46.3513 34.8101 48.2573 29.6727 48.2573 24.0901C48.2573 18.5716 46.3947 13.488 43.2639 9.4339H5.25074C2.11991 13.488 0.257324 18.5716 0.257324 24.0901C0.257324 29.6727 2.16336 34.8101 5.36017 38.887H43.1545Z" fill="white"/>
<path fill-rule="evenodd" clip-rule="evenodd" d="M2.3999 14.1638C6.17604 5.86215 14.5427 0.0901499 24.2574 0.0901499C33.9721 0.0901499 42.3387 5.86215 46.1149 14.1638H2.3999ZM24.2574 48.0901C33.9253 48.0901 42.258 42.3737 46.0599 34.1365H2.45487C6.2568 42.3737 14.5895 48.0901 24.2574 48.0901ZM15.9919 19.4936L15.9879 19.4866V19.4936L15.9919 19.4936ZM23.7499 32.9944L15.9919 19.4936L31.6812 19.55L23.7499 32.9944Z" fill="#0038B8"/>
<path fill-rule="evenodd" clip-rule="evenodd" d="M22.2903 28.4471L23.7637 30.9499L25.2724 28.4612L22.2832 28.4471H22.2903Z" fill="white"/>
<path fill-rule="evenodd" clip-rule="evenodd" d="M15.9595 28.6445L23.7286 15.1367L31.6528 28.5881L15.9595 28.6445Z" fill="#0038B8"/>
<path fill-rule="evenodd" clip-rule="evenodd" d="M22.2906 19.55L23.7641 17.0473L25.2728 19.543L22.2836 19.55H22.2906ZM19.2027 25.1548L17.6729 27.6928L20.5634 27.6857L19.2027 25.1477V25.1548ZM17.7011 20.4665L20.6057 20.4877L19.2098 23.0468L17.7011 20.4665ZM28.3606 25.19L29.8341 27.6928L26.8943 27.6575L28.3606 25.19ZM29.8059 20.4665L26.9013 20.4877L28.2972 23.0468L29.8059 20.4665ZM21.7478 20.4665L19.7456 24.0902L21.776 27.6364L25.4983 27.721L27.7543 24.0902L25.6676 20.4242L21.7478 20.4595V20.4665Z" fill="white"/>
<path fill-rule="evenodd" clip-rule="evenodd" d="M24.2573 46.6901C36.739 46.6901 46.8573 36.5718 46.8573 24.0901C46.8573 11.6085 36.739 1.49015 24.2573 1.49015C11.7757 1.49015 1.65732 11.6085 1.65732 24.0901C1.65732 36.5718 11.7757 46.6901 24.2573 46.6901ZM24.2573 48.0901C37.5122 48.0901 48.2573 37.345 48.2573 24.0901C48.2573 10.8353 37.5122 0.0901499 24.2573 0.0901499C11.0025 0.0901499 0.257324 10.8353 0.257324 24.0901C0.257324 37.345 11.0025 48.0901 24.2573 48.0901Z" fill="#D9D9D9"/>
</g>
<defs>
<clipPath id="clip0_4012_212754">
<rect x="0.257324" y="0.09021" width="48" height="48" fill="white"/>
</clipPath>
</defs>
</svg>
