<svg width="49" height="49" viewBox="0 0 49 49" fill="none" xmlns="http://www.w3.org/2000/svg">
<g clip-path="url(#clip0_4012_212768)">
<path fill-rule="evenodd" clip-rule="evenodd" d="M24.9897 48.0902C38.2446 48.0902 48.9897 37.345 48.9897 24.0902C48.9897 10.8354 38.2446 0.09021 24.9897 0.09021C11.7349 0.09021 0.989746 10.8354 0.989746 24.0902C0.989746 37.345 11.7349 48.0902 24.9897 48.0902Z" fill="white"/>
<path d="M24.994 35.2822C31.1742 35.2822 36.1843 30.2721 36.1843 24.0919C36.1843 17.9117 31.1742 12.9016 24.994 12.9016C18.8138 12.9016 13.8037 17.9117 13.8037 24.0919C13.8037 30.2721 18.8138 35.2822 24.994 35.2822Z" fill="#BC002D"/>
<path fill-rule="evenodd" clip-rule="evenodd" d="M24.9897 46.6902C37.4714 46.6902 47.5897 36.5718 47.5897 24.0902C47.5897 11.6086 37.4714 1.49021 24.9897 1.49021C12.5081 1.49021 2.38975 11.6086 2.38975 24.0902C2.38975 36.5718 12.5081 46.6902 24.9897 46.6902ZM24.9897 48.0902C38.2446 48.0902 48.9897 37.345 48.9897 24.0902C48.9897 10.8354 38.2446 0.09021 24.9897 0.09021C11.7349 0.09021 0.989746 10.8354 0.989746 24.0902C0.989746 37.345 11.7349 48.0902 24.9897 48.0902Z" fill="#D9D9D9"/>
</g>
<defs>
<clipPath id="clip0_4012_212768">
<rect x="0.989746" y="0.09021" width="48" height="48" fill="white"/>
</clipPath>
</defs>
</svg>
