<svg width="49" height="49" viewBox="0 0 49 49" fill="none" xmlns="http://www.w3.org/2000/svg">
<g clip-path="url(#clip0_4012_212771)">
<path fill-rule="evenodd" clip-rule="evenodd" d="M47.9668 18.0902H1.479C4.14326 7.73885 13.5399 0.09021 24.7229 0.09021C35.9059 0.09021 45.3025 7.73885 47.9668 18.0902Z" fill="black"/>
<path fill-rule="evenodd" clip-rule="evenodd" d="M47.9672 30.0878C48.4604 28.1708 48.7227 26.1612 48.7227 24.0902C48.7227 22.0192 48.4604 20.0096 47.9671 18.0925H1.47816C0.984963 20.0096 0.722656 22.0192 0.722656 24.0902C0.722656 26.1612 0.984958 28.1708 1.47815 30.0878H47.9672Z" fill="white"/>
<path fill-rule="evenodd" clip-rule="evenodd" d="M47.9668 30.0902C45.3025 40.4416 35.9059 48.0902 24.7229 48.0902C13.5399 48.0902 4.14326 40.4416 1.479 30.0902H47.9668Z" fill="#009900"/>
<path fill-rule="evenodd" clip-rule="evenodd" d="M6.19933 39.3519C2.77784 35.2039 0.722656 29.8871 0.722656 24.0902C0.722656 18.2933 2.77784 12.9765 6.19932 8.82854L36.7227 24.0902L6.19933 39.3519Z" fill="#FF0000"/>
<path fill-rule="evenodd" clip-rule="evenodd" d="M10.7281 26.4105L11.1289 24.6597H9.33594L10.9531 23.8863L9.83516 22.4871L11.4523 23.2605L11.8461 21.5168L12.2469 23.2676L13.857 22.4871L12.732 23.8863L14.3492 24.6597H12.5633L12.9641 26.4105L11.8461 25.0043L10.7281 26.4105Z" fill="white"/>
<path fill-rule="evenodd" clip-rule="evenodd" d="M24.7227 46.6902C37.2043 46.6902 47.3227 36.5718 47.3227 24.0902C47.3227 11.6086 37.2043 1.49021 24.7227 1.49021C12.241 1.49021 2.12266 11.6086 2.12266 24.0902C2.12266 36.5718 12.241 46.6902 24.7227 46.6902ZM24.7227 48.0902C37.9775 48.0902 48.7227 37.345 48.7227 24.0902C48.7227 10.8354 37.9775 0.09021 24.7227 0.09021C11.4678 0.09021 0.722656 10.8354 0.722656 24.0902C0.722656 37.345 11.4678 48.0902 24.7227 48.0902Z" fill="#D9D9D9"/>
</g>
<defs>
<clipPath id="clip0_4012_212771">
<rect x="0.722656" y="0.09021" width="48" height="48" fill="white"/>
</clipPath>
</defs>
</svg>
