<svg width="49" height="49" viewBox="0 0 49 49" fill="none" xmlns="http://www.w3.org/2000/svg">
<g clip-path="url(#clip0_4012_212785)">
<path fill-rule="evenodd" clip-rule="evenodd" d="M47.7694 30.0879C48.2626 28.1709 48.5249 26.1612 48.5249 24.0902C48.5249 22.0167 48.262 20.0047 47.7676 18.0856H1.2822C0.787844 20.0047 0.524902 22.0167 0.524902 24.0902C0.524902 26.1612 0.787211 28.1709 1.28042 30.0879H47.7694Z" fill="white"/>
<path fill-rule="evenodd" clip-rule="evenodd" d="M47.769 30.0902C45.1048 40.4416 35.7082 48.0902 24.5251 48.0902C13.3421 48.0902 3.94551 40.4416 1.28125 30.0902H47.769Z" fill="#F31830"/>
<path fill-rule="evenodd" clip-rule="evenodd" d="M47.769 18.0902H1.28125C3.94551 7.73885 13.3421 0.09021 24.5251 0.09021C35.7082 0.09021 45.1048 7.73885 47.769 18.0902Z" fill="#00D941"/>
<path fill-rule="evenodd" clip-rule="evenodd" d="M5.52154 38.7506L18.4827 30.0879L18.5249 18.0785L5.52753 9.42204C2.39115 13.4781 0.524902 18.5662 0.524902 24.0902C0.524902 29.6107 2.38877 34.6958 5.52154 38.7506Z" fill="black"/>
<path fill-rule="evenodd" clip-rule="evenodd" d="M24.5249 46.6902C37.0065 46.6902 47.1249 36.5718 47.1249 24.0902C47.1249 11.6086 37.0065 1.49021 24.5249 1.49021C12.0433 1.49021 1.9249 11.6086 1.9249 24.0902C1.9249 36.5718 12.0433 46.6902 24.5249 46.6902ZM24.5249 48.0902C37.7797 48.0902 48.5249 37.345 48.5249 24.0902C48.5249 10.8354 37.7797 0.09021 24.5249 0.09021C11.2701 0.09021 0.524902 10.8354 0.524902 24.0902C0.524902 37.345 11.2701 48.0902 24.5249 48.0902Z" fill="#D9D9D9"/>
</g>
<defs>
<clipPath id="clip0_4012_212785">
<rect x="0.524902" y="0.09021" width="48" height="48" fill="white"/>
</clipPath>
</defs>
</svg>
