<svg width="49" height="49" viewBox="0 0 49 49" fill="none" xmlns="http://www.w3.org/2000/svg">
<g clip-path="url(#clip0_4012_212788)">
<path fill-rule="evenodd" clip-rule="evenodd" d="M40.1323 42.0902C45.1148 37.6925 48.2573 31.2584 48.2573 24.0902C48.2573 16.9221 45.1148 10.4879 40.1323 6.09021H8.38238C3.39985 10.4879 0.257324 16.9221 0.257324 24.0902C0.257324 31.2584 3.39985 37.6925 8.38238 42.0902H40.1323Z" fill="#CC0000"/>
<path fill-rule="evenodd" clip-rule="evenodd" d="M42.6427 8.66271H5.87207C10.2746 3.42161 16.8769 0.09021 24.2574 0.09021C31.6378 0.09021 38.2401 3.42161 42.6427 8.66271Z" fill="#CC0000"/>
<path fill-rule="evenodd" clip-rule="evenodd" d="M44.528 36.9452C40.2705 43.6447 32.7831 48.0902 24.2574 48.0902C15.7317 48.0902 8.24432 43.6447 3.98682 36.9452H44.528Z" fill="#CC0000"/>
<path fill-rule="evenodd" clip-rule="evenodd" d="M48.1211 26.6627C48.2111 25.8175 48.2573 24.9593 48.2573 24.0902H0.257324C0.257324 24.9593 0.303516 25.8175 0.393579 26.6627H48.1211ZM47.7045 29.2352H0.810104C1.00152 30.1116 1.24082 30.97 1.52512 31.8077H46.9895C47.2738 30.97 47.5131 30.1116 47.7045 29.2352ZM45.9493 34.3727H2.56538C2.9875 35.2616 3.46265 36.1205 3.98675 36.9452H44.5279C45.052 36.1205 45.5272 35.2616 45.9493 34.3727ZM42.6426 39.5177H5.87203C6.64376 40.4364 7.4831 41.2965 8.38237 42.0902H40.1323C41.0316 41.2965 41.8709 40.4364 42.6426 39.5177ZM0.393581 21.5177H48.1211C48.0281 20.6454 47.8884 19.787 47.7045 18.9452H0.810104C0.62623 19.787 0.486538 20.6454 0.393581 21.5177ZM1.52765 16.3652H46.987C46.6893 15.4889 46.3422 14.6353 45.9493 13.8077H2.56538C2.17241 14.6353 1.8254 15.4889 1.52765 16.3652ZM3.98676 11.2352H44.5279C43.956 10.3353 43.3258 9.47601 42.6426 8.66272H5.87203C5.18886 9.47601 4.55867 10.3353 3.98676 11.2352Z" fill="white"/>
<path fill-rule="evenodd" clip-rule="evenodd" d="M0.397602 26.7002C0.304892 25.8429 0.257324 24.9721 0.257324 24.0902C0.257324 10.8354 11.0025 0.09021 24.2573 0.09021V26.7002H0.397602Z" fill="#000066"/>
<path d="M15.8197 11.6252L16.2697 14.6777L17.9947 12.1277L17.0647 15.0677L19.7272 13.5077L17.6197 15.7577L20.6947 15.5177L17.8222 16.6277L20.6947 17.7377L17.6197 17.4977L19.7272 19.7477L17.0647 18.1877L17.9872 21.1352L16.2622 18.5777L15.8122 21.6302L15.3697 18.5777L13.6447 21.1277L14.5746 18.1877L11.9122 19.7477L14.0121 17.4977L10.9372 17.7377L13.8172 16.6277L10.9447 15.5177L14.0197 15.7577L11.9122 13.5077L14.5746 15.0677L13.6447 12.1202L15.3697 14.6777L15.8197 11.6252ZM13.3222 11.7527C12.51 11.3914 11.6205 11.2389 10.7344 11.3089C9.84829 11.379 8.99376 11.6694 8.2485 12.1538C7.50324 12.6382 6.89089 13.3013 6.46714 14.0826C6.04339 14.864 5.82167 15.7388 5.82215 16.6277C5.82167 17.5166 6.04339 18.3915 6.46714 19.1728C6.89089 19.9541 7.50324 20.6172 8.2485 21.1016C8.99376 21.586 9.84829 21.8765 10.7344 21.9465C11.6205 22.0166 12.51 21.864 13.3222 21.5027C12.4255 22.1468 11.3685 22.531 10.2676 22.6131C9.16661 22.6951 8.06436 22.4718 7.08215 21.9677C6.10107 21.4629 5.27816 20.6974 4.7039 19.7553C4.12965 18.8132 3.82628 17.731 3.82715 16.6277C3.82752 15.5247 4.13194 14.4431 4.70698 13.5018C5.28202 12.5605 6.10542 11.7959 7.08668 11.2921C8.06795 10.7883 9.16911 10.5647 10.2692 10.646C11.3692 10.7273 12.4256 11.1102 13.3222 11.7527Z" fill="#FFCC00"/>
<path fill-rule="evenodd" clip-rule="evenodd" d="M24.2573 46.6902C36.739 46.6902 46.8573 36.5718 46.8573 24.0902C46.8573 11.6086 36.739 1.49021 24.2573 1.49021C11.7757 1.49021 1.65732 11.6086 1.65732 24.0902C1.65732 36.5718 11.7757 46.6902 24.2573 46.6902ZM24.2573 48.0902C37.5122 48.0902 48.2573 37.345 48.2573 24.0902C48.2573 10.8354 37.5122 0.09021 24.2573 0.09021C11.0025 0.09021 0.257324 10.8354 0.257324 24.0902C0.257324 37.345 11.0025 48.0902 24.2573 48.0902Z" fill="#D9D9D9"/>
</g>
<defs>
<clipPath id="clip0_4012_212788">
<rect x="0.257324" y="0.09021" width="48" height="48" fill="white"/>
</clipPath>
</defs>
</svg>
