<svg width="49" height="49" viewBox="0 0 49 49" fill="none" xmlns="http://www.w3.org/2000/svg">
<g clip-path="url(#clip0_4012_212808)">
<path fill-rule="evenodd" clip-rule="evenodd" d="M48.7227 24.0902C48.7227 10.8354 37.9775 0.09021 24.7227 0.09021C11.4678 0.09021 0.722656 10.8354 0.722656 24.0902H48.7227Z" fill="#0038A8"/>
<path fill-rule="evenodd" clip-rule="evenodd" d="M24.7227 48.0902C37.9775 48.0902 48.7227 37.345 48.7227 24.0902H0.722656C0.722656 37.345 11.4678 48.0902 24.7227 48.0902Z" fill="#CE1126"/>
<path fill-rule="evenodd" clip-rule="evenodd" d="M5.96517 39.0635C2.68429 34.9588 0.722656 29.7536 0.722656 24.0902C0.722656 18.4268 2.68429 13.2216 5.96517 9.11691L31.9002 24.0902L5.96517 39.0635Z" fill="white"/>
<path fill-rule="evenodd" clip-rule="evenodd" d="M5.79746 12.2152L4.72496 11.2702L4.99496 12.6652L3.77246 13.4152L5.18246 13.5952L5.50496 14.9827L6.11246 13.6927L7.53746 13.8127L6.48746 12.8377L7.04246 11.5252L5.79746 12.2152ZM27.04 23.6177L27.01 22.1927L26.1475 23.3327L24.7825 22.9202L25.5925 24.0902L24.7825 25.2602L26.1475 24.8477L27.01 25.9802L27.04 24.5552L28.39 24.0902L27.04 23.6177ZM6.11246 34.4877L5.51246 33.1977L5.18996 34.5852L3.77246 34.7652L4.99496 35.5002L4.72496 36.9027L5.80496 35.9727L7.04996 36.6552L6.49496 35.3427L7.53746 34.3677L6.11246 34.4877ZM11.6125 16.9877L12.0775 16.5227L12.5425 16.9877L12.3175 20.5127L12.55 20.5352L12.9775 17.3252L13.3525 17.7002L12.7825 20.5727C13.2475 20.6627 13.69 20.8502 14.0725 21.1052L15.7 18.6752H16.24L14.26 21.2477C14.3241 21.2956 14.3866 21.3456 14.4475 21.3977L16.7725 18.7352H17.4325V19.4027L14.7775 21.7277C14.8294 21.7861 14.8794 21.8461 14.9275 21.9077L17.5 19.9352V20.4677L15.0625 22.0952C15.3233 22.4859 15.5042 22.9243 15.595 23.3852L18.475 22.8227L18.85 23.1977L15.6325 23.6252L15.655 23.8502L19.18 23.6252L19.645 24.0902L19.18 24.5477L15.655 24.3227C15.655 24.4052 15.6475 24.4802 15.6325 24.5552L18.85 24.9827L18.4675 25.3577L15.595 24.7877C15.505 25.2527 15.3175 25.6952 15.0625 26.0777L17.5 27.7052V28.2452L14.9275 26.2727L14.7775 26.4527L17.4325 28.7777V29.4377H16.7725L14.44 26.7827C14.3816 26.8346 14.3216 26.8847 14.26 26.9327L16.24 29.5052H15.7L14.0725 27.0677C13.6818 27.3285 13.2434 27.5095 12.7825 27.6002L13.3525 30.4802L12.97 30.8627L12.5425 27.6377L12.3175 27.6602L12.55 31.1852L12.0775 31.6502L11.62 31.1852L11.845 27.6602C11.7625 27.6602 11.6875 27.6527 11.6125 27.6377L11.185 30.8552L10.81 30.4802L11.38 27.6002C10.915 27.5102 10.4725 27.3227 10.09 27.0677L8.46246 29.5052H7.92246L9.90996 26.9327L9.72246 26.7827L7.39746 29.4377H6.72996V28.7777L9.38496 26.4527C9.33302 26.3943 9.28299 26.3343 9.23496 26.2727L6.66246 28.2452V27.7052L9.09996 26.0777C8.83915 25.687 8.65818 25.2486 8.56746 24.7877L5.68746 25.3577L5.31246 24.9827L8.52996 24.5552L8.50746 24.3227L4.98246 24.5552L4.51746 24.0902L4.98246 23.6252L8.50746 23.8502C8.50746 23.7752 8.51496 23.6927 8.52996 23.6177L5.31246 23.1902L5.69496 22.8152L8.56746 23.3852C8.65746 22.9202 8.84496 22.4852 9.09996 22.0952L6.66246 20.4677V19.9352L9.23496 21.9077L9.38496 21.7202L6.72996 19.3952V18.7352H7.38996L9.72246 21.3977C9.78082 21.3458 9.84085 21.2957 9.90246 21.2477L7.92246 18.6752H8.46246L10.09 21.1052C10.4806 20.8444 10.9191 20.6634 11.38 20.5727L10.81 17.6927L11.1925 17.3177L11.62 20.5352L11.845 20.5127L11.6125 16.9877Z" fill="#FCD116"/>
<path fill-rule="evenodd" clip-rule="evenodd" d="M24.7227 46.6902C37.2043 46.6902 47.3227 36.5718 47.3227 24.0902C47.3227 11.6086 37.2043 1.49021 24.7227 1.49021C12.241 1.49021 2.12266 11.6086 2.12266 24.0902C2.12266 36.5718 12.241 46.6902 24.7227 46.6902ZM24.7227 48.0902C37.9775 48.0902 48.7227 37.345 48.7227 24.0902C48.7227 10.8354 37.9775 0.09021 24.7227 0.09021C11.4678 0.09021 0.722656 10.8354 0.722656 24.0902C0.722656 37.345 11.4678 48.0902 24.7227 48.0902Z" fill="#D9D9D9"/>
</g>
<defs>
<clipPath id="clip0_4012_212808">
<rect x="0.722656" y="0.09021" width="48" height="48" fill="white"/>
</clipPath>
</defs>
</svg>
