<svg width="49" height="49" viewBox="0 0 49 49" fill="none" xmlns="http://www.w3.org/2000/svg">
<g clip-path="url(#clip0_4012_212980)">
<path fill-rule="evenodd" clip-rule="evenodd" d="M24.5249 48.0902C37.7797 48.0902 48.5249 37.345 48.5249 24.0902C48.5249 10.8354 37.7797 0.09021 24.5249 0.09021C11.2701 0.09021 0.524902 10.8354 0.524902 24.0902C0.524902 37.345 11.2701 48.0902 24.5249 48.0902Z" fill="#8D1B3D"/>
<path fill-rule="evenodd" clip-rule="evenodd" d="M8.64996 42.0902C3.66743 37.6925 0.524902 31.2584 0.524902 24.0902C0.524902 16.9221 3.66743 10.4879 8.64996 6.09021H12.3974L19.7399 8.09271L12.4049 10.0877L19.7324 12.0902L12.4049 14.0927L19.7399 16.0877L12.4049 18.0902L19.7324 20.0927L12.4049 22.0877L19.7324 24.0902L12.4049 26.0927L19.7399 28.0877L12.4049 30.0902L19.7324 32.0927L12.4049 34.0877L19.7324 36.0902L12.4049 38.0927L19.7399 40.0877L12.4049 42.0902H8.64996Z" fill="white"/>
<path fill-rule="evenodd" clip-rule="evenodd" d="M24.5249 46.6902C37.0065 46.6902 47.1249 36.5718 47.1249 24.0902C47.1249 11.6086 37.0065 1.49021 24.5249 1.49021C12.0433 1.49021 1.9249 11.6086 1.9249 24.0902C1.9249 36.5718 12.0433 46.6902 24.5249 46.6902ZM24.5249 48.0902C37.7797 48.0902 48.5249 37.345 48.5249 24.0902C48.5249 10.8354 37.7797 0.09021 24.5249 0.09021C11.2701 0.09021 0.524902 10.8354 0.524902 24.0902C0.524902 37.345 11.2701 48.0902 24.5249 48.0902Z" fill="#D9D9D9"/>
</g>
<defs>
<clipPath id="clip0_4012_212980">
<rect x="0.524902" y="0.09021" width="48" height="48" fill="white"/>
</clipPath>
</defs>
</svg>
