<svg width="49" height="49" viewBox="0 0 49 49" fill="none" xmlns="http://www.w3.org/2000/svg">
<g clip-path="url(#clip0_4012_212987)">
<path fill-rule="evenodd" clip-rule="evenodd" d="M24.2573 48.0902C37.5122 48.0902 48.2573 37.345 48.2573 24.0902C48.2573 10.8354 37.5122 0.09021 24.2573 0.09021C11.0025 0.09021 0.257324 10.8354 0.257324 24.0902C0.257324 37.345 11.0025 48.0902 24.2573 48.0902Z" fill="#165D31"/>
<path fill-rule="evenodd" clip-rule="evenodd" d="M10.8591 16.2933C10.8044 17.1371 10.7185 18.6137 11.4451 18.7699C12.3122 18.848 11.8357 17.3012 12.1482 17.0199C12.2029 16.8793 12.3122 16.8793 12.3201 17.059V18.3715C12.3201 18.7933 12.6013 18.9262 12.8122 19.0043C13.0388 18.9887 13.1872 19.0043 13.2732 19.2152L13.3904 21.4887C13.3904 21.4887 13.906 21.6449 13.9372 20.2152C13.9529 19.3715 13.7654 18.6762 13.8826 18.5121C13.8826 18.3558 14.0935 18.348 14.2341 18.4262C14.4529 18.5746 14.5544 18.7777 14.906 18.7074C15.4372 18.5512 15.7654 18.2855 15.7732 17.8793C15.7576 17.4808 15.6794 17.0824 15.5232 16.7152C15.5544 16.6449 15.4294 16.4574 15.4529 16.3871C15.5466 16.5355 15.6951 16.5277 15.7185 16.3871C15.6326 16.0902 15.4919 15.8012 15.2654 15.684C15.0779 15.5121 14.7966 15.5433 14.7029 15.8949C14.6482 16.2933 14.8435 16.7621 15.1326 17.1605C15.1951 17.3012 15.281 17.559 15.2419 17.7855C15.0857 17.8715 14.9372 17.8324 14.7966 17.6996C14.7966 17.6996 14.3747 17.3793 14.3747 17.3012C14.4919 16.5902 14.3982 16.5043 14.3357 16.3012C14.2966 16.0277 14.1638 15.934 14.0544 15.7543C13.9529 15.6371 13.8122 15.6371 13.7419 15.7543C13.5466 16.0746 13.6404 16.7699 13.7732 17.0902C13.8747 17.3793 14.0232 17.559 13.9529 17.559C13.8904 17.723 13.7732 17.6762 13.6794 17.4887C13.5779 17.0902 13.531 16.6762 13.531 16.2621C13.4997 15.9418 13.4607 15.2543 13.2419 15.0668C13.1091 14.9027 12.9216 14.9887 12.8513 15.1371C12.8357 15.4574 12.8435 15.7699 12.8747 16.0824C13.0154 16.598 13.0622 17.0668 13.1326 17.5902C13.156 18.3012 12.7263 17.9027 12.7497 17.5433C12.8435 17.0902 12.8357 16.6293 12.7263 16.1762C12.656 15.9965 12.5779 15.9574 12.406 15.9808C12.2654 15.9808 11.9216 16.3558 11.8279 16.9887C11.8279 16.9887 11.7419 17.309 11.7029 17.598C11.656 17.9262 11.4451 18.1605 11.2888 17.559C11.1638 17.1137 11.0779 16.0355 10.8669 16.2933H10.8591Z" fill="white"/>
<path fill-rule="evenodd" clip-rule="evenodd" d="M13.2183 19.7465L10.9683 20.8246C10.9917 20.3168 12.0308 19.3949 12.7495 19.3871C13.2026 19.3949 13.0933 19.559 13.2104 19.7465H13.2183Z" fill="white"/>
<path fill-rule="evenodd" clip-rule="evenodd" d="M12.8199 20.4496C11.6402 23.5043 15.5933 23.934 16.0386 20.5746C16.0777 20.434 16.2496 20.3011 16.2808 20.5277C16.1871 23.5668 13.2105 23.7699 12.7027 22.8168C12.5855 22.4886 12.523 22.1371 12.5308 21.7933C12.4605 21.1918 12.1402 21.4261 12.0933 22.0199C12.0464 22.348 12.0621 22.4418 12.0621 22.7543C12.2105 25.1605 16.0464 24.1293 16.6714 22.1449C16.9996 21.0433 16.6168 20.2386 16.7886 20.2386C17.1714 20.6449 17.7027 20.2933 17.8277 20.1527C17.8746 20.0824 17.9996 20.0355 18.0855 20.1215C18.3824 20.3324 18.898 20.2386 19.0152 19.8636C19.0777 19.4886 19.1246 19.1136 19.1402 18.723C18.8902 18.7933 18.7183 18.848 18.6949 18.9496L18.648 19.2699C18.6246 19.3793 18.4214 19.3793 18.4058 19.2465C18.3199 18.8246 17.9371 18.7777 17.7027 19.4183C17.5543 19.5511 17.273 19.5746 17.2496 19.3871C17.2808 18.9496 17.1089 18.8949 16.7574 19.098L16.4214 16.5511C16.5621 16.5511 16.7027 16.6605 16.8355 16.4886C16.6949 16.0355 16.3746 15.1058 16.2027 15.0355C16.1246 14.934 16.0543 14.9965 15.9371 15.0277C15.7574 15.0824 15.5855 15.2386 15.648 15.5511C15.8589 16.8715 15.9996 17.8715 16.2105 19.2074C16.2496 19.348 16.1246 19.5511 15.9527 19.5355C15.6714 19.348 15.6011 18.9574 15.1089 18.973C14.7574 18.973 14.3668 19.3558 14.3121 19.723C14.2496 20.0199 14.2339 20.3324 14.3121 20.5902C14.5621 20.8871 14.8589 20.8558 15.1168 20.7933C15.3277 20.6996 15.5074 20.4886 15.5777 20.5355C15.6324 20.6058 15.5855 21.309 14.5777 21.8402C13.9605 22.1215 13.4683 22.1761 13.2105 21.6761C13.0464 21.3636 13.2261 20.1761 12.8199 20.4496Z" fill="white"/>
<path fill-rule="evenodd" clip-rule="evenodd" d="M17.8588 17.3402C18.0932 17.2543 19.2182 15.9652 19.2182 15.9652L19.0463 15.8246C18.9838 15.7699 18.9916 15.7152 19.0463 15.6683C19.3276 15.4965 19.2338 15.1449 19.0932 14.9808C18.9995 14.934 18.8979 14.9105 18.7885 14.9105C18.687 14.9105 18.5776 14.934 18.4838 14.9886C18.2885 15.1761 18.2495 15.473 18.3979 15.6605C18.5463 15.7308 18.6948 15.8871 18.5932 15.973C18.1323 16.4574 16.8745 17.309 17.0229 17.3402C17.0463 17.3793 17.8276 17.3793 17.851 17.3402H17.8588ZM11.0385 21.9105C10.6166 22.5824 10.5776 23.5902 10.812 23.8949C10.937 24.0355 11.1401 24.098 11.2885 24.0511C11.562 23.934 11.6791 23.3949 11.6166 23.2074C11.5229 23.0668 11.4526 23.0433 11.3588 23.1527C11.1791 23.5355 11.101 23.2777 11.0776 23.0668C11.062 22.7074 11.0776 22.348 11.1401 21.9965C11.187 21.6996 11.1401 21.7855 11.0385 21.9105ZM29.1166 20.8324C28.7104 19.9496 28.1401 19.0746 27.9604 18.7465C27.4135 17.8793 26.8354 17.0355 26.2182 16.2152C25.7807 15.6918 26.937 16.434 26.0776 15.3949L25.4526 14.8636C25.312 14.7699 24.976 14.5824 24.9213 14.8793C24.8901 15.1449 24.9057 15.2855 24.9448 15.5043C24.9838 15.6449 25.1948 15.8949 25.2963 16.0355C26.7416 17.9418 28.0073 19.9808 29.0776 22.1136C29.2651 22.0199 29.2182 20.9808 29.1166 20.8324Z" fill="white"/>
<path fill-rule="evenodd" clip-rule="evenodd" d="M27.3198 23.7699C27.2416 23.8636 27.5229 24.2543 27.8823 24.2543C28.4916 24.184 29.0229 23.848 29.5151 22.9418C29.7182 22.6449 29.8432 22.3011 29.8901 21.9418C29.9526 20.2386 29.812 18.5277 29.4838 16.8558C29.4604 16.7152 29.4838 16.5433 29.4916 16.5043C29.5385 16.4574 29.6713 16.5043 29.7416 16.3871C29.8432 16.2777 29.4604 15.4027 29.2495 15.0668C29.1791 14.9105 29.1401 14.8168 29.0151 15.0824C28.8666 15.3793 28.7885 15.7074 28.8041 16.0355C29.0932 18.0433 29.187 19.7933 29.3666 21.8011C29.3901 21.9965 29.3588 22.2777 29.226 22.3871C28.6948 22.9808 28.0463 23.4496 27.3198 23.7699ZM35.5151 23.7699C35.0776 24.0199 35.0776 24.309 35.4291 24.3168C36.0307 24.2465 36.7495 24.1918 37.2416 23.4496C37.4213 23.098 37.5151 22.7152 37.5385 22.3246C37.6245 20.6449 37.5151 18.9574 37.2104 17.3011C37.1948 17.1605 37.1323 16.8324 37.1557 16.7933C37.1948 16.6918 37.3901 16.8011 37.4604 16.684C37.562 16.5824 36.9448 15.7933 36.7338 15.4574C36.6635 15.3011 36.6323 15.1996 36.4995 15.473C36.3588 15.7699 36.312 16.1058 36.3745 16.4261C36.6948 18.6058 36.937 20.2386 36.9838 22.1605C36.9526 22.348 36.9448 22.4418 36.8666 22.6761C36.6713 22.9183 36.4604 23.223 36.2651 23.3715C36.0698 23.5121 35.6479 23.6527 35.5151 23.7699Z" fill="white"/>
<path fill-rule="evenodd" clip-rule="evenodd" d="M35.8357 21.8168C35.8357 21.309 35.8435 20.8715 35.8278 20.4808C35.8278 20.1527 35.7575 19.8324 35.6169 19.5355C35.4919 19.2465 35.57 19.0121 35.5075 18.7074C35.4528 18.3949 35.4685 17.934 35.3825 17.5746C35.3513 17.434 35.281 16.973 35.3044 16.9261C35.3357 16.8246 35.4685 16.9261 35.5466 16.8168C35.6403 16.7074 35.1872 15.5511 34.9685 15.2152C34.8903 15.0668 34.7341 15.1215 34.5622 15.3558C34.3825 15.5199 34.445 15.8793 34.5153 16.223C34.945 18.4965 35.2732 20.5511 35.2028 22.7152C35.1794 22.8949 35.8357 22.1605 35.8357 21.8168ZM32.6247 19.0043C32.3513 18.9886 31.781 18.4652 31.6091 18.1605C31.5857 18.0902 31.57 18.0121 31.5778 17.934C31.5857 17.8558 31.6013 17.7777 31.6403 17.7074C31.7497 17.6371 31.8982 17.5668 32.0232 17.6371C32.0232 17.6371 32.1403 17.8011 32.1169 17.8246C32.2575 17.8949 32.3278 17.8636 32.3435 17.8011C32.3513 17.6918 32.3044 17.6293 32.3044 17.5199C32.3669 17.1918 32.7263 17.1449 32.8669 17.348C32.9607 17.473 33.0075 17.7308 33.0153 17.9105C33.0153 18.0043 32.8747 17.8949 32.781 17.9105C32.7028 17.9418 32.6794 18.0355 32.6716 18.1215C32.656 18.3558 32.6325 18.723 32.6247 18.9965V19.0043ZM27.5778 22.3793C27.6482 21.6918 27.5466 20.4652 27.5388 20.0511C27.4997 19.0043 27.4138 17.9574 27.281 16.9183C27.195 16.3246 27.5232 16.9808 27.4763 16.6371C27.3747 16.0511 27.0466 15.6527 26.6638 15.1293C26.5466 14.9496 26.5466 14.9105 26.3513 15.1683C26.1403 15.6371 26.3278 15.973 26.3825 16.3402C26.656 17.5511 26.82 18.6605 26.8903 19.7699C26.9763 20.9105 26.9841 22.0668 26.9216 23.2074C27.1325 23.2152 27.4528 22.8793 27.5778 22.3793Z" fill="white"/>
<path fill-rule="evenodd" clip-rule="evenodd" d="M36.7728 21.2777C36.2884 20.4652 35.5618 19.5902 35.3665 19.2621C34.7181 18.348 34.0306 17.4652 33.3118 16.598C32.7181 15.973 33.5931 16.4965 33.2025 16.0043C32.8743 15.6449 32.7806 15.5277 32.4915 15.309C32.3509 15.2152 32.265 15.0433 32.2103 15.3402C32.1868 15.6058 32.179 15.8715 32.1947 16.1293C32.1947 16.2543 32.3197 16.4808 32.4368 16.6215C33.89 18.4183 35.4837 20.2465 36.765 22.5433C36.9525 22.4496 36.8822 21.4183 36.765 21.2777H36.7728Z" fill="white"/>
<path fill-rule="evenodd" clip-rule="evenodd" d="M14.8744 19.7777C14.8432 19.8402 14.7651 19.9183 14.7963 19.9965C14.8432 20.0668 14.8901 20.0902 14.976 20.0902C15.0541 20.0902 15.1635 20.1136 15.1869 20.0668C15.226 20.0199 15.2572 19.9262 15.226 19.8324C15.1479 19.6293 14.9213 19.7074 14.8744 19.7777Z" fill="#165D31"/>
<path fill-rule="evenodd" clip-rule="evenodd" d="M31.1636 31.5824C31.812 31.6058 32.2339 31.6136 32.7964 31.6761L33.4761 31.6058C34.2183 31.5355 34.2495 32.6683 34.2495 32.6683C34.2495 33.3324 33.9917 33.3715 33.6558 33.4418C33.4683 33.473 33.3745 33.3324 33.2729 33.1918C33.1089 33.2386 32.9448 33.2465 32.7808 33.2152C32.5073 33.1996 32.2339 33.1996 31.9683 33.184C31.687 33.1605 31.5308 33.2152 31.2495 33.1918C31.187 33.2777 31.1089 33.4105 30.937 33.3715C30.7964 33.348 30.6245 32.9496 30.6714 32.6293C30.7729 32.4105 30.7417 32.4886 30.7417 32.3871C28.0933 32.3168 25.4292 32.1996 22.8433 32.2308C20.8198 32.2386 18.8198 32.3246 16.8198 32.4105C15.7495 32.3949 14.937 32.223 14.3745 31.4027C14.4292 31.4027 17.1011 31.5511 17.8823 31.5043C19.3198 31.4886 20.6401 31.3636 22.1089 31.3246C25.0073 31.3715 27.8823 31.3715 30.7808 31.5824C30.4995 31.3871 30.4995 30.9418 30.9214 30.8324C30.9604 30.8011 30.9761 31.0511 31.0464 31.0433C31.3901 31.0199 31.2339 31.4886 31.1636 31.5824ZM19.5151 15.6058C19.0854 16.8558 19.7729 18.2308 20.2495 18.098C20.6011 18.2386 20.812 17.5824 20.9526 16.8636C21.062 16.6605 21.1245 16.6371 21.1792 16.7386C21.1636 17.6996 21.2495 17.9183 21.4917 18.2074C22.0464 18.6293 22.4995 18.2621 22.5308 18.223L22.9526 17.8011C23.0542 17.6918 23.1792 17.6918 23.312 17.7777C23.4526 17.8949 23.4292 18.098 23.7104 18.2386C23.9448 18.3402 24.4448 18.2699 24.5698 18.0668C24.7183 17.7933 24.7651 17.6996 24.8354 17.598C24.9448 17.4496 25.1401 17.5199 25.1401 17.5668C25.1167 17.6527 24.9995 17.723 25.0776 17.8793C25.2183 17.9808 25.2495 17.9183 25.3276 17.8949C25.6089 17.7543 25.8198 17.1527 25.8198 17.1527C25.8276 16.9261 25.7026 16.9418 25.6167 16.9965L25.3979 17.1449C25.2573 17.1605 24.9995 17.2543 24.8589 17.0511C24.7261 16.8168 24.7261 16.4652 24.6323 16.223C24.6323 16.2074 24.4448 15.8324 24.6167 15.8168C24.7026 15.8324 24.8745 15.8793 24.9058 15.7308C24.9917 15.5824 24.7183 15.1683 24.5308 14.9574C24.3667 14.7777 24.1479 14.7621 23.9292 14.9418C23.7729 15.0824 23.7964 15.2386 23.7651 15.3871C23.7417 15.4886 23.7339 15.6058 23.7651 15.7074C23.7886 15.8168 23.8354 15.9105 23.9058 15.9965C24.062 16.2933 24.3354 16.6761 24.2417 17.2308C24.2417 17.2308 24.0776 17.4808 23.7964 17.4418C23.6792 17.4261 23.4917 17.3793 23.3901 16.6136C23.312 16.0511 23.4058 15.2543 23.1714 14.8793C23.0776 14.6449 23.0151 14.4261 22.8042 14.8168C22.7495 14.973 22.4995 15.1996 22.6714 15.6761C22.8433 16.098 22.8901 16.559 22.812 17.0121C22.7104 17.1605 22.687 17.2152 22.5542 17.3636C22.3745 17.5746 22.1714 17.5199 22.0151 17.4418C21.8745 17.348 21.7651 17.3011 21.687 16.9808C21.7026 16.4886 21.7339 15.684 21.6401 15.5121C21.5073 15.2465 21.2886 15.3402 21.2026 15.4261C20.7808 15.8949 20.4995 16.4652 20.3901 17.0824C20.2651 17.4886 20.1323 17.3715 20.0386 17.2074C19.812 16.9965 19.7964 15.3324 19.5151 15.6058Z" fill="white"/>
<path fill-rule="evenodd" clip-rule="evenodd" d="M20.8434 18.3324C21.0465 18.1918 20.9527 18.0902 21.2496 18.3871C21.6324 19.059 21.8512 19.8168 21.8981 20.5902C21.8824 20.7699 22.0074 20.8871 22.0699 20.8402C22.1012 20.4183 23.1324 19.8324 24.0777 19.7465C24.2184 19.7074 24.1559 19.434 24.1715 19.2933C24.1168 18.7699 24.4684 18.2855 24.9606 18.2543C25.6324 18.3558 25.859 18.7074 25.8746 19.2543C25.7965 20.309 24.7027 20.4808 24.0856 20.5668C23.9996 20.6058 23.9527 20.6449 24.0856 20.6918L26.6637 20.7074L26.7965 20.7777C26.8121 20.848 26.7496 20.7933 26.6559 20.9574C26.5152 21.2074 26.4215 21.4886 26.3981 21.7699C25.6246 22.0199 24.8356 22.1215 24.0309 22.223C23.7496 22.3636 23.609 22.559 23.6637 22.7699C23.7652 23.0043 24.3824 23.2386 24.3824 23.2465C24.4996 23.3168 24.6402 23.4886 24.3512 23.848C23.0934 23.7933 22.1168 23.2621 21.7809 22.5043C21.6871 22.434 21.5699 22.5043 21.4996 22.6058C21.0074 23.2386 20.5309 23.8011 19.6949 24.1136C19.2027 24.2386 18.6871 24.0355 18.4527 23.7074C18.2887 23.5199 18.2965 23.3168 18.2418 23.2777C17.9684 23.3949 15.6402 24.3793 15.9371 23.9105C16.4996 23.3168 17.484 22.8636 18.3434 22.2777C18.4059 22.0746 18.5231 21.3949 18.859 21.1761C18.8746 21.1761 18.8121 21.5746 18.8121 21.7386C18.8121 21.8793 18.8043 21.934 18.8277 21.8949C18.8902 21.8636 19.9371 21.0355 20.0231 20.7855C20.1246 20.6449 20.0465 20.2777 20.0465 20.2621C19.8512 19.7621 19.5777 19.7152 19.4762 19.4652C19.3824 19.1293 19.4293 18.7543 19.6168 18.6449C19.7887 18.4965 19.984 18.5043 20.1715 18.6761C20.3824 18.8636 20.5621 19.2386 20.6246 19.5121C20.5856 19.6215 20.3434 19.4418 20.2731 19.4886C20.4059 19.6449 20.4996 19.8402 20.5309 20.0433C20.6715 20.6136 20.6324 20.8402 20.4918 21.2152C20.0231 22.1918 19.4371 22.4808 18.9137 22.848C18.8981 22.848 18.8902 23.0902 19.0856 23.223C19.1559 23.2933 19.4293 23.3324 19.7418 23.223C20.4215 22.848 20.9684 22.2777 21.3121 21.5902C21.3746 21.059 21.3121 20.5277 21.1402 20.0277C20.9371 19.5511 20.7027 18.8871 20.7027 18.8715C20.6949 18.5746 20.7106 18.4808 20.8434 18.3324ZM14.1012 15.6136C14.3981 15.7543 14.9606 15.6918 14.9371 15.2152L14.9215 14.9965C14.8668 14.8558 14.6949 14.8949 14.6559 15.0355C14.6481 15.0824 14.6793 15.1605 14.6402 15.184C14.609 15.2074 14.5152 15.1918 14.5152 15.059C14.5152 15.0199 14.4918 14.9808 14.4684 14.9496C14.4527 14.934 14.4449 14.934 14.4059 14.934C14.3668 14.934 14.3668 14.9418 14.3434 14.9808C14.3356 15.0121 14.3199 15.0511 14.3199 15.0902C14.3199 15.1371 14.2965 15.1527 14.2652 15.1605C14.2262 15.1605 14.234 15.1605 14.1949 15.1449C14.1793 15.1293 14.1637 15.1215 14.1637 15.0746L14.1402 14.9652C14.1246 14.9418 14.0934 14.9261 14.0699 14.9183C13.9059 14.9183 13.8902 15.1136 13.9059 15.184C13.8902 15.1918 13.8902 15.5277 14.1012 15.6136Z" fill="white"/>
<path fill-rule="evenodd" clip-rule="evenodd" d="M22.7885 19.2855C23.0854 19.4261 23.7963 19.348 23.6166 18.8949L23.601 18.6683C23.5385 18.5277 23.3822 18.5668 23.3432 18.7074C23.3276 18.7543 23.3666 18.8324 23.3119 18.848C23.2963 18.8793 23.1947 18.8636 23.2026 18.7386C23.2026 18.6996 23.1713 18.6449 23.1557 18.6215C23.1322 18.6136 23.1244 18.6058 23.0854 18.6058C23.0463 18.6058 23.0463 18.6215 23.0307 18.6527C23.0151 18.6918 23.0072 18.723 23.0072 18.7699C22.9994 18.809 22.976 18.8246 22.9447 18.8402C22.9057 18.8402 22.9135 18.8402 22.8901 18.8168C22.8666 18.7933 22.8432 18.7855 22.8432 18.7543L22.8197 18.6449C22.8119 18.6215 22.7807 18.6058 22.7494 18.598C22.5932 18.598 22.5776 18.7855 22.5854 18.848C22.5776 18.8636 22.5697 19.2074 22.7963 19.2855H22.7885ZM27.851 17.7699C28.1479 17.9105 28.7026 17.848 28.6791 17.3793L28.6635 17.1527C28.601 17.0121 28.4447 17.0433 28.4057 17.184C28.3901 17.2386 28.4291 17.309 28.3744 17.3402C28.3588 17.3636 28.2572 17.348 28.2651 17.2152C28.2651 17.1683 28.2338 17.1293 28.2182 17.098C28.1947 17.0902 28.1869 17.0902 28.1479 17.0902C28.1088 17.0902 28.1088 17.098 28.0932 17.1371L28.0697 17.2386C28.0619 17.2933 28.0385 17.309 28.0072 17.309C27.9682 17.309 27.976 17.309 27.9526 17.3011C27.9291 17.2777 27.9057 17.2699 27.9057 17.2386C27.9057 17.1996 27.8979 17.1449 27.8822 17.1136C27.8744 17.098 27.8432 17.0902 27.8119 17.0824C27.6557 17.0824 27.6401 17.2621 27.6479 17.3324C27.6401 17.348 27.6322 17.6761 27.8588 17.7699H27.851ZM30.476 21.5902C29.9604 22.1683 30.1869 23.1371 30.3041 23.348C30.476 23.684 30.6088 23.9027 30.9369 24.0668C31.2416 24.2855 31.476 24.1527 31.6088 23.9965C31.9057 23.684 31.9135 22.8715 32.0541 22.723C32.1557 22.4261 32.4057 22.473 32.5229 22.6058C32.6401 22.7621 32.7885 22.8949 32.9604 22.9808C33.2416 23.223 33.5776 23.2777 33.9213 23.0511C34.1401 22.9183 34.2885 22.7543 34.4213 22.4261C34.5619 22.0277 34.4916 20.1996 34.4604 19.1215L34.1635 17.6058C34.1635 17.5902 34.1322 16.8871 34.0932 16.7308C34.0932 16.6605 34.0697 16.6371 34.1401 16.6449C34.2182 16.7152 34.226 16.7152 34.2807 16.7386C34.351 16.7465 34.4213 16.6136 34.3744 16.5043L33.6713 15.1918C33.6166 15.1371 33.5385 15.0824 33.4447 15.2074C33.3901 15.2621 33.351 15.3168 33.3197 15.3871C33.2885 15.4496 33.2807 15.5199 33.2807 15.598C33.2963 15.9027 33.351 16.223 33.3666 16.5355L33.6479 18.1215C33.7416 19.2465 33.7651 20.1761 33.8588 21.309C33.8432 21.7855 33.6947 22.1996 33.5541 22.2621C33.5541 22.2621 33.3432 22.3793 33.2026 22.2465C33.0932 22.2074 32.6791 21.5511 32.6791 21.5511C32.4682 21.3636 32.3276 21.4105 32.1791 21.5511C31.7572 21.9574 31.5776 22.7074 31.2885 23.223C31.2182 23.348 31.0072 23.434 30.7807 23.2152C30.2026 22.4261 30.5463 21.3011 30.476 21.5902ZM27.9838 14.9965C28.2494 15.1058 28.4369 15.6449 28.3744 15.9105C28.3197 16.2308 28.1791 16.5824 28.0854 16.5355C27.9682 16.4965 28.1557 16.2152 28.0463 15.9183C27.9916 15.723 27.6244 15.3715 27.6713 15.2699C27.601 15.0511 27.8197 14.9574 27.9838 14.9886V14.9965Z" fill="white"/>
<path fill-rule="evenodd" clip-rule="evenodd" d="M31.3276 21.9105C31.3822 21.2621 31.2885 20.8715 31.2729 20.4887C31.2572 20.1137 30.8432 17.2152 30.7651 16.934C30.6557 16.3871 31.1635 16.8637 31.1088 16.5355C30.9291 16.1449 30.4994 15.559 30.3666 15.2152C30.2807 15.0746 30.3197 14.934 30.1322 15.184C29.976 15.6137 29.9213 16.0746 29.976 16.5355C30.4135 18.8012 30.851 20.684 30.7807 22.848C30.9916 22.848 31.226 22.3715 31.3276 21.9105ZM35.8588 15.9105C36.1088 16.0355 36.2494 16.7074 36.2182 16.8949C36.1713 17.2465 36.0385 17.6293 35.9526 17.5824C35.8432 17.5355 35.9682 17.059 35.9213 16.9105C35.8666 16.6996 35.5385 16.3168 35.5697 16.2074C35.4994 15.973 35.7104 15.8715 35.8588 15.9105ZM17.8822 20.684C18.1088 20.7777 18.2494 21.2699 18.2338 21.4105C18.1791 21.6683 18.0541 21.9496 17.9682 21.9105C17.8744 21.8793 17.9838 21.5277 17.9447 21.4183C17.9213 21.1605 17.601 21.0199 17.6088 20.9027C17.5463 20.6918 17.7494 20.6605 17.8901 20.684H17.8822Z" fill="white"/>
<path fill-rule="evenodd" clip-rule="evenodd" d="M23.476 21.434C23.7728 21.4496 23.9213 21.684 23.6478 21.7855C23.3666 21.8793 23.101 21.9496 23.0931 22.348C23.2025 22.9105 22.9525 22.7152 22.8119 22.6449C22.6478 22.5121 22.1713 22.223 22.101 21.5902C22.0931 21.4418 22.2103 21.309 22.3978 21.309C22.6791 21.3793 23.101 21.3871 23.476 21.434Z" fill="#165D31"/>
<path fill-rule="evenodd" clip-rule="evenodd" d="M11.7026 14.8402C12.0385 14.934 12.0619 15.4418 12.0385 15.5902C11.9838 15.8558 11.8666 16.1449 11.7807 16.1136C11.6869 16.0746 11.7807 15.7074 11.7338 15.598C11.6869 15.4418 11.3979 15.1449 11.4213 15.059C11.3588 14.8871 11.5619 14.8011 11.7026 14.8402ZM18.4447 17.1996C18.1713 17.3402 18.0776 17.7621 18.2416 18.0121C18.3901 18.223 18.6322 18.1449 18.6635 18.1449C18.9213 18.1761 19.0776 17.6605 19.0776 17.6605C19.0776 17.6605 19.0854 17.5199 18.7807 17.8011C18.6479 17.8168 18.6401 17.7699 18.601 17.6996C18.5697 17.5668 18.5854 17.4261 18.6401 17.3011C18.6869 17.1683 18.5932 17.1136 18.4447 17.1996ZM20.4135 14.6371C20.2729 14.7308 20.0072 15.0043 19.9994 15.3168C19.9994 15.4886 19.9604 15.4886 20.0776 15.598C20.1635 15.723 20.2416 15.7152 20.4135 15.6215C20.4525 15.598 20.4916 15.5668 20.5151 15.5199C20.5463 15.4808 20.5619 15.434 20.5697 15.3871C20.6166 15.1918 20.3588 15.4808 20.3354 15.2621C20.2807 15.0511 20.4369 14.9652 20.5932 14.7699C20.5932 14.6293 20.5932 14.5355 20.4057 14.6371H20.4135ZM21.9838 14.9183C21.9213 15.1761 21.89 15.4418 21.8744 15.6996C21.8275 15.8949 22.0854 15.9808 22.1869 15.7308C22.3588 15.2699 22.3588 15.0746 22.3744 14.8871C22.3275 14.5824 22.1166 14.5902 21.9838 14.9183ZM31.9682 20.0043C31.9994 19.973 33.3744 18.9886 33.3744 18.9886C33.515 18.9418 33.4838 19.4965 33.4213 19.4886C32.9916 19.9027 32.4994 20.2465 31.9604 20.4965C31.89 20.5433 31.8275 20.1215 31.9604 20.0043H31.9682ZM33.2182 19.9886C33.4604 20.1136 33.5619 20.8168 33.5307 21.0121C33.5307 21.3871 33.2963 21.684 33.2026 21.6449C33.101 21.598 33.2182 21.1761 33.1635 21.0277C33.1088 20.8168 32.9057 20.4261 32.9369 20.3168C32.8744 20.0746 33.0697 19.9496 33.2182 19.9886ZM25.0619 23.0433C25.1713 22.9105 25.3041 22.7933 25.4526 22.6996C25.5932 22.6293 25.7182 22.7543 25.7104 22.7465C25.7338 22.8871 25.6244 23.0043 25.6635 23.1918C25.6947 23.2621 25.7104 23.348 25.8432 23.3168C26.0619 23.1449 26.265 23.1293 26.476 23.1215C26.6557 23.1293 26.6635 23.4183 26.5463 23.4183C26.1479 23.4965 25.976 23.6136 25.6869 23.7152C25.5463 23.8011 25.4291 23.6996 25.4291 23.6918C25.4291 23.684 25.351 23.6136 25.4057 23.4261C25.4213 23.2855 25.3588 23.2074 25.2338 23.2152C25.1479 23.2777 25.0619 23.3011 25.0229 23.1996C24.9994 23.1293 24.9994 23.0824 25.0619 23.0433ZM34.6635 23.4261C34.7182 23.4886 34.765 23.5668 34.6557 23.6918L34.3979 23.9105C34.351 23.9886 34.3275 24.1136 34.4682 24.1449C34.7182 24.2152 35.3119 23.8324 35.3119 23.8246C35.4057 23.7543 35.3822 23.6136 35.3666 23.6136C35.3119 23.5511 35.1869 23.5902 35.101 23.5746C35.0541 23.5746 34.9213 23.5668 34.9838 23.434C35.0307 23.3715 35.0697 23.309 35.101 23.2308C35.1322 23.1449 35.101 23.0902 34.9604 23.0433C34.8119 23.0121 34.7494 23.0277 34.5854 23.0433C34.4994 23.059 34.476 23.098 34.4526 23.2074C34.4604 23.3636 34.5619 23.3558 34.6635 23.4183V23.4261Z" fill="white"/>
<path fill-rule="evenodd" clip-rule="evenodd" d="M25.1089 19.4261C25.0698 19.4965 24.9448 19.4965 24.8276 19.4261C24.7104 19.3558 24.6401 19.2465 24.6792 19.184C24.7182 19.1215 24.8432 19.1215 24.9604 19.184C25.0776 19.2465 25.1401 19.3636 25.1089 19.4261ZM18.851 15.6605C18.7807 15.684 18.6792 15.6136 18.6401 15.5199C18.5932 15.4183 18.6167 15.3324 18.687 15.3168C18.7573 15.2933 18.851 15.3636 18.8979 15.4574C18.9448 15.5511 18.9214 15.6449 18.8432 15.6683L18.851 15.6605Z" fill="#165D31"/>
<path fill-rule="evenodd" clip-rule="evenodd" d="M31.234 32.4574C31.8903 32.4886 32.5153 32.4574 33.1637 32.4886C33.2887 32.598 33.2028 32.848 33.1246 32.8324L32.5778 32.809C32.5699 32.598 32.0309 32.6293 32.0465 32.8168C31.7574 32.848 31.4996 32.809 31.2028 32.7933C31.1168 32.6918 31.1324 32.4965 31.234 32.4574Z" fill="#165D31"/>
<path fill-rule="evenodd" clip-rule="evenodd" d="M24.2573 46.6902C36.739 46.6902 46.8573 36.5718 46.8573 24.0902C46.8573 11.6086 36.739 1.49021 24.2573 1.49021C11.7757 1.49021 1.65732 11.6086 1.65732 24.0902C1.65732 36.5718 11.7757 46.6902 24.2573 46.6902ZM24.2573 48.0902C37.5122 48.0902 48.2573 37.345 48.2573 24.0902C48.2573 10.8354 37.5122 0.09021 24.2573 0.09021C11.0025 0.09021 0.257324 10.8354 0.257324 24.0902C0.257324 37.345 11.0025 48.0902 24.2573 48.0902Z" fill="#D9D9D9"/>
</g>
<defs>
<clipPath id="clip0_4012_212987">
<rect x="0.257324" y="0.09021" width="48" height="48" fill="white"/>
</clipPath>
</defs>
</svg>
