<svg width="49" height="49" viewBox="0 0 49 49" fill="none" xmlns="http://www.w3.org/2000/svg">
<g clip-path="url(#clip0_4012_212990)">
<path fill-rule="evenodd" clip-rule="evenodd" d="M24.9897 48.0902C38.2446 48.0902 48.9897 37.345 48.9897 24.0902C48.9897 16.9221 45.8472 10.4879 40.8647 6.09021H9.1148C4.13228 10.4879 0.989746 16.9221 0.989746 24.0902C0.989746 37.345 11.7349 48.0902 24.9897 48.0902Z" fill="white"/>
<path fill-rule="evenodd" clip-rule="evenodd" d="M48.9897 24.0902C48.9897 10.8354 38.2446 0.09021 24.9897 0.09021C11.7349 0.09021 0.989746 10.8354 0.989746 24.0902H48.9897Z" fill="#DF0000"/>
<path fill-rule="evenodd" clip-rule="evenodd" d="M15.1671 9.1052C13.7464 9.4105 12.4741 10.1953 11.5636 11.3278C10.6532 12.4602 10.1601 13.8715 10.1671 15.3246C10.1741 16.7776 10.6809 18.184 11.6023 19.3076C12.5236 20.4313 13.8035 21.2037 15.2271 21.4952C14.4116 21.7312 13.5575 21.8038 12.7138 21.709C11.8702 21.6142 11.0536 21.3538 10.3108 20.9427C9.56803 20.5316 8.91371 19.9779 8.38539 19.3133C7.85707 18.6488 7.46513 17.8865 7.23205 17.0702C6.76913 15.4293 6.97475 13.6718 7.80395 12.182C8.63316 10.6923 10.0185 9.59143 11.6571 9.1202C12.8571 8.7752 13.9671 8.7677 15.1746 9.1052H15.1671Z" fill="white"/>
<path fill-rule="evenodd" clip-rule="evenodd" d="M14.1921 14.3402L14.5596 15.4652L13.5846 14.7752L12.6246 15.4802L12.9771 14.3402L12.0171 13.6427L13.2096 13.6277L13.5846 12.5027L13.9596 13.6277H15.1446L14.1921 14.3402ZM15.5046 18.2402L15.8796 19.3727L14.9046 18.6827L13.9371 19.3802L14.2971 18.2477L13.3371 17.5427L14.5296 17.5352L14.8971 16.4027L15.2721 17.5277H16.4721L15.5046 18.2402ZM19.8921 18.2102L20.2596 19.3502L19.2846 18.6527L18.3246 19.3502L18.6771 18.2177L17.7171 17.5202L18.9096 17.5052L19.2846 16.3802L19.6596 17.5052H20.8446L19.8921 18.2102ZM21.1971 14.3402L21.5646 15.4727L20.5896 14.7827L19.6296 15.4802L19.9896 14.3477L19.0221 13.6427L20.2221 13.6352L20.5821 12.5027L20.9571 13.6277H22.1571L21.1971 14.3402ZM17.7246 11.7677L18.0996 12.9077L17.1246 12.2102L16.1571 12.9152L16.5171 11.7752L15.5571 11.0702L16.7421 11.0627L17.1171 9.93021L17.4921 11.0552H18.6921L17.7246 11.7677Z" fill="white"/>
<path fill-rule="evenodd" clip-rule="evenodd" d="M24.9897 46.6902C37.4714 46.6902 47.5897 36.5718 47.5897 24.0902C47.5897 11.6086 37.4714 1.49021 24.9897 1.49021C12.5081 1.49021 2.38975 11.6086 2.38975 24.0902C2.38975 36.5718 12.5081 46.6902 24.9897 46.6902ZM24.9897 48.0902C38.2446 48.0902 48.9897 37.345 48.9897 24.0902C48.9897 10.8354 38.2446 0.09021 24.9897 0.09021C11.7349 0.09021 0.989746 10.8354 0.989746 24.0902C0.989746 37.345 11.7349 48.0902 24.9897 48.0902Z" fill="#D9D9D9"/>
</g>
<defs>
<clipPath id="clip0_4012_212990">
<rect x="0.989746" y="0.09021" width="48" height="48" fill="white"/>
</clipPath>
</defs>
</svg>
