<svg width="49" height="49" viewBox="0 0 49 49" fill="none" xmlns="http://www.w3.org/2000/svg">
<g clip-path="url(#clip0_4012_213018)">
<path fill-rule="evenodd" clip-rule="evenodd" d="M24.7227 48.0902C37.9775 48.0902 48.7227 37.345 48.7227 24.0902C48.7227 10.8354 37.9775 0.09021 24.7227 0.09021C11.4678 0.09021 0.722656 10.8354 0.722656 24.0902C0.722656 37.345 11.4678 48.0902 24.7227 48.0902Z" fill="white"/>
<path fill-rule="evenodd" clip-rule="evenodd" d="M41.3428 35.6522L35.1006 31.4881L35.5168 30.8642L41.759 35.0283L41.3428 35.6522Z" fill="white"/>
<path fill-rule="evenodd" clip-rule="evenodd" d="M17.2148 19.1058C18.5352 17.1215 20.5977 15.7465 22.9414 15.2777C25.2773 14.809 27.707 15.2933 29.6914 16.6136C31.6836 17.9418 33.0586 19.9965 33.5273 22.3402C33.9961 24.6761 33.5117 27.1058 32.1914 29.098L17.2148 19.1058Z" fill="#CD2E3A"/>
<path fill-rule="evenodd" clip-rule="evenodd" d="M17.2148 19.1058C15.8867 21.098 15.4102 23.5277 15.8789 25.8636C16.3398 28.2074 17.7227 30.2621 19.707 31.5902C21.6914 32.9105 24.1211 33.3949 26.4648 32.9261C28.8086 32.4574 30.8633 31.0824 32.1914 29.098C32.8477 28.1058 33.0898 26.8871 32.8555 25.7152C32.6211 24.5433 31.9336 23.5199 30.9414 22.8558C29.9492 22.1918 28.7305 21.9496 27.5664 22.184C26.3945 22.4183 25.3633 23.1058 24.6992 24.1058L17.2148 19.1058Z" fill="#0047A0"/>
<path d="M24.699 24.1058C26.0818 22.0355 25.5193 19.2386 23.4568 17.8636C21.3865 16.4808 18.5896 17.0433 17.2146 19.1058C15.8318 21.1761 16.3943 23.973 18.4568 25.348C20.5271 26.7308 23.324 26.1683 24.699 24.1058Z" fill="#CD2E3A"/>
<path fill-rule="evenodd" clip-rule="evenodd" d="M5.98047 17.0277L10.9727 9.53552L12.2227 10.3715L7.23047 17.8558L5.98047 17.0277ZM7.85547 18.2777L12.8477 10.7855L14.0977 11.6215L9.09766 19.1058L7.85547 18.2777ZM9.72266 19.5199L14.7227 12.0355L15.9648 12.8715L10.9727 20.3558L9.72266 19.5199ZM33.4336 35.3324L38.4258 27.848L39.6758 28.684L34.6836 36.1683L33.4336 35.3324ZM35.3086 36.5824L40.3008 29.098L41.5508 29.9261L36.5586 37.4183L35.3086 36.5824ZM37.1836 37.8324L42.1758 30.348L43.418 31.1761L38.4258 38.6683L37.1836 37.8324ZM6.00391 31.184L10.9961 38.6683L12.2461 37.8324L7.25391 30.348L6.00391 31.184ZM10.5806 33.9898L12.8711 37.4183L14.1133 36.5902L11.8269 33.1589L10.5806 33.9898ZM10.164 33.3661L11.4111 32.5348L9.12109 29.098L7.87109 29.934L10.164 33.3661ZM9.74609 28.684L14.7383 36.1683L15.9883 35.3402L10.9961 27.848L9.74609 28.684ZM35.745 16.3017L33.457 12.8715L34.707 12.0355L36.9946 15.4686L35.745 16.3017ZM36.1612 16.9256L38.4492 20.3558L39.6992 19.5277L37.4105 16.0928L36.1612 16.9256ZM40.3242 19.1136L35.332 11.6215L36.5742 10.7933L41.5664 18.2777L40.3242 19.1136ZM39.4876 13.8058L37.1992 10.3715L38.4492 9.54333L40.7352 12.9705L39.4876 13.8058ZM39.9035 14.4299L42.1914 17.8636L43.4414 17.0277L41.1514 13.5945L39.9035 14.4299Z" fill="black"/>
<path fill-rule="evenodd" clip-rule="evenodd" d="M24.7227 46.6902C37.2043 46.6902 47.3227 36.5718 47.3227 24.0902C47.3227 11.6086 37.2043 1.49021 24.7227 1.49021C12.241 1.49021 2.12266 11.6086 2.12266 24.0902C2.12266 36.5718 12.241 46.6902 24.7227 46.6902ZM24.7227 48.0902C37.9775 48.0902 48.7227 37.345 48.7227 24.0902C48.7227 10.8354 37.9775 0.09021 24.7227 0.09021C11.4678 0.09021 0.722656 10.8354 0.722656 24.0902C0.722656 37.345 11.4678 48.0902 24.7227 48.0902Z" fill="#D9D9D9"/>
</g>
<defs>
<clipPath id="clip0_4012_213018">
<rect x="0.722656" y="0.09021" width="48" height="48" fill="white"/>
</clipPath>
</defs>
</svg>
