<svg width="49" height="49" viewBox="0 0 49 49" fill="none" xmlns="http://www.w3.org/2000/svg">
<g clip-path="url(#clip0_4012_213029)">
<path fill-rule="evenodd" clip-rule="evenodd" d="M24.5249 48.0902C37.7797 48.0902 48.5249 37.345 48.5249 24.0902C48.5249 10.8354 37.7797 0.09021 24.5249 0.09021C11.2701 0.09021 0.524902 10.8354 0.524902 24.0902C0.524902 37.345 11.2701 48.0902 24.5249 48.0902Z" fill="#FF0000"/>
<path fill-rule="evenodd" clip-rule="evenodd" d="M8.64996 6.09021H27.5249V24.0902H0.524902C0.524902 16.9221 3.66743 10.4879 8.64996 6.09021Z" fill="#000095"/>
<path d="M12.0747 15.6077L11.8872 16.3277L12.5922 16.5227L12.4572 15.9902L12.0747 15.6077ZM15.5922 15.9902L15.4572 16.5227L16.1622 16.3277L15.9747 15.6077L15.5922 15.9902ZM12.4572 14.1902L12.0747 14.5727L12.2172 15.0902L12.4572 14.1902Z" fill="white"/>
<path d="M12.2172 15.0902L12.0747 15.6077L12.4572 15.9902L12.2172 15.0902Z" fill="white"/>
<path d="M12.0751 14.5727L11.5576 15.0902L12.0751 15.6077L12.2176 15.0902L12.0751 14.5727ZM13.1251 16.6577L13.5076 17.0402L14.0251 16.8977L13.1251 16.6577ZM14.5426 17.0402L15.2626 17.2277L15.4576 16.5227L14.9251 16.6577L14.5426 17.0402Z" fill="white"/>
<path d="M14.9248 16.6577L15.4573 16.5227L15.5923 15.9902L14.9248 16.6577ZM12.5923 16.5227L12.7873 17.2277L13.5073 17.0402L13.1248 16.6577L12.5923 16.5227ZM14.0248 16.8977L14.5423 17.0402L14.9248 16.6577L14.0248 16.8977Z" fill="white"/>
<path d="M13.5072 17.0402L14.0247 17.5577L14.5422 17.0402L14.0247 16.8977L13.5072 17.0402ZM12.5922 13.6577L11.8872 13.8527L12.0747 14.5727L12.4572 14.1902L12.5922 13.6577ZM12.4572 15.9902L12.5922 16.5227L13.1247 16.6577L12.4572 15.9902ZM15.8322 15.0902L15.9747 14.5727L15.5922 14.1902L15.8322 15.0902Z" fill="white"/>
<path d="M13.125 13.5227L12.5925 13.6577L12.4575 14.1902L13.125 13.5227ZM15.5925 14.1902L15.4575 13.6577L14.925 13.5227L15.5925 14.1902ZM15.975 15.6077L16.4925 15.0902L15.975 14.5727L15.8325 15.0902L15.975 15.6077Z" fill="white"/>
<path d="M15.5923 14.1902L14.9248 13.5227L14.0248 13.2827L13.1248 13.5227L12.4573 14.1902L12.2173 15.0902L12.4573 15.9902L13.1248 16.6577L14.0248 16.8977L14.9248 16.6577L15.5923 15.9902L15.8323 15.0902L15.5923 14.1902Z" fill="white"/>
<path d="M15.5923 15.9902L15.9748 15.6077L15.8323 15.0902L15.5923 15.9902ZM15.9748 14.5727L16.1623 13.8527L15.4573 13.6577L15.5923 14.1902L15.9748 14.5727ZM15.4573 13.6577L15.2623 12.9527L14.5423 13.1402L14.9248 13.5227L15.4573 13.6577ZM13.5073 13.1402L12.7873 12.9527L12.5923 13.6577L13.1248 13.5227L13.5073 13.1402ZM14.0248 13.2827L13.5073 13.1402L13.1248 13.5227L14.0248 13.2827Z" fill="white"/>
<path d="M14.5423 13.1402L14.0248 12.6227L13.5073 13.1402L14.0248 13.2827L14.5423 13.1402Z" fill="white"/>
<path d="M14.9251 13.5227L14.5426 13.1402L14.0251 13.2827L14.9251 13.5227ZM13.5076 17.0402L12.7876 17.2277L13.1251 18.4727L14.0251 17.5577L13.5076 17.0402ZM13.1251 18.4727L14.0251 21.8402L14.9251 18.4727L14.0251 17.5577L13.1251 18.4727ZM12.5926 16.5227L11.8876 16.3277L11.5576 17.5577L12.7876 17.2277L12.5926 16.5227Z" fill="white"/>
<path d="M11.5573 17.5577L10.6573 20.9402L13.1248 18.4727L12.7873 17.2277L11.5573 17.5577ZM10.6573 15.9902L8.1748 18.4727L11.5573 17.5577L11.8873 16.3277L10.6573 15.9902Z" fill="white"/>
<path d="M12.0747 15.6077L11.5572 15.0902L10.6572 15.9902L11.8872 16.3277L12.0747 15.6077ZM12.0747 14.5727L11.8872 13.8527L10.6572 14.1902L11.5572 15.0902L12.0747 14.5727Z" fill="white"/>
<path d="M10.6574 14.1902L7.2749 15.0902L10.6574 15.9902L11.5574 15.0902L10.6574 14.1902ZM17.4074 15.9902L16.1624 16.3277L16.4924 17.5577L19.8749 18.4727L17.4074 15.9902Z" fill="white"/>
<path d="M15.4574 16.5227L15.2624 17.2277L16.4924 17.5577L16.1624 16.3277L15.4574 16.5227ZM14.5424 17.0402L14.0249 17.5577L14.9249 18.4727L15.2624 17.2277L14.5424 17.0402ZM15.9749 15.6077L16.1624 16.3277L17.4074 15.9902L16.4924 15.0902L15.9749 15.6077Z" fill="white"/>
<path d="M14.9248 18.4727L17.4073 20.9402L16.4923 17.5577L15.2623 17.2277L14.9248 18.4727ZM15.4573 13.6577L16.1623 13.8527L16.4923 12.6227L15.2623 12.9527L15.4573 13.6577Z" fill="white"/>
<path d="M17.4073 14.1902L19.8748 11.7227L16.4923 12.6227L16.1623 13.8527L17.4073 14.1902ZM16.4923 12.6227L17.4073 9.24023L14.9248 11.7227L15.2623 12.9527L16.4923 12.6227ZM17.4073 15.9902L20.7748 15.0902L17.4073 14.1902L16.4923 15.0902L17.4073 15.9902Z" fill="white"/>
<path d="M15.9747 14.5727L16.4922 15.0902L17.4072 14.1902L16.1622 13.8527L15.9747 14.5727ZM13.1247 11.7227L10.6572 9.24023L11.5572 12.6227L12.7872 12.9527L13.1247 11.7227Z" fill="white"/>
<path d="M12.5926 13.6577L12.7876 12.9527L11.5576 12.6227L11.8876 13.8527L12.5926 13.6577Z" fill="white"/>
<path d="M11.5573 12.6227L8.1748 11.7227L10.6573 14.1902L11.8873 13.8527L11.5573 12.6227ZM14.5423 13.1402L15.2623 12.9527L14.9248 11.7227L14.0248 12.6227L14.5423 13.1402Z" fill="white"/>
<path d="M14.925 11.7227L14.025 8.34021L13.125 11.7227L14.025 12.6227L14.925 11.7227Z" fill="white"/>
<path d="M13.5076 13.1402L14.0251 12.6227L13.1251 11.7227L12.7876 12.9527L13.5076 13.1402Z" fill="white"/>
<path d="M14.0249 18.9227C16.1415 18.9227 17.8574 17.2068 17.8574 15.0902C17.8574 12.9736 16.1415 11.2577 14.0249 11.2577C11.9083 11.2577 10.1924 12.9736 10.1924 15.0902C10.1924 17.2068 11.9083 18.9227 14.0249 18.9227Z" fill="#000095"/>
<path d="M14.0251 18.4727C15.8932 18.4727 17.4076 16.9583 17.4076 15.0902C17.4076 13.2221 15.8932 11.7077 14.0251 11.7077C12.157 11.7077 10.6426 13.2221 10.6426 15.0902C10.6426 16.9583 12.157 18.4727 14.0251 18.4727Z" fill="white"/>
<path fill-rule="evenodd" clip-rule="evenodd" d="M24.5249 46.6902C37.0065 46.6902 47.1249 36.5718 47.1249 24.0902C47.1249 11.6086 37.0065 1.49021 24.5249 1.49021C12.0433 1.49021 1.9249 11.6086 1.9249 24.0902C1.9249 36.5718 12.0433 46.6902 24.5249 46.6902ZM24.5249 48.0902C37.7797 48.0902 48.5249 37.345 48.5249 24.0902C48.5249 10.8354 37.7797 0.09021 24.5249 0.09021C11.2701 0.09021 0.524902 10.8354 0.524902 24.0902C0.524902 37.345 11.2701 48.0902 24.5249 48.0902Z" fill="#D9D9D9"/>
</g>
<defs>
<clipPath id="clip0_4012_213029">
<rect x="0.524902" y="0.09021" width="48" height="48" fill="white"/>
</clipPath>
</defs>
</svg>
