<svg width="49" height="49" viewBox="0 0 49 49" fill="none" xmlns="http://www.w3.org/2000/svg">
<g clip-path="url(#clip0_4012_213059)">
<path fill-rule="evenodd" clip-rule="evenodd" d="M40.1323 42.0902C45.1148 37.6925 48.2573 31.2584 48.2573 24.0902C48.2573 16.9221 45.1148 10.4879 40.1323 6.09021H8.38238C3.39985 10.4879 0.257324 16.9221 0.257324 24.0902C0.257324 31.2584 3.39985 37.6925 8.38238 42.0902H40.1323Z" fill="#F4F5F8"/>
<path fill-rule="evenodd" clip-rule="evenodd" d="M47.4521 30.2777C47.9774 28.3037 48.2573 26.2296 48.2573 24.0902C48.2573 22.0858 48.0116 20.1388 47.5487 18.2777H0.965981C0.503036 20.1388 0.257324 22.0858 0.257324 24.0902C0.257324 26.2296 0.537261 28.3037 1.0625 30.2777H47.4521Z" fill="#2D2A4A"/>
<path fill-rule="evenodd" clip-rule="evenodd" d="M3.36084 12.2777C7.48321 5.00082 15.2968 0.09021 24.2574 0.09021C33.218 0.09021 41.0316 5.00082 45.154 12.2777H3.36084ZM24.2574 48.0902C33.1408 48.0902 40.8969 43.2638 45.0466 36.0902H3.46818C7.61789 43.2638 15.374 48.0902 24.2574 48.0902Z" fill="#A51931"/>
<path fill-rule="evenodd" clip-rule="evenodd" d="M24.2573 46.6902C36.739 46.6902 46.8573 36.5718 46.8573 24.0902C46.8573 11.6086 36.739 1.49021 24.2573 1.49021C11.7757 1.49021 1.65732 11.6086 1.65732 24.0902C1.65732 36.5718 11.7757 46.6902 24.2573 46.6902ZM24.2573 48.0902C37.5122 48.0902 48.2573 37.345 48.2573 24.0902C48.2573 10.8354 37.5122 0.09021 24.2573 0.09021C11.0025 0.09021 0.257324 10.8354 0.257324 24.0902C0.257324 37.345 11.0025 48.0902 24.2573 48.0902Z" fill="#D9D9D9"/>
</g>
<defs>
<clipPath id="clip0_4012_213059">
<rect x="0.257324" y="0.09021" width="48" height="48" fill="white"/>
</clipPath>
</defs>
</svg>
