<svg width="49" height="49" viewBox="0 0 49 49" fill="none" xmlns="http://www.w3.org/2000/svg">
<g clip-path="url(#clip0_4012_213062)">
<path fill-rule="evenodd" clip-rule="evenodd" d="M24.9897 48.0902C38.2446 48.0902 48.9897 37.345 48.9897 24.0902C48.9897 10.8354 38.2446 0.09021 24.9897 0.09021C11.7349 0.09021 0.989746 10.8354 0.989746 24.0902C0.989746 37.345 11.7349 48.0902 24.9897 48.0902Z" fill="#E30A17"/>
<path fill-rule="evenodd" clip-rule="evenodd" d="M30.1018 19.8498C28.7616 18.3826 26.8165 17.4602 24.652 17.4602C20.6095 17.4602 17.332 20.6702 17.332 24.6452C17.332 28.6202 20.6095 31.8452 24.652 31.8452C26.8241 31.8452 28.7732 30.9163 30.1118 29.4401C28.4922 31.9663 25.6286 33.6452 22.3648 33.6452C17.3098 33.6452 13.2148 29.6177 13.2148 24.6452C13.2148 19.6727 17.3098 15.6602 22.3648 15.6602C25.6219 15.6602 28.4804 17.3322 30.1018 19.8498Z" fill="white"/>
<path fill-rule="evenodd" clip-rule="evenodd" d="M33.2921 20.4527L33.2171 23.7752L30.1196 24.6152L33.1796 25.7027L33.1046 28.7552L35.0921 26.3702L38.1071 27.4202L36.3671 24.8627L38.4896 22.3202L35.2271 23.2202L33.2921 20.4452V20.4527Z" fill="white"/>
<path fill-rule="evenodd" clip-rule="evenodd" d="M24.9897 46.6902C37.4714 46.6902 47.5897 36.5718 47.5897 24.0902C47.5897 11.6086 37.4714 1.49021 24.9897 1.49021C12.5081 1.49021 2.38975 11.6086 2.38975 24.0902C2.38975 36.5718 12.5081 46.6902 24.9897 46.6902ZM24.9897 48.0902C38.2446 48.0902 48.9897 37.345 48.9897 24.0902C48.9897 10.8354 38.2446 0.09021 24.9897 0.09021C11.7349 0.09021 0.989746 10.8354 0.989746 24.0902C0.989746 37.345 11.7349 48.0902 24.9897 48.0902Z" fill="#D9D9D9"/>
</g>
<defs>
<clipPath id="clip0_4012_213062">
<rect x="0.989746" y="0.09021" width="48" height="48" fill="white"/>
</clipPath>
</defs>
</svg>
