<svg width="49" height="49" viewBox="0 0 49 49" fill="none" xmlns="http://www.w3.org/2000/svg">
<g clip-path="url(#clip0_4012_213075)">
<path fill-rule="evenodd" clip-rule="evenodd" d="M47.9668 18.0902H1.479C4.14326 7.73885 13.5399 0.09021 24.7229 0.09021C35.9059 0.09021 45.3025 7.73885 47.9668 18.0902Z" fill="#00732F"/>
<path fill-rule="evenodd" clip-rule="evenodd" d="M47.9666 30.0902C48.4601 28.1725 48.7227 26.162 48.7227 24.0902C48.7227 22.0184 48.4601 20.0079 47.9666 18.0902H1.47876C0.985174 20.0079 0.722656 22.0184 0.722656 24.0902C0.722656 26.162 0.985174 28.1725 1.47876 30.0902H47.9666Z" fill="white"/>
<path fill-rule="evenodd" clip-rule="evenodd" d="M47.9668 30.0902C45.3025 40.4416 35.9059 48.0902 24.7229 48.0902C13.5399 48.0902 4.14326 40.4416 1.479 30.0902H47.9668Z" fill="black"/>
<path fill-rule="evenodd" clip-rule="evenodd" d="M17.2227 46.8951C7.64086 43.7457 0.722656 34.7259 0.722656 24.0902C0.722656 13.4545 7.64086 4.43472 17.2227 1.28534V46.8951Z" fill="#FF0000"/>
<path fill-rule="evenodd" clip-rule="evenodd" d="M24.7227 46.6902C37.2043 46.6902 47.3227 36.5718 47.3227 24.0902C47.3227 11.6086 37.2043 1.49021 24.7227 1.49021C12.241 1.49021 2.12266 11.6086 2.12266 24.0902C2.12266 36.5718 12.241 46.6902 24.7227 46.6902ZM24.7227 48.0902C37.9775 48.0902 48.7227 37.345 48.7227 24.0902C48.7227 10.8354 37.9775 0.09021 24.7227 0.09021C11.4678 0.09021 0.722656 10.8354 0.722656 24.0902C0.722656 37.345 11.4678 48.0902 24.7227 48.0902Z" fill="#D9D9D9"/>
</g>
<defs>
<clipPath id="clip0_4012_213075">
<rect x="0.722656" y="0.09021" width="48" height="48" fill="white"/>
</clipPath>
</defs>
</svg>
