<svg width="49" height="49" viewBox="0 0 49 49" fill="none" xmlns="http://www.w3.org/2000/svg">
<g clip-path="url(#clip0_4012_213084)">
<path fill-rule="evenodd" clip-rule="evenodd" d="M24.5249 48.0902C37.7797 48.0902 48.5249 37.345 48.5249 24.0902C48.5249 10.8354 37.7797 0.09021 24.5249 0.09021C11.2701 0.09021 0.524902 10.8354 0.524902 24.0902C0.524902 37.345 11.2701 48.0902 24.5249 48.0902Z" fill="#DA251D"/>
<path fill-rule="evenodd" clip-rule="evenodd" d="M31.1057 32.8793L24.8057 28.1894L18.5479 32.9215L20.8682 25.2152L14.6104 20.4551L22.3518 20.3848L24.7564 12.6926L27.1963 20.3637L34.9377 20.3707L28.715 25.1801L31.0986 32.8863L31.1057 32.8793Z" fill="#FFFF00"/>
<path fill-rule="evenodd" clip-rule="evenodd" d="M24.5249 46.6902C37.0065 46.6902 47.1249 36.5718 47.1249 24.0902C47.1249 11.6086 37.0065 1.49021 24.5249 1.49021C12.0433 1.49021 1.9249 11.6086 1.9249 24.0902C1.9249 36.5718 12.0433 46.6902 24.5249 46.6902ZM24.5249 48.0902C37.7797 48.0902 48.5249 37.345 48.5249 24.0902C48.5249 10.8354 37.7797 0.09021 24.5249 0.09021C11.2701 0.09021 0.524902 10.8354 0.524902 24.0902C0.524902 37.345 11.2701 48.0902 24.5249 48.0902Z" fill="#D9D9D9"/>
</g>
<defs>
<clipPath id="clip0_4012_213084">
<rect x="0.524902" y="0.09021" width="48" height="48" fill="white"/>
</clipPath>
</defs>
</svg>
