<svg width="49" height="49" viewBox="0 0 49 49" fill="none" xmlns="http://www.w3.org/2000/svg">
<g clip-path="url(#clip0_4022_27710)">
<rect x="0.524902" y="0.09021" width="48" height="48" rx="24" fill="#FF4E4E"/>
<path d="M0.524902 0.09021L72.5255 0.09021L72.5255 48.0902L0.524902 48.0902L0.524902 0.09021Z" fill="#418FDE"/>
<path d="M0.524902 32.0895L72.5255 32.0895V34.7559L0.524902 34.7559L0.524902 37.4224L72.5255 37.4224V40.0889L0.524902 40.0889L0.524902 32.0883V32.0895Z" fill="#FFD100"/>
<path d="M14.3309 4.97937L12.4448 11.0927L6.33154 12.9788L12.4448 14.8649L14.3309 20.9781L16.217 14.8649L22.3303 12.9788L16.217 11.0927L14.3309 4.97937Z" fill="white"/>
<path d="M14.3307 6.7926L15.7887 11.5213L20.5174 12.9793L15.7887 14.4373L14.3307 19.166L12.8727 14.4373L8.14404 12.9781L12.8727 11.5201L14.3307 6.79138V6.7926Z" fill="#EF3340"/>
</g>
<rect x="1.2749" y="0.84021" width="46.5" height="46.5" rx="23.25" stroke="#D9D9D9" stroke-width="1.5" stroke-linecap="round"/>
<defs>
<clipPath id="clip0_4022_27710">
<rect x="0.524902" y="0.09021" width="48" height="48" rx="24" fill="white"/>
</clipPath>
</defs>
</svg>
