<svg width="49" height="49" viewBox="0 0 49 49" fill="none" xmlns="http://www.w3.org/2000/svg">
<g clip-path="url(#clip0_4012_186242)">
<path fill-rule="evenodd" clip-rule="evenodd" d="M24.9897 48.0902C38.2446 48.0902 48.9897 37.345 48.9897 24.0902C48.9897 10.8354 38.2446 0.09021 24.9897 0.09021C11.7349 0.09021 0.989746 10.8354 0.989746 24.0902C0.989746 37.345 11.7349 48.0902 24.9897 48.0902Z" fill="#00267F"/>
<path fill-rule="evenodd" clip-rule="evenodd" d="M32.9897 1.45586V46.7246C30.4875 47.609 27.7948 48.0902 24.9897 48.0902C22.1847 48.0902 19.492 47.609 16.9897 46.7246V1.45586C19.492 0.571444 22.1847 0.09021 24.9897 0.09021C27.7948 0.09021 30.4875 0.571444 32.9897 1.45586Z" fill="#FFC726"/>
<path fill-rule="evenodd" clip-rule="evenodd" d="M24.9709 16.2628C24.9722 16.2595 24.9734 16.2561 24.9746 16.2528L24.9759 16.2762C24.9845 16.2997 24.9932 16.3231 25.0018 16.3466C25.5156 17.7421 26.0423 19.1726 27.1573 20.2803C26.8048 20.1603 26.1823 20.0553 25.7923 20.0703V26.0328L27.4723 26.2803C27.5323 26.2803 27.5473 26.1828 27.5473 26.0553C27.7123 24.2028 28.1473 22.6428 28.6573 21.0303C28.6688 20.9635 28.7369 20.8387 28.8114 20.7021C28.9795 20.3941 29.1802 20.0264 28.8373 20.1303C28.8181 20.1303 28.7382 20.158 28.6416 20.1914C28.4364 20.2624 28.156 20.3595 28.2223 20.2728C29.1646 19.3224 30.3821 18.6926 31.7023 18.4728C31.8148 18.4503 31.8823 18.5103 31.7773 18.6378C30.0973 21.2328 28.6798 24.3003 28.6948 27.9378C28.3638 27.9378 27.7991 27.8398 27.2359 27.742C26.6759 27.6448 26.1176 27.5478 25.7923 27.5478V31.7553H24.9896H24.9523H24.1496V27.5478C23.8243 27.5478 23.266 27.6448 22.706 27.742C22.1428 27.8398 21.5781 27.9378 21.2471 27.9378C21.2621 24.3003 19.8446 21.2328 18.1646 18.6378C18.0596 18.5103 18.1271 18.4503 18.2396 18.4728C19.5598 18.6926 20.7773 19.3224 21.7196 20.2728C21.7859 20.3595 21.5055 20.2624 21.3003 20.1914C21.2037 20.158 21.1238 20.1303 21.1046 20.1303C20.7617 20.0264 20.9623 20.3941 21.1305 20.7021C21.205 20.8387 21.2731 20.9635 21.2846 21.0303C21.7946 22.6428 22.2296 24.2028 22.3946 26.0553C22.3946 26.1828 22.4096 26.2803 22.4696 26.2803L24.1496 26.0328V20.0703C23.7596 20.0553 23.1371 20.1603 22.7846 20.2803C23.8996 19.1726 24.4263 17.7421 24.9401 16.3466C24.9487 16.3231 24.9574 16.2997 24.966 16.2762L24.9673 16.2528C24.9685 16.2561 24.9697 16.2595 24.9709 16.2628Z" fill="black"/>
<path fill-rule="evenodd" clip-rule="evenodd" d="M24.9897 46.6902C37.4714 46.6902 47.5897 36.5718 47.5897 24.0902C47.5897 11.6086 37.4714 1.49021 24.9897 1.49021C12.5081 1.49021 2.38975 11.6086 2.38975 24.0902C2.38975 36.5718 12.5081 46.6902 24.9897 46.6902ZM24.9897 48.0902C38.2446 48.0902 48.9897 37.345 48.9897 24.0902C48.9897 10.8354 38.2446 0.09021 24.9897 0.09021C11.7349 0.09021 0.989746 10.8354 0.989746 24.0902C0.989746 37.345 11.7349 48.0902 24.9897 48.0902Z" fill="#D9D9D9"/>
</g>
<defs>
<clipPath id="clip0_4012_186242">
<rect x="0.989746" y="0.09021" width="48" height="48" fill="white"/>
</clipPath>
</defs>
</svg>
