<svg width="49" height="49" viewBox="0 0 49 49" fill="none" xmlns="http://www.w3.org/2000/svg">
<g clip-path="url(#clip0_4012_186439)">
<path fill-rule="evenodd" clip-rule="evenodd" d="M36.9966 3.7466L37.0031 44.4298C33.3099 46.749 28.9402 48.0902 24.2573 48.0902C19.5774 48.0902 15.2104 46.7507 11.5187 44.4342L11.5186 3.74625C15.2103 1.42972 19.5774 0.09021 24.2573 0.09021C28.9375 0.09021 33.3048 1.42985 36.9966 3.7466Z" fill="white"/>
<path fill-rule="evenodd" clip-rule="evenodd" d="M37.0031 44.4298C43.7635 40.1845 48.2573 32.6622 48.2573 24.0903C48.2573 15.5157 43.7606 7.9913 36.9968 3.74672L37.0031 44.4298ZM0.257324 24.0903C0.257324 32.6652 4.75437 40.1898 11.5187 44.4343V3.74622C4.75437 7.9907 0.257324 15.5153 0.257324 24.0903Z" fill="#D52B1E"/>
<path d="M14.6746 23.8125L15.6721 23.4825C16.2721 22.875 15.3121 21.015 14.9971 19.905C15.9046 20.0925 17.2621 20.6025 17.6671 20.43C18.0721 20.25 18.2821 19.455 18.5821 18.9675L20.9221 21.615C21.1471 21.735 21.3421 21.675 21.4246 21.45L20.3971 15.8925L22.1146 16.845C22.2196 16.935 22.3546 16.92 22.4896 16.7925L24.2596 13.2075L25.9846 16.6575C26.0746 16.83 26.2246 16.89 26.3746 16.8225L28.1596 15.8175L27.0346 21.4275C27.1021 21.6525 27.2146 21.7575 27.4771 21.69L29.9221 19.005L30.6121 20.3175C30.7846 20.805 33.4621 19.8825 33.4621 19.8825C33.3271 21.105 32.3821 23.04 33.0421 23.55L33.8446 23.85L29.2471 27.675C28.9621 28.7175 29.2396 29.0625 29.5471 29.715L24.5446 29.115L24.7771 34.11L23.7346 34.1325L23.8546 29.1075L18.8596 29.7375C19.1596 29.1975 19.6321 28.89 19.2796 27.8625L14.6746 23.8125Z" fill="#D52B1E"/>
<path fill-rule="evenodd" clip-rule="evenodd" d="M24.2573 46.6902C36.739 46.6902 46.8573 36.5718 46.8573 24.0902C46.8573 11.6086 36.739 1.49021 24.2573 1.49021C11.7757 1.49021 1.65732 11.6086 1.65732 24.0902C1.65732 36.5718 11.7757 46.6902 24.2573 46.6902ZM24.2573 48.0902C37.5122 48.0902 48.2573 37.345 48.2573 24.0902C48.2573 10.8354 37.5122 0.09021 24.2573 0.09021C11.0025 0.09021 0.257324 10.8354 0.257324 24.0902C0.257324 37.345 11.0025 48.0902 24.2573 48.0902Z" fill="#D9D9D9"/>
</g>
<defs>
<clipPath id="clip0_4012_186439">
<rect x="0.257324" y="0.09021" width="48" height="48" fill="white"/>
</clipPath>
</defs>
</svg>
