<svg width="49" height="49" viewBox="0 0 49 49" fill="none" xmlns="http://www.w3.org/2000/svg">
<g clip-path="url(#clip0_4012_186969)">
<path fill-rule="evenodd" clip-rule="evenodd" d="M24.7227 48.0902C37.9775 48.0902 48.7227 37.345 48.7227 24.0902C48.7227 10.8354 37.9775 0.09021 24.7227 0.09021C11.4678 0.09021 0.722656 10.8354 0.722656 24.0902C0.722656 37.345 11.4678 48.0902 24.7227 48.0902Z" fill="#0000B4"/>
<path fill-rule="evenodd" clip-rule="evenodd" d="M45.6107 35.9177C47.5916 32.4269 48.7227 28.3906 48.7227 24.0902C48.7227 19.5756 47.4761 15.3521 45.3085 11.7452H4.13685C1.96919 15.3521 0.722656 19.5756 0.722656 24.0902C0.722656 28.3906 1.85373 32.4269 3.83461 35.9177H45.6107Z" fill="white"/>
<path fill-rule="evenodd" clip-rule="evenodd" d="M48.0526 29.7451C48.4906 27.9318 48.7227 26.0381 48.7227 24.0902C48.7227 21.9562 48.4441 19.8872 47.9214 17.9176H1.52388C1.00119 19.8872 0.722656 21.9562 0.722656 24.0902C0.722656 26.0381 0.954709 27.9318 1.39268 29.7451H48.0526Z" fill="#D90000"/>
<path fill-rule="evenodd" clip-rule="evenodd" d="M24.7227 46.6902C37.2043 46.6902 47.3227 36.5718 47.3227 24.0902C47.3227 11.6086 37.2043 1.49021 24.7227 1.49021C12.241 1.49021 2.12266 11.6086 2.12266 24.0902C2.12266 36.5718 12.241 46.6902 24.7227 46.6902ZM24.7227 48.0902C37.9775 48.0902 48.7227 37.345 48.7227 24.0902C48.7227 10.8354 37.9775 0.09021 24.7227 0.09021C11.4678 0.09021 0.722656 10.8354 0.722656 24.0902C0.722656 37.345 11.4678 48.0902 24.7227 48.0902Z" fill="#D9D9D9"/>
</g>
<defs>
<clipPath id="clip0_4012_186969">
<rect x="0.722656" y="0.09021" width="48" height="48" fill="white"/>
</clipPath>
</defs>
</svg>
