<svg width="49" height="49" viewBox="0 0 49 49" fill="none" xmlns="http://www.w3.org/2000/svg">
<g clip-path="url(#clip0_4012_186977)">
<path fill-rule="evenodd" clip-rule="evenodd" d="M24.5249 48.0902C37.7797 48.0902 48.5249 37.345 48.5249 24.0902C48.5249 10.8354 37.7797 0.09021 24.5249 0.09021C11.2701 0.09021 0.524902 10.8354 0.524902 24.0902C0.524902 37.345 11.2701 48.0902 24.5249 48.0902Z" fill="#18C3DF"/>
<path fill-rule="evenodd" clip-rule="evenodd" d="M47.7688 30.0902C48.2624 28.1725 48.5249 26.162 48.5249 24.0902C48.5249 22.0184 48.2624 20.0079 47.7688 18.0902H1.28101C0.78742 20.0079 0.524902 22.0184 0.524902 24.0902C0.524902 26.162 0.78742 28.1725 1.28101 30.0902H47.7688Z" fill="white"/>
<path fill-rule="evenodd" clip-rule="evenodd" d="M14.5273 18.8877L14.9519 20.3032L16.4294 20.2696L16.429 20.2698L15.2144 21.1108L15.7026 22.5048L15.703 22.5057L15.7029 22.5056L15.7029 22.5057L15.7024 22.5052L14.5275 21.6101L13.3525 22.5052L13.352 22.5057L13.352 22.5056L13.3519 22.5057L13.3523 22.5048L13.8404 21.1111L12.6254 20.2698L12.625 20.2696L14.1025 20.3032L14.5271 18.8877L14.5272 18.8882L14.5273 18.8877ZM34.5224 18.8877L34.9471 20.3032L36.4245 20.2696L36.4243 20.2697L36.4242 20.2698L35.2091 21.1111L35.6972 22.5048L35.6977 22.5057L35.6975 22.5056L35.6976 22.5057L35.697 22.5052L34.5221 21.6101L33.3472 22.5052L33.3466 22.5057L33.3467 22.5056L33.3465 22.5057L33.3469 22.5048L33.8351 21.1108L32.6205 20.2698L32.6203 20.2697L32.6201 20.2696L34.0976 20.3032L34.5222 18.8877L34.5223 18.8882L34.5224 18.8877ZM25.6999 25.7077L24.525 24.8127L23.3501 25.7077L23.3495 25.7083L23.3496 25.7081L23.3494 25.7082L23.3499 25.7073L23.8379 24.3136L22.6229 23.4723L22.6226 23.4721L24.1 23.5057L24.5247 22.0902L24.5248 22.0908L24.5249 22.0902L24.9495 23.5057L26.427 23.4721L26.4266 23.4723L25.212 24.3133L25.7002 25.7073L25.7006 25.7082L25.7004 25.7081L25.7005 25.7083L25.6999 25.7077ZM34.5224 24.8877L34.9471 26.3032L36.4245 26.2696L36.4243 26.2697L36.4242 26.2698L35.2091 27.1111L35.6972 28.5048L35.6977 28.5057L35.6975 28.5056L35.6976 28.5057L35.697 28.5052L34.5221 27.6101L33.3472 28.5052L33.3466 28.5057L33.3467 28.5056L33.3465 28.5057L33.3469 28.5048L33.8351 27.1108L32.6205 26.2698L32.6203 26.2697L32.6201 26.2696L34.0976 26.3032L34.5222 24.8877L34.5223 24.8882L34.5224 24.8877ZM14.5273 24.8877L14.9519 26.3032L16.4294 26.2696L16.429 26.2698L15.2144 27.1108L15.7026 28.5048L15.703 28.5057L15.7029 28.5056L15.7029 28.5057L15.7024 28.5052L14.5275 27.6101L13.3525 28.5052L13.352 28.5057L13.352 28.5056L13.3519 28.5057L13.3523 28.5048L13.8404 27.1111L12.6254 26.2698L12.625 26.2696L14.1025 26.3032L14.5271 24.8877L14.5272 24.8882L14.5273 24.8877Z" fill="#18C3DF"/>
<path fill-rule="evenodd" clip-rule="evenodd" d="M24.5249 46.6902C37.0065 46.6902 47.1249 36.5718 47.1249 24.0902C47.1249 11.6086 37.0065 1.49021 24.5249 1.49021C12.0433 1.49021 1.9249 11.6086 1.9249 24.0902C1.9249 36.5718 12.0433 46.6902 24.5249 46.6902ZM24.5249 48.0902C37.7797 48.0902 48.5249 37.345 48.5249 24.0902C48.5249 10.8354 37.7797 0.09021 24.5249 0.09021C11.2701 0.09021 0.524902 10.8354 0.524902 24.0902C0.524902 37.345 11.2701 48.0902 24.5249 48.0902Z" fill="#D9D9D9"/>
</g>
<defs>
<clipPath id="clip0_4012_186977">
<rect x="0.524902" y="0.09021" width="48" height="48" fill="white"/>
</clipPath>
</defs>
</svg>
