<svg width="49" height="49" viewBox="0 0 49 49" fill="none" xmlns="http://www.w3.org/2000/svg">
<path fill-rule="evenodd" clip-rule="evenodd" d="M43.4584 38.4915C46.4717 34.4802 48.2573 29.4939 48.2573 24.0907C48.2573 18.6874 46.4717 13.7011 43.4584 9.68982L24.2573 24.0907L5.0562 9.68982C2.04291 13.7011 0.257324 18.6874 0.257324 24.0907C0.257324 29.4939 2.04291 34.4802 5.0562 38.4915L24.2573 24.0907L43.4584 38.4915Z" fill="black"/>
<path fill-rule="evenodd" clip-rule="evenodd" d="M5.05615 9.68937C9.43478 3.8605 16.4057 0.09021 24.2573 0.09021C32.1088 0.09021 39.0798 3.8605 43.4584 9.68937L24.2573 24.0902L5.05615 9.68937ZM24.2573 48.0902C32.1088 48.0902 39.0798 44.3199 43.4584 38.4911L24.2573 24.0902L5.05615 38.4911C9.43478 44.3199 16.4057 48.0902 24.2573 48.0902Z" fill="#009900"/>
<path fill-rule="evenodd" clip-rule="evenodd" d="M44.9495 11.9241L6.78685 40.546C5.56084 39.2449 4.47858 37.8068 3.56543 36.2571L41.728 7.63513C42.954 8.93629 44.0363 10.3744 44.9495 11.9241Z" fill="#FFCC00"/>
<path fill-rule="evenodd" clip-rule="evenodd" d="M6.78685 7.63513L44.9495 36.2571C44.0363 37.8068 42.954 39.2449 41.728 40.546L3.56543 11.9241C4.47858 10.3744 5.56084 8.93629 6.78685 7.63513Z" fill="#FFCC00"/>
<path fill-rule="evenodd" clip-rule="evenodd" d="M24.2573 46.6902C36.739 46.6902 46.8573 36.5718 46.8573 24.0902C46.8573 11.6086 36.739 1.49021 24.2573 1.49021C11.7757 1.49021 1.65732 11.6086 1.65732 24.0902C1.65732 36.5718 11.7757 46.6902 24.2573 46.6902ZM24.2573 48.0902C37.5122 48.0902 48.2573 37.345 48.2573 24.0902C48.2573 10.8354 37.5122 0.09021 24.2573 0.09021C11.0025 0.09021 0.257324 10.8354 0.257324 24.0902C0.257324 37.345 11.0025 48.0902 24.2573 48.0902Z" fill="#D9D9D9"/>
</svg>
