<svg width="49" height="49" viewBox="0 0 49 49" fill="none" xmlns="http://www.w3.org/2000/svg">
<g clip-path="url(#clip0_4012_188077)">
<path fill-rule="evenodd" clip-rule="evenodd" d="M24.5244 48.0902C37.7792 48.0902 48.5244 37.345 48.5244 24.0902C48.5244 10.8354 37.7792 0.09021 24.5244 0.09021C11.2696 0.09021 0.524414 10.8354 0.524414 24.0902C0.524414 37.345 11.2696 48.0902 24.5244 48.0902Z" fill="white"/>
<path fill-rule="evenodd" clip-rule="evenodd" d="M44.3167 37.6686C46.9709 33.8072 48.5244 29.1301 48.5244 24.0902C48.5244 10.8354 37.7792 0.09021 24.5244 0.09021C19.7244 0.09021 15.2536 1.49932 11.5029 3.92644L13.7469 6.09021L44.3167 37.6686ZM37.5459 44.254L35.3019 42.0902L4.73214 10.5118C2.0779 14.3733 0.524414 19.0503 0.524414 24.0902C0.524414 37.345 11.2696 48.0902 24.5244 48.0902C29.3244 48.0902 33.7953 46.6811 37.5459 44.254Z" fill="#E00000"/>
<path fill-rule="evenodd" clip-rule="evenodd" d="M10.2189 4.81775L11.4975 6.10523L43.4653 38.831C42.1217 40.555 40.5478 42.0909 38.7899 43.3922L37.44 42.0527L5.65625 9.25632C6.97359 7.58304 8.50873 6.08927 10.2189 4.81775Z" fill="black"/>
<path fill-rule="evenodd" clip-rule="evenodd" d="M24.5244 46.6902C37.0061 46.6902 47.1244 36.5718 47.1244 24.0902C47.1244 11.6086 37.0061 1.49021 24.5244 1.49021C12.0428 1.49021 1.92441 11.6086 1.92441 24.0902C1.92441 36.5718 12.0428 46.6902 24.5244 46.6902ZM24.5244 48.0902C37.7792 48.0902 48.5244 37.345 48.5244 24.0902C48.5244 10.8354 37.7792 0.09021 24.5244 0.09021C11.2696 0.09021 0.524414 10.8354 0.524414 24.0902C0.524414 37.345 11.2696 48.0902 24.5244 48.0902Z" fill="#D9D9D9"/>
</g>
<defs>
<clipPath id="clip0_4012_188077">
<rect x="0.524902" y="0.09021" width="48" height="48" fill="white"/>
</clipPath>
</defs>
</svg>
