<svg width="49" height="49" viewBox="0 0 49 49" fill="none" xmlns="http://www.w3.org/2000/svg">
<g clip-path="url(#clip0_4012_188085)">
<rect x="0.524902" y="0.09021" width="48" height="48" rx="24" fill="#FF4E4E"/>
<path d="M0.524902 0.09021L48.5249 0.09021L48.5249 48.0902L0.524902 48.0902L0.524902 0.09021Z" fill="white"/>
<path d="M16.2855 29.1539C16.2855 29.1539 16.251 28.9199 16.6953 28.7481C17.1399 28.5764 17.1744 27.9369 17.0853 27.5103C17.0853 27.5103 16.8533 27.9161 16.5717 28.0514C16.5717 28.0514 16.1124 28.2908 16.0916 28.7478C16.0916 28.7478 16.088 28.9148 16.0535 29.0447C16.0347 29.1161 15.8312 28.4726 16.2165 27.9941C16.6139 27.5003 16.7251 27.0995 16.409 26.3195C16.409 26.3195 16.3792 26.7929 16.0682 27.063C15.7572 27.3336 15.7177 27.3543 15.7227 27.9992C15.7227 27.9992 15.7277 28.2228 15.6092 28.2955C15.6092 28.2955 15.3671 27.9419 15.3028 27.7079C15.2386 27.4739 15.2091 27.3751 15.4856 27.1046C15.4856 27.1046 16.3715 26.5321 15.7327 25.2792C15.7327 25.2792 15.713 25.7108 15.407 25.9656C15.1006 26.2204 15.1254 26.3921 15.1107 26.834C15.0959 27.276 15.0661 27.2448 15.0317 27.3075C15.0317 27.3075 14.4689 26.2726 14.9034 25.7212C15.338 25.1697 15.5801 25.0556 15.101 24.0311C15.101 24.0311 15.1224 24.5564 14.7387 24.8165C14.3554 25.0767 14.4441 25.685 14.4441 25.685C14.4441 25.685 14.4689 25.9137 14.3898 26.0804C14.3898 26.0804 13.8475 25.0224 14.3651 24.4526C14.8047 23.9688 14.8341 23.631 14.5971 22.9443C14.5971 22.9443 14.5673 23.2617 14.3256 23.4331C14.0835 23.6049 13.891 23.7763 13.9355 24.4369C13.9355 24.4369 13.9553 24.8996 13.896 25.0298C13.896 25.0298 13.6687 24.6086 13.6047 24.3331C13.5404 24.0575 13.5157 23.8962 13.6837 23.6206C13.8518 23.3451 14.5184 22.5546 13.7233 21.4156C13.7233 21.4156 13.6985 21.7849 13.4959 22.1177C13.2934 22.4505 13.3874 22.8459 13.4316 23.1475C13.4758 23.4492 13.3278 23.7405 13.3278 23.7405C13.3278 23.7405 12.9823 23.106 13.0563 22.3778C13.1303 21.6496 12.834 21.0517 12.1624 20.6201C12.1624 20.6201 11.6736 21.7538 12.3402 22.331C12.3402 22.331 12.908 22.8928 13.0513 23.5737C13.0513 23.5737 12.6218 23.5322 12.2317 22.7729C11.8417 22.0136 11.0318 22.1331 10.9775 22.1281C10.9775 22.1281 11.1108 23.3032 12.3552 23.6364C12.3552 23.6364 13.1504 23.7716 13.2984 24.3542C13.2984 24.3542 13.4316 24.7546 13.4859 24.9679C13.4859 24.9679 13.2341 24.8691 13.0021 24.5259C12.7701 24.1827 12.7995 24.1412 12.0144 24.0632C12.0144 24.0632 11.6984 24.0267 11.5306 23.8031C11.5306 23.8031 11.8614 25.0459 12.7108 25.0355C12.7108 25.0355 13.4862 24.9525 13.9208 25.9716C13.9208 25.9716 13.8367 25.9197 13.7233 25.8417C13.6098 25.7637 13.3232 25.618 12.7553 25.6857C12.1875 25.7533 12.0295 25.6596 11.8862 25.6127C11.8862 25.6127 12.459 26.6633 13.2689 26.3513C14.0788 26.0392 14.4699 27.1772 14.4789 27.199C14.4789 27.199 14.3704 27.1156 14.2271 26.9753C14.0838 26.835 13.7865 26.6616 13.2247 26.8401C13.2247 26.8401 12.82 26.9961 12.4098 26.8712C12.4098 26.8712 12.8049 27.6356 13.7283 27.5057C14.6517 27.3758 14.8837 28.187 14.8837 28.187C14.8837 28.187 14.7601 28.114 14.6764 28.0467C14.5924 27.9791 14.2814 27.8023 13.6148 27.9998C12.9482 28.1974 12.7061 27.9687 12.7061 27.9687C12.7061 27.9687 13.0764 28.6447 13.7875 28.7227C13.7875 28.7227 14.1826 28.7173 14.3503 28.655C14.5184 28.5928 14.9627 28.494 15.2687 28.9359C15.2687 28.9359 15.1847 28.9517 15.0564 28.8944C15.0564 28.8944 14.5824 28.7227 14.2218 29.0243C14.2218 29.0243 13.9007 29.3521 13.4464 29.2895C13.4464 29.2895 14.0339 29.8617 14.9674 29.3779C14.9674 29.3779 15.2834 29.1492 15.5154 29.326C15.7475 29.5031 16.2858 29.1546 16.2858 29.1546L16.2855 29.1539Z" fill="#369443"/>
<path d="M14.2316 29.6206C14.0776 29.6206 13.946 29.5948 13.8412 29.562C13.5694 29.4769 13.417 29.3306 13.4107 29.3246L13.3012 29.2181L13.4525 29.2389C13.8754 29.2968 14.1821 28.9915 14.1851 28.9881L14.1887 28.9848C14.5671 28.668 15.0522 28.8385 15.0726 28.8462L15.076 28.8475C15.1061 28.8609 15.1336 28.8699 15.1573 28.876C14.8654 28.5519 14.4837 28.658 14.3669 28.7015C14.1928 28.7661 13.8037 28.7722 13.787 28.7722H13.784H13.781C13.0521 28.6921 12.6764 28.0209 12.661 27.9924L12.5077 27.7125L12.7397 27.9318C12.7417 27.9335 12.9751 28.1364 13.5995 27.9512C14.3036 27.7423 14.6253 27.9412 14.707 28.0071C14.7278 28.0239 14.7516 28.0413 14.775 28.0577C14.6632 27.8411 14.3736 27.4651 13.7344 27.5552C12.7866 27.6887 12.3684 26.902 12.3644 26.8939L12.3098 26.7881L12.4237 26.8229C12.8114 26.9411 13.2021 26.7945 13.2058 26.7928C13.7723 26.613 14.0923 26.7731 14.2614 26.9391C14.2912 26.9686 14.3197 26.9954 14.3461 27.0195C14.2463 26.8169 14.0629 26.5236 13.796 26.4028C13.637 26.3308 13.4656 26.3291 13.2865 26.3981C13.1763 26.4406 13.0702 26.459 12.9694 26.459C12.2988 26.459 11.8468 25.6465 11.8418 25.6367L11.7812 25.5256L11.9014 25.5648C11.9188 25.5705 11.9365 25.5768 11.9549 25.5835C12.0838 25.63 12.26 25.6937 12.7491 25.6354C13.3146 25.5681 13.6199 25.7094 13.7515 25.7998C13.7682 25.8112 13.7843 25.8222 13.7997 25.8326C13.3802 25.0274 12.7444 25.0823 12.716 25.085H12.7113C12.344 25.09 12.0159 24.8697 11.7591 24.4489C11.5686 24.1368 11.4852 23.8285 11.4819 23.8154L11.4152 23.5657L11.5703 23.7722C11.7226 23.9755 12.0169 24.0123 12.0199 24.0126C12.7434 24.0846 12.7966 24.1258 12.9969 24.4278C13.0112 24.4495 13.0267 24.4726 13.0434 24.4974C13.176 24.6933 13.3156 24.8068 13.406 24.866C13.3447 24.6528 13.2516 24.3732 13.2506 24.3699L13.2496 24.3665C13.1114 23.8231 12.3544 23.6872 12.3467 23.6859L12.342 23.6848C11.0791 23.347 10.9288 22.1458 10.9274 22.1337L10.9204 22.0721L10.982 22.0781C10.986 22.0781 10.9951 22.0778 11.0078 22.0771C11.7507 22.0396 12.1076 22.4223 12.276 22.7501C12.5522 23.2881 12.8485 23.4538 12.9828 23.5034C12.8187 22.8807 12.3102 22.3718 12.3048 22.3664C11.6208 21.7741 12.0956 20.6475 12.1163 20.5996L12.1398 20.5454L12.1896 20.5776C12.875 21.0182 13.1833 21.6255 13.1063 22.3828C13.0514 22.9208 13.2342 23.4127 13.3246 23.6165C13.3625 23.5101 13.4083 23.333 13.3822 23.1545C13.3775 23.1224 13.3722 23.0892 13.3668 23.0551C13.3206 22.7651 13.263 22.4042 13.4532 22.0915C13.6464 21.7738 13.6728 21.4156 13.6732 21.4122L13.6829 21.2699L13.7646 21.3868C14.5105 22.4555 13.9979 23.2335 13.779 23.5657C13.7589 23.5965 13.7408 23.6236 13.7267 23.6467C13.5677 23.9078 13.5921 24.0578 13.6537 24.3216C13.6946 24.4974 13.8057 24.7381 13.877 24.8824C13.8924 24.7381 13.8894 24.5302 13.8854 24.4392C13.8406 23.7716 14.0361 23.577 14.2966 23.3922C14.5162 23.2365 14.547 22.9426 14.5473 22.9396L14.5694 22.7102L14.6447 22.9282C14.8955 23.6544 14.8409 24.0036 14.4024 24.4867C14.0123 24.9159 14.2627 25.6562 14.3819 25.9411C14.407 25.8155 14.3943 25.6923 14.3943 25.6906C14.3906 25.6665 14.3059 25.0498 14.7107 24.7753C15.0659 24.5346 15.0512 24.0384 15.0509 24.0334L15.0415 23.7853L15.1466 24.0103C15.5906 24.9598 15.4268 25.1597 15.0679 25.5982C15.0288 25.6461 14.9869 25.6973 14.9431 25.7529C14.6059 26.1805 14.9106 26.9354 15.0318 27.1942C15.0435 27.143 15.0539 27.0446 15.0609 26.833C15.0622 26.7935 15.0633 26.7563 15.0643 26.7212C15.074 26.3569 15.079 26.1741 15.3753 25.9277C15.6602 25.6906 15.683 25.2815 15.6833 25.2775L15.6923 25.0887L15.7781 25.2567C16.1175 25.922 16.0288 26.3998 15.8949 26.6837C15.7583 26.9726 15.5524 27.1213 15.5182 27.1444C15.2685 27.3898 15.2892 27.4658 15.3508 27.6901L15.3522 27.6951C15.3997 27.8682 15.5521 28.1153 15.619 28.2191C15.6646 28.1551 15.6739 28.0453 15.6733 28.0008C15.6682 27.3667 15.7027 27.3151 16.0174 27.0419L16.0362 27.0255C16.3281 26.7717 16.3596 26.3211 16.3596 26.3167L16.3733 26.0964L16.4564 26.301C16.7908 27.1266 16.6442 27.5441 16.2565 28.0259C16.0449 28.2887 16.0201 28.6074 16.0389 28.8123C16.0415 28.7735 16.0422 28.7474 16.0422 28.7467C16.0643 28.2653 16.5297 28.0175 16.5494 28.0071C16.8146 27.8796 17.0403 27.4899 17.0426 27.4859L17.1082 27.371L17.1353 27.5006C17.1876 27.751 17.1892 28.0192 17.14 28.2365C17.0761 28.5194 16.9288 28.7126 16.7142 28.7956C16.3191 28.9483 16.3358 29.1461 16.3362 29.1478L16.3395 29.1786L16.3134 29.1964C16.2551 29.2339 15.7369 29.5573 15.4854 29.3654C15.2852 29.2131 15 29.416 14.9973 29.4183L14.9909 29.4224C14.7023 29.572 14.4459 29.6216 14.2326 29.6216L14.2316 29.6206ZM13.6049 29.3457C13.8164 29.4789 14.2872 29.6711 14.9407 29.334C14.9785 29.3075 15.2973 29.0959 15.5454 29.2851C15.7044 29.4063 16.0774 29.2228 16.2354 29.1257C16.2414 29.046 16.2973 28.8478 16.6773 28.7012C17.0279 28.5659 17.1179 28.0828 17.058 27.6466C16.9659 27.7812 16.7935 28.0004 16.5936 28.0962C16.591 28.0979 16.1611 28.3275 16.1416 28.7494C16.1416 28.7551 16.1376 28.9228 16.1018 29.0571C16.0944 29.0849 16.073 29.0973 16.0556 29.0993C16.0415 29.1013 16.0148 29.0986 15.995 29.0631C15.9364 28.958 15.8296 28.3938 16.1771 27.9623C16.5203 27.5361 16.6582 27.1812 16.4282 26.5133C16.3887 26.6827 16.2993 26.9284 16.1011 27.1008L16.0824 27.1172C15.7978 27.3643 15.768 27.3901 15.7727 27.9988C15.7734 28.0239 15.7744 28.2529 15.6351 28.3383L15.5942 28.3634L15.5671 28.3239C15.5571 28.3091 15.3197 27.9606 15.2541 27.7212L15.2527 27.7162C15.1828 27.4614 15.1657 27.3469 15.4503 27.0687L15.458 27.0623C15.4911 27.0409 16.2307 26.542 15.757 25.4496C15.7215 25.6059 15.6374 25.8386 15.4382 26.0044C15.1767 26.222 15.1727 26.3686 15.1634 26.7235C15.1624 26.759 15.1613 26.7965 15.16 26.836C15.1476 27.209 15.1252 27.2579 15.087 27.3128C15.083 27.3185 15.079 27.3245 15.0746 27.3318L15.0304 27.4119L14.9866 27.3315C14.9809 27.3208 14.8419 27.0637 14.7549 26.7339C14.6377 26.2893 14.6749 25.9284 14.8627 25.6903C14.9069 25.6344 14.9491 25.5828 14.9886 25.5343C15.3056 25.1469 15.4503 24.9705 15.1342 24.2312C15.1038 24.4171 15.016 24.6883 14.7656 24.858C14.4131 25.097 14.4917 25.6719 14.4924 25.6776C14.4938 25.6893 14.5179 25.9243 14.4338 26.1014L14.3903 26.1935L14.3438 26.1031C14.3381 26.0921 14.2041 25.8289 14.1328 25.4904C14.0367 25.0348 14.1037 24.6641 14.3267 24.4187C14.7043 24.0032 14.7763 23.7056 14.6029 23.1287C14.5637 23.2389 14.4901 23.3772 14.3531 23.4739C14.103 23.6514 13.9423 23.8137 13.9842 24.4331C13.9862 24.483 14.0026 24.9132 13.9403 25.0502L13.8985 25.1422L13.8506 25.0532C13.8412 25.0358 13.6196 24.623 13.5546 24.3437C13.489 24.0618 13.4606 23.8877 13.6397 23.5938C13.6544 23.5697 13.6728 23.5416 13.6939 23.5097C13.9109 23.1803 14.3538 22.5084 13.7542 21.5538C13.7291 21.6951 13.6705 21.9255 13.5379 22.1431C13.3668 22.4243 13.4187 22.7508 13.4649 23.0387C13.4703 23.0732 13.476 23.1066 13.4806 23.1395C13.5268 23.4532 13.3785 23.7498 13.3722 23.7625L13.329 23.8476L13.2834 23.7639C13.269 23.7374 12.9312 23.1073 13.0059 22.3721C13.0769 21.6747 12.801 21.1109 12.1863 20.6954C12.1498 20.7942 12.0782 21.0128 12.0507 21.2662C12.0018 21.7196 12.11 22.0647 12.3728 22.2924C12.3989 22.3182 12.9557 22.875 13.1003 23.563L13.1144 23.6299L13.0464 23.6232C13.0277 23.6216 12.585 23.57 12.187 22.7953C12.034 22.4973 11.7102 22.1498 11.0363 22.1756C11.0815 22.4059 11.3228 23.3062 12.3658 23.5864C12.4243 23.5968 13.1934 23.7438 13.3464 24.3391C13.3571 24.3715 13.4816 24.7468 13.5345 24.9544L13.5587 25.0495L13.4676 25.0137C13.4569 25.0093 13.1984 24.9052 12.9604 24.553C12.9436 24.5279 12.9279 24.5048 12.9135 24.4827C12.7367 24.2162 12.7139 24.182 12.0095 24.1121C11.9985 24.1107 11.8096 24.0876 11.6409 23.9734C11.6844 24.0886 11.7521 24.2443 11.8461 24.398C12.0862 24.7904 12.3761 24.9869 12.7079 24.9846C12.734 24.9822 12.9279 24.9695 13.1723 25.0743C13.407 25.1751 13.7354 25.4091 13.9664 25.9511L14.0287 26.0971L13.8938 26.0137C13.8938 26.0137 13.8074 25.9602 13.6942 25.8825C13.5744 25.8001 13.2938 25.6716 12.7608 25.7348C12.3423 25.7847 12.1394 25.7482 12.0038 25.706C12.0684 25.8011 12.1732 25.9391 12.3092 26.0629C12.6179 26.3445 12.9346 26.4255 13.2506 26.3037C13.4555 26.2247 13.6531 26.227 13.8375 26.3107C14.2473 26.4965 14.4663 27.0201 14.5239 27.1765L14.5252 27.1798L14.5888 27.3459L14.4479 27.2381C14.4432 27.2348 14.3351 27.1514 14.1914 27.0104C14.0418 26.8638 13.7552 26.7235 13.2392 26.8872C13.2262 26.8923 12.8924 27.0181 12.5178 26.9485C12.6587 27.1457 13.0374 27.5515 13.7207 27.4551C14.4854 27.3472 14.847 27.8772 14.9317 28.1722L14.9662 28.2931L14.8577 28.2291C14.8527 28.2261 14.7301 28.1538 14.6444 28.0845C14.5932 28.043 14.3026 27.8468 13.6286 28.0466C13.2503 28.1588 13.0012 28.1374 12.8522 28.0939C13.0039 28.2914 13.3216 28.6185 13.7893 28.6711C13.8258 28.6704 14.1821 28.6627 14.3324 28.6068C14.476 28.5532 14.9712 28.4173 15.3097 28.9061L15.3539 28.97L15.2775 28.9841C15.2675 28.9861 15.1751 29.0005 15.0375 28.9399C15.0097 28.9305 14.5791 28.7909 14.2554 29.0601C14.2286 29.0869 13.9761 29.3283 13.6049 29.3453V29.3457Z" fill="#010002"/>
<path d="M21.4808 15.0618C21.4808 15.0618 21.3723 14.0938 22.1457 14.0008C22.9522 13.9037 23.3507 14.0738 23.3507 14.0738L23.7129 14.7845L23.5877 15.263L23.0872 15.4916C23.0872 15.4916 23.1729 14.7568 22.4989 14.7414C22.3282 14.7373 22.2277 14.8053 21.9579 14.7624C21.6864 14.7193 21.4805 15.0618 21.4805 15.0618H21.4808Z" fill="#F4C53D"/>
<path d="M23.0267 15.574L23.0368 15.4857C23.0371 15.4823 23.0719 15.1572 22.8955 14.955C22.8041 14.8505 22.6702 14.7953 22.4974 14.7916C22.4381 14.7903 22.3859 14.7986 22.331 14.8074C22.2349 14.8228 22.1261 14.8402 21.9493 14.812C21.7146 14.7749 21.5248 15.0846 21.5228 15.0879L21.4465 15.2145L21.43 15.0675C21.429 15.0574 21.3256 14.049 22.1388 13.9513C22.9494 13.8535 23.3528 14.0206 23.3696 14.0276L23.3863 14.0346L23.7653 14.7786L23.6294 15.2985L23.0264 15.5744L23.0267 15.574ZM22.4847 14.6908C22.4897 14.6908 22.4947 14.6908 22.4997 14.6908C22.7023 14.6955 22.8613 14.7622 22.9718 14.8894C23.1188 15.0581 23.1406 15.2885 23.1406 15.4117L23.5443 15.2269L23.6585 14.7899L23.314 14.1136C23.2323 14.0848 22.8436 13.967 22.1509 14.0507C21.8532 14.0865 21.6584 14.2636 21.5713 14.577C21.5365 14.7032 21.5265 14.8274 21.5251 14.9182C21.6172 14.8137 21.7742 14.6828 21.9651 14.7129C22.1258 14.7384 22.2219 14.723 22.3149 14.7083C22.3675 14.6999 22.4221 14.6912 22.4843 14.6912L22.4847 14.6908Z" fill="#010002"/>
<path d="M26.9229 17.4556C26.8078 17.6045 26.3467 17.6568 26.3467 17.6568C26.3467 17.6568 26.8208 18.0207 27.0251 18.541C27.2293 19.0609 21.5306 18.5443 21.5306 18.5443C21.5306 18.5443 21.7777 18.3676 21.9454 18.0348C21.9454 18.0348 21.6937 18.1285 21.4419 17.8787C21.4419 17.8787 21.6294 17.941 21.8765 17.5667C21.8765 17.5667 22.2421 17.0987 22.4985 16.9738C22.4985 16.9738 22.38 17.0468 22.0938 16.8907C22.0938 16.8907 22.5876 16.8285 22.7654 15.9858C22.7654 15.9858 22.7952 15.7986 22.9827 15.5281C23.1701 15.2576 23.131 15.58 23.4765 15.1642C23.4765 15.1642 23.6345 14.8695 23.4962 14.6891C23.358 14.5086 23.21 14.5746 22.92 14.4015C22.6301 14.2284 22.5019 14.131 22.6006 13.8641C22.6994 13.5973 22.9562 13.6388 22.9924 13.6388C23.0285 13.6388 23.0483 13.4065 23.3643 13.2471C23.6804 13.0877 24.5197 13.157 24.6449 13.2263C24.7702 13.2956 25.2771 13.4446 25.5734 14.1936C25.8697 14.9425 25.4943 15.2234 26.3009 16.3537C26.3009 16.3537 25.9781 16.423 25.7709 16.3607C25.7709 16.3607 26.1891 17.1027 26.9233 17.4562L26.9229 17.4556Z" fill="#F4C53D"/>
<path d="M25.6694 18.8224C25.2847 18.8224 24.7912 18.8097 24.1568 18.7782C22.8377 18.7123 21.5393 18.5954 21.5263 18.5941L21.3923 18.582L21.5018 18.5033C21.5038 18.5017 21.6967 18.3614 21.8517 18.1016C21.7449 18.1069 21.5755 18.0812 21.4067 17.9141L21.2544 17.7631L21.458 17.8307C21.458 17.8307 21.617 17.8689 21.8346 17.5388L21.837 17.5354C21.8493 17.5197 22.0887 17.2144 22.3201 17.0312C22.2541 17.0182 22.1714 16.9897 22.07 16.9345L21.9334 16.8601L22.0877 16.8407C22.1061 16.838 22.5491 16.7681 22.7165 15.9753C22.7171 15.9696 22.7496 15.776 22.9418 15.4995C23.0329 15.3683 23.0834 15.3559 23.1504 15.3519C23.1993 15.3488 23.2602 15.3452 23.4346 15.1362C23.452 15.1018 23.5652 14.8614 23.4567 14.7197C23.3894 14.632 23.3215 14.6116 23.2183 14.5811C23.1336 14.556 23.0278 14.5246 22.8946 14.4445C22.6093 14.2738 22.4403 14.1536 22.5541 13.8466C22.6006 13.7207 22.7108 13.5747 22.9719 13.5871C22.9749 13.5814 22.9783 13.5744 22.981 13.5684C23.0195 13.489 23.0995 13.3243 23.3422 13.2018C23.6683 13.0374 24.5244 13.1013 24.6697 13.182C24.6831 13.1894 24.7039 13.1991 24.7276 13.2101C24.9148 13.2962 25.3527 13.4981 25.6202 14.175C25.7304 14.4536 25.7501 14.6715 25.7692 14.8821C25.802 15.2424 25.8358 15.615 26.3417 16.3241L26.3862 16.3864L26.3116 16.4025C26.3002 16.4048 26.0752 16.4523 25.8747 16.4313C26.0136 16.6408 26.3889 17.143 26.945 17.4109L27.0009 17.4377L26.9631 17.4865C26.8724 17.6041 26.6166 17.6643 26.4649 17.6904C26.6142 17.8234 26.9166 18.127 27.0719 18.5228C27.0877 18.5626 27.0823 18.6034 27.0565 18.6373C27.0173 18.6895 26.9169 18.8231 25.6691 18.8231L25.6694 18.8224ZM21.6552 18.5043C22.0067 18.5348 23.0774 18.6235 24.1618 18.6778C26.5443 18.7966 26.9236 18.6466 26.9762 18.5763C26.9805 18.5706 26.9815 18.567 26.9782 18.5589C26.7813 18.0577 26.321 17.6998 26.3163 17.6961L26.2175 17.6205L26.341 17.6064C26.4465 17.5944 26.7097 17.5485 26.8345 17.4671C26.1361 17.1005 25.7438 16.4142 25.7267 16.3844L25.6654 16.2756L25.7849 16.3114C25.9189 16.3516 26.1094 16.3325 26.2138 16.3168C25.7357 15.6274 25.7016 15.2528 25.6688 14.8905C25.6493 14.6776 25.6313 14.476 25.5261 14.2112C25.2734 13.572 24.8609 13.3819 24.6848 13.3009C24.658 13.2885 24.6369 13.2788 24.6202 13.2694C24.5093 13.2081 23.6887 13.1385 23.3864 13.2911C23.1741 13.3983 23.1065 13.5372 23.0704 13.6119C23.0506 13.6527 23.0332 13.6882 22.9917 13.6882C22.988 13.6882 22.9823 13.6882 22.9749 13.6875C22.913 13.6835 22.7245 13.6715 22.6472 13.8807C22.5638 14.1061 22.6515 14.1821 22.9451 14.3575C23.0677 14.4308 23.1624 14.4589 23.2461 14.484C23.3546 14.5165 23.4484 14.5443 23.5354 14.6578C23.6918 14.8614 23.527 15.1737 23.52 15.1871L23.5143 15.1955C23.3248 15.4235 23.2394 15.4463 23.1551 15.4513C23.1176 15.4536 23.0931 15.455 23.0232 15.5561C22.8457 15.8119 22.8146 15.9913 22.8142 15.993C22.6857 16.6023 22.3971 16.8213 22.2283 16.8986C22.383 16.9602 22.4577 16.9358 22.4711 16.9304C22.4727 16.9298 22.4744 16.9288 22.4761 16.9281L22.5243 17.0162C22.5226 17.0172 22.5189 17.0195 22.5132 17.0218C22.2772 17.1414 21.9394 17.5666 21.9166 17.5957C21.7784 17.8046 21.6552 17.887 21.5661 17.9171C21.7556 18.0463 21.9196 17.9901 21.9277 17.9871L22.0462 17.9446L21.99 18.0567C21.8825 18.2697 21.7452 18.4196 21.6548 18.5043H21.6552Z" fill="#010002"/>
<path d="M23.3937 14.346C23.1858 14.3359 23.0398 14.268 22.9601 14.1437C22.8228 13.9295 22.9397 13.6325 22.9447 13.6201L23.0378 13.6576C23.0368 13.6603 22.9353 13.9194 23.0448 14.0898C23.1061 14.1849 23.2249 14.2375 23.3984 14.2459L23.3937 14.3463V14.346Z" fill="#010002"/>
<path d="M24.5391 14.3817C24.5391 14.3817 24.4229 14.3271 24.3248 14.1972C24.1872 14.0147 23.8799 13.9267 23.7145 14.0984C23.7145 14.0984 23.5468 14.2856 23.3984 14.296C23.3984 14.296 23.5662 14.3479 23.6823 14.4547C23.7985 14.5611 23.9194 14.6391 24.0921 14.6157C24.2649 14.5923 24.292 14.5012 24.3737 14.4466C24.4551 14.3921 24.5391 14.3817 24.5391 14.3817Z" fill="#F4C53D"/>
<path d="M24.0307 14.6699C23.867 14.6699 23.7501 14.5852 23.648 14.4911C23.5419 14.3937 23.3849 14.3438 23.3832 14.3434L23.1284 14.2641L23.3946 14.2453C23.499 14.238 23.6336 14.1121 23.6768 14.0642C23.7511 13.9872 23.8553 13.9494 23.9714 13.9561C24.1208 13.9651 24.2751 14.0475 24.3648 14.1663C24.4536 14.2839 24.5594 14.3354 24.5604 14.3357L24.5389 14.3813L24.5453 14.4312C24.5453 14.4312 24.4713 14.4412 24.4017 14.4881C24.3816 14.5015 24.3642 14.5192 24.3454 14.5376C24.2972 14.5862 24.2369 14.6464 24.0987 14.6652C24.0752 14.6685 24.0525 14.6699 24.0307 14.6699ZM23.5409 14.3006C23.5965 14.3284 23.6611 14.3669 23.716 14.4174C23.8288 14.5212 23.935 14.5862 24.0853 14.5658C24.1897 14.5517 24.2289 14.5122 24.2741 14.467C24.2952 14.4459 24.317 14.4238 24.3454 14.405C24.3709 14.388 24.3963 14.3749 24.4201 14.3645C24.3789 14.3324 24.33 14.2875 24.2845 14.2273C24.2118 14.1312 24.0866 14.0642 23.9651 14.0569C23.9042 14.0532 23.8174 14.0636 23.7501 14.1332C23.7458 14.1382 23.6537 14.2397 23.5406 14.3009L23.5409 14.3006Z" fill="#010002"/>
<path d="M28.8089 23.7361C28.8089 23.7361 29.4213 24.2353 29.9349 23.7361C29.9349 23.7361 30.1424 23.9859 30.5569 23.9129C30.9717 23.8399 31.0411 23.6216 31.0806 23.4967C31.0806 23.4967 31.4395 23.706 31.7421 23.5406C32.0451 23.3752 32.0451 23.1258 32.0451 23.1258C32.0451 23.1258 32.5718 23.2296 32.842 22.8727C33.1121 22.5158 32.9474 22.1619 32.8024 22.1204C32.8024 22.1204 33.3719 22.2697 33.5266 21.7806C33.6582 21.3644 33.3619 21.1495 33.3619 21.1495C33.3619 21.1495 34.5618 21.1438 35.054 20.7681C35.054 20.7681 35.4621 20.5117 35.2187 20.2411C35.2187 20.2411 36.2984 20.0677 36.5683 19.6378C36.5683 19.6378 36.6868 19.52 36.6473 19.3121C36.6473 19.3121 36.6406 19.1942 36.5221 19.1872C36.5221 19.1872 37.7535 18.997 38.1091 18.5909C38.1091 18.5909 38.2801 18.4037 38.1948 18.154C38.1948 18.154 38.1767 18.088 38.1469 18.0438C38.1469 18.0438 39.2678 17.8071 39.8209 17.3079C39.8209 17.3079 40.1403 17.0233 39.9756 16.642C39.9756 16.642 41.8488 16.1291 41.4142 15.3038C41.4142 15.3038 42.2901 15.0196 42.0135 14.2291C42.0135 14.2291 42.7377 13.8615 42.4216 13.2793C42.1193 12.7218 41.1906 13.3764 40.0908 13.6807C40.0908 13.6807 37.115 14.6175 35.6493 14.8669L31.4853 21.0664L29.0557 22.0025L28.8086 23.7361H28.8089Z" fill="#F4C53D"/>
<path d="M29.417 24.0067C29.0671 24.0067 28.7808 23.7781 28.7765 23.7747L28.7544 23.7567L29.0095 21.9658L31.4519 21.0247L35.6192 14.8204L35.6403 14.8168C37.0856 14.5707 40.0453 13.6416 40.0751 13.6322C40.4055 13.5408 40.7252 13.416 41.0068 13.3058C41.6918 13.038 42.2325 12.8264 42.4652 13.2549C42.5543 13.419 42.5744 13.583 42.5248 13.7424C42.4394 14.0163 42.1736 14.194 42.0738 14.2526C42.1411 14.4706 42.1304 14.6718 42.0417 14.8509C41.9007 15.1355 41.6044 15.2815 41.4829 15.3314C41.5452 15.4773 41.5455 15.6233 41.4832 15.7663C41.2596 16.2819 40.284 16.6023 40.0416 16.6749C40.1691 17.0583 39.8571 17.3422 39.8541 17.3452C39.3676 17.7845 38.47 18.0195 38.2209 18.0784C38.2346 18.1112 38.2423 18.1387 38.2427 18.1403C38.3361 18.4119 38.1536 18.6158 38.1456 18.6245C37.8503 18.962 36.9979 19.1504 36.6641 19.2131C36.6852 19.2445 36.6946 19.2797 36.6966 19.3055C36.7351 19.514 36.6313 19.6426 36.6075 19.6687C36.3665 20.0447 35.5643 20.2265 35.3055 20.2764C35.3393 20.3353 35.3517 20.3976 35.3426 20.4622C35.3162 20.653 35.1066 20.7933 35.0818 20.8094C34.667 21.1241 33.7932 21.185 33.4771 21.1971C33.5615 21.3039 33.6653 21.5061 33.5735 21.7957C33.5039 22.0153 33.3449 22.1493 33.1128 22.1834C33.0576 22.1915 33.0044 22.1931 32.9578 22.1911C32.9776 22.2219 32.9943 22.2574 33.0074 22.2959C33.0379 22.3876 33.0867 22.6304 32.8808 22.9026C32.6441 23.2156 32.234 23.1999 32.0877 23.1828C32.0696 23.2739 32.0043 23.4543 31.7653 23.5846C31.5102 23.7238 31.2259 23.6217 31.1087 23.5678C31.0598 23.7024 30.9517 23.8943 30.5647 23.9622C30.2232 24.0222 30.0129 23.8775 29.9326 23.8055C29.7618 23.9559 29.5824 24.0071 29.4166 24.0071L29.417 24.0067ZM28.8622 23.7138C28.9737 23.7952 29.4712 24.1159 29.8991 23.6997L29.9379 23.6619L29.9727 23.7038C29.9804 23.7128 30.1686 23.9297 30.5476 23.8631C30.9323 23.7955 30.9946 23.599 31.0317 23.4814L31.0505 23.4219L31.1047 23.4533C31.1081 23.4553 31.4432 23.6462 31.7171 23.4965C31.9879 23.3489 31.9936 23.1343 31.9939 23.1252L31.9946 23.065L32.0539 23.076C32.0589 23.077 32.5534 23.1691 32.8008 22.842C32.9779 22.6076 32.9377 22.4044 32.912 22.3277C32.8805 22.2336 32.8256 22.1791 32.7874 22.1684L32.8139 22.0716C32.8353 22.0769 33.3392 22.2022 33.4774 21.7652C33.596 21.3906 33.3419 21.1981 33.3311 21.1901L33.2093 21.1L33.3606 21.099C33.3723 21.099 34.5495 21.0889 35.0226 20.728L35.0262 20.7254C35.0283 20.724 35.2221 20.5998 35.2432 20.4478C35.2516 20.3872 35.2311 20.3306 35.1803 20.2744L35.1186 20.2057L35.2097 20.191C35.2204 20.1893 36.27 20.0162 36.5248 19.6105L36.5318 19.6014C36.5355 19.5974 36.6306 19.4976 36.5968 19.3205L36.5961 19.3138C36.5948 19.2971 36.5854 19.2402 36.5181 19.2365L36.5134 19.1367C36.5255 19.1347 37.7308 18.9445 38.0703 18.5568C38.077 18.5495 38.2206 18.3864 38.1463 18.1695C38.1409 18.1504 38.1248 18.1015 38.1044 18.071L38.0629 18.0094L38.1355 17.994C38.1466 17.9917 39.2498 17.7543 39.7865 17.2699C39.7985 17.2591 40.0764 17.0037 39.9287 16.6612L39.906 16.6083L39.9616 16.5929C39.9736 16.5895 41.1595 16.2591 41.3908 15.7258C41.4481 15.5935 41.441 15.4629 41.3691 15.3267L41.3413 15.2741L41.3979 15.2557C41.4019 15.2544 41.7943 15.1231 41.9513 14.8054C42.033 14.6403 42.0373 14.4518 41.965 14.2453L41.9506 14.2037L41.9898 14.1837C41.9931 14.182 42.338 14.0035 42.4287 13.7116C42.4699 13.5793 42.4522 13.4417 42.3768 13.3025C42.1867 12.9519 41.7072 13.1394 41.0433 13.3989C40.7591 13.51 40.4373 13.6359 40.1032 13.7283C40.0754 13.737 37.1378 14.6597 35.6781 14.9122L31.5172 21.107L29.1002 22.0381L28.8615 23.7131L28.8622 23.7138Z" fill="#010002"/>
<path d="M28.7799 19.1698C28.7799 19.1698 29.1703 18.8768 29.8664 19.2217C29.8664 19.2217 30.1007 19.383 30.2852 19.2063C30.4392 19.0586 30.4536 18.7861 30.2417 18.6287C29.7231 18.244 29.5306 17.0893 30.3207 16.6109C30.3207 16.6109 31.4664 15.9312 35.6675 14.8622C35.6675 14.8622 36.0194 14.7644 36.2072 14.8113C36.4138 14.8629 36.5561 15.04 36.5852 15.192C36.5852 15.192 36.773 15.7263 36.1412 16.032C36.1412 16.032 35.856 16.1626 35.5617 16.2469C35.5617 16.2469 35.8848 16.177 36.0227 16.4967C36.1543 16.8017 35.9635 17.1137 35.3709 17.315C35.3709 17.315 35.2105 17.3772 34.9825 17.4328C34.9825 17.4328 35.4894 17.5784 35.246 17.9876C35.246 17.9876 35.0287 18.4175 34.2617 18.4938C34.2617 18.4938 34.8345 18.5561 34.4294 19.1005C34.4294 19.1005 34.2516 19.3988 33.6918 19.5096C33.6918 19.5096 34.1167 19.5233 33.9024 19.905C33.6885 20.2863 33.1849 20.5013 32.6894 20.5361C32.6894 20.5361 32.4209 20.5498 32.2334 20.5083C32.2334 20.5083 32.7042 20.744 32.4276 21.1394C32.4276 21.1394 32.2234 21.4203 31.7131 21.4062C31.7131 21.4062 31.8457 21.8475 31.4711 22.0146C31.1798 22.1445 30.9377 21.9366 30.9377 21.9366C30.9377 21.9366 31.0365 22.41 30.6116 22.5764C30.6116 22.5764 30.3994 22.6855 30.0833 22.5764C30.0833 22.5764 29.8413 23.1174 28.9822 22.7374C28.1227 22.3577 28.7796 19.1698 28.7796 19.1698H28.7799Z" fill="#F4C53D"/>
<path d="M29.5334 22.9213C29.3821 22.9213 29.1936 22.8852 28.9616 22.7827C28.0753 22.3913 28.7031 19.2907 28.7302 19.1592L28.7339 19.1404L28.749 19.129C28.766 19.1163 29.1721 18.8217 29.888 19.1762L29.894 19.1799C29.902 19.1853 30.0975 19.3155 30.2495 19.1695C30.3178 19.1039 30.355 19.0082 30.3493 18.9131C30.3433 18.817 30.2941 18.7303 30.211 18.6687C29.9127 18.4474 29.7192 17.9813 29.7403 17.5354C29.7601 17.1155 29.9566 16.772 30.2941 16.5678C30.3065 16.5604 30.594 16.392 31.4006 16.0904C32.1422 15.8131 33.4821 15.3662 35.6546 14.8134C35.6683 14.8094 36.0205 14.713 36.2187 14.7625C36.4481 14.8198 36.6004 15.015 36.6335 15.1794C36.65 15.2326 36.7973 15.77 36.1628 16.077C36.1534 16.0813 36.0028 16.15 35.8079 16.2196C35.9074 16.2568 36.0068 16.3334 36.0687 16.4764C36.1257 16.6083 36.1267 16.7436 36.0717 16.8674C35.982 17.0693 35.7453 17.2404 35.3871 17.3619C35.3834 17.3633 35.286 17.4011 35.1346 17.4443C35.2113 17.4878 35.2994 17.5575 35.3399 17.6599C35.3821 17.766 35.365 17.8846 35.2896 18.0115C35.2729 18.0433 35.0784 18.3901 34.4724 18.5127C34.5246 18.5438 34.5738 18.5883 34.6016 18.6519C34.6562 18.7771 34.6123 18.9375 34.4711 19.128C34.4533 19.1561 34.3006 19.3821 33.8875 19.5114C33.9257 19.5328 33.9615 19.5626 33.9849 19.6044C34.0328 19.6892 34.0197 19.7983 33.9464 19.9289C33.7857 20.2151 33.3722 20.5379 32.6929 20.5854C32.6846 20.5858 32.5593 20.5921 32.4194 20.5827C32.4756 20.638 32.5302 20.712 32.5533 20.8034C32.5834 20.9219 32.5547 21.0444 32.4686 21.1673C32.4596 21.1797 32.26 21.4465 31.7766 21.4559C31.809 21.6377 31.7819 21.9303 31.4917 22.0599C31.2841 22.1526 31.1016 22.091 30.9972 22.0348C31.0002 22.1961 30.9583 22.4928 30.6326 22.6217C30.6061 22.6344 30.4032 22.7248 30.1072 22.6361C30.0748 22.6873 30.0041 22.7777 29.8786 22.8433C29.7972 22.8858 29.6841 22.9217 29.5337 22.9217L29.5334 22.9213ZM28.8246 19.1997C28.7988 19.3292 28.6596 20.0574 28.6087 20.8151C28.536 21.8965 28.6723 22.545 29.0024 22.691C29.8066 23.0462 30.0353 22.5601 30.0376 22.5551L30.0564 22.5132L30.0999 22.5283C30.3895 22.6284 30.587 22.532 30.589 22.531L30.5934 22.5289C30.9727 22.3803 30.892 21.9638 30.8883 21.9461L30.8589 21.8021L30.9704 21.8978C30.9791 21.9055 31.1927 22.083 31.4505 21.9681C31.7792 21.8215 31.6698 21.4361 31.6647 21.4197L31.645 21.3535L31.714 21.3551C32.1884 21.3682 32.3785 21.1191 32.3866 21.1087C32.4545 21.0116 32.478 20.9169 32.4555 20.8281C32.4124 20.6561 32.2121 20.5533 32.2101 20.5523L32.2436 20.4585C32.4224 20.498 32.6835 20.4853 32.6862 20.485C33.2202 20.4475 33.6695 20.2158 33.858 19.8797C33.9129 19.7816 33.926 19.7056 33.8969 19.6537C33.848 19.5669 33.6913 19.5592 33.6896 19.5592L33.6816 19.4598C34.2092 19.3554 34.384 19.0768 34.3857 19.0741L34.3884 19.0701C34.5059 18.9121 34.5477 18.7815 34.5089 18.6924C34.4547 18.5672 34.2571 18.5435 34.2551 18.5431L34.2558 18.4434C34.6364 18.4055 34.8732 18.277 35.0044 18.1762C35.1464 18.067 35.1996 17.9656 35.2003 17.9646C35.2609 17.8625 35.2756 17.7734 35.2458 17.6974C35.1862 17.5461 34.9699 17.4815 34.9676 17.4808L34.7868 17.4282L34.9696 17.3837C35.1916 17.3298 35.3502 17.2685 35.3516 17.2679C35.6847 17.1547 35.901 17.0027 35.979 16.8269C36.0229 16.7282 36.0219 16.6237 35.9757 16.5166C35.8565 16.24 35.5829 16.2936 35.5712 16.2963L35.5468 16.1988C35.8337 16.1165 36.1163 15.9879 36.1193 15.9866C36.7005 15.7053 36.5438 15.2289 36.5368 15.2088L36.5348 15.2018C36.5097 15.0712 36.3818 14.9072 36.1939 14.8606C36.0215 14.8174 35.6834 14.9102 35.68 14.9112C33.5162 15.4619 32.1813 15.9066 31.4424 16.1824C30.6413 16.4817 30.3483 16.6528 30.3456 16.6545C30.0383 16.8407 29.8588 17.1554 29.8407 17.5407C29.8213 17.9552 29.9981 18.3861 30.271 18.5887C30.3781 18.6683 30.4417 18.7815 30.4494 18.9074C30.4571 19.0316 30.4086 19.1568 30.3192 19.2425C30.1518 19.4029 29.9348 19.3286 29.8404 19.2653C29.2558 18.9767 28.8996 19.1548 28.8246 19.2003V19.1997Z" fill="#010002"/>
<path d="M36.4696 15.841L36.4512 15.7422C40.5933 14.9722 41.9751 14.1931 41.9885 14.1851L42.0387 14.2721C42.025 14.2798 40.6332 15.0669 36.4693 15.841H36.4696Z" fill="#010002"/>
<path d="M17.9067 28.0482C17.9067 28.0482 17.4062 28.9079 16.8006 28.922C16.8006 28.922 15.7586 28.7951 15.464 29.0676C15.2585 29.2578 15.0492 29.4145 14.9635 29.8996C14.8778 30.3848 15.1282 30.4889 15.1875 30.51C15.1875 30.51 15.2337 30.8568 15.5758 30.7664C15.5758 30.7664 15.5956 31.127 16.2013 30.9536C16.8069 30.7802 17.0573 30.8357 17.1759 30.2324C17.2944 29.6291 17.4039 29.6391 17.5117 29.5668C17.6566 29.4697 17.9285 29.378 18.1307 29.2618C18.3122 29.1574 19.0066 28.8042 19.2433 28.7764C19.4803 28.7486 19.4277 27.9511 19.4277 27.9511H18.8154L18.5191 27.5142L17.9067 28.0482Z" fill="#F4C53D"/>
<path d="M15.9099 31.0511C15.8034 31.0511 15.716 31.0273 15.649 30.9798C15.5818 30.9319 15.5506 30.8703 15.5366 30.8261C15.4421 30.8415 15.3604 30.8261 15.2928 30.7809C15.193 30.7143 15.1555 30.6004 15.1425 30.5465C15.0283 30.496 14.8335 30.3423 14.9132 29.891C14.9952 29.4263 15.1917 29.2472 15.3815 29.0741C15.3973 29.0597 15.413 29.0453 15.4287 29.0309C15.7307 28.7517 16.7218 28.8625 16.8018 28.8719C17.3713 28.8555 17.8574 28.0315 17.8621 28.0231L17.8661 28.0161L18.5273 27.4396L18.8404 27.9013H19.4732L19.4762 27.9481C19.4855 28.0894 19.5184 28.7949 19.2475 28.8263C19.0215 28.8528 18.3322 29.2026 18.154 29.3054C18.0563 29.3617 17.9445 29.4116 17.8363 29.4598C17.7205 29.5113 17.6107 29.5602 17.538 29.6088C17.5239 29.6181 17.5102 29.6262 17.4962 29.6342C17.4111 29.6834 17.3234 29.734 17.2236 30.2425C17.1192 30.7749 16.8959 30.8301 16.4904 30.9299C16.4084 30.95 16.3156 30.9731 16.2135 31.0022C16.099 31.035 15.9972 31.0514 15.9089 31.0514L15.9099 31.0511ZM15.6219 30.7022L15.6253 30.7638C15.6253 30.7668 15.632 30.8455 15.709 30.8991C15.8041 30.9654 15.9695 30.9677 16.1867 30.9054C16.2902 30.8756 16.3843 30.8525 16.467 30.8321C16.8677 30.7334 17.0335 30.6925 17.1255 30.2228C17.2343 29.6697 17.3421 29.6074 17.4466 29.5472C17.4587 29.5401 17.4707 29.5331 17.4828 29.5251C17.5624 29.4715 17.6759 29.4209 17.7961 29.3677C17.9019 29.3205 18.0114 29.2719 18.1048 29.218C18.2642 29.1263 18.979 28.7564 19.2368 28.7262C19.3593 28.7118 19.3935 28.3014 19.3794 28.001H18.7878L18.5083 27.5892L17.9448 28.0807C17.9207 28.1209 17.8005 28.3154 17.6167 28.514C17.3405 28.8119 17.0659 28.9659 16.8008 28.972H16.7971L16.7934 28.9716C16.5098 28.9371 15.7244 28.894 15.497 29.1042C15.481 29.1189 15.4652 29.1333 15.4492 29.1481C15.2634 29.3171 15.0879 29.4772 15.0119 29.9081C14.9389 30.3222 15.1211 30.4334 15.2031 30.4622L15.2322 30.4725L15.2362 30.503C15.2362 30.503 15.2557 30.6353 15.3491 30.6975C15.4036 30.7337 15.4753 30.7407 15.562 30.7176L15.6216 30.7019L15.6219 30.7022Z" fill="#010002"/>
<path d="M34.5738 18.7722L34.5654 18.6721C35.7044 18.577 38.111 18.0008 38.1351 17.9951L38.1585 18.0929C38.1344 18.0986 35.7202 18.6765 34.5738 18.7722ZM35.3311 17.7892L35.3144 17.6901C37.7916 17.271 39.939 16.601 39.9604 16.5943L39.9906 16.6901C39.9691 16.6968 37.8154 17.3687 35.3311 17.7889V17.7892ZM36.064 16.6924L36.0553 16.5923C37.7313 16.448 41.3619 15.2685 41.3984 15.2565L41.4295 15.3519C41.3931 15.3639 37.7514 16.5471 36.0637 16.6924H36.064Z" fill="#010002"/>
<path d="M33.9602 19.7146L33.9502 19.6145C34.4604 19.5639 36.4913 19.1411 36.5118 19.1367L36.5322 19.2352C36.4485 19.2526 34.4755 19.6634 33.9599 19.7146H33.9602Z" fill="#010002"/>
<path d="M34.2157 22.3007L34.3181 25.5506L33.7443 25.2178L32.7891 29.3419L32.395 29.0586L33.3251 25.1076L32.6766 25.1197L34.2157 22.301V22.3007Z" fill="#0081C6"/>
<path d="M32.8212 29.427L32.3384 29.0801L33.2611 25.1593L32.5908 25.1716L34.2598 22.1152L34.371 25.64L33.7777 25.2959L32.8208 29.427H32.8212ZM32.4515 29.0379L32.7572 29.2576L33.7107 25.1408L34.2652 25.4626L34.1714 22.4875L32.7619 25.0682L33.3887 25.0568L32.4515 29.0379Z" fill="#010002"/>
<path d="M31.0466 23.533C31.0335 23.5213 30.7249 23.2417 30.7041 22.9196L30.8042 22.9133C30.8223 23.1938 31.1106 23.4556 31.1136 23.458L31.0466 23.533ZM32.0266 23.1714C32.0098 23.1647 31.6101 23.0067 31.4129 22.5768L31.5043 22.5349C31.6841 22.9263 32.059 23.0763 32.0627 23.0776L32.0266 23.1714ZM32.7886 22.1676C32.7672 22.162 32.2639 22.0247 31.9583 21.8285L32.0125 21.7438C32.3051 21.9313 32.81 22.0689 32.815 22.0706L32.7889 22.1676H32.7886ZM33.3591 21.1984C33.3343 21.1971 32.7484 21.1693 32.4585 21.1211L32.4749 21.022C32.7591 21.0692 33.3577 21.0976 33.3638 21.098L33.3591 21.1984ZM33.1773 20.5054C33.1602 20.5054 33.1435 20.5054 33.1277 20.505L33.1297 20.4046C33.7133 20.4163 35.1958 20.1923 35.2105 20.1903L35.2256 20.2897C35.166 20.2988 33.7967 20.5057 33.1773 20.5057V20.5054Z" fill="#010002"/>
<path d="M37.928 23.7462L36.57 26.6664L36.2118 26.0888L33.3445 29.477L33.0342 29.1295L35.8907 25.7842L35.3128 25.4741L37.9283 23.7465L37.928 23.7462Z" fill="#0081C6"/>
<path d="M33.3453 29.5527L32.9673 29.1295L35.8118 25.7982L35.2148 25.4778L38.0486 23.606L36.5765 26.7712L36.2055 26.1732L33.3456 29.5527H33.3453ZM33.1005 29.1278L33.3433 29.3997L36.2179 26.0031L36.5634 26.5606L37.8075 23.8855L35.4103 25.4691L35.9691 25.7688L33.1005 29.1278Z" fill="#010002"/>
<path d="M29.9682 23.7735L29.9354 23.7353L29.9009 23.6988C29.9009 23.6988 29.9919 23.5991 29.9223 23.2157L30.0211 23.1976C30.1024 23.6429 29.9822 23.7614 29.9682 23.7735Z" fill="#010002"/>
<path d="M36.6895 21.602L35.9897 24.7689L35.5173 24.2908L32.9511 29.2254L32.5557 28.9944L35.1393 24.0698L34.5102 23.9044L36.6898 21.6013L36.6895 21.602Z" fill="#0081C6"/>
<path d="M32.9712 29.2956L32.4888 29.014L35.0654 24.1028L34.4152 23.9321L36.7776 21.4358L36.0189 24.8699L35.5301 24.3754L32.9712 29.2956ZM32.6224 28.9755L32.9307 29.1557L35.5043 24.2066L35.9603 24.668L36.6008 21.7679L34.604 23.8778L35.2124 24.0375L32.6217 28.9755H32.6224Z" fill="#010002"/>
<path d="M30.1278 22.5969L30.0371 22.5533C30.0371 22.5533 30.09 22.4388 30.0719 22.2627L30.1717 22.2527C30.1928 22.4586 30.1302 22.5912 30.1275 22.5969H30.1278Z" fill="#010002"/>
<path d="M19.8342 23.7352C19.8342 23.7352 19.2218 24.2344 18.7082 23.7352C18.7082 23.7352 18.501 23.985 18.0862 23.912C17.6713 23.839 17.6024 23.6207 17.5625 23.4959C17.5625 23.4959 17.2036 23.7051 16.901 23.5397C16.598 23.3743 16.598 23.1246 16.598 23.1246C16.598 23.1246 16.0713 23.2284 15.8011 22.8715C15.531 22.5146 15.6957 22.1607 15.8407 22.1192C15.8407 22.1192 15.2712 22.2685 15.1165 21.7793C14.9849 21.3632 15.2812 21.1482 15.2812 21.1482C15.2812 21.1482 14.0813 21.1425 13.5891 20.7669C13.5891 20.7669 13.181 20.5104 13.4244 20.2399C13.4244 20.2399 12.3446 20.0665 12.0748 19.6366C12.0748 19.6366 11.9563 19.5187 11.9958 19.3108C11.9958 19.3108 12.0025 19.193 12.121 19.186C12.121 19.186 10.8896 18.9958 10.534 18.5897C10.534 18.5897 10.363 18.4025 10.4483 18.1528C10.4483 18.1528 10.4664 18.0868 10.4962 18.0426C10.4962 18.0426 9.37529 17.8059 8.82219 17.3067C8.82219 17.3067 8.50279 17.0221 8.66752 16.6408C8.66752 16.6408 6.7943 16.1279 7.22887 15.3026C7.22887 15.3026 6.35303 15.0183 6.62958 14.2279C6.62958 14.2279 5.9054 13.8603 6.22145 13.278C6.52378 12.7206 7.45285 13.3751 8.55234 13.6795C8.55234 13.6795 11.5281 14.6162 12.9938 14.8657L17.1578 21.0652L19.5874 22.0013L19.8345 23.7349L19.8342 23.7352Z" fill="#F4C53D"/>
<path d="M19.2255 24.0052C19.0601 24.0052 18.8803 23.954 18.7095 23.8037C18.6288 23.8757 18.4189 24.0203 18.0774 23.9604C17.6907 23.8924 17.5823 23.7006 17.5334 23.566C17.4162 23.6202 17.1319 23.722 16.8768 23.5827C16.6378 23.4521 16.5725 23.272 16.5544 23.1809C16.4078 23.198 15.998 23.2137 15.7613 22.9007C15.5554 22.6285 15.6042 22.3858 15.6347 22.294C15.6478 22.2549 15.6648 22.2191 15.6849 22.1879C15.4894 22.1949 15.1801 22.1461 15.0686 21.7935C14.9768 21.5039 15.0803 21.3017 15.165 21.1949C14.8486 21.1832 13.9748 21.1222 13.5603 20.8072C13.5355 20.7915 13.3259 20.6508 13.2995 20.46C13.2904 20.3954 13.3028 20.3331 13.3366 20.2742C13.0778 20.2243 12.276 20.0425 12.0346 19.6665C12.0111 19.6404 11.907 19.5118 11.9455 19.3033C11.9475 19.2775 11.9569 19.2427 11.978 19.2109C11.6442 19.1482 10.7915 18.9594 10.4958 18.6213C10.4888 18.6136 10.3063 18.4097 10.4004 18.1351C10.4004 18.1351 10.4078 18.1084 10.4212 18.0759C10.1724 18.0173 9.27448 17.7819 8.78768 17.3427C8.78466 17.34 8.47263 17.0561 8.60019 16.6727C8.35779 16.6001 7.38218 16.2797 7.15853 15.7641C7.09659 15.6211 7.09659 15.4751 7.1592 15.3292C7.03766 15.2793 6.74136 15.1333 6.60041 14.8487C6.51169 14.6696 6.50098 14.4684 6.56827 14.2504C6.4685 14.1918 6.20233 14.0141 6.11729 13.7402C6.06774 13.5808 6.08783 13.4171 6.17689 13.2527C6.40924 12.8242 6.95028 13.0358 7.63529 13.3036C7.91719 13.4138 8.23659 13.5386 8.56537 13.6297C8.59684 13.6394 11.5565 14.5688 13.0018 14.8149L13.0229 14.8186L17.1902 21.0228L19.6326 21.9639L19.8877 23.7548L19.8656 23.7729C19.8613 23.7762 19.575 24.0049 19.2251 24.0049L19.2255 24.0052ZM18.7045 23.6607L18.7434 23.6982C19.1712 24.114 19.6687 23.7936 19.7802 23.7123L19.5415 22.0369L17.1246 21.1058L17.1159 21.0928L12.964 14.9113C11.5043 14.6589 8.56704 13.7365 8.53724 13.7271C8.20512 13.6354 7.88304 13.5095 7.59913 13.3984C6.93522 13.1389 6.45578 12.9514 6.26561 13.3019C6.18995 13.4412 6.17254 13.5791 6.21372 13.7114C6.30478 14.004 6.64896 14.1815 6.65231 14.1831L6.69148 14.2029L6.67708 14.2444C6.60477 14.4513 6.60945 14.6398 6.69081 14.8045C6.84783 15.1219 7.24022 15.2535 7.24424 15.2548L7.30082 15.2732L7.27303 15.3258C7.20105 15.4624 7.19402 15.593 7.25127 15.7252C7.48295 16.2589 8.66849 16.589 8.68054 16.5924L8.73645 16.6078L8.71368 16.6607C8.56503 17.0048 8.85263 17.2667 8.85564 17.269C9.39233 17.7535 10.4955 17.9908 10.5065 17.9932L10.5792 18.0086L10.5377 18.0702C10.5173 18.101 10.5012 18.1495 10.4965 18.1656C10.4212 18.3859 10.5648 18.5486 10.5708 18.5553C10.9107 18.9437 12.1159 19.1339 12.128 19.1359L12.1233 19.2356C12.0563 19.2396 12.0466 19.2962 12.0453 19.3136L12.0446 19.3197C12.0108 19.4971 12.1059 19.5965 12.1099 19.6009L12.1169 19.6096C12.3717 20.0154 13.4217 20.1885 13.4321 20.1902L13.5231 20.2049L13.4615 20.2735C13.411 20.3298 13.3902 20.3863 13.3986 20.4469C13.4197 20.5989 13.6135 20.7232 13.6155 20.7245L13.6192 20.7272C14.0923 21.0881 15.2694 21.0981 15.2812 21.0981L15.4345 21.0988L15.3103 21.1889C15.2996 21.1969 15.0455 21.3894 15.164 21.7641C15.2216 21.9462 15.3485 22.053 15.5406 22.0825C15.6906 22.1052 15.8262 22.0707 15.8276 22.0704L15.854 22.1672C15.8158 22.1782 15.7606 22.2328 15.7295 22.3265C15.704 22.4032 15.6635 22.6068 15.8406 22.8408C16.088 23.1679 16.5825 23.0758 16.5876 23.0748L16.6475 23.0631V23.124C16.6475 23.1327 16.6535 23.347 16.9244 23.495C17.1982 23.6443 17.5334 23.4535 17.5367 23.4518L17.591 23.4203L17.61 23.4799C17.6472 23.5974 17.7095 23.794 18.0942 23.8616C18.4732 23.9282 18.6613 23.7113 18.669 23.7019L18.7038 23.6607H18.7045Z" fill="#010002"/>
<path d="M31.312 19.8017L31.2353 19.7371C31.5708 19.3393 31.5899 18.7906 31.2919 18.1066C31.2829 18.0858 31.2762 18.0704 31.2728 18.0611L31.2641 18.038C31.1811 17.815 31.0421 17.4417 31.2768 17.053C31.5132 16.6616 32.1939 16.385 32.223 16.3737L32.2605 16.4667C32.2538 16.4694 31.5818 16.7423 31.3629 17.1049C31.1533 17.4517 31.2815 17.7966 31.3582 18.0028L31.3669 18.0262C31.3699 18.0346 31.3759 18.048 31.384 18.0664C31.6002 18.5626 31.7633 19.2667 31.312 19.8017Z" fill="#010002"/>
<path d="M19.8649 19.1698C19.8649 19.1698 19.4745 18.8768 18.7785 19.2217C18.7785 19.2217 18.5441 19.383 18.3596 19.2063C18.2056 19.0586 18.1912 18.7861 18.4031 18.6287C18.9218 18.244 19.1143 17.0893 18.3241 16.6109C18.3241 16.6109 17.1784 15.9312 12.9773 14.8622C12.9773 14.8622 12.6255 14.7644 12.4376 14.8113C12.2311 14.8629 12.0888 15.04 12.0593 15.192C12.0593 15.192 11.8715 15.7263 12.5033 16.032C12.5033 16.032 12.7885 16.1626 13.0828 16.2469C13.0828 16.2469 12.7597 16.177 12.6218 16.4967C12.4902 16.8017 12.681 17.1137 13.2736 17.315C13.2736 17.315 13.434 17.3772 13.662 17.4328C13.662 17.4328 13.1551 17.5784 13.3985 17.9876C13.3985 17.9876 13.6158 18.4175 14.3828 18.4938C14.3828 18.4938 13.81 18.5561 14.2148 19.1005C14.2148 19.1005 14.3926 19.3988 14.9523 19.5096C14.9523 19.5096 14.5275 19.5233 14.7418 19.905C14.9557 20.2863 15.4592 20.5013 15.9547 20.5361C15.9547 20.5361 16.2233 20.5498 16.4107 20.5083C16.4107 20.5083 15.94 20.744 16.2166 21.1394C16.2166 21.1394 16.4208 21.4203 16.931 21.4062C16.931 21.4062 16.7984 21.8475 17.1731 22.0146C17.4644 22.1445 17.7064 21.9366 17.7064 21.9366C17.7064 21.9366 17.6077 22.41 18.0322 22.5764C18.0322 22.5764 18.2445 22.6855 18.5605 22.5764C18.5605 22.5764 18.8026 23.1174 19.6617 22.7374C20.5208 22.3577 19.8642 19.1698 19.8642 19.1698H19.8649Z" fill="#F4C53D"/>
<path d="M19.1109 22.9219C18.9605 22.9219 18.8474 22.886 18.766 22.8435C18.6405 22.7779 18.5698 22.6878 18.5373 22.6363C18.2417 22.7247 18.0385 22.6346 18.0124 22.6219C17.6866 22.493 17.6444 22.1964 17.6474 22.035C17.543 22.0909 17.3605 22.1525 17.1529 22.0601C16.8627 21.9305 16.8359 21.6379 16.868 21.4561C16.3842 21.4467 16.185 21.1799 16.1763 21.1682C16.0896 21.0443 16.0612 20.9218 16.0913 20.8032C16.1144 20.7118 16.169 20.6378 16.2255 20.5826C16.0856 20.592 15.9604 20.586 15.953 20.5853C15.273 20.5377 14.8592 20.215 14.6988 19.9287C14.6255 19.7982 14.6125 19.6887 14.6603 19.6043C14.6841 19.5625 14.7196 19.5327 14.7578 19.5112C14.3446 19.3823 14.192 19.1563 14.1742 19.1279C14.0329 18.9371 13.9887 18.777 14.0436 18.6518C14.0714 18.5882 14.1206 18.5437 14.1729 18.5125C13.5669 18.39 13.3724 18.0431 13.3556 18.0113C13.2803 17.8841 13.2635 17.7659 13.3054 17.6598C13.3459 17.5573 13.434 17.4877 13.511 17.4442C13.3596 17.4013 13.2615 17.3631 13.2562 17.3611C12.9 17.2403 12.6632 17.0692 12.5735 16.8673C12.5186 16.7434 12.5196 16.6082 12.5765 16.4763C12.6381 16.3333 12.7376 16.2566 12.8373 16.2195C12.6425 16.1498 12.4918 16.0812 12.4835 16.0772C11.848 15.7698 11.995 15.2325 12.0117 15.1792C12.0449 15.0148 12.1972 14.8197 12.4265 14.7624C12.6247 14.7132 12.977 14.8093 12.9917 14.8136C15.1629 15.3661 16.5031 15.8127 17.2447 16.0902C18.0512 16.3919 18.3388 16.5603 18.3505 16.5673C18.6883 16.7719 18.8849 17.1154 18.9046 17.5352C18.9257 17.9812 18.7319 18.4472 18.4339 18.6685C18.3509 18.7301 18.3016 18.8169 18.2956 18.9129C18.2896 19.008 18.3268 19.1038 18.3954 19.1694C18.5484 19.316 18.7489 19.1811 18.751 19.1798L18.757 19.1761C19.4728 18.8215 19.8789 19.1162 19.896 19.1289L19.911 19.1403L19.9147 19.159C19.9418 19.2909 20.5696 22.3912 19.6834 22.7826C19.4517 22.885 19.2629 22.9212 19.1115 22.9212L19.1109 22.9219ZM18.5882 22.5134L18.607 22.5553C18.616 22.575 18.8424 23.0444 19.6422 22.6912C19.9723 22.5452 20.1086 21.8967 20.0359 20.8153C19.985 20.0573 19.8454 19.3288 19.8196 19.1999C19.7436 19.1527 19.3921 18.9749 18.8039 19.2652C18.7094 19.3284 18.4925 19.4031 18.3251 19.2424C18.2357 19.1567 18.1868 19.0311 18.1948 18.9073C18.2029 18.7814 18.2662 18.6682 18.3733 18.5885C18.6462 18.386 18.8233 17.9551 18.8035 17.5406C18.7854 17.1552 18.606 16.8405 18.298 16.654C18.2956 16.6527 18.0027 16.4813 17.2015 16.182C16.4626 15.9061 15.1281 15.4615 12.9649 14.9111C12.9606 14.9097 12.6224 14.8173 12.4496 14.8602C12.2618 14.907 12.1339 15.0711 12.1088 15.2013L12.1068 15.2084C12.0998 15.2284 11.9431 15.7049 12.5253 15.9864C12.5273 15.9871 12.8099 16.116 13.0968 16.1984L13.0724 16.2958C13.061 16.2935 12.7875 16.2399 12.6683 16.5161C12.6221 16.6232 12.6207 16.7277 12.6649 16.8265C12.7429 17.0022 12.9592 17.1546 13.2903 17.2667C13.294 17.2681 13.4527 17.3293 13.6747 17.3832L13.8588 17.4281L13.6767 17.4803C13.6747 17.481 13.4584 17.5453 13.3988 17.6969C13.3687 17.7729 13.3837 17.862 13.4427 17.9611L13.4443 17.9641C13.4443 17.9641 13.4982 18.0666 13.6402 18.1757C13.7718 18.2768 14.0081 18.4051 14.3888 18.4429V18.5427C14.3888 18.5427 14.1899 18.5664 14.1357 18.692C14.0972 18.781 14.1387 18.9116 14.2562 19.0696L14.2589 19.074C14.2606 19.0767 14.4354 19.3549 14.963 19.4597L14.955 19.5591C14.9111 19.5608 14.7886 19.5809 14.7477 19.6539C14.7186 19.7058 14.7317 19.7818 14.7866 19.8799C14.9751 20.216 15.4244 20.448 15.9594 20.4852C15.961 20.4852 16.2225 20.4982 16.401 20.4584L16.4345 20.5525C16.4324 20.5535 16.2326 20.6563 16.189 20.8283C16.1666 20.9171 16.1901 21.0118 16.2587 21.1096C16.2657 21.1193 16.4559 21.3681 16.9306 21.355L16.9999 21.353L16.9798 21.4196C16.9752 21.4357 16.8653 21.821 17.1941 21.9677C17.4519 22.0825 17.6655 21.9051 17.6742 21.8974L17.7857 21.8026L17.7559 21.9459C17.7522 21.9633 17.6719 22.3798 18.0509 22.5285L18.0556 22.5305C18.0572 22.5315 18.2548 22.6279 18.5447 22.5278L18.5882 22.5127V22.5134Z" fill="#010002"/>
<path d="M32.2129 20.5531C32.2106 20.5521 32.1831 20.5417 31.9712 20.4754L32.0013 20.3796C32.2574 20.46 32.2585 20.461 32.2698 20.4731L32.1965 20.5417L32.233 20.5072L32.2129 20.5531ZM32.8755 19.6454L32.8745 19.545C33.2692 19.5413 33.6773 19.4603 33.6814 19.4593L33.7011 19.5577C33.6971 19.5584 33.2796 19.6417 32.8752 19.6454H32.8755ZM32.2354 19.2249L32.1717 19.1472C32.7466 18.6772 32.4821 18.2399 32.4704 18.2215L32.4453 18.1817L32.4834 18.1539C32.7001 17.9985 32.8159 17.8258 32.828 17.6406C32.8467 17.3527 32.606 17.124 32.6036 17.122L32.6719 17.0484C32.6833 17.0591 32.9495 17.3105 32.9281 17.6463C32.915 17.8526 32.7968 18.0421 32.5765 18.2098C32.6378 18.3447 32.7751 18.7833 32.2347 19.2252L32.2354 19.2249ZM33.4129 18.5851C33.3824 18.5851 33.3523 18.5851 33.3221 18.5844L33.3238 18.484C33.7701 18.491 34.2515 18.4431 34.2562 18.4425L34.2663 18.5426C34.2616 18.5429 33.837 18.5851 33.4129 18.5851ZM33.9097 17.6276L33.9077 17.5271C34.2743 17.5204 34.965 17.3838 34.972 17.3825L34.9914 17.4809C34.9627 17.4866 34.2847 17.6205 33.9094 17.6276H33.9097ZM34.0671 16.6285L34.0537 16.5291C34.6831 16.4434 35.5392 16.2003 35.5479 16.1976L35.5753 16.2941C35.5666 16.2964 34.7038 16.5418 34.0671 16.6282V16.6285Z" fill="#010002"/>
<path d="M19.9175 24.0858C19.9175 24.0858 19.7913 24.7628 18.7915 25.6148C18.7915 25.6148 18.0201 26.2951 18.0399 27.0789C18.06 27.8767 17.9016 27.9665 17.5986 28.237C17.5986 28.237 18.224 28.2855 18.527 27.8694C18.527 27.8694 18.514 28.5628 18.4216 28.625C18.4216 28.625 18.6178 28.6374 18.9024 28.3267C18.9024 28.3267 19.0734 28.1463 19.2315 28.077C19.2315 28.077 19.047 28.5554 19.192 28.9993C19.192 28.9993 19.2382 28.8259 19.4816 28.7496C19.4816 28.7496 19.9228 28.6595 20.0939 28.0214C20.0939 28.0214 20.2057 27.5985 20.8971 27.2239C20.8971 27.2239 21.6805 26.9283 21.6608 26.5422C21.641 26.1562 19.9168 24.0854 19.9168 24.0854L19.9175 24.0858Z" fill="#F4C53D"/>
<path d="M19.1956 29.1712L19.1444 29.0155C19.0396 28.6941 19.0988 28.3606 19.1457 28.1849C19.0356 28.2609 18.9401 28.3606 18.9388 28.362C18.6422 28.6861 18.4276 28.676 18.4185 28.6757L18.2719 28.6663L18.3934 28.5839C18.4292 28.5475 18.4604 28.2789 18.4721 28.0081C18.14 28.3251 17.6187 28.2893 17.5946 28.2873L17.4771 28.2783L17.5648 28.1999C17.5825 28.1842 17.5996 28.1691 17.616 28.1544C17.8765 27.9244 18.0074 27.8089 17.989 27.0807C17.9782 26.6622 18.1885 26.2751 18.3666 26.0244C18.5581 25.7545 18.7496 25.5848 18.7577 25.5778C19.7333 24.7464 19.8662 24.0839 19.8672 24.0772L19.8866 23.972L19.9549 24.0541C20.1324 24.2673 21.6902 26.1489 21.7103 26.5403C21.731 26.9491 20.9814 27.2457 20.9175 27.2702C20.2556 27.6298 20.1427 28.0309 20.1417 28.0349C19.9697 28.6757 19.5371 28.7888 19.4939 28.7986C19.284 28.8652 19.2415 29.0068 19.2398 29.0128L19.1946 29.1709L19.1956 29.1712ZM19.3218 27.9833L19.2786 28.0958C19.2769 28.1002 19.133 28.4828 19.2097 28.8685C19.2572 28.8099 19.3369 28.7433 19.4668 28.7025L19.4718 28.7011C19.4885 28.6974 19.8853 28.6064 20.0457 28.0091C20.0503 27.991 20.1712 27.5608 20.8736 27.1805L20.8796 27.1778C21.0879 27.0991 21.6256 26.8319 21.6109 26.5457C21.5961 26.2547 20.4534 24.8141 19.9399 24.1923C19.8679 24.4116 19.6181 24.9765 18.824 25.6534C18.8169 25.6594 18.071 26.3274 18.0901 27.078C18.1085 27.8062 17.9759 27.9682 17.7318 28.1865C17.9243 28.1758 18.2849 28.1169 18.4865 27.8403L18.5802 27.7114L18.5772 27.8708C18.5732 28.074 18.5591 28.3874 18.5096 28.5568C18.5866 28.5294 18.7118 28.4614 18.8655 28.2937C18.8735 28.2853 19.0463 28.1045 19.2117 28.0319L19.3218 27.9836V27.9833Z" fill="#010002"/>
<path d="M29.7349 21.744C29.671 21.744 29.602 21.7383 29.5273 21.726L29.5437 21.6268C30.2743 21.7487 30.3965 21.1648 30.4015 21.14L30.4095 21.0982L30.4521 21.0992C30.8046 21.1079 31.0504 21.0282 31.1829 20.8612C31.3497 20.6512 31.2787 20.3673 31.278 20.3646L31.2616 20.3017H31.3266C31.6838 20.3017 31.9506 20.2073 32.1194 20.0218C32.3467 19.7717 32.3172 19.4346 32.3169 19.4312L32.417 19.4215C32.4187 19.4369 32.4518 19.8045 32.1947 20.0884C32.0163 20.2856 31.7444 20.3908 31.3868 20.4015C31.4019 20.5089 31.4103 20.7356 31.2623 20.9231C31.1146 21.1099 30.8545 21.2033 30.4892 21.2006C30.4484 21.3342 30.2786 21.7444 29.7349 21.7444V21.744Z" fill="#010002"/>
<path d="M30.7387 28.0495C30.7387 28.0495 31.2392 28.9093 31.8449 28.9233C31.8449 28.9233 32.8868 28.7965 33.1814 29.069C33.387 29.2592 33.5962 29.4158 33.682 29.901C33.7677 30.3864 33.5172 30.4902 33.458 30.5113C33.458 30.5113 33.4118 30.8582 33.0696 30.7678C33.0696 30.7678 33.0498 31.1284 32.4442 30.9549C31.8385 30.7815 31.5881 30.8371 31.4696 30.2338C31.3511 29.6304 31.2416 29.6405 31.1338 29.5682C30.9888 29.4711 30.7166 29.3793 30.5147 29.2632C30.3333 29.1587 29.6389 28.8055 29.4018 28.7777C29.1648 28.7499 29.2174 27.9524 29.2174 27.9524H29.8297L30.126 27.5155L30.7384 28.0495H30.7387Z" fill="#F4C53D"/>
<path d="M32.7338 31.0512C32.6454 31.0512 32.5436 31.0348 32.4291 31.002C32.3273 30.9728 32.2343 30.9501 32.1522 30.9296C31.7468 30.8295 31.5235 30.7746 31.419 30.2423C31.3193 29.7341 31.2312 29.6832 31.1465 29.634C31.1324 29.6259 31.1187 29.6179 31.1046 29.6085C31.032 29.5596 30.9225 29.5111 30.8063 29.4595C30.6982 29.4113 30.5864 29.3618 30.4886 29.3052C30.3105 29.2027 29.6211 28.8525 29.3951 28.8261C29.1243 28.7943 29.1571 28.0888 29.1665 27.9479L29.1695 27.901H29.8023L30.1153 27.4393L30.7765 28.0159L30.7806 28.0229C30.7856 28.0313 31.272 28.8552 31.8409 28.8716C31.9209 28.8622 32.9119 28.7514 33.2139 29.0306C33.2296 29.0454 33.2454 29.0594 33.2611 29.0738C33.4513 29.2469 33.6478 29.426 33.7295 29.8908C33.8092 30.3417 33.614 30.4957 33.5002 30.5463C33.4874 30.6002 33.4496 30.714 33.3498 30.7807C33.2822 30.8259 33.2002 30.8409 33.1061 30.8259C33.092 30.87 33.0609 30.9317 32.9936 30.9795C32.9266 31.0271 32.8396 31.0508 32.7328 31.0508L32.7338 31.0512ZM29.2642 28.0015C29.2502 28.3018 29.2843 28.7122 29.4069 28.7266C29.6647 28.7568 30.3795 29.1267 30.5388 29.2185C30.6322 29.2724 30.7417 29.3209 30.8475 29.3681C30.9677 29.4217 31.0809 29.4719 31.1609 29.5255C31.1729 29.5335 31.185 29.5405 31.1971 29.5476C31.3015 29.6078 31.4093 29.6701 31.5181 30.2232C31.6105 30.6929 31.7763 30.7338 32.1767 30.8325C32.2594 30.853 32.3535 30.8761 32.4569 30.9059C32.6742 30.9681 32.8396 30.9658 32.9347 30.8995C33.0117 30.8459 33.0184 30.7673 33.0184 30.7639L33.0227 30.7037L33.0813 30.7187C33.1684 30.7415 33.24 30.7348 33.2942 30.6986C33.3877 30.6364 33.4071 30.5054 33.4071 30.5041L33.4114 30.4736L33.4402 30.4633C33.5219 30.4345 33.7044 30.323 33.6314 29.9092C33.5554 29.4779 33.38 29.3182 33.1941 29.1488C33.1781 29.1344 33.1623 29.1197 33.1463 29.105C32.9186 28.8947 32.1332 28.9379 31.8499 28.9724H31.8462L31.8425 28.9727C31.5774 28.9667 31.3028 28.8127 31.0266 28.5147C30.8425 28.3162 30.7226 28.1217 30.6985 28.0815L30.1351 27.59L29.8555 28.0018H29.2639L29.2642 28.0015Z" fill="#010002"/>
<path d="M28.7295 24.0836C28.7295 24.0836 28.8557 24.7606 29.8555 25.6126C29.8555 25.6126 30.6268 26.2929 30.6071 27.0767C30.587 27.8745 30.7454 27.9643 31.0484 28.2348C31.0484 28.2348 30.423 28.2833 30.12 27.8672C30.12 27.8672 30.133 28.5606 30.2254 28.6228C30.2254 28.6228 30.0292 28.6352 29.7446 28.3245C29.7446 28.3245 29.5736 28.1441 29.4155 28.0748C29.4155 28.0748 29.6 28.5532 29.455 28.9971C29.455 28.9971 29.4088 28.8237 29.1654 28.7474C29.1654 28.7474 28.7242 28.6573 28.5531 28.0192C28.5531 28.0192 28.4413 27.5963 27.7499 27.2217C27.7499 27.2217 26.9665 26.9261 26.9862 26.54C27.006 26.154 28.7302 24.0833 28.7302 24.0833L28.7295 24.0836Z" fill="#F4C53D"/>
<path d="M29.449 29.1743L29.4055 29.0103C29.4038 29.0046 29.3613 28.863 29.1514 28.7964C29.1082 28.7866 28.6753 28.6735 28.5036 28.0327C28.5025 28.0287 28.3857 27.6252 27.7278 27.268C27.6635 27.2432 26.9139 26.9469 26.935 26.5381C26.9551 26.1464 28.5129 24.2651 28.6904 24.0519L28.7587 23.9698L28.7781 24.075C28.7781 24.075 28.8116 24.2434 28.9639 24.5106C29.1049 24.7573 29.3794 25.1423 29.8873 25.5752C29.896 25.5829 30.0875 25.753 30.279 26.0225C30.4571 26.2733 30.6674 26.66 30.6567 27.0788C30.6383 27.807 30.7692 27.9225 31.0296 28.1525C31.0464 28.1673 31.0634 28.1823 31.0809 28.1981L31.1686 28.2764L31.0511 28.2854C31.027 28.2875 30.5057 28.3236 30.1735 28.0062C30.1853 28.2761 30.2157 28.5446 30.2539 28.5834L30.3754 28.6658L30.2271 28.6738C30.2177 28.6742 30.0035 28.6842 29.7062 28.3594C29.7055 28.3588 29.6101 28.259 29.4999 28.183C29.5468 28.3588 29.6061 28.6922 29.5013 29.0136L29.4487 29.175L29.449 29.1743ZM28.7061 24.1898C28.1929 24.8115 27.0502 26.2522 27.0351 26.5431C27.0204 26.8294 27.5581 27.0966 27.7663 27.1752L27.7723 27.1779C28.4748 27.5583 28.5953 27.9885 28.6003 28.0066C28.7607 28.6038 29.1574 28.6949 29.1745 28.6983L29.1792 28.6996C29.3091 28.7404 29.3888 28.8071 29.4363 28.8657C29.513 28.48 29.369 28.0973 29.3673 28.0929L29.3242 27.9808L29.4343 28.029C29.5997 28.1016 29.7725 28.2824 29.7798 28.2901C29.9335 28.4579 30.0587 28.5262 30.136 28.554C30.0865 28.3845 30.0721 28.0712 30.0684 27.8679L30.0654 27.7086L30.1592 27.8375C30.3607 28.1144 30.7213 28.173 30.9138 28.1837C30.6697 27.9654 30.5371 27.8033 30.5556 27.0751C30.5743 26.3245 29.8284 25.6566 29.821 25.6502C29.0275 24.9739 28.7778 24.4091 28.7058 24.1898H28.7061Z" fill="#010002"/>
<path d="M31.5246 28.9898C31.3542 28.9898 31.2711 28.972 31.2661 28.9707L31.2879 28.8726L31.2768 28.9215L31.2875 28.8726C31.2892 28.8729 31.466 28.9101 31.8396 28.8716L31.85 28.9714C31.7184 28.9847 31.6103 28.9894 31.5246 28.9894V28.9898Z" fill="#010002"/>
<path d="M33.1197 30.7678L33.0192 30.7648C33.0366 30.1555 32.905 29.9047 32.7915 29.8016C32.7005 29.7189 32.6158 29.7272 32.6148 29.7272L32.6021 29.6275C32.6074 29.6268 32.7326 29.6124 32.8588 29.7269C33.0467 29.8973 33.1344 30.2472 33.1193 30.7671L33.1197 30.7678ZM33.508 30.511L33.4076 30.5087C33.421 29.8983 33.2807 29.6445 33.1605 29.5387C33.0524 29.4437 32.9462 29.4567 32.9452 29.4571L32.9302 29.3576C32.9362 29.3566 33.0822 29.3362 33.2268 29.4634C33.425 29.6375 33.5197 29.9901 33.508 30.511Z" fill="#010002"/>
<path d="M29.6885 27.7656C29.5928 27.7656 29.4023 27.7472 29.2841 27.6129C29.1539 27.4646 28.963 27.4234 28.961 27.4231L28.9811 27.3247C28.9901 27.3267 29.2064 27.3725 29.3594 27.5466C29.4321 27.6293 29.5479 27.6551 29.6316 27.6625C29.5814 27.5905 29.5205 27.4723 29.4907 27.2975C29.4441 27.026 29.3032 26.943 29.2972 26.9393L29.3457 26.8512C29.3534 26.8553 29.5345 26.9574 29.5898 27.2805C29.6373 27.558 29.7719 27.6728 29.7732 27.6739L29.8643 27.7495L29.7468 27.7626C29.7434 27.7629 29.7217 27.7653 29.6882 27.7653L29.6885 27.7656ZM28.6624 27.3454C28.5539 27.3454 28.3383 27.3247 28.205 27.173C28.0534 27.0006 27.8331 26.9537 27.8311 26.9534L27.8511 26.8549C27.8615 26.8569 28.1066 26.9092 28.2804 27.1067C28.3698 27.2085 28.5144 27.2366 28.6125 27.243C28.5542 27.1629 28.4789 27.025 28.4431 26.8154C28.3885 26.4964 28.2201 26.4013 28.2184 26.4003L28.2663 26.3122C28.275 26.3169 28.4792 26.4321 28.5418 26.7987C28.5974 27.1231 28.7528 27.2523 28.7544 27.2537L28.8478 27.3293L28.728 27.3424C28.7243 27.3427 28.6995 27.3454 28.6614 27.3454H28.6624ZM29.6296 26.4692C29.5211 26.4692 29.3055 26.4485 29.1723 26.2968C29.0213 26.1251 28.8003 26.0775 28.7983 26.0772L28.8184 25.9787C28.8288 25.9808 29.0738 26.033 29.2476 26.2305C29.337 26.3323 29.4816 26.3604 29.5801 26.3668C29.5218 26.2864 29.4465 26.1488 29.4107 25.9392C29.3561 25.6202 29.1877 25.5251 29.186 25.5241L29.2339 25.436C29.2426 25.4407 29.4468 25.5559 29.5094 25.9225C29.5643 26.2436 29.7207 26.3762 29.722 26.3775L29.8134 26.4532L29.6956 26.4662C29.6919 26.4666 29.6671 26.4692 29.6289 26.4692H29.6296Z" fill="#010002"/>
<path d="M25.0973 32.8127C25.0973 32.8127 25.2768 33.6048 25.9005 33.5409C25.9005 33.5409 26.3418 33.4994 26.3086 32.7642C26.3086 32.7642 26.9605 33.111 27.066 32.2509C27.066 32.2509 27.6586 32.3895 27.6519 31.5853C27.6519 31.5853 28.205 31.6824 28.139 30.9683C28.139 30.9683 28.7383 31.1276 28.7383 30.455C28.7383 30.455 30.1408 30.2223 27.2173 27.5566L24.6099 29.1098L25.097 32.8127H25.0973Z" fill="#F4C53D"/>
<path d="M25.8299 33.5945C25.2306 33.5945 25.0505 32.8315 25.0488 32.8235L25.0481 32.8188L24.5566 29.0831L27.2243 27.4938L27.2518 27.5189C28.6319 28.7774 29.2549 29.6747 29.1039 30.1859C29.0423 30.3945 28.8689 30.4698 28.7885 30.4939C28.7815 30.6978 28.7179 30.8475 28.5994 30.9382C28.4618 31.044 28.2883 31.0407 28.1943 31.0286C28.204 31.2526 28.1517 31.419 28.0382 31.5238C27.9248 31.6282 27.7811 31.6413 27.7024 31.6393C27.6954 31.9031 27.6218 32.093 27.4825 32.2044C27.3482 32.3119 27.1909 32.3149 27.1095 32.3076C27.068 32.5741 26.9672 32.7505 26.8095 32.8325C26.6438 32.9186 26.4617 32.8764 26.3616 32.8402C26.3616 33.1201 26.2916 33.3297 26.1526 33.4636C26.0351 33.5768 25.9113 33.5895 25.9059 33.5902C25.8801 33.5929 25.8547 33.5942 25.8302 33.5942L25.8299 33.5945ZM25.1472 32.8037C25.1596 32.8566 25.3337 33.5483 25.8958 33.4907C25.9119 33.4891 26.2892 33.4405 26.2591 32.7662L26.2551 32.6782L26.3328 32.7194C26.3351 32.7207 26.5718 32.8432 26.7633 32.7431C26.8996 32.6718 26.9846 32.5041 27.0164 32.2443L27.0231 32.1887L27.0777 32.2014C27.0794 32.2018 27.2722 32.2439 27.4202 32.1251C27.5431 32.0263 27.6043 31.8445 27.6023 31.5851V31.5248L27.6613 31.5352C27.6629 31.5352 27.8461 31.565 27.971 31.4491C28.0707 31.3567 28.1106 31.1964 28.0901 30.972L28.0834 30.9004L28.1531 30.9188C28.1554 30.9195 28.3841 30.9774 28.5391 30.8579C28.6385 30.7809 28.6891 30.6453 28.6891 30.4541V30.4116L28.731 30.4045C28.7397 30.4032 28.9472 30.3647 29.0082 30.1558C29.1863 29.5448 27.9726 28.3147 27.212 27.618L24.6651 29.1353L25.1476 32.8031L25.1472 32.8037Z" fill="#010002"/>
<path d="M24.8081 29.2577C24.8081 29.2577 25.2426 29.6434 25.552 29.0675C25.552 29.0675 25.9735 29.0468 26.0391 28.7277C26.0391 28.7277 26.3816 28.6929 26.4473 28.3671C26.4473 28.3671 26.9146 28.3186 26.9016 27.9232C26.9016 27.9232 27.7516 27.8576 26.9016 26.8953C26.0519 25.9331 24.6099 28.4917 24.6099 28.4917L24.8074 29.257L24.8081 29.2577Z" fill="#F4C53D"/>
<path d="M25.1302 29.4335C24.934 29.4335 24.782 29.3006 24.7746 29.2946L24.7632 29.2846L24.5566 28.4847L24.5667 28.467C24.569 28.4626 24.8154 28.0277 25.1586 27.5885C25.6253 26.9912 26.0408 26.6694 26.394 26.6323C26.6019 26.6105 26.7854 26.6875 26.9394 26.8619C27.2642 27.2299 27.3871 27.5198 27.3044 27.7234C27.2341 27.8965 27.0405 27.9507 26.9511 27.9664C26.9351 28.2607 26.6625 28.3823 26.4881 28.4114C26.4161 28.6749 26.1721 28.7512 26.08 28.7706C26 29.0472 25.6812 29.1034 25.5828 29.1145C25.4797 29.2956 25.3525 29.4004 25.2038 29.4269C25.1787 29.4312 25.1539 29.4332 25.1298 29.4332L25.1302 29.4335ZM24.8526 29.2283C24.8924 29.2591 25.0324 29.3559 25.1874 29.3281C25.3103 29.306 25.4181 29.2102 25.5081 29.0432L25.5215 29.0181L25.55 29.0167C25.5537 29.0167 25.9333 28.9936 25.9906 28.7171L25.998 28.6809L26.0348 28.6772C26.0472 28.6759 26.3415 28.6414 26.3987 28.3568L26.4061 28.3207L26.4429 28.317C26.46 28.3153 26.8638 28.2681 26.8524 27.9249L26.8507 27.8767L26.8986 27.873C26.9009 27.873 27.1457 27.8513 27.2126 27.6855C27.2585 27.5717 27.2354 27.3481 26.8651 26.9286C26.7322 26.7779 26.5819 26.7136 26.4054 26.7324C25.6655 26.8104 24.7692 28.3193 24.6648 28.4991L24.8529 29.2287L24.8526 29.2283Z" fill="#010002"/>
<path d="M26.2592 32.7659C26.2586 32.7522 26.1789 31.3597 24.9927 29.3988L25.0787 29.3469C26.2793 31.3319 26.359 32.7471 26.3597 32.7612L26.2592 32.7659ZM27.1153 32.2617L27.0176 32.2389L27.0664 32.2503L27.0176 32.2392C27.0192 32.2312 27.1699 31.414 25.5113 29.0968L25.4962 29.0757L25.5046 29.0513C25.512 29.0295 25.68 28.5159 25.1179 28.1781L25.1695 28.092C25.7276 28.4275 25.6375 28.9378 25.6067 29.0583C27.2877 31.4129 27.123 32.2285 27.115 32.262L27.1153 32.2617ZM27.7026 31.5877L27.6025 31.5817L27.6527 31.5847L27.6025 31.582C27.6028 31.5733 27.6272 30.6995 26.0011 28.7603L25.984 28.7399L25.9914 28.7141C25.9967 28.6947 26.1189 28.2297 25.5551 27.8473L25.6114 27.7643C25.9368 27.9849 26.0496 28.237 26.0868 28.4098C26.1176 28.5524 26.1035 28.6652 26.0942 28.7148C27.7374 30.6804 27.7052 31.5516 27.7029 31.588L27.7026 31.5877ZM28.0896 30.9713C28.0896 30.9693 28.0702 30.7494 27.8546 30.3245C27.6554 29.9321 27.2432 29.2799 26.4109 28.4017L26.3938 28.384L26.3975 28.3596C26.4005 28.3395 26.4648 27.862 25.9201 27.558L25.969 27.4703C26.2853 27.6468 26.4119 27.8821 26.4628 28.0482C26.505 28.1865 26.503 28.3006 26.4993 28.3492C28.107 30.051 28.1867 30.9271 28.1894 30.9636L28.0893 30.971L28.0896 30.9713ZM28.6889 30.4604C28.6876 30.4504 28.5479 29.452 26.8686 27.9611L26.8481 27.9431L26.8522 27.9163C26.8525 27.9129 26.896 27.5443 26.3593 27.1673L26.4169 27.085C26.9272 27.4432 26.9566 27.8001 26.9536 27.9025C28.6494 29.4142 28.7836 30.4072 28.7887 30.4487L28.6889 30.4604Z" fill="#010002"/>
<path d="M23.548 32.8127C23.548 32.8127 23.3686 33.6048 22.7448 33.5409C22.7448 33.5409 22.3036 33.4994 22.3367 32.7642C22.3367 32.7642 21.6849 33.111 21.5794 32.2509C21.5794 32.2509 20.9868 32.3895 20.9935 31.5853C20.9935 31.5853 20.4404 31.6824 20.5064 30.9683C20.5064 30.9683 19.9071 31.1276 19.9071 30.455C19.9071 30.455 18.5046 30.2223 21.4281 27.5566L24.0355 29.1098L23.5484 32.8127H23.548Z" fill="#F4C53D"/>
<path d="M22.8152 33.5942C22.7907 33.5942 22.7653 33.5929 22.7395 33.5902C22.7348 33.5899 22.6109 33.5768 22.4934 33.4636C22.3545 33.3297 22.2842 33.1201 22.2845 32.8402C22.1844 32.8764 22.0023 32.9186 21.8365 32.8325C21.6788 32.7505 21.5781 32.5737 21.5365 32.3076C21.4555 32.3153 21.2978 32.3119 21.1636 32.2044C21.0243 32.093 20.9503 31.9031 20.9436 31.6393C20.8649 31.6413 20.7213 31.6282 20.6078 31.5238C20.4943 31.4193 20.4417 31.2526 20.4518 31.0286C20.358 31.0407 20.1843 31.044 20.0467 30.9386C19.9282 30.8475 19.8645 30.6982 19.8575 30.4939C19.7772 30.4698 19.6037 30.3945 19.5421 30.1859C19.3911 29.6747 20.0142 28.7774 21.3943 27.5189L21.4217 27.4938L24.0894 29.0831L23.5969 32.8232C23.5952 32.8312 23.4151 33.5939 22.8155 33.5939L22.8152 33.5942ZM22.3903 32.6779L22.3863 32.7659C22.3558 33.4452 22.7452 33.4901 22.7489 33.4904C22.9869 33.5149 23.1844 33.4087 23.3361 33.1754C23.4469 33.005 23.4928 32.8245 23.4978 32.8034L23.9803 29.136L21.4334 27.6187C20.6728 28.3154 19.4588 29.5454 19.6372 30.1565C19.6981 30.3657 19.9057 30.4039 19.9148 30.4055L19.9563 30.4129V30.4551C19.9563 30.6463 20.0068 30.7822 20.1066 30.8589C20.2613 30.9784 20.4903 30.9201 20.4926 30.9195L20.5619 30.9014L20.5556 30.9727C20.5348 31.1974 20.575 31.3581 20.6754 31.4505C20.8013 31.5663 20.9824 31.5362 20.9845 31.5358L21.0437 31.5255V31.5857C21.041 31.8452 21.1023 32.027 21.2252 32.1258C21.3728 32.2446 21.5657 32.2024 21.5677 32.2021L21.6219 32.1897L21.6289 32.245C21.6608 32.5051 21.7461 32.6728 21.8827 32.7438C22.0749 32.8439 22.3103 32.721 22.3126 32.7197L22.3903 32.6785V32.6779Z" fill="#010002"/>
<path d="M23.8375 29.2574C23.8375 29.2574 23.403 29.6431 23.0936 29.0675C23.0936 29.0675 22.6721 29.0468 22.6065 28.7277C22.6065 28.7277 22.264 28.6929 22.1983 28.3671C22.1983 28.3671 21.731 28.3186 21.744 27.9232C21.744 27.9232 20.894 27.8576 21.744 26.8953C22.5937 25.9331 24.0357 28.4917 24.0357 28.4917L23.8382 29.257L23.8375 29.2574Z" fill="#F4C53D"/>
<path d="M23.5159 29.4336C23.4918 29.4336 23.467 29.4316 23.4419 29.4273C23.2933 29.4008 23.1661 29.2957 23.0629 29.1149C22.9645 29.1039 22.6461 29.0476 22.5658 28.7711C22.4734 28.7513 22.2296 28.6753 22.1576 28.4118C21.9832 28.3827 21.7107 28.2612 21.6946 27.9669C21.6052 27.9508 21.4114 27.8966 21.3414 27.7235C21.2587 27.5196 21.3816 27.2296 21.7063 26.862C21.8603 26.6876 22.0438 26.6103 22.2517 26.6323C22.6049 26.6695 23.0208 26.9913 23.4871 27.5885C23.8306 28.0281 24.0767 28.4627 24.0791 28.4671L24.0891 28.4848L23.8825 29.2846L23.8712 29.2947C23.8641 29.3011 23.7118 29.4336 23.5156 29.4336H23.5159ZM22.1831 26.7288C22.0317 26.7288 21.8998 26.7944 21.7817 26.9283C21.4114 27.3478 21.3883 27.5715 21.4341 27.6853C21.5011 27.851 21.7458 27.8725 21.7482 27.8728L21.796 27.8768L21.7947 27.9247C21.7833 28.2679 22.1871 28.3151 22.2042 28.3167L22.2407 28.3208L22.248 28.3569C22.3056 28.6415 22.5996 28.6763 22.6123 28.6773L22.6488 28.6813L22.6565 28.7172C22.7134 28.9937 23.0931 29.0168 23.0971 29.0168L23.1252 29.0181L23.1386 29.0429C23.2283 29.21 23.3361 29.3057 23.4593 29.3278C23.6144 29.3556 23.7543 29.2589 23.7941 29.2281L23.9823 28.4985C23.8778 28.3184 22.9816 26.8098 22.2417 26.7318C22.2219 26.7298 22.2025 26.7288 22.1834 26.7288H22.1831Z" fill="#010002"/>
<path d="M22.3866 32.7662L22.2862 32.7616C22.2869 32.7472 22.3049 32.4006 22.472 31.804C22.6257 31.2553 22.9404 30.3838 23.5671 29.3472L23.6532 29.3991C22.4656 31.3624 22.3873 32.7525 22.3866 32.7662ZM21.5302 32.262C21.5225 32.2282 21.3578 31.413 23.0385 29.0583C23.0077 28.9378 22.9176 28.4279 23.4757 28.0924L23.5273 28.1785C22.9652 28.5163 23.1332 29.0299 23.1406 29.0516L23.149 29.0761L23.1339 29.0971C22.2678 30.3075 21.9042 31.0976 21.7518 31.5472C21.5868 32.0347 21.6273 32.2379 21.6276 32.2399L21.5299 32.2624L21.5302 32.262Z" fill="#010002"/>
<path d="M24.324 29.0197C24.7451 29.0197 25.2226 31.6512 25.0987 33.2365C25.0538 33.8123 24.7451 34.2824 24.324 34.2824C23.9028 34.2824 23.5944 33.812 23.5492 33.2365C23.4253 31.6512 23.9028 29.0197 24.324 29.0197Z" fill="#F4C53D"/>
<path d="M24.323 34.3326C23.8945 34.3326 23.5476 33.8733 23.4984 33.2402C23.3886 31.8363 23.7635 29.4877 24.167 29.0515C24.2681 28.9423 24.3782 28.9423 24.4794 29.0515C24.8828 29.4877 25.2578 31.8363 25.148 33.2402C25.0984 33.8733 24.7515 34.3326 24.3233 34.3326H24.323ZM24.323 29.0695C24.2932 29.0695 24.2617 29.0967 24.2406 29.1198C23.8817 29.5078 23.482 31.7409 23.5985 33.2325C23.6437 33.8117 23.9484 34.2322 24.323 34.2322C24.6976 34.2322 25.0023 33.8117 25.0475 33.2325C25.164 31.7409 24.7643 29.5078 24.4054 29.1198C24.3843 29.097 24.3528 29.0695 24.323 29.0695Z" fill="#010002"/>
<path d="M20.9432 31.5879C20.9408 31.5517 20.9087 30.6802 22.5522 28.7142C22.5312 28.5981 22.4883 28.1344 23.0347 27.7641L23.0909 27.8471C22.5268 28.2295 22.649 28.6945 22.6547 28.7142L22.6617 28.7397L22.6447 28.7601C21.7949 29.7736 21.4045 30.487 21.2271 30.9072C21.0346 31.3619 21.0433 31.5798 21.0433 31.5822L20.9432 31.5879ZM20.5562 30.9715L20.4561 30.9641C20.4587 30.9276 20.5381 30.0514 22.1461 28.3493C22.1388 28.2351 22.1435 27.7681 22.6761 27.4705L22.725 27.5582C22.1803 27.8622 22.2449 28.3396 22.2479 28.3597L22.2516 28.3838L22.2349 28.4015C20.6425 30.0819 20.5572 30.9624 20.5565 30.9711L20.5562 30.9715Z" fill="#010002"/>
<path d="M24.3241 29.8634C24.646 29.8634 24.907 29.4768 24.907 28.9999C24.907 28.5231 24.646 28.1365 24.3241 28.1365C24.0022 28.1365 23.7412 28.5231 23.7412 28.9999C23.7412 29.4768 24.0022 29.8634 24.3241 29.8634Z" fill="#F4C53D"/>
<path d="M24.3245 29.9124C23.9753 29.9124 23.6914 29.5026 23.6914 28.9988C23.6914 28.4949 23.9753 28.0851 24.3245 28.0851C24.6737 28.0851 24.9576 28.4949 24.9576 28.9988C24.9576 29.5026 24.6737 29.9124 24.3245 29.9124ZM24.3245 28.1859C24.0309 28.1859 23.7918 28.5505 23.7918 28.9991C23.7918 29.4477 24.0309 29.8123 24.3245 29.8123C24.6181 29.8123 24.8572 29.4477 24.8572 28.9991C24.8572 28.5505 24.6181 28.1859 24.3245 28.1859Z" fill="#010002"/>
<path d="M19.9577 30.4604L19.8579 30.4487C19.8629 30.4072 19.9972 29.4142 21.693 27.9025C21.6896 27.8001 21.7194 27.4432 22.2296 27.085L22.2872 27.1673C21.7462 27.5473 21.7941 27.9126 21.7944 27.9163L21.7984 27.9431L21.778 27.9611C20.9002 28.7406 20.4518 29.379 20.2302 29.7771C19.9905 30.208 19.9577 30.4581 19.9573 30.4604H19.9577Z" fill="#010002"/>
<path d="M24.3228 28.8098C24.3228 28.8098 29.2665 26.6192 29.2789 21.5513H19.3667C19.3791 26.6192 24.3228 28.8098 24.3228 28.8098Z" fill="white"/>
<path d="M24.3227 28.865L24.3023 28.8559C24.2899 28.8502 23.0441 28.2911 21.8147 27.1176C21.0922 26.428 20.5157 25.6636 20.1015 24.8464C19.5836 23.8239 19.3194 22.7153 19.3164 21.5516V21.5013H29.329V21.5516C29.326 22.7153 29.0618 23.8239 28.5439 24.8464C28.1297 25.6636 27.5532 26.428 26.8307 27.1176C25.601 28.2915 24.3555 28.8506 24.3431 28.8559L24.3227 28.865ZM19.4172 21.6014C19.4272 22.7304 19.6874 23.8061 20.1902 24.7988C20.5987 25.6057 21.1679 26.3607 21.8817 27.0423C23.013 28.1227 24.1573 28.6775 24.3227 28.7545C24.4884 28.6772 25.6324 28.1227 26.7637 27.0423C27.4775 26.3607 28.0467 25.6057 28.4552 24.7988C28.958 23.8058 29.2178 22.7304 29.2282 21.6014H19.4172Z" fill="#010002"/>
<path d="M23.9423 21.6018H23.1799V21.5013H23.9423V21.6018ZM22.4173 21.6018H21.6549V21.5013H22.4173V21.6018ZM20.8922 21.6018H20.1299V21.5013H20.8922V21.6018Z" fill="#010002"/>
<path d="M20.1299 21.5513V24.7895C20.1299 24.7895 20.5085 25.5404 20.8922 26.0115V21.5513H20.1299ZM21.6549 21.5513V26.889C21.6549 26.889 22.1317 27.3564 22.4173 27.5821V21.5513H21.6549ZM23.1799 21.5513V28.1496C23.1799 28.1496 23.724 28.5008 23.9423 28.6163V21.5516H23.1799V21.5513Z" fill="#A60032"/>
<path d="M23.9918 28.6996L23.9181 28.6608C23.7001 28.5459 23.1742 28.2064 23.1517 28.192L23.1286 28.1773V21.5017H23.9914V28.6999L23.9918 28.6996ZM23.2294 28.1224C23.3228 28.1827 23.6801 28.4107 23.8913 28.5312V21.6018H23.2294V28.1224ZM22.4671 27.6861L22.3857 27.6219C22.1011 27.3975 21.624 26.9302 21.619 26.9255L21.6039 26.9107V21.5017H22.4667V27.6865L22.4671 27.6861ZM21.7047 26.8686C21.7794 26.9412 22.1162 27.2673 22.3666 27.4769V21.6021H21.7047V26.8686ZM20.9424 26.1531L20.8533 26.0436C20.4703 25.5739 20.0886 24.8199 20.0849 24.8125L20.0796 24.8018V21.5013H20.9424V26.1527V26.1531ZM20.18 24.7777C20.2236 24.8624 20.5222 25.4383 20.8419 25.8658V21.6021H20.18V24.7781V24.7777Z" fill="#010002"/>
<path d="M23.9423 21.6018H23.1799V21.5013H23.9423V21.6018ZM22.4173 21.6018H21.6549V21.5013H22.4173V21.6018ZM20.8922 21.6018H20.1299V21.5013H20.8922V21.6018Z" fill="#010002"/>
<path d="M28.5165 21.5508V24.789C28.5165 24.789 28.1378 25.5399 27.7541 26.011V21.5508H28.5165ZM26.9915 21.5508V26.8885C26.9915 26.8885 26.5147 27.3559 26.2291 27.5816V21.5508H26.9915ZM25.4664 21.5508V28.1491C25.4664 28.1491 24.9224 28.5003 24.7041 28.6158V21.5511H25.4664V21.5508Z" fill="#A60032"/>
<path d="M24.6532 28.6989V21.5006H25.516V28.1762L25.4929 28.191C25.4704 28.2054 24.9444 28.5448 24.7265 28.6597L24.6528 28.6985L24.6532 28.6989ZM24.7536 21.6011V28.5304C24.9652 28.4099 25.3221 28.1816 25.4155 28.1217V21.6011H24.7536ZM26.1782 27.6854V21.5006H27.041V26.9097L27.0259 26.9244C27.0212 26.9291 26.5438 27.3965 26.2592 27.6208L26.1779 27.6851L26.1782 27.6854ZM26.2786 21.6011V27.4758C26.5291 27.2662 26.8659 26.9401 26.9405 26.8675V21.6011H26.2786ZM27.7032 26.152V21.5006H28.566V24.8011L28.5606 24.8118C28.557 24.8195 28.175 25.5731 27.7923 26.0429L27.7032 26.1524V26.152ZM27.8037 21.6011V25.8648C28.1234 25.4372 28.4224 24.8617 28.4656 24.777V21.6011H27.8037Z" fill="#010002"/>
<path d="M32.3168 30.733L32.1246 31.5188L32.6509 32.0431L31.907 35.1849L31.2454 34.2963L30.2651 34.754L31.0091 31.6122L31.6988 31.4201L31.8779 30.6356C31.8779 30.6356 32.0865 30.5539 32.3171 30.7334L32.3168 30.733Z" fill="#0081C6"/>
<path d="M31.93 35.3007L31.2286 34.3586L30.1914 34.8427L30.9658 31.571L31.6552 31.3788L31.8336 30.5977L31.8584 30.588C31.8681 30.5843 32.0964 30.4983 32.3469 30.6928L32.3726 30.7129L32.1795 31.503L32.7054 32.027L31.9304 35.301L31.93 35.3007ZM31.2601 34.233L31.8818 35.068L32.5943 32.0585L32.068 31.5342L32.2591 30.7531C32.1075 30.6476 31.9722 30.6627 31.919 30.6747L31.7399 31.4595L31.0502 31.652L30.337 34.6639L31.2604 34.233H31.2601Z" fill="#010002"/>
<path d="M32.4902 30.2128L32.1115 30.9196L32.4909 31.5695L31.0003 34.4015L30.5798 33.363L29.5205 33.5378L31.011 30.7057L31.7245 30.708L32.0901 29.9989C32.0901 29.9989 32.3563 29.9982 32.4902 30.2128Z" fill="#0081C6"/>
<path d="M30.9947 34.5212L30.5484 33.4193L29.4292 33.6038L30.981 30.6555L31.6941 30.6579L32.0597 29.9491H32.0902C32.1043 29.9491 32.3865 29.9521 32.5328 30.1868L32.5482 30.2116L32.1689 30.9194L32.5482 31.5689L30.9944 34.5212H30.9947ZM30.6114 33.3072L31.0065 34.2828L32.4337 31.5712L32.054 30.921L32.4317 30.2163C32.337 30.088 32.1836 30.0582 32.1197 30.0515L31.7551 30.7586L31.0416 30.7563L29.6123 33.4719L30.6117 33.3072H30.6114Z" fill="#010002"/>
<path d="M32.5551 30.4182L31.5474 31.6982L31.7784 32.4214L29.721 34.8276L29.5332 33.716L28.4639 33.6354L30.5212 31.2291L31.2159 31.4002L32.2846 30.0413C32.2846 30.0413 32.5712 30.1836 32.5555 30.4182H32.5551Z" fill="#0081C6"/>
<path d="M29.69 34.9419L29.4908 33.7631L28.3618 33.6777L30.5035 31.1727L31.1966 31.3435L32.3165 29.9196L32.3306 30.0086C32.4062 30.0521 32.6208 30.1964 32.6058 30.4211L32.6048 30.4365L31.604 31.7077L31.8354 32.4322L29.6903 34.9413L29.69 34.9419ZM28.5667 33.5927L29.5765 33.669L29.7533 34.7136L31.7226 32.4101L31.4919 31.6883L32.506 30.4C32.506 30.2544 32.3654 30.1489 32.2974 30.1064L31.2354 31.4566L30.5394 31.2852L28.5667 33.5927Z" fill="#010002"/>
<path d="M14.0717 18.7715C12.9253 18.6758 10.5111 18.0979 10.487 18.0922L10.5104 17.9944C10.5345 18.0001 12.9414 18.5763 14.0801 18.6714L14.0717 18.7715ZM13.3144 17.7885C10.8301 17.3684 8.67635 16.6964 8.65492 16.6897L8.68505 16.594C8.70648 16.6007 10.8539 17.2706 13.3311 17.6898L13.3144 17.7889V17.7885ZM12.5815 16.6917C11.6986 16.6157 10.2864 16.2551 9.25689 15.9662C8.14267 15.6532 7.22464 15.3545 7.2156 15.3515L7.24674 15.2561C7.28323 15.2681 10.9138 16.4477 12.5898 16.592L12.5811 16.6921L12.5815 16.6917ZM12.1764 15.841C10.0022 15.4369 8.60537 15.0324 7.81624 14.7646C6.95848 14.4733 6.621 14.2801 6.60693 14.2721L6.65715 14.1851C6.67055 14.1928 8.05261 14.9722 12.1944 15.7422L12.176 15.841H12.1764Z" fill="#010002"/>
<path d="M18.677 23.7735C18.6629 23.7614 18.543 23.6429 18.6241 23.1976L18.7228 23.2157C18.6528 23.599 18.7432 23.6978 18.7442 23.6988L18.677 23.7735ZM17.5975 23.5337L17.5306 23.4587C17.5336 23.4561 17.8219 23.1946 17.8399 22.914L17.9401 22.9204C17.9193 23.2425 17.6106 23.5217 17.5975 23.5337ZM16.6176 23.1722L16.5814 23.0784C16.5851 23.0771 16.9604 22.9271 17.1399 22.5357L17.2313 22.5775C17.0341 23.0071 16.6347 23.1655 16.6176 23.1722ZM18.5162 22.5976C18.5136 22.5919 18.451 22.4594 18.4721 22.2535L18.5718 22.2635C18.5541 22.4393 18.6063 22.5531 18.6066 22.5541L18.5159 22.5976H18.5162ZM15.8552 22.1684L15.8291 22.0713C15.8341 22.07 16.339 21.9324 16.6316 21.7446L16.6859 21.8293C16.3799 22.0255 15.8767 22.1624 15.8556 22.1684H15.8552ZM15.2847 21.1992L15.28 21.0987C15.2861 21.0987 15.8847 21.0699 16.1689 21.0227L16.1854 21.1218C15.8954 21.17 15.3095 21.1978 15.2847 21.1992ZM16.4318 20.5537L16.4144 20.5101L16.3752 20.4733C16.3866 20.4613 16.3876 20.4603 16.6437 20.3802L16.6738 20.476C16.4619 20.5423 16.4344 20.553 16.4321 20.5537H16.4318ZM15.4665 20.5065C14.8471 20.5065 13.4778 20.2995 13.4182 20.2905L13.4333 20.1911C13.4483 20.1934 14.9298 20.4174 15.5141 20.4053L15.5161 20.5058C15.5 20.5058 15.4836 20.5061 15.4665 20.5061V20.5065ZM17.3314 19.8017C16.8804 19.2667 17.0435 18.5626 17.2597 18.0664C17.2678 18.048 17.2738 18.0346 17.2768 18.0262L17.2855 18.0028C17.3622 17.7969 17.4907 17.4521 17.2808 17.1049C17.0619 16.7423 16.3903 16.4694 16.3832 16.4667L16.4207 16.3737C16.4495 16.3854 17.1305 16.6619 17.3669 17.053C17.6016 17.4417 17.4626 17.815 17.3796 18.038L17.3709 18.0611C17.3675 18.0704 17.3608 18.0858 17.3518 18.1066C17.0538 18.7906 17.0729 19.3393 17.4084 19.7371L17.3317 19.8017H17.3314ZM14.6841 19.7153C14.1685 19.6644 12.1955 19.2536 12.1118 19.2359L12.1322 19.1374C12.1527 19.1418 14.1836 19.5647 14.6938 19.6152L14.6838 19.7153H14.6841ZM15.7692 19.646C15.3648 19.6423 14.9476 19.5593 14.9432 19.5583L14.963 19.4599C14.967 19.4605 15.3755 19.5419 15.7699 19.5456L15.7689 19.646H15.7692ZM15.2318 18.5857C14.8076 18.5857 14.3831 18.5435 14.3784 18.5432L14.3885 18.4431C14.3932 18.4437 14.8749 18.4913 15.3209 18.4846L15.3226 18.585C15.2924 18.5854 15.2623 18.5857 15.2318 18.5857Z" fill="#010002"/>
<path d="M16.1841 30.5918C16.1841 30.5918 16.1694 30.1707 16.7027 30.1395L18.273 32.3238C18.273 32.3238 18.2137 32.4641 17.5026 32.4487C17.5026 32.4487 17.4272 32.448 17.3877 32.5314C17.3271 32.6589 16.1841 30.5922 16.1841 30.5922V30.5918Z" fill="#369443"/>
<path d="M17.3758 32.5866C17.33 32.5866 17.2553 32.5518 16.6942 31.5905C16.4129 31.1088 16.1427 30.6206 16.1401 30.6156L16.1344 30.6052V30.5932C16.1337 30.5885 16.124 30.1224 16.6995 30.089L16.727 30.0873L18.3297 32.3167L18.3186 32.3428C18.3015 32.383 18.1917 32.5133 17.501 32.4982C17.498 32.4982 17.4568 32.5012 17.4327 32.5521C17.423 32.5728 17.4036 32.5856 17.3808 32.5866C17.3792 32.5866 17.3772 32.5866 17.3755 32.5866H17.3758ZM16.2341 30.5784C16.6925 31.4067 17.2215 32.3067 17.3685 32.4667C17.4116 32.4128 17.4692 32.3977 17.5027 32.3977C17.9801 32.4081 18.1502 32.3469 18.2055 32.3154L16.6781 30.1911C16.2666 30.2272 16.2362 30.5165 16.2341 30.5784Z" fill="#010002"/>
<path d="M18.9097 21.7438C18.366 21.7438 18.1963 21.3337 18.1554 21.2001C17.7905 21.2028 17.5304 21.1094 17.3824 20.9226C17.2344 20.7354 17.2428 20.5088 17.2578 20.401C16.9003 20.3906 16.6287 20.2851 16.45 20.0879C16.1928 19.804 16.2263 19.4364 16.2276 19.421L16.3278 19.4307C16.3278 19.434 16.298 19.7712 16.5253 20.0213C16.694 20.2071 16.9609 20.3012 17.3181 20.3012H17.3834L17.3666 20.3641C17.366 20.3668 17.295 20.6507 17.4617 20.8606C17.5943 21.0274 17.8404 21.1074 18.1926 21.0987L18.2351 21.0977L18.2432 21.1395C18.2478 21.1643 18.3704 21.7482 19.1009 21.6263L19.1173 21.7254C19.0427 21.7378 18.9737 21.7435 18.9097 21.7435V21.7438ZM16.4108 19.2258C15.8708 18.7842 16.0077 18.3453 16.069 18.2103C15.8487 18.0426 15.7305 17.8531 15.7174 17.6469C15.696 17.3111 15.9625 17.0596 15.9735 17.0489L16.0418 17.1226C16.0395 17.1249 15.7988 17.3536 15.8175 17.6412C15.8296 17.8263 15.9454 17.9987 16.162 18.1544L16.2005 18.1822L16.1751 18.2224C16.1637 18.2405 15.8992 18.6781 16.4741 19.1481L16.4105 19.2258H16.4108ZM14.7364 17.6285C14.3611 17.6214 13.6832 17.4875 13.6544 17.4818L13.6738 17.3834C13.6808 17.3847 14.3715 17.5213 14.7381 17.528L14.7361 17.6285H14.7364ZM14.5791 16.6294C13.9423 16.5427 13.0795 16.2976 13.0708 16.2953L13.0983 16.1989C13.107 16.2012 13.963 16.4446 14.5925 16.5303L14.5791 16.6297V16.6294Z" fill="#010002"/>
<path d="M17.1203 28.9894C17.0343 28.9894 16.9265 28.9847 16.7949 28.9714L16.8053 28.8716C17.1786 28.9097 17.3557 28.8729 17.3574 28.8726L17.3792 28.9707C17.3741 28.9717 17.2911 28.9898 17.1207 28.9898L17.1203 28.9894Z" fill="#010002"/>
<path d="M15.5246 30.7677C15.5099 30.2477 15.5972 29.8978 15.7851 29.7274C15.9113 29.6129 16.0365 29.6273 16.0419 29.628L16.0291 29.7278L16.0355 29.6779L16.0298 29.7278C16.0261 29.7274 15.9408 29.7197 15.8494 29.8051C15.7375 29.9092 15.6076 30.1603 15.625 30.7653L15.5246 30.7683V30.7677ZM15.1362 30.5109C15.1245 29.9899 15.2193 29.6374 15.4175 29.4633C15.5621 29.3361 15.7081 29.3568 15.7141 29.3575L15.6994 29.4569C15.695 29.4562 15.5899 29.4435 15.4811 29.541C15.3622 29.6474 15.2233 29.9019 15.2367 30.5085L15.1362 30.5109Z" fill="#010002"/>
<path d="M18.9577 27.7656C18.9243 27.7656 18.9022 27.7632 18.8992 27.7629L18.7793 27.7499L18.8727 27.6742C18.8727 27.6742 19.0086 27.5583 19.0562 27.2808C19.1114 26.9577 19.2925 26.8559 19.3002 26.8516L19.3481 26.9396C19.3424 26.9426 19.2015 27.026 19.1553 27.2975C19.1255 27.472 19.0642 27.5905 19.014 27.6625C19.098 27.6554 19.2135 27.6293 19.2865 27.5466C19.4395 27.3725 19.6558 27.3267 19.6648 27.3247L19.6849 27.4231C19.6829 27.4234 19.4921 27.4649 19.3619 27.6129C19.244 27.7472 19.0535 27.7656 18.9577 27.7656ZM19.9839 27.3454C19.9457 27.3454 19.921 27.3427 19.9173 27.3424L19.7974 27.3293L19.8908 27.2537C19.8908 27.2537 20.0485 27.1198 20.1034 26.7987C20.166 26.4321 20.3703 26.3169 20.379 26.3122L20.4269 26.4003C20.4202 26.4039 20.2561 26.5004 20.2022 26.8154C20.1664 27.0247 20.0914 27.1626 20.0328 27.243C20.1309 27.2366 20.2755 27.2085 20.3649 27.1067C20.5387 26.9092 20.7838 26.8569 20.7941 26.8549L20.8142 26.9534C20.8119 26.9537 20.5909 27.0016 20.4403 27.173C20.307 27.3243 20.0917 27.3454 19.9829 27.3454H19.9839ZM19.0167 26.4692C18.9785 26.4692 18.9537 26.4666 18.95 26.4662L18.8302 26.4532L18.9236 26.3775C18.9236 26.3775 19.0813 26.2436 19.1362 25.9225C19.1988 25.5559 19.4034 25.4407 19.4117 25.436L19.4596 25.5241C19.4529 25.5278 19.2889 25.6242 19.235 25.9392C19.1991 26.1485 19.1241 26.2864 19.0656 26.3668C19.1636 26.3604 19.3083 26.3323 19.398 26.2305C19.5718 26.033 19.8168 25.9808 19.8272 25.9788L19.8473 26.0772C19.845 26.0775 19.624 26.1254 19.4733 26.2968C19.3401 26.4481 19.1248 26.4692 19.016 26.4692H19.0167Z" fill="#010002"/>
<path d="M29.2798 17.868C29.2798 17.868 26.8539 19.1369 24.3238 17.7639C21.7937 19.1369 19.3677 17.868 19.3677 17.868V21.5502H29.2798V17.868Z" fill="#162667"/>
<path d="M29.33 21.6004H19.3174V17.7854L19.3907 17.8239C19.3967 17.8269 20.0031 18.1399 20.908 18.2822C21.7413 18.4131 23.0062 18.4222 24.2996 17.7201L24.3237 17.707L24.3478 17.7201C25.6425 18.4225 26.9087 18.4131 27.743 18.2816C28.6473 18.1389 29.2506 17.8269 29.2567 17.8239L29.3303 17.7854V21.6004H29.33ZM19.4178 21.5H29.2295V17.9481C29.0397 18.0358 28.496 18.2641 27.7584 18.3807C26.914 18.5139 25.6348 18.5243 24.3237 17.8212C23.0126 18.5243 21.7333 18.5139 20.8889 18.3807C20.1514 18.2641 19.6077 18.0358 19.4178 17.9481V21.5Z" fill="#010002"/>
<path d="M7.02449 27.4169C7.26487 27.3188 7.43763 27.2241 7.43696 26.9679C7.43696 26.907 7.40281 26.7717 7.33451 26.5625L5.72144 21.6329C5.62602 21.3399 5.5537 21.1658 5.52022 21.1019C5.44757 20.9629 5.30528 20.9067 5.11377 20.8267H7.16376C6.94112 20.9318 6.73789 21.0155 6.7399 21.2515C6.74057 21.3416 6.76602 21.4688 6.81825 21.6329L8.054 25.5012L9.28842 21.6329C9.34065 21.4688 9.36777 21.3416 9.36676 21.2515C9.36442 21.0088 9.15282 20.9214 8.94525 20.8267H10.932C10.7502 20.8993 10.6022 20.9566 10.5262 21.1019C10.4927 21.1661 10.4204 21.3402 10.325 21.6329L8.71189 26.5625C8.64359 26.7717 8.61881 26.9093 8.60944 26.973C8.60944 26.973 8.53511 27.2847 9.02191 27.4172H7.02382L7.02449 27.4169ZM41.3979 26.91V21.3285C41.3979 21.2321 41.3819 21.1581 41.3501 21.1066C41.3183 21.055 41.1797 20.9067 40.9818 20.8267H42.8292C42.6314 20.8919 42.4928 21.0513 42.4609 21.1042C42.4291 21.1574 42.4131 21.2321 42.4131 21.3289V26.9103C42.4131 27.0101 42.4295 27.0865 42.4626 27.1397C42.4954 27.1929 42.6314 27.3225 42.8289 27.4172H40.9815C41.1793 27.3272 41.3176 27.1889 41.3497 27.1373C41.3815 27.0858 41.3976 27.0101 41.3976 26.9103L41.3979 26.91Z" fill="#0081C6"/>
<path d="M6.76766 27.4671L7.0047 27.3704C7.26351 27.2646 7.38638 27.1775 7.38604 26.9679C7.38604 26.9294 7.36863 26.8303 7.28627 26.5779L5.6732 21.6483C5.58079 21.3647 5.50881 21.1889 5.47533 21.1246C5.41305 21.0054 5.28516 20.9522 5.10805 20.8782L4.8623 20.7758H7.38738L7.15336 20.8862C6.92703 20.9927 6.78842 21.067 6.7901 21.2505C6.79076 21.3376 6.81654 21.4611 6.8661 21.6171L8.05397 25.3354L9.24051 21.6168C9.29174 21.4557 9.31752 21.3329 9.31651 21.2512C9.3145 21.049 9.14375 20.9713 8.94622 20.8816L8.7142 20.7758H11.1924L10.9403 20.8769C10.7706 20.9448 10.6366 20.9984 10.5707 21.1246C10.5372 21.1886 10.4652 21.364 10.3728 21.6479L8.75974 26.5775C8.6978 26.7674 8.67101 26.901 8.6593 26.9796L8.65863 26.984C8.65628 26.9944 8.60539 27.2512 9.03528 27.368L9.39787 27.4668H6.76766V27.4671ZM5.34743 20.8765C5.44118 20.9264 5.5155 20.9857 5.56405 21.0784C5.60121 21.1494 5.6742 21.3282 5.76861 21.6171L7.38169 26.5467C7.452 26.7627 7.48615 26.9003 7.48648 26.9679C7.48715 27.1708 7.38906 27.2833 7.24744 27.367H8.77279C8.52638 27.213 8.55417 26.997 8.55986 26.9652C8.57191 26.8825 8.60004 26.7433 8.66398 26.5471L10.2771 21.6174C10.3715 21.3278 10.4445 21.1494 10.4816 21.0788C10.5305 20.9857 10.6045 20.9254 10.6936 20.8772H9.1625C9.30044 20.9559 9.41494 21.0627 9.41695 21.2515C9.41796 21.3453 9.39151 21.4752 9.33627 21.6486L8.05397 25.6669L6.77034 21.6486C6.71744 21.4829 6.69032 21.3496 6.68965 21.2522C6.68798 21.0613 6.80081 20.9589 6.94812 20.8772H5.3481L5.34743 20.8765ZM43.0492 27.4671H40.7494L40.9603 27.371C41.1545 27.2826 41.2838 27.147 41.3065 27.1102C41.3333 27.067 41.3467 26.9994 41.3467 26.9097V21.3282C41.3467 21.2415 41.3333 21.1758 41.3065 21.1323C41.2801 21.0895 41.1492 20.9482 40.9623 20.8725L40.7236 20.7758H43.1399L42.8439 20.8735C42.6514 20.9371 42.5242 21.0938 42.5031 21.1293C42.4763 21.1742 42.4626 21.2411 42.4626 21.3282V26.9097C42.4626 26.9994 42.4767 27.0677 42.5044 27.1126C42.5329 27.1588 42.6638 27.282 42.85 27.3714L43.0488 27.4668L43.0492 27.4671ZM41.1716 27.3667H42.64C42.5269 27.2903 42.4472 27.211 42.4191 27.1658C42.3809 27.1042 42.3621 27.0205 42.3621 26.91V21.3285C42.3621 21.2217 42.3802 21.1397 42.4171 21.0781C42.4438 21.0336 42.5168 20.9488 42.6206 20.8765H41.1786C41.2901 20.9532 41.3661 21.0379 41.3919 21.0798C41.4291 21.14 41.4471 21.2214 41.4471 21.3282V26.9097C41.4471 27.0202 41.4291 27.1028 41.3919 27.1631C41.3631 27.21 41.2821 27.2913 41.1716 27.3667Z" fill="#010002"/>
</g>
<rect x="1.2749" y="0.84021" width="46.5" height="46.5" rx="23.25" stroke="#D9D9D9" stroke-width="1.5" stroke-linecap="round"/>
<defs>
<clipPath id="clip0_4012_188085">
<rect x="0.524902" y="0.09021" width="48" height="48" rx="24" fill="white"/>
</clipPath>
</defs>
</svg>
