<svg width="49" height="49" viewBox="0 0 49 49" fill="none" xmlns="http://www.w3.org/2000/svg">
<g clip-path="url(#clip0_4012_188206)">
<path fill-rule="evenodd" clip-rule="evenodd" d="M48.4855 25.4777C48.5116 25.0185 48.5249 24.5559 48.5249 24.0902C48.5249 23.6245 48.5116 23.1619 48.4855 22.7027H0.56434C0.538167 23.1619 0.524902 23.6245 0.524902 24.0902C0.524902 24.5559 0.538167 25.0185 0.56434 25.4777H48.4855ZM48.1652 28.2527H0.884575C1.04894 29.1926 1.26799 30.1138 1.53833 31.0127H47.5115C47.7818 30.1138 48.0009 29.1926 48.1652 28.2527ZM46.4883 33.7802H2.56146C2.98547 34.7399 3.47052 35.6665 4.01171 36.5552H45.0381C45.5793 35.6665 46.0643 34.7399 46.4883 33.7802ZM43.0784 39.3152H5.97139C10.373 44.6728 17.0499 48.0902 24.5249 48.0902C31.9999 48.0902 38.6768 44.6728 43.0784 39.3152ZM0.881956 19.9427H48.1678C48.0032 18.9976 47.7833 18.0714 47.5115 17.1677H1.53833C1.26655 18.0714 1.04661 18.9976 0.881956 19.9427ZM2.55814 14.4077H46.4917C46.0681 13.4481 45.5834 12.5214 45.0427 11.6327H4.00714C3.46638 12.5214 2.98174 13.4481 2.55814 14.4077ZM5.97139 8.86521H43.0784C38.6768 3.50757 31.9999 0.09021 24.5249 0.09021C17.0499 0.09021 10.373 3.50757 5.97139 8.86521Z" fill="#BD3D44"/>
<path fill-rule="evenodd" clip-rule="evenodd" d="M48.1666 19.9352C48.3252 20.8437 48.4326 21.7697 48.4859 22.7102H0.563965C0.617282 21.7697 0.724754 20.8437 0.883312 19.9352H48.1666ZM46.4884 14.4002C46.8839 15.2953 47.2263 16.2192 47.5115 17.1677H1.53837C1.82364 16.2192 2.16601 15.2953 2.5615 14.4002H46.4884ZM43.0785 8.86523C43.7958 9.73834 44.4527 10.663 45.0427 11.6327H4.00718C4.59724 10.663 5.25412 9.73834 5.97142 8.86523H43.0785ZM48.1653 28.2527C48.3241 27.3443 48.4319 26.4183 48.4855 25.4777H0.564394C0.618006 26.4183 0.725775 27.3443 0.884631 28.2527H48.1653ZM47.5115 31.0127H1.53838C1.82445 31.9639 2.16794 32.8903 2.56483 33.7877H46.4851C46.882 32.8903 47.2255 31.9639 47.5115 31.0127ZM45.0427 36.5477H4.00721C4.59896 37.5203 5.25792 38.4474 5.97762 39.3227H43.0723C43.792 38.4474 44.4509 37.5203 45.0427 36.5477Z" fill="white"/>
<path fill-rule="evenodd" clip-rule="evenodd" d="M29.9197 0.69891C28.1857 0.300632 26.3799 0.09021 24.5251 0.09021C22.6702 0.09021 20.8645 0.300632 19.1305 0.69891H29.9197ZM8.48877 6.23391C9.64813 5.19203 10.9095 4.26142 12.2561 3.45891H36.794C38.1406 4.26142 39.402 5.19203 40.5614 6.23391H8.48877Z" fill="white"/>
<path fill-rule="evenodd" clip-rule="evenodd" d="M12.257 44.7222C10.9135 43.9216 9.65476 42.9936 8.49756 41.9547H40.5518C39.3946 42.9936 38.1359 43.9216 36.7924 44.7222H12.257ZM29.8833 47.4897C28.1603 47.8827 26.3667 48.0902 24.5247 48.0902C22.6826 48.0902 20.8891 47.8827 19.166 47.4897H29.8833Z" fill="white"/>
<path fill-rule="evenodd" clip-rule="evenodd" d="M27.8849 0.323551V6.09021V25.4777H0.56434C0.538167 25.0185 0.524902 24.5559 0.524902 24.0902C0.524902 16.9221 3.66743 10.4879 8.64996 6.09021C12.8808 2.35603 18.4382 0.09021 24.5249 0.09021C25.6652 0.09021 26.787 0.169739 27.8849 0.323551Z" fill="#192F5D"/>
<path fill-rule="evenodd" clip-rule="evenodd" d="M7.16662 7.51644C7.26377 7.41472 7.36181 7.31385 7.46071 7.21385L7.61256 7.68778H8.42256L7.77006 8.16028L8.01006 8.93278L7.36506 8.45278L6.71256 8.92528L6.96006 8.16028L6.72682 7.98942C6.81855 7.88809 6.91114 7.78754 7.00456 7.68778H7.11006L7.16662 7.51644ZM4.5343 10.805C4.80078 10.4048 5.07896 10.0131 5.36835 9.63028H6.15006L5.49756 10.0953L5.73756 10.8678L5.10006 10.3953L4.5343 10.805ZM3.37252 12.7412C3.38605 12.716 3.39962 12.6909 3.41324 12.6658L3.45756 12.8028L3.37252 12.7412ZM2.04734 15.6599C2.07456 15.5873 2.10212 15.515 2.13001 15.4428H2.56506L2.80506 14.6778L3.06006 15.4428H3.85506L3.21006 15.9153L3.45756 16.6878L2.80506 16.2078L2.16006 16.6803L2.40006 15.9153L2.04734 15.6599ZM12.1726 7.68778L11.9251 6.91528L11.6776 7.68778H10.8676L11.5201 8.16028L11.2726 8.92528L11.9251 8.45278L12.5776 8.93278L12.3301 8.16028L12.9751 7.68778H12.1726ZM16.7326 7.68778L16.4851 6.91528L16.2301 7.68778H15.4276L16.0876 8.16028L15.8326 8.92528L16.4851 8.45278L17.1376 8.93278L16.8901 8.16028L17.5426 7.68778H16.7326ZM21.2926 7.68778L21.0451 6.91528L20.7976 7.68778H19.9951L20.6401 8.16028L20.3926 8.92528L21.0451 8.45278L21.6976 8.93278L21.4501 8.16028L22.0951 7.68778H21.2926ZM25.8526 7.68778L25.6051 6.91528L25.3576 7.68778H24.5476L25.2076 8.16028L24.9526 8.92528L25.6051 8.45278L26.2576 8.93278L26.0026 8.16028L26.6626 7.68778H25.8526ZM9.90006 9.63028L9.64506 8.86528L9.39756 9.63028H8.58756L9.24006 10.0953L8.99256 10.8678L9.64506 10.3953L10.2976 10.8678L10.0426 10.0953L10.7026 9.63028H9.90006ZM14.4526 9.63028L14.2051 8.86528L13.9501 9.63028H13.1551L13.8001 10.0953L13.5526 10.8678L14.2051 10.3953L14.8576 10.8678L14.6101 10.0953L15.2626 9.63028H14.4526ZM19.0201 9.63028L18.7651 8.86528L18.5251 9.63028H17.7076L18.3601 10.0953L18.1201 10.8678L18.7651 10.3953L19.4176 10.8678L19.1626 10.0953L19.8226 9.63028H19.0201ZM23.5726 9.63028L23.3251 8.86528L23.0776 9.63028H22.2751L22.9201 10.0953L22.6726 10.8678L23.3251 10.3953L23.9776 10.8678L23.7301 10.0953L24.3826 9.63028H23.5726ZM7.61256 11.5653L7.36506 10.7853L7.11006 11.5578H6.31506L6.96006 12.0303L6.71256 12.8028L7.36506 12.3303L8.01006 12.8028L7.77006 12.0378L8.42256 11.5653H7.61256ZM12.1726 11.5578L11.9251 10.7853L11.6776 11.5503H10.8676L11.5201 12.0228L11.2726 12.7953L11.9251 12.3228L12.5776 12.7953L12.3301 12.0303L12.9751 11.5578H12.1726ZM16.7326 11.5578L16.4851 10.7853L16.2301 11.5503H15.4276L16.0876 12.0228L15.8326 12.7953L16.4851 12.3228L17.1376 12.7953L16.8901 12.0303L17.5426 11.5578H16.7326ZM21.2926 11.5578L21.0451 10.7853L20.7976 11.5503H19.9951L20.6401 12.0228L20.3926 12.7953L21.0451 12.3228L21.6976 12.7953L21.4501 12.0303L22.0951 11.5578H21.2926ZM25.8526 11.5578L25.6051 10.7853L25.3576 11.5503H24.5476L25.2076 12.0228L24.9526 12.7953L25.6051 12.3228L26.2576 12.7953L26.0026 12.0303L26.6626 11.5578H25.8526ZM5.33256 13.5003L5.08506 12.7353L4.84506 13.5003H4.04256L4.68756 13.9728L4.44006 14.7378L5.09256 14.2653L5.74506 14.7453L5.49756 13.9728L6.15006 13.5003H5.33256ZM9.90006 13.5003L9.64506 12.7353L9.39756 13.5003H8.58756L9.24006 13.9728L8.99256 14.7378L9.64506 14.2653L10.2976 14.7453L10.0426 13.9728L10.7026 13.5003H9.90006ZM14.4526 13.5003L14.2051 12.7353L13.9501 13.5003H13.1551L13.8001 13.9728L13.5526 14.7378L14.2051 14.2653L14.8576 14.7453L14.6101 13.9728L15.2626 13.5003H14.4526ZM19.0201 13.5003L18.7651 12.7353L18.5251 13.5003H17.7076L18.3601 13.9728L18.1201 14.7378L18.7651 14.2653L19.4176 14.7453L19.1701 13.9728L19.8226 13.5003H19.0201ZM23.5726 13.5003L23.3251 12.7353L23.0776 13.5003H22.2751L22.9201 13.9728L22.6726 14.7378L23.3251 14.2653L23.9776 14.7453L23.7301 13.9728L24.3826 13.5003H23.5726ZM7.61256 15.4428L7.36506 14.6778L7.11006 15.4428H6.31506L6.96006 15.9153L6.71256 16.6803L7.36506 16.2078L8.01006 16.6803L7.77006 15.9153L8.42256 15.4428H7.61256ZM12.1726 15.4428L11.9251 14.6778L11.6776 15.4428H10.8676L11.5201 15.9153L11.2726 16.6803L11.9251 16.2078L12.5776 16.6878L12.3301 15.9153L12.9751 15.4428H12.1726ZM16.7326 15.4428L16.4851 14.6778L16.2301 15.4428H15.4276L16.0876 15.9153L15.8326 16.6803L16.4851 16.2078L17.1376 16.6878L16.8901 15.9153L17.5426 15.4428H16.7326ZM21.2926 15.4428L21.0451 14.6778L20.7976 15.4428H19.9951L20.6401 15.9153L20.3926 16.6803L21.0451 16.2078L21.6976 16.6878L21.4501 15.9153L22.0951 15.4428H21.2926ZM25.8526 15.4428L25.6051 14.6778L25.3501 15.4428H24.5401L25.2001 15.9153L24.9526 16.6803L25.6051 16.2078L26.2576 16.6878L26.0026 15.9153L26.6626 15.4428H25.8526ZM5.33256 17.3853L5.08506 16.6128L4.84506 17.3778H4.04256L4.68756 17.8503L4.44006 18.6228L5.09256 18.1428L5.74506 18.6228L5.49756 17.8503L6.15006 17.3853H5.33256ZM9.90006 17.3853L9.64506 16.6128L9.39756 17.3778H8.58756L9.24006 17.8503L8.99256 18.6228L9.64506 18.1428L10.2976 18.6228L10.0426 17.8503L10.7026 17.3853H9.90006ZM14.4526 17.3853L14.2051 16.6128L13.9501 17.3778H13.1551L13.8001 17.8503L13.5526 18.6228L14.2051 18.1428L14.8576 18.6228L14.6101 17.8503L15.2626 17.3853H14.4526ZM19.0201 17.3853L18.7651 16.6128L18.5251 17.3778H17.7076L18.3601 17.8503L18.1201 18.6228L18.7651 18.1428L19.4176 18.6228L19.1701 17.8503L19.8226 17.3853H19.0201ZM23.5726 17.3853L23.3251 16.6128L23.0776 17.3778H22.2751L22.9201 17.8503L22.6726 18.6228L23.3251 18.1428L23.9776 18.6228L23.7301 17.8503L24.3826 17.3853H23.5726ZM3.06006 19.3203L2.80506 18.5478L2.56506 19.3128H1.74756L2.40006 19.7853L2.16006 20.5503L2.80506 20.0853L3.45756 20.5503L3.21006 19.7928L3.85506 19.3203H3.06006ZM7.61256 19.3203L7.36506 18.5478L7.11006 19.3128H6.31506L6.96756 19.7853L6.71256 20.5503L7.36506 20.0853L8.01756 20.5503L7.77006 19.7928L8.42256 19.3203H7.61256ZM12.1726 19.3203L11.9251 18.5478L11.6776 19.3128H10.8676L11.5201 19.7853L11.2726 20.5503L11.9251 20.0853L12.5776 20.5503L12.3301 19.7928L12.9751 19.3203H12.1726ZM16.7326 19.3203L16.4851 18.5478L16.2301 19.3128H15.4276L16.0876 19.7853L15.8326 20.5503L16.4851 20.0853L17.1376 20.5503L16.8901 19.7928L17.5426 19.3203H16.7326ZM21.2926 19.3203L21.0451 18.5478L20.7976 19.3128H19.9951L20.6401 19.7853L20.3926 20.5503L21.0451 20.0853L21.6976 20.5503L21.4501 19.7928L22.0951 19.3203H21.2926ZM25.8526 19.3203L25.6051 18.5478L25.3576 19.3128H24.5476L25.2076 19.7853L24.9526 20.5503L25.6051 20.0853L26.2576 20.5503L26.0026 19.7928L26.6626 19.3203H25.8526ZM5.33256 21.2553L5.08506 20.4903L4.84506 21.2553H4.04256L4.68756 21.7278L4.44006 22.4928L5.09256 22.0203L5.74506 22.5003L5.49756 21.7278L6.15006 21.2553H5.33256ZM9.90006 21.2553L9.64506 20.4903L9.39756 21.2553H8.58756L9.24006 21.7278L8.99256 22.4928L9.64506 22.0203L10.2976 22.5003L10.0426 21.7278L10.7026 21.2553H9.90006ZM14.4526 21.2553L14.2051 20.4903L13.9501 21.2553H13.1551L13.8001 21.7278L13.5526 22.4928L14.2051 22.0203L14.8576 22.5003L14.6101 21.7278L15.2626 21.2553H14.4526ZM19.0201 21.2553L18.7651 20.4903L18.5251 21.2553H17.7076L18.3601 21.7278L18.1201 22.4928L18.7651 22.0203L19.4176 22.5003L19.1701 21.7278L19.8226 21.2553H19.0201ZM23.5726 21.2553L23.3251 20.4903L23.0776 21.2553H22.2751L22.9201 21.7278L22.6726 22.4928L23.3251 22.0203L23.9776 22.5003L23.7301 21.7278L24.3826 21.2553H23.5726ZM3.06006 23.1978L2.80506 22.4328L2.56506 23.1903H1.74756L2.40006 23.6628L2.16006 24.4353L2.80506 23.9628L3.45756 24.4353L3.21006 23.6703L3.85506 23.1978H3.06006ZM7.61256 23.1978L7.36506 22.4328L7.11006 23.1903H6.31506L6.96756 23.6628L6.71256 24.4353L7.36506 23.9628L8.01756 24.4353L7.77006 23.6703L8.42256 23.1978H7.61256ZM12.1726 23.1978L11.9251 22.4328L11.6926 23.1903H10.8826L11.5351 23.6628L11.2876 24.4353L11.9401 23.9628L12.5926 24.4353L12.3451 23.6703L12.9751 23.1978H12.1726ZM16.7326 23.1978L16.4851 22.4328L16.2301 23.1903H15.4276L16.0876 23.6628L15.8326 24.4353L16.4851 23.9628L17.1376 24.4353L16.8901 23.6703L17.5426 23.1978H16.7326ZM21.2926 23.1978L21.0451 22.4328L20.7976 23.1903H19.9951L20.6401 23.6628L20.3926 24.4353L21.0451 23.9628L21.6976 24.4353L21.4501 23.6703L22.0951 23.1978H21.2926ZM25.8526 23.1978L25.6051 22.4328L25.3576 23.1903H24.5476L25.2076 23.6628L24.9526 24.4353L25.6051 23.9628L26.2576 24.4353L26.0026 23.6703L26.6626 23.1978H25.8526Z" fill="white"/>
<path fill-rule="evenodd" clip-rule="evenodd" d="M21.524 0.27603C21.2192 0.314045 20.9162 0.357775 20.6151 0.407108L20.3924 1.09526L21.0449 0.622759L21.6974 1.10276L21.4499 0.330259L21.524 0.27603ZM13.6667 2.68117C14.024 2.49961 14.3864 2.32672 14.7537 2.1628L14.6099 2.26526L14.8574 3.03776L14.2049 2.55776L13.5524 3.03776L13.6667 2.68117ZM11.3133 4.05066C11.5759 3.87722 11.842 3.70881 12.1117 3.54555L12.1724 3.73526H12.9749L12.3299 4.20776L12.5774 4.96526L11.9249 4.50026L11.2724 4.96526L11.5199 4.20026L11.3133 4.05066ZM9.49091 5.38133C9.57289 5.31537 9.65532 5.24993 9.73819 5.18503L9.89993 5.67026H10.7024L10.0424 6.14276L10.2974 6.91526L9.64493 6.43526L8.99243 6.90776L9.23993 6.14276L8.88477 5.88557C8.9689 5.81322 9.05354 5.74145 9.13867 5.67026H9.39743L9.49091 5.38133ZM24.868 0.0926514C25.3327 0.0991669 25.7942 0.118887 26.2522 0.151457L26.0024 0.330259L26.2574 1.10276L25.6049 0.622759L24.9524 1.09526L25.1999 0.330259L24.868 0.0926514ZM18.7649 1.02776L19.0199 1.80026H19.8224L19.1699 2.26526L19.4174 3.03776L18.7649 2.55776L18.1199 3.03776L18.3599 2.26526L17.7074 1.79276H18.5249L18.7649 1.02776ZM23.3249 1.02776L23.5724 1.80026H24.3824L23.7299 2.26526L23.9774 3.03776L23.3249 2.55776L22.6724 3.03776L22.9199 2.26526L22.2749 1.79276H23.0774L23.3249 1.02776ZM16.4849 2.96276L16.7324 3.73526H17.5424L16.8899 4.20776L17.1374 4.96526L16.4849 4.50026L15.8324 4.96526L16.0874 4.20026L15.4274 3.72776H16.2299L16.4849 2.96276ZM21.0449 2.96276L21.2924 3.73526H22.0949L21.4499 4.20776L21.6974 4.96526L21.0449 4.50026L20.3924 4.96526L20.6399 4.20026L19.9949 3.72776H20.7974L21.0449 2.96276ZM25.6049 2.96276L25.8524 3.73526H26.6624L26.0024 4.20776L26.2574 4.96526L25.6049 4.50026L24.9524 4.96526L25.2074 4.20026L24.5474 3.72776H25.3574L25.6049 2.96276ZM14.2049 4.90526L14.4524 5.67026H15.2624L14.6099 6.14276L14.8574 6.91526L14.2049 6.43526L13.5524 6.90776L13.7999 6.14276L13.1549 5.67026H13.9499L14.2049 4.90526ZM18.7649 4.90526L19.0199 5.67026H19.8224L19.1699 6.14276L19.4174 6.91526L18.7649 6.43526L18.1199 6.90776L18.3599 6.14276L17.7074 5.67026H18.5249L18.7649 4.90526ZM23.3249 4.90526L23.5724 5.67026H24.3824L23.7299 6.14276L23.9774 6.91526L23.3249 6.43526L22.6724 6.90776L22.9199 6.14276L22.2749 5.67026H23.0774L23.3249 4.90526Z" fill="white"/>
<path fill-rule="evenodd" clip-rule="evenodd" d="M24.5249 46.6902C37.0065 46.6902 47.1249 36.5718 47.1249 24.0902C47.1249 11.6086 37.0065 1.49021 24.5249 1.49021C12.0433 1.49021 1.9249 11.6086 1.9249 24.0902C1.9249 36.5718 12.0433 46.6902 24.5249 46.6902ZM24.5249 48.0902C37.7797 48.0902 48.5249 37.345 48.5249 24.0902C48.5249 10.8354 37.7797 0.09021 24.5249 0.09021C11.2701 0.09021 0.524902 10.8354 0.524902 24.0902C0.524902 37.345 11.2701 48.0902 24.5249 48.0902Z" fill="#D9D9D9"/>
</g>
<defs>
<clipPath id="clip0_4012_188206">
<rect x="0.524902" y="0.09021" width="48" height="48" fill="white"/>
</clipPath>
</defs>
</svg>
