<svg width="49" height="49" viewBox="0 0 49 49" fill="none" xmlns="http://www.w3.org/2000/svg">
<g clip-path="url(#clip0_4012_198363)">
<path fill-rule="evenodd" clip-rule="evenodd" d="M24.5239 48.0902C37.7788 48.0902 48.5239 37.345 48.5239 24.0902C48.5239 10.8354 37.7788 0.09021 24.5239 0.09021C11.2691 0.09021 0.523926 10.8354 0.523926 24.0902C0.523926 37.345 11.2691 48.0902 24.5239 48.0902Z" fill="#74ACDF"/>
<path d="M48.5239 18.0903H0.523926V30.0903H48.5239V18.0903Z" fill="white"/>
<path d="M24.2974 24.1845L26.3461 28.6479C26.3461 28.6479 26.3813 28.7333 26.4382 28.7098C26.4951 28.6862 26.4597 28.6009 26.4597 28.6009L24.7522 23.9961M24.7033 25.7327C24.6783 26.4115 25.0959 26.7849 25.0413 27.391C24.9868 27.9973 25.3197 28.34 25.3969 28.5757C25.4742 28.8115 25.3134 28.9525 25.3827 28.986C25.452 29.0196 25.6037 28.8333 25.5543 28.4982C25.5048 28.163 25.2504 28.0635 25.3102 27.3231C25.37 26.5827 25.0074 26.4103 25.0956 25.7349" fill="#F6B40E"/>
<path fill-rule="evenodd" clip-rule="evenodd" d="M26.4968 28.5865L24.7895 23.9821L24.7145 24.0099L26.4222 28.6155L26.4224 28.616L26.4225 28.6161L26.4225 28.6162L26.4226 28.6163C26.4227 28.6167 26.4229 28.6173 26.4232 28.6181C26.4238 28.6198 26.4247 28.6225 26.4257 28.6257C26.4276 28.6324 26.4295 28.6409 26.4301 28.6493C26.4315 28.6681 26.4265 28.6711 26.4227 28.6727M26.4968 28.5865L26.4972 28.5873C26.4974 28.588 26.4977 28.5888 26.4981 28.5898C26.4982 28.5902 26.4984 28.5906 26.4985 28.591C26.4996 28.5941 26.5011 28.5983 26.5025 28.6034C26.5055 28.6134 26.5088 28.6277 26.51 28.6436C26.5121 28.6734 26.5063 28.7248 26.4532 28.7467C26.4002 28.7686 26.3598 28.7364 26.3403 28.7138C26.3299 28.7018 26.3221 28.6893 26.3171 28.6801C26.3146 28.6755 26.3126 28.6715 26.3112 28.6685C26.3108 28.6676 26.3104 28.6668 26.3101 28.6661C26.3099 28.6657 26.3097 28.6653 26.3096 28.6649L26.3091 28.6638L25.1308 26.0967C25.1483 26.2419 25.1882 26.3646 25.23 26.4921L25.2314 26.4963C25.3035 26.7163 25.3802 26.9502 25.3498 27.3263C25.3204 27.691 25.3684 27.8948 25.4283 28.048C25.4479 28.0982 25.4683 28.1419 25.4886 28.1853C25.5002 28.2103 25.5118 28.2351 25.5233 28.2611C25.5539 28.3308 25.5805 28.4036 25.5936 28.4922C25.6193 28.6665 25.5932 28.8051 25.5489 28.8976C25.5268 28.9435 25.4995 28.9798 25.47 29.0026C25.4418 29.0245 25.4025 29.0401 25.365 29.022C25.3475 29.0135 25.3342 28.9996 25.3282 28.9804C25.3228 28.9635 25.3245 28.9466 25.327 28.9333C25.3296 28.9196 25.3342 28.905 25.3389 28.8909C25.3406 28.8857 25.3424 28.8805 25.3442 28.8753C25.3475 28.8656 25.3509 28.8556 25.3544 28.8445C25.3751 28.7794 25.3936 28.6947 25.3586 28.5881C25.3407 28.5334 25.3074 28.4712 25.2658 28.3957C25.2626 28.3898 25.2593 28.3839 25.256 28.3779C25.2173 28.3078 25.1734 28.2283 25.133 28.1387C25.0449 27.9434 24.9731 27.6991 25.0012 27.3874C25.0275 27.0945 24.9403 26.8576 24.8456 26.603L24.8443 26.5993C24.7503 26.3467 24.6503 26.0778 24.663 25.7312L24.743 25.7341C24.7309 26.0647 24.8261 26.3209 24.9207 26.5751L24.9211 26.5762C25.0151 26.8291 25.1091 27.0817 25.0809 27.3946C25.0544 27.689 25.1219 27.9193 25.2059 28.1058C25.2449 28.1923 25.2874 28.2691 25.3262 28.3395C25.3295 28.3454 25.3327 28.3512 25.3359 28.357C25.3767 28.4311 25.414 28.5 25.4347 28.5632C25.4771 28.6924 25.4538 28.7961 25.4307 28.8687C25.4269 28.8805 25.423 28.8921 25.4195 28.9023C25.4178 28.9073 25.4162 28.9119 25.4148 28.9162C25.4102 28.9302 25.4071 28.9404 25.4056 28.9483C25.4056 28.9484 25.4056 28.9485 25.4056 28.9485C25.4091 28.9472 25.4141 28.9446 25.4209 28.9394C25.4378 28.9263 25.4583 28.9013 25.4767 28.863C25.5132 28.7869 25.5382 28.6648 25.5144 28.5039C25.5028 28.425 25.4791 28.3596 25.45 28.2933C25.44 28.2707 25.4291 28.2472 25.4178 28.2229C25.3967 28.1776 25.3741 28.1293 25.3537 28.0771C25.289 27.9116 25.2397 27.6955 25.2701 27.3198C25.2991 26.9599 25.2265 26.7384 25.1551 26.5206L25.154 26.517C25.0943 26.335 25.0356 26.1545 25.0419 25.9031L24.2607 24.2011L24.3335 24.1678L25.0545 25.7387C25.0549 25.7357 25.0553 25.7327 25.0557 25.7297L25.1351 25.7401C25.1283 25.7919 25.1242 25.8406 25.1225 25.8868L26.3825 28.6319L26.3827 28.6324L26.3828 28.6325L26.3828 28.6326L26.3828 28.6327C26.383 28.6331 26.3833 28.6337 26.3836 28.6345C26.3844 28.6361 26.3856 28.6386 26.3873 28.6416C26.3906 28.6477 26.3953 28.655 26.4008 28.6614C26.4131 28.6756 26.4188 28.6743 26.4227 28.6727" fill="#85340A"/>
<path d="M24.2785 24.0903L24.4631 28.998C24.4631 28.998 24.4631 29.0903 24.5246 29.0904C24.5862 29.0904 24.5862 28.9981 24.5862 28.9981L24.7708 24.0903M24.061 25.676C23.7782 26.2936 24.0211 26.7983 23.7387 27.3375C23.4563 27.8767 23.6328 28.3207 23.6139 28.5681C23.5951 28.8155 23.3926 28.8842 23.4437 28.9417C23.495 28.9992 23.7064 28.8852 23.789 28.5566C23.8715 28.2281 23.6745 28.0388 24.0131 27.3776C24.3517 26.7165 24.0827 26.4184 24.4227 25.8282" fill="#F6B40E"/>
<path fill-rule="evenodd" clip-rule="evenodd" d="M24.6256 28.9989L24.8103 24.0917L24.7303 24.0887L24.5456 28.9972L24.5456 28.9978L24.5456 28.9979L24.5456 28.9979L24.5456 28.9981C24.5456 28.9985 24.5456 28.9991 24.5455 29C24.5454 29.0018 24.5453 29.0046 24.5449 29.008C24.5441 29.0149 24.5426 29.0235 24.54 29.0315C24.534 29.0493 24.5283 29.0502 24.5241 29.0502M24.6256 28.9989L24.6256 28.9998C24.6256 29.0005 24.6256 29.0014 24.6255 29.0025C24.6255 29.0029 24.6255 29.0033 24.6255 29.0038C24.6253 29.007 24.625 29.0115 24.6244 29.0168C24.6233 29.0271 24.6209 29.0417 24.6159 29.0567C24.6065 29.0851 24.5815 29.1303 24.5241 29.1303C24.4667 29.1302 24.4417 29.085 24.4323 29.0567C24.4273 29.0416 24.4249 29.027 24.4238 29.0167C24.4232 29.0114 24.4229 29.0069 24.4228 29.0037C24.4227 29.0027 24.4227 29.0018 24.4227 29.0011C24.4226 29.0006 24.4226 29.0001 24.4226 28.9998L24.4226 28.9985L24.3164 26.1759C24.277 26.3168 24.2669 26.4454 24.2567 26.5792L24.2564 26.5836C24.2388 26.8145 24.2202 27.0599 24.0482 27.3957C23.8814 27.7214 23.8478 27.9281 23.8445 28.0925C23.8434 28.1464 23.8456 28.1946 23.8477 28.2425C23.8489 28.27 23.8501 28.2974 23.8507 28.3258C23.8523 28.4019 23.8491 28.4793 23.8272 28.5662C23.7843 28.7371 23.7071 28.8551 23.6308 28.9236C23.5929 28.9576 23.5537 28.9806 23.5177 28.9904C23.4833 28.9998 23.441 28.9993 23.4133 28.9681C23.4004 28.9536 23.3935 28.9357 23.3952 28.9157C23.3967 28.898 23.4047 28.883 23.4121 28.8717C23.4198 28.8601 23.4296 28.8483 23.4394 28.837C23.443 28.8329 23.4466 28.8288 23.4502 28.8247C23.457 28.8169 23.464 28.809 23.4714 28.8001C23.5155 28.7479 23.565 28.6767 23.5735 28.5649C23.5778 28.5075 23.5709 28.4372 23.5614 28.3516C23.5606 28.3449 23.5599 28.3382 23.5591 28.3314C23.5501 28.2518 23.54 28.1615 23.537 28.0633C23.5304 27.8492 23.5575 27.5961 23.7027 27.3188C23.8392 27.0583 23.8492 26.806 23.8592 26.5346L23.8593 26.5306C23.8692 26.2613 23.8797 25.9746 24.0241 25.6592L24.0969 25.6926C23.9592 25.9933 23.9491 26.2665 23.9392 26.5375L23.9391 26.5386C23.9292 26.8083 23.9193 27.0776 23.7736 27.3559C23.6364 27.6178 23.6106 27.8564 23.617 28.0609C23.6199 28.1557 23.6297 28.2429 23.6387 28.3228C23.6394 28.3295 23.6402 28.3361 23.6409 28.3427C23.6503 28.4267 23.6583 28.5047 23.6533 28.571C23.6429 28.7066 23.5818 28.7934 23.5326 28.8517C23.5247 28.8612 23.5166 28.8703 23.5095 28.8785C23.506 28.8824 23.5028 28.8861 23.4998 28.8895C23.4902 28.9006 23.4834 28.9089 23.479 28.9156C23.479 28.9157 23.4789 28.9158 23.4789 28.9158C23.4826 28.916 23.4883 28.9155 23.4966 28.9132C23.5172 28.9076 23.5457 28.8924 23.5773 28.864C23.6401 28.8077 23.71 28.7044 23.7496 28.5467C23.769 28.4694 23.7722 28.3999 23.7707 28.3275C23.7701 28.3027 23.769 28.2769 23.7679 28.2501C23.7657 28.2002 23.7634 28.1469 23.7645 28.0909C23.768 27.9132 23.8052 27.6947 23.977 27.3592C24.1416 27.0378 24.1593 26.8054 24.1766 26.5769L24.1769 26.5731C24.1915 26.3821 24.2064 26.1929 24.3084 25.963L24.238 24.0917L24.3179 24.0887L24.3829 25.816C24.3844 25.8134 24.3859 25.8108 24.3875 25.8081L24.4568 25.8481C24.4307 25.8933 24.4083 25.9368 24.3891 25.9788L24.5026 28.9971L24.5026 28.9977L24.5026 28.9978L24.5026 28.9979L24.5026 28.998C24.5026 28.9984 24.5027 28.9991 24.5027 29C24.5028 29.0018 24.503 29.0045 24.5033 29.0079C24.5041 29.0148 24.5056 29.0234 24.5082 29.0314C24.5142 29.0492 24.5199 29.0502 24.5241 29.0502" fill="#85340A"/>
<path d="M24.2974 23.9961L22.59 28.6008C22.59 28.6008 22.5545 28.6861 22.6114 28.7097C22.6683 28.7333 22.7036 28.648 22.7036 28.648L24.7523 24.1845M23.4897 25.3779C22.9921 25.8402 23.0233 26.3994 22.5561 26.7895C22.0889 27.1796 22.082 27.6574 21.9699 27.8787C21.8578 28.1 21.6444 28.086 21.6697 28.1587C21.695 28.2315 21.934 28.207 22.136 27.9351C22.338 27.6631 22.2285 27.4128 22.7943 26.9316C23.3601 26.4503 23.2256 26.072 23.7656 25.6569" fill="#F6B40E"/>
<path fill-rule="evenodd" clip-rule="evenodd" d="M22.7399 28.6641L24.7884 24.2011L24.7157 24.1677L22.6667 28.6319L22.6664 28.6324L22.6664 28.6325L22.6664 28.6326L22.6663 28.6327C22.6662 28.6331 22.6659 28.6337 22.6655 28.6345C22.6647 28.6361 22.6635 28.6386 22.6619 28.6416C22.6585 28.6477 22.6539 28.655 22.6483 28.6614C22.636 28.6756 22.6304 28.6743 22.6265 28.6727M22.7399 28.6641L22.7396 28.665C22.7393 28.6656 22.7389 28.6664 22.7385 28.6674C22.7383 28.6677 22.7381 28.6681 22.7379 28.6686C22.7365 28.6715 22.7346 28.6755 22.732 28.6801C22.727 28.6893 22.7192 28.7018 22.7088 28.7138C22.6893 28.7364 22.6488 28.7686 22.5958 28.7466C22.5429 28.7246 22.5371 28.6732 22.5392 28.6435C22.5403 28.6276 22.5437 28.6133 22.5466 28.6033C22.5481 28.5982 22.5496 28.5939 22.5507 28.5909C22.551 28.59 22.5513 28.5891 22.5516 28.5884C22.5517 28.588 22.5519 28.5876 22.552 28.5872L22.5525 28.5861L23.5345 25.9377C23.4443 26.0527 23.3857 26.1677 23.3251 26.2874L23.3231 26.2914C23.2185 26.4979 23.1074 26.7175 22.82 26.962C22.5413 27.1991 22.4311 27.3771 22.3651 27.5278C22.3435 27.5772 22.327 27.6225 22.3107 27.6675C22.3013 27.6934 22.2919 27.7192 22.2816 27.7457C22.2539 27.8166 22.2213 27.8869 22.1679 27.9588C22.0628 28.1002 21.9464 28.1798 21.8496 28.2138C21.8016 28.2307 21.7566 28.237 21.7196 28.2323C21.6842 28.2278 21.6454 28.2111 21.6317 28.1717C21.6253 28.1534 21.6257 28.1341 21.635 28.1163C21.6432 28.1006 21.6563 28.0898 21.6675 28.0822C21.679 28.0744 21.6926 28.0673 21.7059 28.0606C21.7108 28.0581 21.7157 28.0558 21.7206 28.0533C21.7299 28.0488 21.7393 28.0441 21.7497 28.0388C21.8103 28.0074 21.8833 27.9605 21.9339 27.8605C21.96 27.8091 21.9804 27.7416 22.0044 27.6588C22.0062 27.6523 22.0081 27.6458 22.01 27.6393C22.0322 27.5623 22.0574 27.475 22.0922 27.3831C22.168 27.1827 22.29 26.9593 22.5302 26.7587C22.756 26.5702 22.8618 26.341 22.9749 26.094L22.9765 26.0905C23.0887 25.8454 23.2082 25.5845 23.4622 25.3485L23.5167 25.4071C23.2744 25.6322 23.1606 25.8808 23.0477 26.1274L23.0472 26.1284C22.9348 26.3738 22.8226 26.6188 22.5815 26.8201C22.3546 27.0096 22.2394 27.2201 22.167 27.4115C22.1334 27.5002 22.1091 27.5845 22.0868 27.6618C22.085 27.6682 22.0831 27.6746 22.0813 27.681C22.0578 27.7622 22.0354 27.8374 22.0053 27.8966C21.9439 28.018 21.8542 28.0748 21.7865 28.1099C21.7755 28.1155 21.7646 28.1209 21.7548 28.1257C21.7501 28.128 21.7457 28.1302 21.7417 28.1322C21.7285 28.1388 21.7191 28.1438 21.7124 28.1484C21.7124 28.1484 21.7123 28.1485 21.7123 28.1485C21.7157 28.1501 21.7211 28.1518 21.7296 28.1529C21.7508 28.1556 21.7829 28.1524 21.8231 28.1383C21.9026 28.1103 22.0067 28.0416 22.1036 27.9111C22.1512 27.8471 22.1807 27.7841 22.207 27.7166C22.216 27.6936 22.2248 27.6693 22.234 27.644C22.2511 27.5971 22.2694 27.547 22.2918 27.4957C22.3631 27.3329 22.481 27.1452 22.7681 26.901C23.0432 26.667 23.1485 26.4591 23.252 26.2546L23.2537 26.2513C23.3402 26.0803 23.4264 25.9112 23.6086 25.7379L24.2597 23.9821L24.3347 24.0099L23.7337 25.6306C23.7361 25.6288 23.7385 25.6269 23.741 25.6251L23.7897 25.6885C23.7483 25.7203 23.711 25.7519 23.6771 25.7833L22.627 28.6154L22.6267 28.616L22.6267 28.616L22.6267 28.6161L22.6266 28.6162C22.6265 28.6166 22.6263 28.6172 22.626 28.618C22.6253 28.6197 22.6244 28.6224 22.6235 28.6256C22.6216 28.6323 22.6196 28.6408 22.619 28.6492C22.6177 28.6679 22.6226 28.6711 22.6265 28.6727" fill="#85340A"/>
<path d="M24.3503 23.9161L21.0107 27.5169C21.0107 27.5169 20.9453 27.5821 20.9888 27.6257C21.0323 27.6693 21.0976 27.604 21.0976 27.604L24.6985 24.2643M23.0753 24.8836C22.4386 25.1203 22.2535 25.6489 21.6726 25.8305C21.0916 26.0121 20.9024 26.4509 20.7142 26.6124C20.5259 26.774 20.3342 26.6794 20.3297 26.7562C20.3252 26.8332 20.5553 26.902 20.8461 26.7281C21.1368 26.5541 21.1313 26.281 21.8382 26.0529C22.5451 25.8248 22.5657 25.4238 23.2234 25.2469" fill="#F6B40E"/>
<path fill-rule="evenodd" clip-rule="evenodd" d="M21.1253 27.6329L24.7258 24.2935L24.6714 24.2348L21.0699 27.5751L21.0695 27.5755L21.0694 27.5755L21.0694 27.5756L21.0693 27.5757C21.069 27.5759 21.0685 27.5764 21.0679 27.577C21.0665 27.5782 21.0644 27.58 21.0618 27.5822C21.0563 27.5865 21.0492 27.5915 21.0417 27.5953C21.0249 27.6037 21.0202 27.6003 21.0172 27.5974M21.1253 27.6329L21.1246 27.6335C21.1241 27.634 21.1235 27.6346 21.1227 27.6353C21.1224 27.6356 21.1221 27.6359 21.1217 27.6362C21.1193 27.6384 21.116 27.6413 21.1118 27.6446C21.1037 27.6512 21.0917 27.6598 21.0775 27.6669C21.0508 27.6802 21.0011 27.6945 20.9606 27.6539C20.9201 27.6133 20.9344 27.5637 20.9477 27.537C20.9549 27.5228 20.9635 27.5108 20.97 27.5027C20.9733 27.4985 20.9763 27.4952 20.9784 27.4928C20.9791 27.4921 20.9797 27.4914 20.9802 27.4908C20.9806 27.4905 20.9809 27.4902 20.9811 27.4899L20.982 27.489L22.9028 25.418C22.7753 25.4898 22.6772 25.5736 22.5754 25.661L22.5721 25.6639C22.3964 25.8147 22.2097 25.9751 21.8506 26.0909C21.5024 26.2033 21.3325 26.3256 21.2139 26.4396C21.175 26.477 21.1424 26.5125 21.1101 26.5479C21.0915 26.5682 21.0729 26.5884 21.0533 26.6089C21.0006 26.6639 20.9436 26.7163 20.8667 26.7624C20.7155 26.8528 20.5775 26.8817 20.4751 26.8761C20.4242 26.8733 20.3803 26.8619 20.3478 26.8434C20.3169 26.8257 20.2874 26.7955 20.2898 26.7538C20.2909 26.7345 20.2987 26.7169 20.3141 26.7039C20.3276 26.6925 20.3439 26.6876 20.3572 26.6848C20.3708 26.682 20.3861 26.6806 20.4009 26.6796C20.4064 26.6792 20.4118 26.6788 20.4173 26.6785C20.4276 26.6778 20.4381 26.6772 20.4497 26.6762C20.5178 26.6704 20.6031 26.655 20.6882 26.582C20.7319 26.5445 20.7767 26.4899 20.8305 26.4226C20.8346 26.4173 20.8389 26.412 20.8431 26.4067C20.8931 26.3441 20.9497 26.2731 21.017 26.2015C21.1638 26.0454 21.362 25.8856 21.6607 25.7922C21.9414 25.7045 22.1269 25.5333 22.3259 25.3483L22.3288 25.3457C22.5262 25.1622 22.7364 24.9669 23.0614 24.846L23.0893 24.921C22.7793 25.0363 22.579 25.2223 22.3804 25.407L22.3795 25.4077C22.1818 25.5914 21.9844 25.7749 21.6846 25.8686C21.4024 25.9568 21.2155 26.1073 21.0754 26.2563C21.0104 26.3254 20.9556 26.394 20.9055 26.4569C20.9013 26.4621 20.8971 26.4674 20.893 26.4725C20.8402 26.5386 20.7908 26.5994 20.7403 26.6427C20.6371 26.7313 20.5325 26.7494 20.4565 26.7559C20.4442 26.757 20.432 26.7578 20.4212 26.7584C20.416 26.7588 20.4111 26.7591 20.4066 26.7594C20.3919 26.7605 20.3813 26.7616 20.3734 26.7632C20.3733 26.7632 20.3732 26.7632 20.3732 26.7632C20.3757 26.766 20.3801 26.7697 20.3875 26.7739C20.4061 26.7845 20.437 26.7939 20.4794 26.7962C20.5637 26.8008 20.6861 26.7772 20.8256 26.6937C20.894 26.6527 20.9454 26.6058 20.9955 26.5535C21.0126 26.5357 21.0301 26.5166 21.0483 26.4968C21.082 26.46 21.118 26.4207 21.1584 26.3819C21.2866 26.2588 21.4674 26.1305 21.826 26.0148C22.1697 25.9039 22.3466 25.752 22.5204 25.6027L22.5233 25.6003C22.6686 25.4755 22.813 25.3522 23.0476 25.2618L24.3211 23.8888L24.3798 23.9432L23.2043 25.2106C23.2072 25.2098 23.2102 25.209 23.2131 25.2082L23.2339 25.2855C23.1835 25.2991 23.1369 25.314 23.0936 25.33L21.0396 27.5446L21.0391 27.5451L21.0391 27.5451L21.039 27.5452L21.0389 27.5453C21.0387 27.5455 21.0382 27.546 21.0376 27.5467C21.0364 27.548 21.0346 27.5501 21.0325 27.5527C21.0281 27.5582 21.0231 27.5653 21.0193 27.5728C21.0109 27.5896 21.0143 27.5944 21.0172 27.5974" fill="#85340A"/>
<path d="M24.8347 25.8478C24.8674 26.4997 25.237 26.7883 25.1644 27.3824C25.3237 26.9126 24.9395 26.5484 24.9613 25.8546M24.4106 24.1441L25.8137 27.2096L24.638 24.0497" fill="#85340A"/>
<path d="M24.1383 25.8328C23.919 26.4475 24.15 26.8556 23.8556 27.3767C24.1826 27.0037 23.967 26.5202 24.2527 25.8875M24.3985 24.0964L24.5216 27.4655L24.6446 24.0963" fill="#85340A"/>
<path d="M23.5016 25.5524C23.0637 26.0365 23.121 26.5019 22.6496 26.8707C23.0945 26.6512 23.0803 26.1219 23.5863 25.6468M24.4065 24.0478L23.2309 27.2076L24.6339 24.1419" fill="#85340A"/>
<path d="M23.0197 25.0495C22.4299 25.3292 22.3046 25.7811 21.728 25.9414C22.223 25.9088 22.4125 25.4145 23.0619 25.1691M24.4314 24.0058L22.1362 26.4752L24.6056 24.1797" fill="#85340A"/>
<path d="M24.4297 23.8626L19.9663 25.9113C19.9663 25.9113 19.881 25.9466 19.9045 26.0035C19.928 26.0604 20.0133 26.025 20.0133 26.025L24.6182 24.3175M22.8815 24.2685C22.2027 24.2436 21.8294 24.6611 21.2232 24.6065C20.617 24.552 20.2743 24.885 20.0385 24.9622C19.8028 25.0395 19.6618 24.8787 19.6283 24.9479C19.5947 25.0173 19.781 25.169 20.1161 25.1195C20.4513 25.0701 20.5508 24.8156 21.2911 24.8754C22.0315 24.9352 22.204 24.5726 22.8793 24.6609" fill="#F6B40E"/>
<path fill-rule="evenodd" clip-rule="evenodd" d="M20.0285 26.0624L24.6328 24.3551L24.605 24.2801L19.9994 25.9878L19.9989 25.9881L19.9988 25.9881L19.9987 25.9881L19.9986 25.9882C19.9983 25.9883 19.9977 25.9885 19.9968 25.9888C19.9951 25.9895 19.9925 25.9903 19.9892 25.9913C19.9825 25.9932 19.974 25.9951 19.9656 25.9957C19.9469 25.9971 19.9438 25.9922 19.9422 25.9883M20.0285 26.0624L20.0276 26.0628C20.0269 26.063 20.0261 26.0633 20.0251 26.0637C20.0248 26.0638 20.0243 26.064 20.0239 26.0641C20.0209 26.0652 20.0166 26.0667 20.0115 26.0682C20.0015 26.0711 19.9872 26.0744 19.9713 26.0756C19.9416 26.0777 19.8902 26.0719 19.8682 26.0189C19.8464 25.9659 19.8786 25.9254 19.9011 25.9059C19.9132 25.8955 19.9257 25.8878 19.9348 25.8827C19.9395 25.8802 19.9435 25.8782 19.9464 25.8768C19.9473 25.8764 19.9481 25.876 19.9488 25.8757C19.9492 25.8755 19.9496 25.8753 19.95 25.8752L19.9511 25.8747L22.5182 24.6964C22.373 24.7139 22.2503 24.7538 22.1228 24.7956L22.1186 24.797C21.8986 24.8691 21.6647 24.9458 21.2887 24.9155C20.9239 24.886 20.7201 24.934 20.567 24.9939C20.5167 25.0135 20.4731 25.0339 20.4296 25.0542C20.4047 25.0658 20.3798 25.0774 20.3538 25.0889C20.2841 25.1195 20.2114 25.1461 20.1227 25.1592C19.9484 25.1849 19.8098 25.1588 19.7173 25.1145C19.6714 25.0924 19.6352 25.0651 19.6123 25.0356C19.5905 25.0074 19.5748 24.9681 19.593 24.9306C19.6014 24.9132 19.6154 24.8998 19.6345 24.8938C19.6514 24.8884 19.6683 24.8901 19.6816 24.8926C19.6953 24.8952 19.7099 24.8998 19.724 24.9045C19.7293 24.9063 19.7344 24.908 19.7396 24.9098C19.7494 24.9131 19.7593 24.9165 19.7704 24.92C19.8355 24.9407 19.9203 24.9592 20.0268 24.9243C20.0815 24.9063 20.1438 24.8731 20.2192 24.8314C20.2251 24.8282 20.231 24.8249 20.237 24.8216C20.3071 24.7829 20.3867 24.739 20.4762 24.6986C20.6716 24.6105 20.9158 24.5388 21.2275 24.5668C21.5204 24.5932 21.7573 24.5059 22.0119 24.4113L22.0156 24.4099C22.2682 24.3159 22.5372 24.2159 22.8837 24.2287L22.8808 24.3086C22.5502 24.2965 22.294 24.3917 22.0398 24.4863L22.0388 24.4867C21.7858 24.5807 21.5332 24.6747 21.2204 24.6465C20.9259 24.62 20.6956 24.6875 20.5091 24.7716C20.4226 24.8105 20.3458 24.853 20.2754 24.8918C20.2695 24.8951 20.2637 24.8983 20.2579 24.9015C20.1839 24.9423 20.1149 24.9796 20.0517 25.0003C19.9225 25.0427 19.8189 25.0194 19.7462 24.9963C19.7344 24.9926 19.7229 24.9886 19.7126 24.9851C19.7077 24.9835 19.703 24.9819 19.6987 24.9804C19.6847 24.9758 19.6745 24.9727 19.6666 24.9712C19.6665 24.9712 19.6665 24.9712 19.6664 24.9712C19.6677 24.9747 19.6703 24.9798 19.6756 24.9865C19.6887 25.0034 19.7136 25.0239 19.752 25.0423C19.828 25.0788 19.9501 25.1038 20.111 25.08C20.1899 25.0684 20.2553 25.0447 20.3216 25.0156C20.3443 25.0056 20.3677 24.9947 20.392 24.9834C20.4373 24.9623 20.4857 24.9398 20.5378 24.9194C20.7033 24.8546 20.9194 24.8053 21.2951 24.8357C21.6551 24.8647 21.8766 24.7921 22.0943 24.7207L22.0979 24.7196C22.2799 24.6599 22.4605 24.6012 22.7119 24.6075L24.4138 23.8264L24.4472 23.8991L22.8762 24.6202C22.8792 24.6205 22.8822 24.6209 22.8852 24.6213L22.8749 24.7007C22.8231 24.6939 22.7744 24.6899 22.7282 24.6881L19.983 25.9481L19.9825 25.9483L19.9824 25.9484L19.9823 25.9484L19.9822 25.9485C19.9819 25.9486 19.9813 25.9489 19.9805 25.9493C19.9788 25.95 19.9763 25.9512 19.9734 25.9529C19.9672 25.9562 19.9599 25.9609 19.9535 25.9664C19.9393 25.9787 19.9406 25.9844 19.9422 25.9883" fill="#85340A"/>
<path d="M24.5242 23.8439L19.6165 24.0286C19.6165 24.0286 19.5242 24.0285 19.5241 24.0901C19.5241 24.1516 19.6164 24.1516 19.6164 24.1516L24.5242 24.3363M22.9385 23.6265C22.3209 23.3436 21.8162 23.5865 21.277 23.3041C20.7378 23.0218 20.2938 23.1982 20.0464 23.1793C19.799 23.1605 19.7303 22.958 19.6728 23.0092C19.6153 23.0604 19.7293 23.2718 20.0579 23.3544C20.3864 23.437 20.5757 23.24 21.2369 23.5786C21.898 23.9171 22.1961 23.6481 22.7863 23.9881" fill="#F6B40E"/>
<path fill-rule="evenodd" clip-rule="evenodd" d="M19.616 24.1915L24.5232 24.3762L24.5262 24.2962L19.6177 24.1115L19.6172 24.1115L19.6171 24.1115L19.617 24.1115L19.6168 24.1115C19.6165 24.1114 19.6158 24.1114 19.6149 24.1114C19.6131 24.1113 19.6103 24.1111 19.607 24.1107C19.6 24.11 19.5915 24.1085 19.5835 24.1058C19.5656 24.0999 19.5647 24.0942 19.5647 24.09M19.616 24.1915L19.6151 24.1915C19.6144 24.1915 19.6135 24.1914 19.6125 24.1914C19.612 24.1914 19.6116 24.1914 19.6111 24.1913C19.6079 24.1912 19.6035 24.1909 19.5982 24.1903C19.5878 24.1892 19.5733 24.1868 19.5582 24.1818C19.5299 24.1723 19.4846 24.1473 19.4847 24.0899C19.4847 24.0326 19.53 24.0076 19.5583 23.9981C19.5734 23.9931 19.5879 23.9908 19.5983 23.9896C19.6035 23.9891 19.608 23.9888 19.6112 23.9886C19.6122 23.9886 19.6131 23.9885 19.6139 23.9885C19.6144 23.9885 19.6148 23.9885 19.6152 23.9885L19.6164 23.9885L22.439 23.8822C22.2982 23.8429 22.1695 23.8328 22.0357 23.8226L22.0313 23.8222C21.8005 23.8047 21.555 23.786 21.2192 23.6141C20.8935 23.4473 20.6868 23.4136 20.5224 23.4104C20.4685 23.4093 20.4204 23.4114 20.3725 23.4135C20.345 23.4147 20.3176 23.4159 20.2892 23.4165C20.213 23.4181 20.1357 23.4149 20.0487 23.3931C19.8778 23.3501 19.7598 23.273 19.6913 23.1966C19.6574 23.1587 19.6343 23.1195 19.6245 23.0835C19.6151 23.0491 19.6157 23.0069 19.6468 22.9792C19.6613 22.9663 19.6793 22.9593 19.6993 22.961C19.7169 22.9626 19.7319 22.9706 19.7432 22.978C19.7549 22.9856 19.7667 22.9955 19.7779 23.0052C19.782 23.0088 19.7861 23.0124 19.7902 23.016C19.798 23.0229 19.8059 23.0298 19.8148 23.0373C19.867 23.0813 19.9383 23.1308 20.05 23.1393C20.1074 23.1437 20.1777 23.1368 20.2634 23.1272C20.27 23.1265 20.2767 23.1257 20.2835 23.1249C20.3631 23.116 20.4534 23.1058 20.5516 23.1028C20.7658 23.0962 21.0189 23.1234 21.2962 23.2686C21.5567 23.405 21.8089 23.4151 22.0804 23.425L22.0843 23.4252C22.3536 23.4351 22.6404 23.4456 22.9557 23.59L22.9224 23.6627C22.6216 23.525 22.3485 23.515 22.0774 23.505L22.0763 23.505C21.8066 23.4951 21.5373 23.4852 21.259 23.3395C20.9971 23.2023 20.7586 23.1765 20.5541 23.1828C20.4593 23.1857 20.3721 23.1955 20.2921 23.2045C20.2855 23.2053 20.2788 23.206 20.2722 23.2068C20.1882 23.2161 20.1102 23.2242 20.044 23.2191C19.9084 23.2088 19.8215 23.1476 19.7632 23.0985C19.7538 23.0905 19.7446 23.0825 19.7365 23.0753C19.7325 23.0719 19.7288 23.0686 19.7254 23.0657C19.7143 23.056 19.706 23.0493 19.6993 23.0449C19.6992 23.0448 19.6992 23.0448 19.6991 23.0448C19.699 23.0485 19.6994 23.0542 19.7017 23.0625C19.7073 23.0831 19.7225 23.1115 19.7509 23.1432C19.8073 23.206 19.9105 23.2758 20.0682 23.3155C20.1455 23.3349 20.215 23.338 20.2875 23.3365C20.3122 23.336 20.338 23.3349 20.3649 23.3337C20.4147 23.3316 20.468 23.3292 20.524 23.3304C20.7017 23.3339 20.9202 23.371 21.2557 23.5428C21.5771 23.7074 21.8096 23.7251 22.0381 23.7425L22.0418 23.7428C22.2328 23.7573 22.4221 23.7722 22.6519 23.8742L24.5232 23.8038L24.5262 23.8838L22.7989 23.9488C22.8015 23.9503 22.8042 23.9518 22.8068 23.9533L22.7669 24.0227C22.7216 23.9966 22.6781 23.9742 22.6361 23.9549L19.6178 24.0685L19.6172 24.0685L19.6171 24.0685L19.617 24.0685L19.6169 24.0685C19.6165 24.0685 19.6159 24.0685 19.615 24.0686C19.6132 24.0686 19.6104 24.0688 19.607 24.0692C19.6001 24.07 19.5915 24.0714 19.5835 24.0741C19.5657 24.08 19.5647 24.0858 19.5647 24.09" fill="#85340A"/>
<path d="M24.6192 23.8626L20.0144 22.1551C20.0144 22.1551 19.9292 22.1197 19.9056 22.1766C19.882 22.2335 19.9673 22.2688 19.9673 22.2688L24.4308 24.3175M23.2374 23.0549C22.7751 22.5573 22.2158 22.5885 21.8258 22.1213C21.4357 21.6541 20.9579 21.6472 20.7366 21.5351C20.5153 21.423 20.5293 21.2096 20.4566 21.2349C20.3838 21.2602 20.4083 21.4992 20.6802 21.7012C20.9522 21.9032 21.2024 21.7937 21.6837 22.3595C22.165 22.9253 22.5433 22.7908 22.9584 23.3308" fill="#F6B40E"/>
<path fill-rule="evenodd" clip-rule="evenodd" d="M19.9507 22.3053L24.4137 24.3538L24.4471 24.2811L19.9829 22.232L19.9824 22.2318L19.9823 22.2318L19.9822 22.2317L19.9821 22.2317C19.9817 22.2315 19.9812 22.2313 19.9803 22.2309C19.9787 22.2301 19.9762 22.2289 19.9732 22.2272C19.9671 22.2239 19.9598 22.2192 19.9534 22.2137C19.9392 22.2014 19.9405 22.1958 19.9421 22.1919M19.9507 22.3053L19.9498 22.3049C19.9492 22.3046 19.9484 22.3043 19.9474 22.3038C19.9471 22.3037 19.9467 22.3035 19.9463 22.3033C19.9433 22.3019 19.9393 22.2999 19.9347 22.2974C19.9255 22.2923 19.913 22.2846 19.901 22.2742C19.8784 22.2546 19.8462 22.2142 19.8682 22.1612C19.8902 22.1082 19.9416 22.1024 19.9713 22.1046C19.9872 22.1057 20.0015 22.1091 20.0115 22.112C20.0166 22.1135 20.0209 22.1149 20.0239 22.116C20.0248 22.1164 20.0257 22.1167 20.0264 22.1169C20.0268 22.1171 20.0272 22.1173 20.0276 22.1174L20.0288 22.1179L22.6771 23.0999C22.5621 23.0096 22.4471 22.951 22.3274 22.8905L22.3235 22.8885C22.1169 22.7839 21.8973 22.6727 21.6528 22.3854C21.4158 22.1066 21.2377 21.9964 21.087 21.9305C21.0376 21.9089 20.9923 21.8924 20.9473 21.876C20.9214 21.8666 20.8956 21.8572 20.8692 21.8469C20.7982 21.8193 20.7279 21.7867 20.656 21.7333C20.5146 21.6282 20.435 21.5117 20.401 21.415C20.3841 21.367 20.3778 21.322 20.3825 21.2849C20.387 21.2495 20.4037 21.2107 20.4431 21.197C20.4614 21.1907 20.4807 21.1911 20.4985 21.2004C20.5142 21.2085 20.525 21.2217 20.5326 21.2328C20.5404 21.2444 20.5476 21.258 20.5542 21.2713C20.5567 21.2762 20.5591 21.2811 20.5615 21.286C20.566 21.2953 20.5707 21.3047 20.576 21.315C20.6074 21.3757 20.6543 21.4487 20.7543 21.4993C20.8057 21.5253 20.8732 21.5458 20.956 21.5698C20.9625 21.5716 20.969 21.5735 20.9756 21.5754C21.0525 21.5976 21.1398 21.6228 21.2317 21.6575C21.4321 21.7334 21.6555 21.8553 21.8561 22.0956C22.0446 22.3213 22.2738 22.4272 22.5208 22.5403L22.5243 22.5419C22.7694 22.6541 23.0303 22.7735 23.2663 23.0276L23.2077 23.0821C22.9826 22.8398 22.734 22.7259 22.4874 22.613L22.4864 22.6126C22.241 22.5002 21.996 22.388 21.7947 22.1469C21.6052 21.9199 21.3947 21.8048 21.2033 21.7324C21.1146 21.6988 21.0303 21.6745 20.953 21.6522C20.9466 21.6503 20.9402 21.6485 20.9338 21.6466C20.8526 21.6232 20.7775 21.6007 20.7182 21.5707C20.5968 21.5093 20.54 21.4196 20.505 21.3518C20.4993 21.3409 20.4939 21.3299 20.4891 21.3202C20.4868 21.3155 20.4846 21.3111 20.4826 21.3071C20.476 21.2939 20.471 21.2845 20.4664 21.2778C20.4664 21.2778 20.4663 21.2777 20.4663 21.2777C20.4647 21.281 20.463 21.2865 20.4619 21.295C20.4592 21.3162 20.4624 21.3483 20.4765 21.3884C20.5045 21.468 20.5732 21.572 20.7037 21.669C20.7677 21.7166 20.8307 21.7461 20.8982 21.7724C20.9213 21.7813 20.9456 21.7902 20.9708 21.7994C21.0177 21.8165 21.0678 21.8347 21.1191 21.8572C21.2819 21.9284 21.4696 22.0464 21.7138 22.3335C21.9478 22.6086 22.1557 22.7139 22.3602 22.8174L22.3635 22.819C22.5345 22.9056 22.7036 22.9918 22.8769 23.174L24.6327 23.825L24.6049 23.9001L22.9842 23.2991C22.986 23.3015 22.9879 23.3039 22.9898 23.3063L22.9263 23.3551C22.8945 23.3137 22.8629 23.2764 22.8315 23.2425L19.9994 22.1923L19.9989 22.1921L19.9988 22.1921L19.9987 22.192L19.9986 22.192C19.9982 22.1919 19.9976 22.1916 19.9968 22.1913C19.9951 22.1907 19.9924 22.1898 19.9892 22.1889C19.9825 22.1869 19.974 22.185 19.9656 22.1844C19.9469 22.1831 19.9437 22.188 19.9421 22.1919" fill="#85340A"/>
<path d="M24.6989 23.916L21.0981 20.5763C21.0981 20.5763 21.0329 20.511 20.9893 20.5545C20.9457 20.598 21.011 20.6633 21.011 20.6633L24.3507 24.2642M23.7314 22.641C23.4947 22.0043 22.9661 21.8192 22.7845 21.2382C22.6029 20.6573 22.1641 20.4681 22.0026 20.2798C21.841 20.0916 21.9356 19.8998 21.8588 19.8953C21.7818 19.8909 21.713 20.121 21.8869 20.4117C22.0608 20.7024 22.334 20.697 22.5621 21.4039C22.7902 22.1108 23.1912 22.1314 23.3681 22.7891" fill="#F6B40E"/>
<path fill-rule="evenodd" clip-rule="evenodd" d="M20.9817 20.6908L24.321 24.2913L24.3797 24.2369L21.0395 20.6355L21.0391 20.6351L21.039 20.635L21.039 20.6349L21.0389 20.6348C21.0386 20.6346 21.0382 20.6341 21.0376 20.6334C21.0363 20.6321 21.0345 20.63 21.0324 20.6274C21.028 20.6219 21.023 20.6148 21.0193 20.6073C21.0108 20.5905 21.0142 20.5857 21.0172 20.5828M20.9817 20.6908L20.9811 20.6902C20.9806 20.6897 20.98 20.689 20.9792 20.6882C20.979 20.6879 20.9787 20.6876 20.9784 20.6873C20.9762 20.6849 20.9732 20.6815 20.9699 20.6774C20.9634 20.6692 20.9548 20.6573 20.9477 20.6431C20.9343 20.6164 20.92 20.5667 20.9606 20.5261C21.0012 20.4856 21.0509 20.4999 21.0776 20.5133C21.0918 20.5204 21.1037 20.529 21.1119 20.5356C21.116 20.5389 21.1194 20.5418 21.1218 20.544C21.1225 20.5447 21.1232 20.5453 21.1237 20.5458C21.1241 20.5461 21.1244 20.5464 21.1247 20.5467L21.1255 20.5475L23.1965 22.4683C23.1248 22.3409 23.0409 22.2428 22.9536 22.141L22.9507 22.1376C22.7998 21.962 22.6395 21.7752 22.5236 21.4162C22.4113 21.0679 22.2889 20.898 22.175 20.7794C22.1376 20.7405 22.1021 20.708 22.0667 20.6756C22.0464 20.657 22.0262 20.6385 22.0057 20.6188C21.9507 20.5662 21.8982 20.5092 21.8522 20.4322C21.7618 20.2811 21.7329 20.143 21.7384 20.0406C21.7412 19.9898 21.7526 19.9458 21.7711 19.9134C21.7888 19.8824 21.8191 19.8529 21.8607 19.8554C21.8801 19.8565 21.8977 19.8643 21.9106 19.8796C21.922 19.8932 21.927 19.9095 21.9297 19.9227C21.9326 19.9363 21.9339 19.9516 21.935 19.9665C21.9354 19.972 21.9357 19.9774 21.9361 19.9829C21.9367 19.9932 21.9374 20.0037 21.9384 20.0152C21.9442 20.0833 21.9596 20.1687 22.0326 20.2537C22.0701 20.2974 22.1247 20.3422 22.192 20.396C22.1972 20.4002 22.2025 20.4044 22.2079 20.4087C22.2705 20.4586 22.3415 20.5153 22.4131 20.5826C22.5692 20.7294 22.729 20.9275 22.8224 21.2263C22.9101 21.507 23.0813 21.6924 23.2662 21.8914L23.2689 21.8943C23.4524 22.0918 23.6477 22.3019 23.7685 22.627L23.6935 22.6549C23.5783 22.3449 23.3922 22.1446 23.2076 21.9459L23.2068 21.9451C23.0231 21.7474 22.8397 21.55 22.746 21.2502C22.6577 20.968 22.5073 20.781 22.3582 20.6409C22.2891 20.5759 22.2205 20.5212 22.1577 20.471C22.1524 20.4668 22.1472 20.4627 22.142 20.4585C22.076 20.4058 22.0151 20.3563 21.9719 20.3059C21.8833 20.2027 21.8651 20.098 21.8586 20.0221C21.8576 20.0097 21.8568 19.9976 21.8561 19.9868C21.8558 19.9815 21.8555 19.9766 21.8551 19.9721C21.8541 19.9574 21.853 19.9468 21.8514 19.9389C21.8514 19.9389 21.8513 19.9388 21.8513 19.9387C21.8486 19.9413 21.8449 19.9456 21.8406 19.9531C21.83 19.9716 21.8207 20.0025 21.8184 20.045C21.8138 20.1292 21.8374 20.2516 21.9209 20.3911C21.9618 20.4596 22.0087 20.5109 22.061 20.5611C22.0789 20.5782 22.098 20.5957 22.1177 20.6138C22.1545 20.6475 22.1939 20.6836 22.2327 20.724C22.3558 20.8521 22.4841 21.0329 22.5998 21.3916C22.7107 21.7353 22.8625 21.9121 23.0118 22.086L23.0143 22.0888C23.1391 22.2342 23.2623 22.3785 23.3527 22.6132L24.7258 23.8866L24.6713 23.9453L23.404 22.7699C23.4048 22.7728 23.4056 22.7757 23.4064 22.7787L23.3291 22.7995C23.3155 22.749 23.3006 22.7024 23.2845 22.6591L21.0699 20.6051L21.0695 20.6047L21.0695 20.6046L21.0694 20.6046L21.0693 20.6045C21.069 20.6042 21.0686 20.6038 21.0679 20.6032C21.0665 20.6019 21.0645 20.6001 21.0618 20.598C21.0564 20.5936 21.0493 20.5886 21.0417 20.5849C21.0249 20.5764 21.0202 20.5798 21.0172 20.5828" fill="#85340A"/>
<path d="M22.7669 24.4005C22.115 24.4332 21.8263 24.8028 21.2323 24.7302C21.7021 24.8895 22.0663 24.5053 22.7601 24.5271M24.4706 23.9764L21.4051 25.3795L24.5649 24.2038" fill="#85340A"/>
<path d="M22.782 23.7044C22.1672 23.4851 21.7591 23.7161 21.238 23.4217C21.6111 23.7487 22.0946 23.5331 22.7273 23.8188M24.5183 23.9646L21.1492 24.0877L24.5185 24.2107" fill="#85340A"/>
<path d="M23.0625 23.0668C22.5785 22.629 22.113 22.6862 21.7443 22.2148C21.9638 22.6597 22.493 22.6455 22.9682 23.1516M24.5671 23.9717L21.4073 22.7961L24.473 24.1992" fill="#85340A"/>
<path d="M23.5656 22.5853C23.286 21.9955 22.8341 21.8703 22.6738 21.2936C22.7063 21.7886 23.2007 21.9781 23.446 22.6275M24.6094 23.997L22.14 21.7018L24.4354 24.1712" fill="#85340A"/>
<path d="M24.7524 23.9959L22.7038 19.5325C22.7038 19.5325 22.6685 19.4472 22.6116 19.4707C22.5547 19.4942 22.5901 19.5795 22.5901 19.5795L24.2976 24.1843M24.3465 22.4477C24.3715 21.7689 23.9539 21.3955 24.0085 20.7894C24.063 20.1831 23.7301 19.8404 23.6529 19.6047C23.5756 19.3689 23.7364 19.228 23.6671 19.1944C23.5978 19.1609 23.4461 19.3471 23.4955 19.6823C23.545 20.0174 23.7994 20.1169 23.7396 20.8573C23.6798 21.5977 24.0424 21.7701 23.9542 22.4455" fill="#F6B40E"/>
<path fill-rule="evenodd" clip-rule="evenodd" d="M22.5515 19.5939L24.2588 24.1983L24.3339 24.1705L22.6261 19.5649L22.6259 19.5644L22.6259 19.5643L22.6258 19.5642L22.6258 19.5641C22.6256 19.5638 22.6254 19.5631 22.6251 19.5623C22.6245 19.5606 22.6236 19.558 22.6227 19.5547C22.6207 19.548 22.6188 19.5395 22.6182 19.5311C22.6169 19.5124 22.6218 19.5093 22.6257 19.5077M22.5515 19.5939L22.5512 19.5931C22.5509 19.5924 22.5506 19.5916 22.5503 19.5906C22.5501 19.5902 22.55 19.5898 22.5498 19.5894C22.5487 19.5864 22.5473 19.5821 22.5458 19.577C22.5429 19.567 22.5395 19.5527 22.5384 19.5368C22.5362 19.507 22.5421 19.4557 22.5951 19.4337C22.6481 19.4118 22.6885 19.4441 22.7081 19.4666C22.7185 19.4786 22.7262 19.4912 22.7312 19.5003C22.7338 19.505 22.7358 19.509 22.7371 19.5119C22.7376 19.5128 22.7379 19.5136 22.7382 19.5143C22.7384 19.5147 22.7386 19.5151 22.7388 19.5155L22.7393 19.5166L23.9175 22.0837C23.9 21.9385 23.8601 21.8158 23.8183 21.6883L23.817 21.6841C23.7448 21.4641 23.6681 21.2302 23.6985 20.8542C23.728 20.4894 23.68 20.2856 23.6201 20.1325C23.6004 20.0822 23.58 20.0386 23.5597 19.9951C23.5481 19.9702 23.5365 19.9453 23.5251 19.9193C23.4945 19.8496 23.4678 19.7769 23.4547 19.6882C23.429 19.5139 23.4551 19.3753 23.4995 19.2828C23.5215 19.2369 23.5489 19.2007 23.5784 19.1778C23.6066 19.1559 23.6458 19.1403 23.6834 19.1585C23.7008 19.1669 23.7141 19.1809 23.7202 19.2C23.7255 19.2169 23.7239 19.2338 23.7214 19.2471C23.7187 19.2608 23.7141 19.2754 23.7094 19.2895C23.7077 19.2948 23.7059 19.2999 23.7042 19.3051C23.7008 19.3149 23.6974 19.3248 23.6939 19.3359C23.6732 19.401 23.6548 19.4858 23.6897 19.5923C23.7076 19.647 23.7409 19.7093 23.7825 19.7847C23.7857 19.7906 23.789 19.7965 23.7923 19.8025C23.8311 19.8726 23.875 19.9522 23.9154 20.0417C24.0034 20.2371 24.0752 20.4813 24.0472 20.793C24.0208 21.0859 24.108 21.3228 24.2027 21.5774L24.2041 21.5811C24.298 21.8337 24.398 22.1027 24.3853 22.4492L24.3053 22.4463C24.3175 22.1157 24.2222 21.8595 24.1277 21.6053L24.1273 21.6042C24.0332 21.3513 23.9393 21.0987 23.9675 20.7859C23.9939 20.4914 23.9265 20.2611 23.8424 20.0746C23.8034 19.9881 23.761 19.9113 23.7221 19.8409C23.7189 19.835 23.7156 19.8292 23.7124 19.8234C23.6716 19.7494 23.6343 19.6804 23.6136 19.6172C23.5713 19.488 23.5946 19.3844 23.6176 19.3117C23.6214 19.2999 23.6253 19.2884 23.6288 19.2781C23.6305 19.2731 23.6321 19.2685 23.6335 19.2642C23.6382 19.2502 23.6412 19.24 23.6427 19.2321C23.6428 19.232 23.6428 19.232 23.6428 19.2319C23.6393 19.2332 23.6342 19.2358 23.6274 19.2411C23.6105 19.2541 23.59 19.2791 23.5717 19.3174C23.5352 19.3935 23.5102 19.5156 23.5339 19.6765C23.5456 19.7554 23.5692 19.8208 23.5984 19.8871C23.6083 19.9098 23.6192 19.9332 23.6306 19.9575C23.6517 20.0028 23.6742 20.0511 23.6946 20.1033C23.7593 20.2688 23.8086 20.4849 23.7783 20.8606C23.7492 21.2206 23.8218 21.442 23.8932 21.6598L23.8944 21.6634C23.9541 21.8454 24.0127 22.0259 24.0064 22.2773L24.7876 23.9793L24.7149 24.0127L23.9938 22.4417C23.9934 22.4447 23.993 22.4477 23.9926 22.4507L23.9133 22.4404C23.92 22.3886 23.9241 22.3398 23.9258 22.2937L22.6658 19.5485L22.6656 19.548L22.6656 19.5479L22.6656 19.5478L22.6655 19.5477C22.6653 19.5474 22.6651 19.5468 22.6647 19.5459C22.6639 19.5443 22.6627 19.5418 22.6611 19.5389C22.6577 19.5327 22.6531 19.5254 22.6475 19.519C22.6353 19.5048 22.6296 19.5061 22.6257 19.5077" fill="#85340A"/>
<path d="M24.7713 24.0901L24.5867 19.1824C24.5867 19.1824 24.5867 19.0901 24.5252 19.09C24.4636 19.09 24.4636 19.1824 24.4636 19.1824L24.279 24.0901M24.9888 22.5044C25.2716 21.8868 25.0287 21.3821 25.3111 20.843C25.5935 20.3037 25.417 19.8597 25.4359 19.6123C25.4547 19.365 25.6572 19.2963 25.6061 19.2388C25.5548 19.1812 25.3434 19.2952 25.2609 19.6238C25.1783 19.9524 25.3753 20.1417 25.0367 20.8028C24.6981 21.4639 24.9671 21.762 24.6271 22.3522" fill="#F6B40E"/>
<path fill-rule="evenodd" clip-rule="evenodd" d="M24.4227 19.1815L24.238 24.0887L24.318 24.0917L24.5027 19.1832L24.5027 19.1826L24.5027 19.1826L24.5027 19.1825L24.5027 19.1823C24.5027 19.182 24.5028 19.1813 24.5028 19.1804C24.5029 19.1786 24.5031 19.1758 24.5034 19.1725C24.5042 19.1655 24.5057 19.157 24.5084 19.149C24.5143 19.1311 24.52 19.1302 24.5242 19.1302M24.4227 19.1815L24.4227 19.1806C24.4227 19.1799 24.4228 19.179 24.4228 19.1779C24.4228 19.1775 24.4228 19.1771 24.4229 19.1766C24.423 19.1734 24.4233 19.1689 24.4239 19.1637C24.425 19.1533 24.4274 19.1388 24.4324 19.1237C24.4419 19.0954 24.4669 19.0501 24.5243 19.0502C24.5816 19.0502 24.6066 19.0954 24.616 19.1238C24.6211 19.1389 24.6234 19.1534 24.6246 19.1637C24.6251 19.169 24.6254 19.1735 24.6256 19.1767C24.6256 19.1777 24.6257 19.1786 24.6257 19.1794C24.6257 19.1798 24.6257 19.1803 24.6257 19.1807L24.6257 19.1819L24.732 22.0045C24.7713 21.8636 24.7814 21.735 24.7916 21.6012L24.792 21.5968C24.8095 21.366 24.8282 21.1205 25.0001 20.7847C25.1669 20.459 25.2006 20.2523 25.2038 20.0879C25.2049 20.034 25.2028 19.9859 25.2007 19.9379C25.1995 19.9105 25.1983 19.883 25.1977 19.8546C25.1961 19.7785 25.1993 19.7011 25.2211 19.6142C25.2641 19.4433 25.3412 19.3253 25.4176 19.2568C25.4555 19.2228 25.4946 19.1998 25.5307 19.19C25.5651 19.1806 25.6073 19.1812 25.635 19.2123C25.6479 19.2268 25.6549 19.2448 25.6532 19.2648C25.6516 19.2824 25.6436 19.2974 25.6362 19.3087C25.6286 19.3204 25.6187 19.3321 25.609 19.3434C25.6054 19.3475 25.6018 19.3516 25.5982 19.3557C25.5913 19.3635 25.5844 19.3714 25.5769 19.3803C25.5329 19.4325 25.4834 19.5037 25.4749 19.6155C25.4705 19.6729 25.4774 19.7432 25.487 19.8288C25.4877 19.8355 25.4885 19.8422 25.4893 19.849C25.4982 19.9286 25.5084 20.0189 25.5114 20.1171C25.518 20.3313 25.4908 20.5844 25.3456 20.8617C25.2092 21.1222 25.1991 21.3744 25.1892 21.6459L25.189 21.6498C25.1791 21.9191 25.1686 22.2059 25.0242 22.5212L24.9515 22.4879C25.0892 22.1871 25.0992 21.914 25.1092 21.6429L25.1092 21.6418C25.1191 21.3721 25.129 21.1028 25.2747 20.8245C25.4119 20.5626 25.4377 20.3241 25.4314 20.1196C25.4285 20.0248 25.4187 19.9375 25.4097 19.8576C25.4089 19.8509 25.4082 19.8443 25.4074 19.8377C25.3981 19.7537 25.39 19.6757 25.3951 19.6094C25.4054 19.4739 25.4666 19.387 25.5157 19.3287C25.5237 19.3192 25.5317 19.3101 25.5389 19.302C25.5423 19.298 25.5456 19.2943 25.5485 19.2909C25.5582 19.2798 25.5649 19.2715 25.5693 19.2648C25.5694 19.2647 25.5694 19.2647 25.5694 19.2646C25.5657 19.2644 25.56 19.2649 25.5517 19.2672C25.5311 19.2728 25.5027 19.288 25.471 19.3164C25.4082 19.3727 25.3384 19.476 25.2987 19.6337C25.2793 19.711 25.2762 19.7805 25.2777 19.853C25.2782 19.8777 25.2793 19.9035 25.2805 19.9303C25.2826 19.9802 25.285 20.0335 25.2838 20.0895C25.2803 20.2672 25.2432 20.4857 25.0714 20.8212C24.9068 21.1426 24.8891 21.375 24.8717 21.6036L24.8714 21.6073C24.8569 21.7983 24.842 21.9875 24.74 22.2174L24.8104 24.0887L24.7304 24.0917L24.6654 22.3644C24.6639 22.367 24.6624 22.3697 24.6609 22.3723L24.5915 22.3324C24.6176 22.2871 24.64 22.2436 24.6593 22.2016L24.5457 19.1833L24.5457 19.1827L24.5457 19.1826L24.5457 19.1825L24.5457 19.1824C24.5457 19.182 24.5457 19.1814 24.5456 19.1805C24.5456 19.1786 24.5454 19.1759 24.545 19.1725C24.5442 19.1656 24.5428 19.157 24.5401 19.149C24.5342 19.1312 24.5284 19.1302 24.5242 19.1302" fill="#85340A"/>
<path d="M24.7524 24.1843L26.4599 19.5796C26.4599 19.5796 26.4953 19.4943 26.4384 19.4707C26.3815 19.4471 26.3462 19.5324 26.3462 19.5324L24.2975 23.9959M25.5601 22.8025C26.0577 22.3402 26.0265 21.781 26.4937 21.391C26.9609 21.0008 26.9678 20.523 27.0799 20.3018C27.192 20.0804 27.4054 20.0944 27.3801 20.0217C27.3548 19.949 27.1158 19.9734 26.9138 20.2454C26.7118 20.5173 26.8213 20.7676 26.2555 21.2488C25.6897 21.7301 25.8242 22.1084 25.2842 22.5236" fill="#F6B40E"/>
<path fill-rule="evenodd" clip-rule="evenodd" d="M26.3094 19.5163L24.2609 23.9793L24.3336 24.0127L26.3827 19.5485L26.3829 19.548L26.3829 19.5479L26.383 19.5478L26.383 19.5477C26.3832 19.5474 26.3834 19.5468 26.3838 19.5459C26.3846 19.5443 26.3858 19.5418 26.3874 19.5388C26.3908 19.5327 26.3955 19.5254 26.401 19.519C26.4133 19.5048 26.4189 19.5061 26.4228 19.5077M26.3094 19.5163L26.3098 19.5155C26.31 19.5148 26.3104 19.514 26.3108 19.513C26.311 19.5127 26.3112 19.5123 26.3114 19.5119C26.3128 19.5089 26.3148 19.5049 26.3173 19.5003C26.3223 19.4911 26.3301 19.4786 26.3405 19.4666C26.36 19.444 26.4005 19.4118 26.4535 19.4338C26.5064 19.4558 26.5122 19.5072 26.5101 19.5369C26.509 19.5528 26.5056 19.5671 26.5027 19.5771C26.5012 19.5822 26.4998 19.5865 26.4987 19.5895C26.4983 19.5905 26.498 19.5913 26.4977 19.592C26.4976 19.5925 26.4974 19.5929 26.4973 19.5932L26.4968 19.5944L25.5148 22.2427C25.6051 22.1277 25.6636 22.0127 25.7242 21.893L25.7262 21.8891C25.8308 21.6825 25.942 21.4629 26.2293 21.2184C26.5081 20.9814 26.6182 20.8033 26.6842 20.6527C26.7058 20.6032 26.7223 20.5579 26.7387 20.5129C26.7481 20.487 26.7574 20.4612 26.7678 20.4348C26.7954 20.3638 26.828 20.2936 26.8814 20.2216C26.9865 20.0802 27.103 20.0006 27.1997 19.9666C27.2477 19.9497 27.2927 19.9434 27.3298 19.9481C27.3651 19.9526 27.404 19.9693 27.4176 20.0087C27.424 20.027 27.4236 20.0463 27.4143 20.0641C27.4062 20.0798 27.393 20.0906 27.3819 20.0982C27.3703 20.1061 27.3567 20.1132 27.3434 20.1198C27.3385 20.1223 27.3336 20.1247 27.3287 20.1271C27.3194 20.1316 27.31 20.1363 27.2997 20.1416C27.239 20.1731 27.166 20.2199 27.1154 20.3199C27.0894 20.3713 27.0689 20.4388 27.0449 20.5216C27.0431 20.5281 27.0412 20.5346 27.0393 20.5412C27.0171 20.6181 26.9919 20.7054 26.9572 20.7973C26.8813 20.9977 26.7594 21.2211 26.5191 21.4218C26.2933 21.6102 26.1875 21.8394 26.0744 22.0864L26.0728 22.0899C25.9606 22.335 25.8411 22.5959 25.5871 22.832L25.5326 22.7733C25.7749 22.5482 25.8888 22.2997 26.0017 22.0531L26.0021 22.052C26.1145 21.8067 26.2267 21.5616 26.4678 21.3603C26.6948 21.1708 26.8099 20.9603 26.8823 20.769C26.9159 20.6803 26.9402 20.5959 26.9625 20.5187C26.9644 20.5122 26.9662 20.5058 26.968 20.4994C26.9915 20.4182 27.0139 20.3431 27.044 20.2838C27.1054 20.1625 27.1951 20.1056 27.2628 20.0706C27.2738 20.0649 27.2848 20.0595 27.2945 20.0547C27.2992 20.0524 27.3036 20.0502 27.3076 20.0482C27.3208 20.0416 27.3302 20.0366 27.3369 20.032C27.3369 20.032 27.337 20.032 27.337 20.0319C27.3336 20.0303 27.3282 20.0286 27.3197 20.0275C27.2985 20.0248 27.2664 20.028 27.2263 20.0421C27.1467 20.0701 27.0427 20.1388 26.9457 20.2693C26.8981 20.3333 26.8686 20.3963 26.8423 20.4638C26.8333 20.4869 26.8245 20.5112 26.8153 20.5364C26.7982 20.5833 26.78 20.6334 26.7575 20.6847C26.6862 20.8475 26.5683 21.0352 26.2812 21.2794C26.0061 21.5134 25.9008 21.7213 25.7973 21.9258L25.7956 21.9292C25.7091 22.1001 25.6229 22.2692 25.4407 22.4425L24.7896 24.1983L24.7146 24.1705L25.3156 22.5498C25.3132 22.5516 25.3108 22.5535 25.3084 22.5554L25.2596 22.4919C25.301 22.4601 25.3383 22.4285 25.3722 22.3971L26.4223 19.565L26.4226 19.5645L26.4226 19.5644L26.4226 19.5643L26.4227 19.5642C26.4228 19.5638 26.4231 19.5632 26.4234 19.5624C26.424 19.5607 26.4249 19.5581 26.4258 19.5548C26.4278 19.5481 26.4297 19.5396 26.4303 19.5312C26.4316 19.5125 26.4267 19.5094 26.4228 19.5077" fill="#85340A"/>
<path d="M24.6985 24.2643L28.0382 20.6635C28.0382 20.6635 28.1035 20.5983 28.06 20.5547C28.0165 20.5111 27.9512 20.5765 27.9512 20.5765L24.3503 23.9162M25.9735 23.2968C26.6102 23.0601 26.7953 22.5315 27.3763 22.35C27.9572 22.1683 28.1464 21.7295 28.3347 21.568C28.5229 21.4064 28.7147 21.501 28.7192 21.4242C28.7236 21.3473 28.4935 21.2784 28.2028 21.4523C27.9121 21.6263 27.9175 21.8994 27.2106 22.1275C26.5037 22.3556 26.4831 22.7566 25.8254 22.9335" fill="#F6B40E"/>
<path fill-rule="evenodd" clip-rule="evenodd" d="M27.9235 20.5476L24.323 23.8869L24.3775 23.9456L27.9789 20.6054L27.9793 20.6049L27.9794 20.6049L27.9794 20.6048L27.9796 20.6047C27.9798 20.6045 27.9803 20.604 27.981 20.6034C27.9823 20.6022 27.9844 20.6004 27.987 20.5983C27.9925 20.5939 27.9996 20.5889 28.0071 20.5851C28.0239 20.5767 28.0286 20.5801 28.0316 20.583M27.9235 20.5476L27.9242 20.5469C27.9247 20.5464 27.9254 20.5458 27.9261 20.5451C27.9264 20.5448 27.9268 20.5445 27.9271 20.5442C27.9295 20.542 27.9329 20.5391 27.937 20.5358C27.9451 20.5293 27.9571 20.5207 27.9713 20.5135C27.998 20.5002 28.0477 20.4859 28.0882 20.5265C28.1287 20.5671 28.1145 20.6168 28.1011 20.6434C28.094 20.6577 28.0854 20.6696 28.0788 20.6777C28.0755 20.6819 28.0726 20.6852 28.0704 20.6876C28.0697 20.6884 28.0691 20.689 28.0686 20.6896C28.0683 20.6899 28.068 20.6902 28.0677 20.6905L28.0668 20.6914L26.1461 22.7624C26.2735 22.6906 26.3716 22.6068 26.4734 22.5194L26.4768 22.5165C26.6524 22.3657 26.8392 22.2053 27.1982 22.0895C27.5464 21.9771 27.7164 21.8548 27.8349 21.7408C27.8738 21.7034 27.9064 21.6679 27.9388 21.6325C27.9573 21.6123 27.9759 21.592 27.9955 21.5715C28.0482 21.5166 28.1052 21.4641 28.1821 21.4181C28.3333 21.3276 28.4714 21.2987 28.5738 21.3043C28.6246 21.3071 28.6686 21.3185 28.701 21.337C28.732 21.3547 28.7614 21.385 28.759 21.4266C28.7579 21.4459 28.7501 21.4636 28.7347 21.4765C28.7212 21.4879 28.7049 21.4929 28.6917 21.4956C28.678 21.4984 28.6627 21.4998 28.6479 21.5008C28.6424 21.5012 28.637 21.5016 28.6315 21.5019C28.6212 21.5026 28.6107 21.5033 28.5991 21.5042C28.5311 21.5101 28.4457 21.5254 28.3606 21.5985C28.317 21.6359 28.2722 21.6905 28.2184 21.7579C28.2142 21.7631 28.21 21.7684 28.2057 21.7737C28.1557 21.8363 28.0991 21.9074 28.0318 21.9789C27.885 22.135 27.6869 22.2948 27.3881 22.3882C27.1074 22.4759 26.9219 22.6472 26.7229 22.8321L26.7201 22.8348C26.5226 23.0182 26.3124 23.2135 25.9874 23.3344L25.9595 23.2594C26.2695 23.1441 26.4698 22.9581 26.6685 22.7735L26.6693 22.7727C26.867 22.589 27.0644 22.4055 27.3642 22.3118C27.6464 22.2236 27.8333 22.0732 27.9735 21.9241C28.0384 21.855 28.0932 21.7864 28.1433 21.7235C28.1475 21.7183 28.1517 21.7131 28.1558 21.7079C28.2086 21.6419 28.2581 21.581 28.3085 21.5377C28.4117 21.4491 28.5163 21.431 28.5923 21.4245C28.6046 21.4235 28.6168 21.4227 28.6276 21.422C28.6328 21.4216 28.6378 21.4213 28.6422 21.421C28.6569 21.42 28.6675 21.4189 28.6755 21.4172C28.6755 21.4172 28.6756 21.4172 28.6756 21.4172C28.6731 21.4144 28.6688 21.4108 28.6613 21.4065C28.6427 21.3959 28.6119 21.3865 28.5694 21.3842C28.4852 21.3796 28.3628 21.4033 28.2232 21.4868C28.1548 21.5277 28.1035 21.5746 28.0533 21.6269C28.0362 21.6448 28.0187 21.6638 28.0006 21.6836C27.9668 21.7204 27.9308 21.7597 27.8904 21.7985C27.7623 21.9217 27.5815 22.0499 27.2228 22.1656C26.8791 22.2766 26.7023 22.4284 26.5284 22.5777L26.5255 22.5801C26.3802 22.7049 26.2359 22.8282 26.0012 22.9186L24.7277 24.2916L24.6691 24.2372L25.8445 22.9698C25.8416 22.9706 25.8387 22.9714 25.8357 22.9722L25.8149 22.8949C25.8654 22.8814 25.9119 22.8665 25.9553 22.8504L28.0093 20.6358L28.0097 20.6354L28.0097 20.6353L28.0098 20.6353L28.0099 20.6351C28.0102 20.6349 28.0106 20.6344 28.0112 20.6337C28.0124 20.6324 28.0143 20.6303 28.0164 20.6277C28.0207 20.6222 28.0258 20.6151 28.0295 20.6076C28.0379 20.5908 28.0346 20.586 28.0316 20.583" fill="#85340A"/>
<path d="M24.2146 22.3326C24.182 21.6807 23.8124 21.3921 23.8849 20.798C23.7256 21.2678 24.1098 21.632 24.088 22.3259M24.6387 24.0364L23.2356 20.9708L24.4113 24.1307" fill="#85340A"/>
<path d="M24.9105 22.3477C25.1299 21.7329 24.8989 21.3248 25.1932 20.8037C24.8662 21.1768 25.0819 21.6603 24.7961 22.293M24.6504 24.084L24.5272 20.7149L24.4042 24.0841" fill="#85340A"/>
<path d="M25.5482 22.628C25.9861 22.144 25.9288 21.6785 26.4002 21.3098C25.9554 21.5293 25.9695 22.0585 25.4635 22.5337M24.6434 24.1326L25.8189 20.9728L24.4159 24.0385" fill="#85340A"/>
<path d="M26.0292 23.1309C26.6189 22.8513 26.7442 22.3993 27.3208 22.239C26.8258 22.2716 26.6364 22.7659 25.987 23.0113M24.6174 24.1747L26.9127 21.7053L24.4433 24.0007" fill="#85340A"/>
<path d="M24.6191 24.3178L29.0825 22.2691C29.0825 22.2691 29.1678 22.2339 29.1443 22.177C29.1208 22.1201 29.0355 22.1554 29.0355 22.1554L24.4307 23.8629M26.1673 23.9119C26.8461 23.9368 27.2194 23.5193 27.8256 23.5739C28.4318 23.6284 28.7746 23.2955 29.0103 23.2182C29.2461 23.141 29.387 23.3018 29.4206 23.2325C29.4541 23.1631 29.2679 23.0115 28.9327 23.0609C28.5976 23.1104 28.4981 23.3648 27.7577 23.305C27.0173 23.2452 26.8449 23.6078 26.1695 23.5195" fill="#F6B40E"/>
<path fill-rule="evenodd" clip-rule="evenodd" d="M29.0209 22.1181L24.4165 23.8254L24.4443 23.9004L29.0499 22.1927L29.0504 22.1924L29.0505 22.1924L29.0506 22.1924L29.0507 22.1923C29.0511 22.1922 29.0517 22.1919 29.0525 22.1916C29.0542 22.191 29.0568 22.1901 29.0601 22.1892C29.0668 22.1872 29.0753 22.1853 29.0837 22.1847C29.1024 22.1834 29.1055 22.1883 29.1071 22.1922M29.0209 22.1181L29.0217 22.1177C29.0224 22.1175 29.0232 22.1171 29.0242 22.1168C29.0246 22.1166 29.025 22.1165 29.0254 22.1163C29.0285 22.1152 29.0327 22.1138 29.0378 22.1123C29.0478 22.1094 29.0621 22.106 29.078 22.1049C29.1078 22.1028 29.1591 22.1086 29.1811 22.1616C29.203 22.2146 29.1707 22.255 29.1482 22.2746C29.1362 22.285 29.1236 22.2927 29.1145 22.2977C29.1098 22.3003 29.1058 22.3023 29.1029 22.3037C29.102 22.3041 29.1012 22.3045 29.1005 22.3048C29.1001 22.305 29.0997 22.3051 29.0993 22.3053L29.0982 22.3058L26.5311 23.4841C26.6763 23.4665 26.799 23.4267 26.9265 23.3849L26.9307 23.3835C27.1507 23.3114 27.3846 23.2347 27.7607 23.265C28.1254 23.2945 28.3292 23.2465 28.4823 23.1866C28.5326 23.1669 28.5763 23.1466 28.6197 23.1263C28.6446 23.1146 28.6695 23.103 28.6955 23.0916C28.7652 23.061 28.8379 23.0343 28.9266 23.0213C29.1009 22.9956 29.2395 23.0217 29.332 23.066C29.3779 23.088 29.4142 23.1154 29.437 23.1449C29.4589 23.1731 29.4745 23.2124 29.4563 23.2499C29.4479 23.2673 29.4339 23.2806 29.4148 23.2867C29.3979 23.2921 29.381 23.2904 29.3677 23.2879C29.354 23.2853 29.3394 23.2807 29.3253 23.276C29.3201 23.2742 29.3149 23.2725 29.3097 23.2707C29.2999 23.2674 29.29 23.264 29.2789 23.2605C29.2138 23.2398 29.129 23.2213 29.0225 23.2562C28.9678 23.2741 28.9055 23.3074 28.8301 23.349C28.8242 23.3523 28.8183 23.3555 28.8123 23.3589C28.7422 23.3976 28.6627 23.4415 28.5731 23.4819C28.3778 23.57 28.1335 23.6417 27.8218 23.6137C27.5289 23.5873 27.292 23.6745 27.0374 23.7692L27.0337 23.7706C26.7811 23.8645 26.5122 23.9646 26.1656 23.9518L26.1685 23.8718C26.4991 23.884 26.7553 23.7887 27.0095 23.6942L27.0106 23.6938C27.2635 23.5998 27.5161 23.5058 27.829 23.534C28.1234 23.5605 28.3537 23.493 28.5402 23.4089C28.6267 23.3699 28.7035 23.3275 28.7739 23.2886C28.7798 23.2854 28.7856 23.2822 28.7914 23.279C28.8654 23.2381 28.9344 23.2009 28.9976 23.1802C29.1268 23.1378 29.2304 23.1611 29.3031 23.1842C29.3149 23.1879 29.3264 23.1918 29.3367 23.1953C29.3417 23.197 29.3463 23.1986 29.3506 23.2C29.3646 23.2047 29.3748 23.2078 29.3827 23.2093C29.3828 23.2093 29.3828 23.2093 29.3829 23.2093C29.3816 23.2058 29.379 23.2007 29.3738 23.1939C29.3607 23.177 29.3357 23.1566 29.2974 23.1382C29.2213 23.1017 29.0992 23.0767 28.9383 23.1004C28.8594 23.1121 28.794 23.1358 28.7277 23.1649C28.7051 23.1748 28.6816 23.1858 28.6573 23.1971C28.612 23.2182 28.5637 23.2407 28.5115 23.2611C28.346 23.3258 28.1299 23.3751 27.7542 23.3448C27.3942 23.3158 27.1728 23.3884 26.955 23.4598L26.9514 23.4609C26.7694 23.5206 26.5889 23.5792 26.3375 23.5729L24.6355 24.3541L24.6021 24.2814L26.1731 23.5603C26.1701 23.5599 26.1671 23.5596 26.1641 23.5592L26.1744 23.4798C26.2262 23.4866 26.275 23.4906 26.3211 23.4924L29.0663 22.2324L29.0668 22.2321L29.0669 22.2321L29.067 22.2321L29.0671 22.232C29.0675 22.2319 29.068 22.2316 29.0689 22.2312C29.0705 22.2305 29.073 22.2292 29.076 22.2276C29.0821 22.2242 29.0894 22.2196 29.0958 22.2141C29.11 22.2018 29.1087 22.1961 29.1071 22.1922" fill="#85340A"/>
<path d="M24.5247 24.3365L29.4323 24.1518C29.4323 24.1518 29.5246 24.1519 29.5247 24.0904C29.5248 24.0288 29.4324 24.0288 29.4324 24.0288L24.5247 23.8441M26.1104 24.554C26.728 24.8368 27.2327 24.5939 27.7718 24.8763C28.311 25.1587 28.7551 24.9822 29.0024 25.0011C29.2498 25.0199 29.3185 25.2224 29.376 25.1713C29.4335 25.12 29.3195 24.9086 28.9909 24.826C28.6624 24.7435 28.4731 24.9404 27.8119 24.6019C27.1508 24.2633 26.8527 24.5323 26.2626 24.1923" fill="#F6B40E"/>
<path fill-rule="evenodd" clip-rule="evenodd" d="M29.4333 23.9889L24.5261 23.8043L24.5231 23.8842L29.4316 24.069L29.4322 24.069L29.4322 24.069L29.4323 24.069L29.4325 24.069C29.4328 24.069 29.4335 24.069 29.4344 24.069C29.4362 24.0691 29.439 24.0693 29.4423 24.0697C29.4493 24.0704 29.4579 24.0719 29.4658 24.0746C29.4837 24.0805 29.4846 24.0862 29.4846 24.0904M29.4333 23.9889L29.4342 23.9889C29.4349 23.989 29.4358 23.989 29.4369 23.989C29.4373 23.989 29.4377 23.9891 29.4382 23.9891C29.4414 23.9892 29.4459 23.9895 29.4511 23.9901C29.4615 23.9913 29.476 23.9936 29.4911 23.9986C29.5194 24.0081 29.5647 24.0331 29.5646 24.0905C29.5646 24.1478 29.5194 24.1729 29.491 24.1823C29.4759 24.1873 29.4614 24.1896 29.4511 24.1908C29.4458 24.1914 29.4413 24.1917 29.4381 24.1918C29.4371 24.1919 29.4362 24.1919 29.4354 24.1919C29.435 24.1919 29.4345 24.1919 29.4341 24.1919L29.4329 24.192L26.6103 24.2982C26.7512 24.3375 26.8798 24.3477 27.0136 24.3578L27.018 24.3582C27.2489 24.3757 27.4943 24.3944 27.8301 24.5663C28.1558 24.7331 28.3625 24.7668 28.5269 24.77C28.5808 24.7711 28.629 24.769 28.6769 24.7669C28.7043 24.7657 28.7318 24.7645 28.7602 24.7639C28.8363 24.7623 28.9137 24.7655 29.0006 24.7873C29.1715 24.8303 29.2895 24.9074 29.358 24.9838C29.392 25.0217 29.415 25.0609 29.4248 25.0969C29.4342 25.1313 29.4336 25.1735 29.4025 25.2013C29.388 25.2141 29.37 25.2211 29.35 25.2194C29.3324 25.2179 29.3174 25.2099 29.3061 25.2025C29.2944 25.1948 29.2827 25.1849 29.2714 25.1752C29.2673 25.1716 29.2632 25.168 29.2591 25.1644C29.2513 25.1576 29.2434 25.1506 29.2345 25.1431C29.1823 25.0991 29.1111 25.0496 28.9993 25.0411C28.9419 25.0367 28.8716 25.0436 28.786 25.0532C28.7793 25.054 28.7726 25.0547 28.7658 25.0555C28.6862 25.0644 28.5959 25.0746 28.4977 25.0776C28.2835 25.0842 28.0304 25.0571 27.7531 24.9119C27.4926 24.7754 27.2404 24.7653 26.9689 24.7554L26.965 24.7552C26.6957 24.7454 26.4089 24.7348 26.0936 24.5905L26.1269 24.5177C26.4277 24.6554 26.7008 24.6655 26.9719 24.6754L26.973 24.6754C27.2427 24.6853 27.512 24.6952 27.7903 24.841C28.0522 24.9781 28.2907 25.0039 28.4952 24.9976C28.59 24.9947 28.6773 24.9849 28.7572 24.9759C28.7639 24.9751 28.7705 24.9744 28.7771 24.9737C28.8611 24.9643 28.9391 24.9562 29.0054 24.9613C29.141 24.9716 29.2278 25.0328 29.2861 25.0819C29.2956 25.0899 29.3047 25.0979 29.3128 25.1051C29.3168 25.1085 29.3205 25.1118 29.3239 25.1147C29.335 25.1244 29.3433 25.1311 29.35 25.1356C29.3501 25.1356 29.3501 25.1356 29.3502 25.1357C29.3504 25.1319 29.3499 25.1263 29.3476 25.118C29.342 25.0973 29.3268 25.0689 29.2984 25.0372C29.2421 24.9744 29.1388 24.9046 28.9811 24.865C28.9038 24.8455 28.8343 24.8424 28.7618 24.8439C28.7371 24.8444 28.7113 24.8455 28.6845 24.8467C28.6346 24.8489 28.5813 24.8512 28.5253 24.8501C28.3476 24.8465 28.1291 24.8094 27.7936 24.6376C27.4722 24.473 27.2398 24.4553 27.0113 24.4379L27.0075 24.4376C26.8165 24.4231 26.6273 24.4082 26.3974 24.3062L24.5261 24.3766L24.5231 24.2966L26.2504 24.2316C26.2478 24.2301 26.2451 24.2286 26.2425 24.2271L26.2824 24.1577C26.3277 24.1838 26.3712 24.2062 26.4132 24.2255L29.4315 24.1119L29.4321 24.1119L29.4322 24.1119L29.4323 24.1119L29.4324 24.1119C29.4328 24.1119 29.4334 24.1119 29.4343 24.1119C29.4362 24.1118 29.4389 24.1116 29.4423 24.1112C29.4492 24.1105 29.4578 24.109 29.4658 24.1063C29.4836 24.1004 29.4846 24.0946 29.4846 24.0904" fill="#85340A"/>
<path d="M24.4306 24.3178L29.0354 26.0253C29.0354 26.0253 29.1206 26.0607 29.1442 26.0038C29.1678 25.947 29.0825 25.9117 29.0825 25.9117L24.619 23.8629M25.8124 25.1255C26.2747 25.6232 26.834 25.5919 27.224 26.0591C27.6141 26.5263 28.0919 26.5333 28.3132 26.6454C28.5345 26.7574 28.5205 26.9708 28.5932 26.9455C28.666 26.9202 28.6415 26.6813 28.3696 26.4792C28.0976 26.2772 27.8474 26.3868 27.3661 25.8209C26.8848 25.2552 26.5065 25.3896 26.0914 24.8497" fill="#F6B40E"/>
<path fill-rule="evenodd" clip-rule="evenodd" d="M29.0986 25.8751L24.6356 23.8266L24.6022 23.8993L29.0664 25.9484L29.067 25.9486L29.067 25.9487L29.0671 25.9487L29.0672 25.9487C29.0676 25.9489 29.0682 25.9492 29.069 25.9495C29.0706 25.9503 29.0731 25.9515 29.0761 25.9532C29.0822 25.9565 29.0896 25.9612 29.0959 25.9667C29.1101 25.979 29.1088 25.9847 29.1072 25.9885M29.0986 25.8751L29.0995 25.8755C29.1001 25.8758 29.1009 25.8761 29.1019 25.8766C29.1023 25.8767 29.1026 25.8769 29.1031 25.8771C29.106 25.8785 29.11 25.8805 29.1147 25.8831C29.1238 25.8881 29.1363 25.8958 29.1483 25.9062C29.1709 25.9258 29.2031 25.9662 29.1811 26.0192C29.1591 26.0722 29.1078 26.078 29.078 26.0758C29.0621 26.0747 29.0478 26.0713 29.0378 26.0684C29.0327 26.0669 29.0285 26.0655 29.0254 26.0644C29.0245 26.0641 29.0236 26.0637 29.0229 26.0635C29.0225 26.0633 29.0221 26.0631 29.0217 26.063L29.0206 26.0626L26.3722 25.0805C26.4872 25.1708 26.6022 25.2294 26.7219 25.29L26.7259 25.292C26.9324 25.3965 27.1521 25.5077 27.3965 25.7951C27.6336 26.0738 27.8116 26.184 27.9623 26.2499C28.0117 26.2715 28.057 26.288 28.1021 26.3044C28.1279 26.3138 28.1537 26.3232 28.1802 26.3335C28.2511 26.3611 28.3214 26.3937 28.3933 26.4472C28.5348 26.5522 28.6143 26.6687 28.6483 26.7654C28.6652 26.8135 28.6715 26.8585 28.6668 26.8955C28.6623 26.9309 28.6456 26.9697 28.6062 26.9834C28.5879 26.9897 28.5687 26.9893 28.5508 26.9801C28.5351 26.9719 28.5243 26.9588 28.5167 26.9476C28.5089 26.9361 28.5018 26.9224 28.4951 26.9091C28.4927 26.9042 28.4903 26.8994 28.4878 26.8944C28.4833 26.8852 28.4786 26.8757 28.4733 26.8654C28.4419 26.8047 28.395 26.7317 28.295 26.6811C28.2436 26.6551 28.1761 26.6346 28.0933 26.6107C28.0869 26.6088 28.0803 26.6069 28.0738 26.605C27.9968 26.5828 27.9095 26.5577 27.8176 26.5229C27.6172 26.447 27.3938 26.3251 27.1932 26.0848C27.0047 25.8591 26.7755 25.7533 26.5286 25.6402L26.525 25.6385C26.2799 25.5263 26.019 25.4069 25.783 25.1528L25.8416 25.0983C26.0668 25.3407 26.3153 25.4545 26.5619 25.5674L26.5629 25.5679C26.8083 25.6802 27.0533 25.7924 27.2546 26.0335C27.4441 26.2605 27.6546 26.3756 27.846 26.448C27.9347 26.4816 28.019 26.5059 28.0963 26.5282C28.1027 26.5301 28.1092 26.5319 28.1155 26.5338C28.1967 26.5573 28.2719 26.5797 28.3312 26.6097C28.4525 26.6711 28.5093 26.7609 28.5444 26.8286C28.5501 26.8396 28.5554 26.8505 28.5602 26.8602C28.5625 26.8649 28.5647 26.8693 28.5667 26.8734C28.5733 26.8865 28.5784 26.8959 28.5829 26.9026C28.5829 26.9027 28.583 26.9027 28.583 26.9028C28.5846 26.8994 28.5863 26.894 28.5874 26.8854C28.5901 26.8642 28.5869 26.8321 28.5728 26.792C28.5448 26.7124 28.4761 26.6084 28.3456 26.5114C28.2816 26.4639 28.2186 26.4344 28.1511 26.4081C28.1281 26.3991 28.1038 26.3902 28.0785 26.381C28.0316 26.364 27.9815 26.3457 27.9302 26.3232C27.7674 26.252 27.5797 26.134 27.3355 25.8469C27.1015 25.5718 26.8936 25.4666 26.6891 25.3631L26.6858 25.3614C26.5148 25.2748 26.3457 25.1887 26.1724 25.0064L24.4166 24.3554L24.4444 24.2803L26.0651 24.8813C26.0633 24.8789 26.0614 24.8765 26.0596 24.8741L26.123 24.8253C26.1549 24.8667 26.1864 24.904 26.2179 24.9379L29.0499 25.9881L29.0505 25.9883L29.0505 25.9883L29.0506 25.9884L29.0508 25.9884C29.0511 25.9886 29.0517 25.9888 29.0526 25.9891C29.0543 25.9897 29.0569 25.9906 29.0601 25.9915C29.0668 25.9935 29.0753 25.9954 29.0837 25.996C29.1025 25.9974 29.1056 25.9924 29.1072 25.9885" fill="#85340A"/>
<path d="M24.3504 24.2644L27.9512 27.6041C27.9512 27.6041 28.0165 27.6694 28.06 27.6259C28.1036 27.5824 28.0383 27.5171 28.0383 27.5171L24.6986 23.9163M25.3179 25.5394C25.5546 26.1761 26.0833 26.3612 26.2648 26.9422C26.4464 27.5231 26.8852 27.7123 27.0467 27.9006C27.2083 28.0888 27.1137 28.2806 27.1906 28.2851C27.2675 28.2895 27.3363 28.0594 27.1624 27.7687C26.9885 27.478 26.7153 27.4834 26.4873 26.7765C26.2591 26.0696 25.8582 26.0491 25.6813 25.3913" fill="#F6B40E"/>
<path fill-rule="evenodd" clip-rule="evenodd" d="M28.0671 27.4896L24.7278 23.8891L24.6691 23.9435L28.0093 27.5449L28.0097 27.5454L28.0098 27.5454L28.0099 27.5455L28.01 27.5456C28.0102 27.5459 28.0107 27.5463 28.0113 27.547C28.0125 27.5483 28.0143 27.5504 28.0164 27.5531C28.0208 27.5585 28.0258 27.5656 28.0296 27.5732C28.038 27.59 28.0346 27.5947 28.0316 27.5976M28.0671 27.4896L28.0678 27.4902C28.0683 27.4908 28.0689 27.4914 28.0696 27.4922C28.0699 27.4925 28.0702 27.4928 28.0705 27.4931C28.0726 27.4955 28.0756 27.4989 28.0789 27.503C28.0854 27.5112 28.094 27.5231 28.1011 27.5373C28.1145 27.564 28.1288 27.6137 28.0882 27.6543C28.0476 27.6948 27.9979 27.6805 27.9712 27.6671C27.957 27.66 27.9451 27.6514 27.937 27.6449C27.9328 27.6415 27.9294 27.6386 27.9271 27.6364C27.9263 27.6358 27.9257 27.6352 27.9251 27.6346C27.9248 27.6343 27.9244 27.634 27.9242 27.6337L27.9233 27.6329L25.8523 25.7121C25.9241 25.8395 26.0079 25.9377 26.0953 26.0394L26.0981 26.0428C26.249 26.2185 26.4093 26.4052 26.5252 26.7642C26.6376 27.1125 26.7599 27.2824 26.8739 27.401C26.9112 27.4399 26.9468 27.4724 26.9821 27.5048C27.0024 27.5234 27.0227 27.5419 27.0432 27.5616C27.0981 27.6143 27.1506 27.6712 27.1966 27.7482C27.2871 27.8994 27.316 28.0374 27.3104 28.1398C27.3076 28.1906 27.2962 28.2346 27.2777 28.267C27.26 28.298 27.2297 28.3275 27.1881 28.3251C27.1688 28.3239 27.1511 28.3161 27.1382 28.3008C27.1268 28.2872 27.1218 28.2709 27.1191 28.2577C27.1163 28.2441 27.1149 28.2288 27.1139 28.2139C27.1135 28.2085 27.1131 28.203 27.1128 28.1976C27.1121 28.1873 27.1114 28.1767 27.1104 28.1652C27.1046 28.0971 27.0893 28.0117 27.0162 27.9267C26.9787 27.883 26.9242 27.8382 26.8568 27.7844C26.8516 27.7802 26.8463 27.776 26.841 27.7717C26.7783 27.7218 26.7073 27.6651 26.6358 27.5978C26.4796 27.4511 26.3199 27.2529 26.2265 26.9541C26.1387 26.6735 25.9675 26.488 25.7826 26.289L25.7799 26.2861C25.5965 26.0887 25.4011 25.8785 25.2803 25.5534L25.3553 25.5255C25.4706 25.8356 25.6566 26.0358 25.8412 26.2345L25.842 26.2353C26.0257 26.433 26.2092 26.6305 26.3029 26.9303C26.3911 27.2125 26.5415 27.3994 26.6906 27.5395C26.7597 27.6045 26.8283 27.6592 26.8911 27.7094C26.8964 27.7136 26.9016 27.7177 26.9068 27.7219C26.9728 27.7746 27.0337 27.8241 27.077 27.8745C27.1655 27.9777 27.1837 28.0824 27.1902 28.1584C27.1912 28.1707 27.192 28.1828 27.1927 28.1936C27.1931 28.1989 27.1934 28.2038 27.1937 28.2083C27.1947 28.223 27.1958 28.2336 27.1975 28.2415C27.1975 28.2416 27.1975 28.2416 27.1975 28.2417C27.2003 28.2392 27.2039 28.2348 27.2082 28.2273C27.2188 28.2088 27.2282 28.1779 27.2305 28.1354C27.2351 28.0512 27.2114 27.9288 27.1279 27.7893C27.087 27.7209 27.0401 27.6695 26.9878 27.6193C26.9699 27.6022 26.9509 27.5848 26.9311 27.5666C26.8943 27.5329 26.855 27.4968 26.8161 27.4564C26.693 27.3283 26.5648 27.1475 26.449 26.7888C26.3381 26.4451 26.1863 26.2683 26.037 26.0944L26.0346 26.0916C25.9097 25.9462 25.7865 25.8019 25.6961 25.5672L24.3231 24.2938L24.3775 24.2351L25.6449 25.4106C25.6441 25.4076 25.6433 25.4047 25.6425 25.4018L25.7198 25.381C25.7333 25.4314 25.7482 25.478 25.7643 25.5213L27.9789 27.5753L27.9793 27.5757L27.9794 27.5758L27.9794 27.5758L27.9795 27.5759C27.9798 27.5762 27.9803 27.5766 27.9809 27.5772C27.9823 27.5785 27.9844 27.5803 27.987 27.5824C27.9925 27.5868 27.9996 27.5918 28.0071 27.5956C28.0239 27.604 28.0287 27.6006 28.0316 27.5976" fill="#85340A"/>
<path d="M26.2819 23.7799C26.9338 23.7473 27.2225 23.3777 27.8166 23.4502C27.3468 23.2909 26.9826 23.6751 26.2887 23.6533M24.5782 24.204L27.6438 22.8009L24.4839 23.9766" fill="#85340A"/>
<path d="M26.2668 24.476C26.8816 24.6953 27.2897 24.4643 27.8108 24.7587C27.4377 24.4317 26.9542 24.6473 26.3215 24.3616M24.5305 24.2158L27.8996 24.0927L24.5304 23.9697" fill="#85340A"/>
<path d="M25.9868 25.1136C26.4708 25.5514 26.9363 25.4942 27.3051 25.9656C27.0855 25.5207 26.5563 25.5349 26.0811 25.0288M24.4822 24.2087L27.642 25.3843L24.5763 23.9813" fill="#85340A"/>
<path d="M25.4837 25.5952C25.7633 26.1849 26.2152 26.3102 26.3755 26.8868C26.343 26.3918 25.8486 26.2024 25.6033 25.5529M24.4399 24.1834L26.9093 26.4787L24.6139 24.0092" fill="#85340A"/>
<path d="M24.5249 26.0904C25.6295 26.0904 26.5249 25.1949 26.5249 24.0903C26.5249 22.9858 25.6295 22.0903 24.5249 22.0903C23.4203 22.0903 22.5249 22.9858 22.5249 24.0903C22.5249 25.1949 23.4203 26.0904 24.5249 26.0904Z" fill="#F6B40E"/>
<path fill-rule="evenodd" clip-rule="evenodd" d="M24.5247 22.1443C23.45 22.1443 22.5787 23.0155 22.5787 24.0903C22.5787 25.165 23.45 26.0363 24.5247 26.0363C25.5995 26.0363 26.4707 25.165 26.4707 24.0903C26.4707 23.0155 25.5995 22.1443 24.5247 22.1443ZM22.4707 24.0903C22.4707 22.9559 23.3903 22.0363 24.5247 22.0363C25.6591 22.0363 26.5787 22.9559 26.5787 24.0903C26.5787 25.2247 25.6591 26.1443 24.5247 26.1443C23.3903 26.1443 22.4707 25.2247 22.4707 24.0903Z" fill="#85340A"/>
<path d="M25.2061 23.6625C25.0695 23.6625 24.9387 23.7216 24.8618 23.8447C25.0157 23.9832 25.3555 23.9982 25.5863 23.829C25.4863 23.7213 25.3426 23.6625 25.2061 23.6625ZM25.2038 23.694C25.3367 23.6916 25.461 23.7526 25.4783 23.8132C25.3245 23.9825 25.0787 23.9678 24.9248 23.8447C24.9921 23.737 25.1004 23.6959 25.2038 23.694Z" fill="#843511"/>
<path d="M25.2321 23.5675C25.0321 23.5675 24.9859 23.6137 24.8936 23.6907C24.8012 23.7676 24.7551 23.7522 24.7398 23.7676C24.7245 23.783 24.7398 23.8291 24.7705 23.8137C24.8012 23.7982 24.8629 23.7676 24.955 23.6906C25.0474 23.6136 25.1396 23.6137 25.232 23.6137C25.5089 23.6137 25.6628 23.8444 25.6935 23.829C25.7242 23.8136 25.5396 23.5675 25.232 23.5675L25.2321 23.5675Z" fill="#85340A"/>
<path d="M25.7856 23.6597C25.4318 23.352 24.9857 23.3058 24.7395 23.5367C24.6792 23.6174 24.6406 23.7036 24.6248 23.7937C24.5938 23.9689 24.6485 24.1581 24.7858 24.3521C24.7703 24.352 24.7395 24.3674 24.7241 24.3828C24.6019 24.1493 24.5587 23.9093 24.5988 23.6812C24.6093 23.6215 24.6257 23.5629 24.647 23.5058C24.9855 23.2289 25.447 23.1981 25.7854 23.6597L25.7856 23.6597Z" fill="#85340A"/>
<path d="M25.2014 23.9513C25.2779 23.9513 25.3399 23.8894 25.3399 23.8129C25.3399 23.7364 25.2779 23.6744 25.2014 23.6744C25.125 23.6744 25.063 23.7364 25.063 23.8129C25.063 23.8894 25.125 23.9513 25.2014 23.9513Z" fill="#85340A"/>
<path d="M25.6011 23.9059C25.3395 24.1059 25.078 24.0905 24.9242 23.9982C24.7703 23.9059 24.7703 23.8752 24.801 23.8752C24.8317 23.8752 24.8625 23.9059 24.9856 23.9674C25.1087 24.029 25.2932 24.029 25.6009 23.9059L25.6011 23.9059Z" fill="#85340A"/>
<path d="M24.2185 24.3667C24.1527 24.3787 24.106 24.4371 24.106 24.5039C24.106 24.5804 24.1691 24.6412 24.2455 24.6412C24.2906 24.6412 24.332 24.6198 24.358 24.5827C24.4112 24.6227 24.485 24.627 24.5245 24.6277C24.5305 24.6278 24.5384 24.6277 24.5425 24.6277C24.5819 24.627 24.6557 24.6227 24.709 24.5827C24.7349 24.6198 24.7763 24.6412 24.8215 24.6412C24.8978 24.6412 24.961 24.5804 24.961 24.5039C24.961 24.4371 24.9142 24.3787 24.8485 24.3667C24.8854 24.3797 24.9092 24.4154 24.9092 24.4545C24.9092 24.5054 24.8681 24.5467 24.817 24.5467C24.768 24.5467 24.7276 24.5078 24.7247 24.4589C24.7097 24.4889 24.6503 24.5781 24.5335 24.5827C24.4167 24.5781 24.3572 24.4889 24.3422 24.4589C24.3393 24.5078 24.299 24.5467 24.25 24.5467C24.1989 24.5467 24.1577 24.5054 24.1577 24.4545C24.1577 24.4154 24.1815 24.3797 24.2185 24.3667Z" fill="#85340A"/>
<path d="M24.3694 24.7764C24.2154 24.7764 24.1546 24.9158 24.0161 25.0081C24.0931 24.9774 24.1536 24.9167 24.2614 24.8551C24.3691 24.7936 24.4609 24.8686 24.5224 24.8686H24.5246C24.586 24.8686 24.6779 24.7936 24.7856 24.8551C24.8934 24.9167 24.9562 24.9774 25.0331 25.0081C24.8946 24.9158 24.8315 24.7764 24.6776 24.7764C24.6469 24.7764 24.586 24.793 24.5246 24.8236H24.5224C24.4609 24.7929 24.4001 24.7764 24.3694 24.7764Z" fill="#85340A"/>
<path d="M24.317 24.9586C24.2563 24.9613 24.176 24.9735 24.0605 25.0081C24.3376 24.9466 24.3987 25.0396 24.5218 25.0396H24.524C24.6472 25.0396 24.7083 24.9466 24.9853 25.0081C24.6775 24.9158 24.6163 24.9766 24.524 24.9766H24.5218C24.4641 24.9766 24.4183 24.9541 24.317 24.9586Z" fill="#85340A"/>
<path d="M24.0746 25.0061C24.0567 25.0063 24.0373 25.0065 24.0161 25.0083C24.3392 25.0391 24.1839 25.2243 24.5224 25.2243H24.5246C24.8631 25.2243 24.71 25.0391 25.0331 25.0083C24.6947 24.9776 24.8017 25.1771 24.5246 25.1771H24.5224C24.2626 25.1771 24.3427 25.0027 24.0746 25.0061Z" fill="#85340A"/>
<path d="M24.8019 25.5057C24.8019 25.3528 24.6778 25.2288 24.525 25.2288C24.3721 25.2288 24.248 25.3528 24.248 25.5057C24.2785 25.3775 24.3932 25.2869 24.525 25.2869C24.657 25.2869 24.7715 25.3775 24.8019 25.5057Z" fill="#85340A"/>
<path d="M23.2808 23.6597C23.6346 23.352 24.0807 23.3058 24.3269 23.5367C24.3872 23.6174 24.4258 23.7036 24.4416 23.7937C24.4726 23.9689 24.4179 24.1581 24.2806 24.3521C24.2961 24.352 24.3269 24.3674 24.3423 24.3828C24.4645 24.1493 24.5077 23.9093 24.4676 23.6812C24.4571 23.6215 24.4407 23.5629 24.4194 23.5058C24.0809 23.2289 23.6194 23.1981 23.281 23.6597L23.2808 23.6597Z" fill="#85340A"/>
<path d="M23.8343 23.5675C24.0343 23.5675 24.0805 23.6137 24.1728 23.6907C24.2652 23.7676 24.3113 23.7522 24.3266 23.7676C24.3419 23.783 24.3266 23.8291 24.2959 23.8137C24.2652 23.7982 24.2035 23.7676 24.1114 23.6906C24.019 23.6136 23.9268 23.6137 23.8344 23.6137C23.5575 23.6137 23.4037 23.8444 23.373 23.829C23.3422 23.8136 23.5268 23.5675 23.8344 23.5675L23.8343 23.5675Z" fill="#85340A"/>
<path d="M23.8252 23.6625C23.6886 23.6625 23.5579 23.7216 23.481 23.8447C23.6348 23.9832 23.9746 23.9982 24.2054 23.829C24.1055 23.7213 23.9618 23.6625 23.8252 23.6625ZM23.823 23.694C23.9559 23.6916 24.0801 23.7526 24.0975 23.8132C23.9436 23.9825 23.6978 23.9678 23.544 23.8447C23.6113 23.737 23.7196 23.6959 23.823 23.694Z" fill="#843511"/>
<path d="M23.8435 23.9513C23.92 23.9513 23.982 23.8894 23.982 23.8129C23.982 23.7364 23.92 23.6744 23.8435 23.6744C23.7671 23.6744 23.7051 23.7364 23.7051 23.8129C23.7051 23.8894 23.7671 23.9513 23.8435 23.9513Z" fill="#85340A"/>
<path d="M23.4653 23.9059C23.7269 24.1059 23.9884 24.0905 24.1423 23.9982C24.2961 23.9059 24.2961 23.8752 24.2654 23.8752C24.2347 23.8752 24.2039 23.9059 24.0808 23.9674C23.9577 24.029 23.7732 24.029 23.4655 23.9059L23.4653 23.9059Z" fill="#85340A"/>
<path fill-rule="evenodd" clip-rule="evenodd" d="M24.5239 46.6902C37.0056 46.6902 47.1239 36.5718 47.1239 24.0902C47.1239 11.6086 37.0056 1.49021 24.5239 1.49021C12.0423 1.49021 1.92393 11.6086 1.92393 24.0902C1.92393 36.5718 12.0423 46.6902 24.5239 46.6902ZM24.5239 48.0902C37.7788 48.0902 48.5239 37.345 48.5239 24.0902C48.5239 10.8354 37.7788 0.09021 24.5239 0.09021C11.2691 0.09021 0.523926 10.8354 0.523926 24.0902C0.523926 37.345 11.2691 48.0902 24.5239 48.0902Z" fill="#D9D9D9"/>
</g>
<defs>
<clipPath id="clip0_4012_198363">
<rect x="0.524902" y="0.09021" width="48" height="48" fill="white"/>
</clipPath>
</defs>
</svg>
