<svg width="49" height="49" viewBox="0 0 49 49" fill="none" xmlns="http://www.w3.org/2000/svg">
<g clip-path="url(#clip0_4012_198435)">
<path fill-rule="evenodd" clip-rule="evenodd" d="M24.2573 48.0902C37.5122 48.0902 48.2573 37.345 48.2573 24.0902C48.2573 10.8354 37.5122 0.09021 24.2573 0.09021C11.0025 0.09021 0.257324 10.8354 0.257324 24.0902C0.257324 37.345 11.0025 48.0902 24.2573 48.0902Z" fill="#229E45"/>
<path fill-rule="evenodd" clip-rule="evenodd" d="M24.3589 38.7933L46.9761 24.1136L24.2261 9.38708L1.53857 24.1449L24.3589 38.7933Z" fill="#F8E509"/>
<path fill-rule="evenodd" clip-rule="evenodd" d="M34.218 24.0902C34.218 29.3637 29.9367 33.6371 24.6477 33.6371C22.757 33.6371 20.9133 33.0746 19.343 32.0199C17.7727 30.9652 16.5539 29.473 15.8273 27.7309C15.1086 25.9809 14.9211 24.059 15.2961 22.2074C15.6633 20.3559 16.5773 18.6527 17.9133 17.3168C19.2492 15.9809 20.9523 15.0746 22.8117 14.7074C24.6633 14.3402 26.5852 14.5355 28.3273 15.2621C30.0695 15.9809 31.5617 17.2074 32.6086 18.7777C33.6633 20.3559 34.218 22.1996 34.218 24.0902Z" fill="#2B49A3"/>
<path fill-rule="evenodd" clip-rule="evenodd" d="M21.5073 29.809L21.2026 29.6371L20.9058 29.7933L20.9761 29.4496L20.7339 29.1996L21.0698 29.1605L21.2339 28.8636L21.3745 29.1761L21.7104 29.2386L21.4604 29.4574L21.5073 29.809ZM27.9136 31.434L27.6167 31.2621L27.3198 31.4105L27.3745 31.0746L27.1479 30.8246L27.4839 30.7855L27.6401 30.4808L27.7886 30.7933L28.1167 30.8558L27.8667 31.0902L27.9136 31.434ZM25.1479 28.8402L24.8979 28.684L24.6323 28.8246L24.6948 28.5277L24.4839 28.309L24.7808 28.2855L24.9136 28.0121L25.0386 28.2933L25.3276 28.3402L25.1011 28.5433L25.1479 28.8402ZM31.6323 27.9105L31.3745 27.7543L31.1089 27.8949L31.1714 27.598L30.9683 27.3871L31.2651 27.3636L31.3979 27.098L31.5151 27.3715L31.8042 27.4183L31.5854 27.6136L31.6323 27.9105ZM25.0386 25.9652L24.7339 25.8011L24.437 25.9496L24.4995 25.6058L24.2651 25.3558L24.6011 25.3168L24.7573 25.0121L24.9136 25.3246L25.2417 25.3871L24.9839 25.6293L25.0386 25.9652ZM17.1401 23.0043L16.8433 22.8402L16.5386 22.9886L16.6167 22.6449L16.3667 22.3949L16.7104 22.3558L16.8589 22.0511L17.0151 22.3636L17.3433 22.4261L17.0933 22.6605L17.1401 23.0043ZM18.0933 26.9496L17.7886 26.7777L17.4917 26.9261L17.562 26.5902L17.3198 26.3402L17.6558 26.2933L17.812 25.9965L17.9683 26.309L18.2964 26.3715L18.0464 26.6058L18.0933 26.9496ZM27.9448 21.559L27.6792 21.4027L27.4058 21.5433L27.4683 21.2386L27.2573 21.0121L27.5542 20.9808L27.7026 20.7074L27.8276 20.9965L28.1245 21.0433L27.9058 21.2465L27.9448 21.559ZM27.3979 24.1215L27.1948 23.9965L26.9761 24.1058L27.0229 23.8636L26.8589 23.6918L27.1011 23.6605L27.2104 23.4496L27.312 23.6761L27.5386 23.7152L27.3667 23.8793L27.3979 24.1215ZM16.7026 27.6605L16.4995 27.5511L16.2964 27.6449L16.3433 27.4183L16.187 27.2543L16.4136 27.223L16.5151 27.0199L16.6167 27.2308L16.8433 27.2777L16.6636 27.4261L16.7026 27.6605ZM31.6792 28.5746L31.5151 28.4965L31.3511 28.5668L31.3901 28.3949L31.2651 28.2777L31.4448 28.2543L31.5308 28.1058L31.6089 28.2543L31.7964 28.2933L31.6558 28.4027L31.6792 28.5746ZM19.6479 27.5511L19.8433 27.6527L19.812 27.4261L19.9839 27.2699L19.7573 27.2308L19.6636 27.0199L19.5542 27.223L19.3276 27.2543L19.4839 27.4183L19.4448 27.6449L19.6479 27.5511ZM19.2573 28.5902L19.4526 28.6996L19.4214 28.473L19.5933 28.3168L19.3667 28.2777L19.2729 28.0668L19.1636 28.2699L18.937 28.3011L19.1011 28.473L19.0542 28.6918L19.2573 28.5902ZM25.7808 26.684L25.9761 26.809L25.9448 26.5746L26.1089 26.4183L25.8823 26.3793L25.7964 26.1683L25.687 26.3715L25.4683 26.3949L25.6167 26.5668L25.5698 26.7933L25.7808 26.684ZM23.8589 26.684L24.062 26.8011L24.0308 26.5746L24.1948 26.4183L23.9761 26.3793L23.8823 26.1605L23.7808 26.3715L23.5542 26.3949L23.7026 26.5668L23.6558 26.7933L23.8589 26.684ZM18.7417 26.059L18.8745 26.1371L18.8511 25.9886L18.9526 25.8871L18.812 25.8715L18.7495 25.7308L18.6948 25.8636L18.5464 25.8715L18.6479 25.9808L18.6167 26.1215L18.7417 26.059ZM31.2417 29.2777L31.437 29.3949L31.4058 29.1605L31.5776 29.0121L31.3511 28.9652L31.2573 28.7543L31.1479 28.9574L30.9214 28.9886L31.0854 29.1605L31.0386 29.3871L31.2417 29.2777ZM29.6792 29.5043L29.8433 29.6136L29.812 29.4183L29.9604 29.2777L29.7729 29.2465L29.6948 29.0668L29.6011 29.2465L29.4136 29.2621L29.5464 29.4027L29.5073 29.598L29.6792 29.5043ZM30.4448 29.4965L30.5933 29.5902L30.5698 29.4105L30.7026 29.2855L30.5308 29.2465L30.4526 29.098L30.3667 29.2465L30.1948 29.2699L30.3198 29.4027L30.2886 29.5746L30.4448 29.4965ZM32.6011 27.6215L32.7573 27.6996L32.7339 27.5355L32.8511 27.4105L32.6948 27.3793L32.6167 27.223L32.5464 27.3715L32.3745 27.3949L32.4917 27.5277L32.4526 27.6996L32.6011 27.6215ZM29.6323 30.559L29.8198 30.6683L29.7886 30.4574L29.9683 30.3168L29.7417 30.2777L29.6479 30.0824L29.5542 30.2699L29.3276 30.2933L29.4761 30.4418L29.4292 30.6527L29.6323 30.559ZM29.6558 31.4183L29.8354 31.5199L29.8042 31.3168L29.9604 31.1683L29.7573 31.1293L29.6714 30.934L29.5854 31.1215L29.3823 31.1527L29.5229 31.309L29.4761 31.5121L29.6558 31.4183ZM28.2417 29.4965L28.3823 29.5902L28.3667 29.4183L28.4839 29.2933L28.3198 29.2621L28.2495 29.1136L28.1714 29.2621L28.0073 29.2777L28.1167 29.4105L28.0933 29.5746L28.2417 29.4965ZM26.8823 29.4965L27.0308 29.5902L27.0073 29.4183L27.1323 29.2933L26.9761 29.2621L26.8979 29.1136L26.8198 29.2621L26.6479 29.2777L26.7729 29.4105L26.7339 29.5746L26.8823 29.4965ZM24.5776 27.4886L24.7261 27.5668L24.7104 27.3949L24.8276 27.2855L24.6636 27.2465L24.5854 27.098L24.5151 27.2465L24.3511 27.2699L24.4683 27.3871L24.4292 27.559L24.5776 27.4886ZM24.8667 31.6058L24.9839 31.6761L24.9683 31.5277L25.0776 31.434L24.9292 31.4105L24.8745 31.2777L24.8042 31.4027L24.6636 31.4183L24.7573 31.5199L24.7261 31.6761L24.8667 31.6058ZM21.2026 24.8636L21.5073 25.0355L21.4604 24.6918L21.7104 24.4574L21.3745 24.3949L21.2339 24.0824L21.0698 24.3793L20.7339 24.4261L20.9761 24.6761L20.9058 25.0121L21.2026 24.8636Z" fill="#FFFFEF"/>
<path fill-rule="evenodd" clip-rule="evenodd" d="M33.5854 27.5277C33.7729 27.0433 33.9214 26.5433 34.0229 26.0433C28.937 21.5746 23.2729 19.2933 16.1167 19.7621C15.8589 20.2621 15.6479 20.7933 15.4839 21.3324C23.9604 20.5199 30.1792 24.2699 33.5854 27.5277Z" fill="white"/>
<path fill-rule="evenodd" clip-rule="evenodd" d="M16.4916 20.434C16.4916 20.3246 16.515 20.2465 16.5462 20.1683C16.5697 20.1136 16.6087 20.0668 16.6556 20.0277C16.6869 19.9886 16.7337 19.9574 16.7884 19.934C16.8587 19.9105 16.9369 19.8949 17.015 19.8949C17.1712 19.8949 17.2884 19.9574 17.39 20.0511C17.4369 20.1058 17.4681 20.1683 17.4916 20.2386C17.5072 20.309 17.515 20.3871 17.5072 20.4574C17.5072 20.6215 17.4525 20.7621 17.3587 20.8558C17.3041 20.9027 17.2494 20.9418 17.1869 20.9574C17.1166 20.9808 17.0462 20.9886 16.9837 20.9886C16.9134 20.9886 16.8509 20.973 16.7884 20.9496C16.7259 20.9183 16.6712 20.8871 16.6244 20.8324C16.5306 20.723 16.4837 20.5824 16.4916 20.434ZM31.3042 25.0199L31.4761 25.1215C31.4526 25.1683 31.4448 25.223 31.4604 25.2855C31.4761 25.3402 31.5151 25.3793 31.562 25.4105C31.6167 25.4496 31.6636 25.473 31.7104 25.4652C31.7573 25.4652 31.7886 25.4418 31.812 25.4105C31.8198 25.3871 31.8276 25.3636 31.8276 25.3402C31.8198 25.3168 31.8042 25.2855 31.7886 25.2699C31.7729 25.2465 31.7339 25.1918 31.6714 25.1293C31.6167 25.0668 31.5698 24.9886 31.5386 24.9105C31.5229 24.8402 31.5229 24.7777 31.5542 24.7152C31.5776 24.6527 31.6323 24.6058 31.687 24.5746C31.7417 24.5511 31.8042 24.5511 31.8589 24.559L31.8589 24.559C31.9292 24.5824 31.9995 24.6058 32.0542 24.6527C32.1636 24.7308 32.2261 24.8011 32.2495 24.8949C32.2651 24.934 32.2651 24.9808 32.2573 25.0199C32.2495 25.0668 32.2339 25.1058 32.2104 25.1371L32.0308 25.0277C32.0464 24.9808 32.0542 24.934 32.0386 24.9027C32.0386 24.8636 32.0073 24.8246 31.9526 24.7933C31.9136 24.7621 31.8667 24.7465 31.8198 24.7465C31.8042 24.7386 31.7886 24.7465 31.7808 24.7543C31.7651 24.7621 31.7573 24.7699 31.7495 24.7777C31.7339 24.8011 31.7339 24.8246 31.7417 24.8558C31.7495 24.8871 31.7886 24.9418 31.8589 25.0199C31.937 25.098 31.9839 25.1605 32.0151 25.2074C32.0386 25.2543 32.0542 25.309 32.0464 25.3715C32.0464 25.4261 32.0229 25.4808 31.9917 25.5199C31.9526 25.5746 31.9058 25.6136 31.8511 25.6371C31.7886 25.6605 31.7261 25.6683 31.6636 25.6605C31.6011 25.6449 31.5308 25.6136 31.4604 25.559C31.3433 25.4886 31.2808 25.4027 31.2573 25.309C31.2339 25.2074 31.2495 25.1058 31.2964 25.0121L31.3042 25.0199ZM30.437 24.4496L30.6245 24.5511C30.6011 24.598 30.5933 24.6605 30.6089 24.7152C30.6323 24.7621 30.6636 24.809 30.7183 24.8324C30.7729 24.8715 30.8198 24.8871 30.8667 24.8793C30.9136 24.8793 30.937 24.8558 30.9604 24.8168C30.9761 24.8011 30.9761 24.7777 30.9761 24.7543C30.9761 24.7386 30.9604 24.7074 30.937 24.684L30.9369 24.6838L30.9369 24.6838L30.9369 24.6838L30.9369 24.6838L30.9368 24.6838L30.9368 24.6838L30.9368 24.6837L30.9368 24.6837L30.9367 24.6836C30.8978 24.6369 30.8588 24.5901 30.8198 24.5511C30.7339 24.4652 30.687 24.3949 30.6714 24.3402C30.6558 24.3011 30.6558 24.2621 30.6558 24.2152C30.6636 24.1761 30.6792 24.1371 30.7026 24.1058C30.7261 24.059 30.7729 24.0199 30.8198 23.9965C30.8745 23.973 30.9292 23.9652 30.9839 23.9808C31.0542 23.9886 31.1167 24.0121 31.1792 24.0511C31.2886 24.1293 31.3589 24.1996 31.3823 24.2855C31.3979 24.3246 31.3979 24.3714 31.3979 24.4183V24.4183C31.3901 24.4574 31.3745 24.5043 31.3511 24.5433L31.1636 24.434C31.187 24.3793 31.1948 24.348 31.1792 24.309C31.1636 24.2699 31.1323 24.2308 31.0854 24.1996C31.0386 24.1761 30.9917 24.1605 30.937 24.1605C30.9292 24.1605 30.9136 24.1605 30.9058 24.1683L30.9014 24.1722L30.8962 24.1761C30.8893 24.1814 30.8823 24.1866 30.8823 24.1918C30.8667 24.2152 30.8667 24.2386 30.8745 24.2699C30.8823 24.3011 30.9214 24.3636 30.9995 24.434C31.0776 24.5121 31.1245 24.5668 31.1479 24.6136C31.1792 24.6605 31.1948 24.7152 31.1948 24.7699C31.1948 24.8324 31.1792 24.8871 31.1479 24.934C31.1167 24.9808 31.0698 25.0277 31.0151 25.0511C30.9604 25.0746 30.8979 25.0824 30.8354 25.0746C30.7573 25.059 30.687 25.0277 30.6167 24.9886C30.5229 24.9418 30.4448 24.8558 30.4058 24.7465C30.3745 24.6527 30.3901 24.5433 30.437 24.4496ZM29.3745 24.1683L29.9214 23.2621L30.5776 23.6761L30.4917 23.8246L30.0073 23.5277L29.8901 23.7308L30.3433 24.0043L30.2417 24.1605L29.7886 23.8793L29.6401 24.1293L30.1479 24.4261L30.0542 24.5746L29.3823 24.1683H29.3745ZM27.8198 22.8871L27.9058 22.7386L28.3042 22.9418L28.1167 23.3168C28.062 23.3324 27.9839 23.3402 27.8979 23.3324C27.812 23.3246 27.7261 23.3011 27.6479 23.2543C27.5542 23.2152 27.4761 23.1449 27.4214 23.059C27.3745 22.9886 27.3433 22.8949 27.3511 22.8011C27.3511 22.6996 27.3745 22.6058 27.4214 22.5199C27.4683 22.434 27.5308 22.3558 27.6167 22.3011C27.6948 22.2465 27.7886 22.2152 27.8901 22.2152C27.9604 22.2152 28.0386 22.2386 28.1245 22.2933C28.2495 22.3402 28.3198 22.4183 28.3589 22.4965C28.3979 22.5824 28.4058 22.6761 28.3823 22.7621L28.1792 22.6996C28.1948 22.6527 28.187 22.598 28.1636 22.5511C28.1401 22.5043 28.1011 22.4808 28.0464 22.4496C28.0073 22.4261 27.9683 22.4183 27.9292 22.4105C27.8901 22.4105 27.8511 22.4105 27.812 22.4261C27.7339 22.4496 27.6714 22.5121 27.6167 22.6215C27.562 22.723 27.5386 22.8246 27.562 22.9027C27.5776 22.9418 27.5933 22.9808 27.6167 23.0121C27.6479 23.0433 27.6792 23.0668 27.7183 23.0824C27.7495 23.1058 27.7964 23.1215 27.8433 23.1215C27.8901 23.1293 27.9292 23.1293 27.9761 23.1215L28.0386 23.0043L27.8198 22.8871ZM21.0542 21.2152L21.2026 20.1683L21.5229 20.223L21.6011 20.9574L21.8979 20.2777L22.2104 20.3246L22.062 21.3636L21.8589 21.3324L21.9839 20.5121L21.6558 21.3011L21.4526 21.2699L21.3667 20.4261L21.2495 21.2465L21.0542 21.2152ZM19.9995 21.0902L20.0933 20.0433L20.8667 20.1136L20.8511 20.2933L20.2886 20.2465L20.2651 20.4652L20.7886 20.5199L20.7729 20.6996L20.2417 20.6449L20.2261 20.934L20.8042 20.9886L20.7886 21.1683L19.9995 21.0902ZM17.7495 19.9261L17.7339 20.9808H17.9526V20.5433H17.9917C18.0251 20.5433 18.0527 20.549 18.0844 20.5556L18.0844 20.5556L18.1011 20.559C18.1245 20.5668 18.1479 20.5824 18.1636 20.6058L18.2729 20.7543L18.4214 20.9965H18.6792L18.5464 20.7855C18.5073 20.6996 18.4683 20.6371 18.437 20.6136L18.3276 20.5199C18.3979 20.5121 18.4683 20.4808 18.5308 20.434C18.5776 20.3793 18.6011 20.309 18.6011 20.2386C18.6011 20.1683 18.5854 20.1058 18.5542 20.059C18.5308 20.0199 18.4917 19.9808 18.437 19.9652C18.3823 19.9418 18.312 19.9261 18.1948 19.9261H17.7495ZM18.9292 19.9808L19.3198 20.0043C19.4058 20.0043 19.4761 20.0121 19.5151 20.0277C19.5776 20.0433 19.6245 20.0824 19.6636 20.1293C19.7104 20.184 19.7417 20.2465 19.7573 20.309C19.7808 20.3793 19.7886 20.4574 19.7808 20.559C19.7808 20.6371 19.7651 20.7074 19.7417 20.7855C19.7104 20.8558 19.6636 20.9183 19.6167 20.9652C19.5698 20.9965 19.5229 21.0277 19.4683 21.0355C19.4214 21.0511 19.3511 21.0511 19.2808 21.0511L18.8823 21.0277L18.9292 19.9808ZM24.3276 20.8324L24.0776 21.8558L24.2886 21.9105L24.3745 21.5199L24.5073 21.559L24.5638 21.5686C24.6323 21.5804 24.689 21.5902 24.7261 21.5902C24.7729 21.5902 24.812 21.5824 24.8511 21.5668L24.8511 21.5668C24.8902 21.5433 24.9292 21.5199 24.9526 21.4886C24.9917 21.4496 25.0151 21.3949 25.0308 21.3402C25.0464 21.2543 25.0464 21.184 25.0151 21.1293C24.9917 21.059 24.9448 21.0121 24.8979 20.9886L24.6558 20.9105L24.3276 20.8324ZM25.0542 22.1449L25.4058 21.1605L25.8198 21.309C25.9292 21.348 25.9995 21.3793 26.0386 21.4105C26.0776 21.4496 26.1089 21.4886 26.1167 21.5511C26.1245 21.6058 26.1323 21.6605 26.1167 21.723C26.0854 21.7933 26.0386 21.848 25.9839 21.8871C25.9214 21.9183 25.8511 21.9261 25.7573 21.9105C25.7886 21.9418 25.8198 21.9808 25.8354 22.0277L25.8901 22.2308L25.937 22.4652L25.7026 22.3793L25.6323 22.1136C25.6167 22.0511 25.6011 21.9886 25.5776 21.934C25.5698 21.9105 25.5542 21.8871 25.5308 21.8715C25.5151 21.848 25.4839 21.8324 25.437 21.8168L25.3979 21.8011L25.2495 22.223L25.0542 22.1449ZM26.4136 21.8715C26.3511 21.9418 26.3121 22.0199 26.2808 22.1136C26.2574 22.1761 26.2418 22.2465 26.2496 22.3246C26.2496 22.3949 26.2652 22.4652 26.2965 22.5277C26.3277 22.5902 26.3746 22.6449 26.4293 22.684C26.484 22.7308 26.5465 22.7621 26.609 22.7777C26.7574 22.8246 26.8902 22.8168 26.9996 22.7465C27.1324 22.6761 27.2183 22.5511 27.2574 22.4105C27.3043 22.2465 27.3043 22.1058 27.2418 21.9808C27.2105 21.9183 27.1637 21.8715 27.109 21.8246C27.0543 21.7855 26.9918 21.7543 26.9293 21.7386C26.8433 21.7074 26.773 21.7074 26.6949 21.7074C26.6402 21.7152 26.5933 21.7308 26.5465 21.7543C26.4918 21.7855 26.4449 21.8246 26.4136 21.8715ZM28.3276 23.5746L28.812 22.6449L29.2104 22.848C29.2808 22.8793 29.3511 22.9261 29.4136 22.9886C29.4448 23.0277 29.4683 23.0668 29.4683 23.1293C29.4683 23.1918 29.4683 23.2465 29.437 23.2933C29.4136 23.3636 29.3589 23.4183 29.2886 23.4418C29.2183 23.4574 29.1401 23.4574 29.0542 23.434C29.0811 23.4675 29.0964 23.5069 29.1101 23.5421L29.1101 23.5421L29.1167 23.559C29.1323 23.6058 29.1401 23.6683 29.1479 23.7699L29.1636 24.0043L28.937 23.8949L28.9058 23.6215C28.9058 23.5511 28.8979 23.4886 28.8823 23.434C28.8823 23.4027 28.8667 23.3793 28.8511 23.3558L28.7573 23.3011L28.7183 23.2777L28.5151 23.6683L28.3276 23.5746ZM32.4056 25.3011C32.3274 25.348 32.2649 25.4183 32.2181 25.4965C32.1243 25.6293 32.0853 25.7621 32.1087 25.8949C32.1243 25.9652 32.1478 26.0277 32.1868 26.0902C32.2259 26.1449 32.2728 26.1918 32.3353 26.2308C32.3899 26.2699 32.4524 26.2933 32.5228 26.309C32.5853 26.3246 32.6556 26.3246 32.7259 26.309C32.8665 26.2777 32.9837 26.184 33.0618 26.059C33.1556 25.9183 33.1868 25.7777 33.1634 25.6527C33.1556 25.5824 33.1243 25.5199 33.0931 25.4652C33.054 25.4027 32.9993 25.3558 32.9446 25.3168C32.8743 25.2777 32.804 25.2465 32.7337 25.2308C32.679 25.2152 32.6243 25.2152 32.5696 25.2308C32.5071 25.2386 32.4524 25.2621 32.4056 25.3011ZM22.8901 21.4261L23.062 20.6918L23.6011 20.8168L23.5854 20.9418L23.187 20.848L23.1479 21.0121L23.5151 21.098L23.4839 21.223L23.1167 21.1371L23.0698 21.3402L23.4839 21.434L23.4526 21.559L22.8901 21.4261ZM16.7104 20.434C16.7104 20.5511 16.7339 20.6371 16.7886 20.7074C16.8433 20.7699 16.9058 20.809 16.9995 20.809C17.0386 20.809 17.0776 20.8011 17.1089 20.7855C17.148 20.7699 17.1792 20.7543 17.2104 20.723C17.2573 20.6605 17.2808 20.5746 17.2886 20.4418C17.2886 20.3246 17.2729 20.2386 17.2183 20.1761C17.187 20.1449 17.1558 20.1215 17.1245 20.1058C17.0933 20.0902 17.0542 20.0746 17.0151 20.0746C16.9761 20.0746 16.937 20.0824 16.8979 20.098C16.8589 20.1136 16.8276 20.1371 16.8042 20.1683C16.7417 20.2308 16.7183 20.3168 16.7104 20.434ZM17.9604 20.3793H18.1089C18.2104 20.3793 18.2808 20.3793 18.3042 20.3636C18.3276 20.3636 18.3511 20.3402 18.3589 20.3246C18.3745 20.309 18.3823 20.2699 18.3823 20.2465C18.3823 20.2074 18.3745 20.1761 18.3511 20.1605C18.3433 20.1371 18.312 20.1215 18.2808 20.1136H18.1323L17.9604 20.1058V20.3793ZM19.1011 20.8636L19.1323 20.1683H19.2339C19.2886 20.1683 19.3511 20.1761 19.4058 20.1918C19.437 20.1996 19.4683 20.2152 19.4917 20.2465C19.5229 20.2699 19.5464 20.309 19.5542 20.348L19.562 20.5355C19.562 20.6215 19.5464 20.684 19.5308 20.7308C19.5151 20.7777 19.4917 20.809 19.4761 20.8246C19.4526 20.848 19.4214 20.8636 19.3823 20.8636H19.1011ZM24.4839 21.059L24.4214 21.348L24.5386 21.3715L24.5587 21.376C24.6207 21.3899 24.6744 21.402 24.7026 21.3949C24.7261 21.3949 24.7573 21.3793 24.7808 21.3636C24.7964 21.3402 24.812 21.3168 24.8198 21.2855C24.8198 21.2465 24.8198 21.2152 24.8042 21.184C24.7886 21.1605 24.7651 21.1371 24.7261 21.1215L24.5854 21.0824L24.4917 21.059H24.4839ZM25.6011 21.6996L25.4604 21.6449H25.4526L25.5386 21.3949L25.687 21.4496L25.8433 21.5043C25.8667 21.5199 25.8901 21.5433 25.8979 21.5668C25.9136 21.598 25.9136 21.6293 25.8979 21.6605C25.8901 21.6918 25.8745 21.7152 25.8511 21.7308C25.8354 21.7465 25.812 21.7465 25.7886 21.7465C25.7573 21.7465 25.6948 21.7386 25.6011 21.6996ZM26.4918 22.1685C26.4605 22.2857 26.4527 22.3794 26.4918 22.4575C26.5308 22.5278 26.5855 22.5747 26.6637 22.606C26.7418 22.6294 26.8121 22.6216 26.8902 22.5747C26.9683 22.5357 27.0074 22.4575 27.0465 22.3325C27.0855 22.2232 27.0855 22.1294 27.0465 22.0591C27.0308 22.02 27.0074 21.9888 26.984 21.9653C26.9527 21.9419 26.9215 21.9185 26.8824 21.9107C26.8433 21.895 26.8043 21.8872 26.7652 21.895C26.7262 21.895 26.6949 21.9107 26.6558 21.9341C26.5855 21.9732 26.5308 22.0513 26.4918 22.1685ZM28.937 23.2074L28.7964 23.1293L28.9136 22.8871L29.0621 22.9652C29.1089 22.9887 29.1558 23.0121 29.2026 23.0433C29.2261 23.059 29.2417 23.0824 29.2495 23.1136C29.2573 23.1449 29.2495 23.1761 29.2339 23.2074C29.2261 23.2386 29.2104 23.2543 29.187 23.2621C29.1636 23.2777 29.1323 23.2777 29.1089 23.2777C29.0941 23.2777 29.067 23.2653 29.0255 23.2464L29.0255 23.2464L29.0251 23.2462C29.0008 23.2351 28.9716 23.2218 28.937 23.2074ZM32.4054 25.6137C32.3273 25.7074 32.3039 25.8012 32.3195 25.8793C32.3273 25.9183 32.3351 25.9574 32.3586 25.9887C32.382 26.0199 32.4054 26.0512 32.4367 26.0668C32.5148 26.1215 32.5929 26.1371 32.6633 26.1137C32.7414 26.0902 32.8117 26.0433 32.882 25.934C32.9523 25.8324 32.9758 25.7387 32.9679 25.6683C32.9601 25.5902 32.9133 25.5199 32.8429 25.473C32.7804 25.4183 32.6945 25.4105 32.6164 25.434C32.5461 25.4496 32.4679 25.5043 32.3976 25.6137H32.4054Z" fill="#309E3A"/>
<path fill-rule="evenodd" clip-rule="evenodd" d="M24.2573 46.6902C36.739 46.6902 46.8573 36.5718 46.8573 24.0902C46.8573 11.6086 36.739 1.49021 24.2573 1.49021C11.7757 1.49021 1.65732 11.6086 1.65732 24.0902C1.65732 36.5718 11.7757 46.6902 24.2573 46.6902ZM24.2573 48.0902C37.5122 48.0902 48.2573 37.345 48.2573 24.0902C48.2573 10.8354 37.5122 0.09021 24.2573 0.09021C11.0025 0.09021 0.257324 10.8354 0.257324 24.0902C0.257324 37.345 11.0025 48.0902 24.2573 48.0902Z" fill="#D9D9D9"/>
</g>
<defs>
<clipPath id="clip0_4012_198435">
<rect x="0.257324" y="0.09021" width="48" height="48" fill="white"/>
</clipPath>
</defs>
</svg>
