<svg width="49" height="49" viewBox="0 0 49 49" fill="none" xmlns="http://www.w3.org/2000/svg">
<g clip-path="url(#clip0_4012_198446)">
<path fill-rule="evenodd" clip-rule="evenodd" d="M48.9897 24.0902C48.9897 10.8354 38.2446 0.09021 24.9897 0.09021C22.9176 0.09021 20.9068 0.352817 18.9888 0.846566V24.0902H48.9897Z" fill="white"/>
<path fill-rule="evenodd" clip-rule="evenodd" d="M18.9888 0.846558V24.0902H0.989746C0.989746 12.9075 8.6379 3.51115 18.9888 0.846558Z" fill="#0039A6"/>
<path fill-rule="evenodd" clip-rule="evenodd" d="M12.7872 19.5691L10.0028 17.4808L7.22549 19.5902L8.25908 16.159L5.48877 14.0426L8.91299 14.0074L9.97471 10.5902L11.0646 14.0004L14.4888 14.0074L11.7325 16.1449L12.7872 19.5691Z" fill="white"/>
<path fill-rule="evenodd" clip-rule="evenodd" d="M24.9897 48.0902C38.2446 48.0902 48.9897 37.345 48.9897 24.0902H0.989746C0.989746 37.345 11.7349 48.0902 24.9897 48.0902Z" fill="#D52B1E"/>
<path fill-rule="evenodd" clip-rule="evenodd" d="M24.9897 46.6902C37.4714 46.6902 47.5897 36.5718 47.5897 24.0902C47.5897 11.6086 37.4714 1.49021 24.9897 1.49021C12.5081 1.49021 2.38975 11.6086 2.38975 24.0902C2.38975 36.5718 12.5081 46.6902 24.9897 46.6902ZM24.9897 48.0902C38.2446 48.0902 48.9897 37.345 48.9897 24.0902C48.9897 10.8354 38.2446 0.09021 24.9897 0.09021C11.7349 0.09021 0.989746 10.8354 0.989746 24.0902C0.989746 37.345 11.7349 48.0902 24.9897 48.0902Z" fill="#D9D9D9"/>
</g>
<defs>
<clipPath id="clip0_4012_198446">
<rect x="0.989746" y="0.09021" width="48" height="48" fill="white"/>
</clipPath>
</defs>
</svg>
