<svg width="49" height="49" viewBox="0 0 49 49" fill="none" xmlns="http://www.w3.org/2000/svg">
<g clip-path="url(#clip0_4012_198455)">
<path fill-rule="evenodd" clip-rule="evenodd" d="M40.5976 42.0902C45.5801 37.6925 48.7227 31.2584 48.7227 24.0902C48.7227 10.8354 37.9775 0.09021 24.7227 0.09021C11.4678 0.09021 0.722656 10.8354 0.722656 24.0902C0.722656 31.2584 3.86519 37.6925 8.84771 42.0902H40.5976Z" fill="#FFE800"/>
<path fill-rule="evenodd" clip-rule="evenodd" d="M40.5976 42.0902C45.5801 37.6925 48.7227 31.2584 48.7227 24.0902H0.722656C0.722656 31.2584 3.86519 37.6925 8.84771 42.0902H40.5976Z" fill="#00148E"/>
<path fill-rule="evenodd" clip-rule="evenodd" d="M46.9782 33.0902C43.4179 41.8857 34.7949 48.0902 24.7227 48.0902C14.6506 48.0902 6.02761 41.8857 2.46729 33.0902H46.9782Z" fill="#DA0010"/>
<path fill-rule="evenodd" clip-rule="evenodd" d="M24.7227 46.6902C37.2043 46.6902 47.3227 36.5718 47.3227 24.0902C47.3227 11.6086 37.2043 1.49021 24.7227 1.49021C12.241 1.49021 2.12266 11.6086 2.12266 24.0902C2.12266 36.5718 12.241 46.6902 24.7227 46.6902ZM24.7227 48.0902C37.9775 48.0902 48.7227 37.345 48.7227 24.0902C48.7227 10.8354 37.9775 0.09021 24.7227 0.09021C11.4678 0.09021 0.722656 10.8354 0.722656 24.0902C0.722656 37.345 11.4678 48.0902 24.7227 48.0902Z" fill="#D9D9D9"/>
</g>
<defs>
<clipPath id="clip0_4012_198455">
<rect x="0.722656" y="0.09021" width="48" height="48" fill="white"/>
</clipPath>
</defs>
</svg>
